<?xml version="1.0" encoding="utf-8"?>
<!-- Generator: Adobe Illustrator 16.2.0, SVG Export Plug-In . SVG Version: 6.00 Build 0)  -->
<!DOCTYPE svg PUBLIC "-//W3C//DTD SVG 1.1//EN" "http://www.w3.org/Graphics/SVG/1.1/DTD/svg11.dtd">
<svg version="1.1" id="Layer_1" xmlns="http://www.w3.org/2000/svg" xmlns:xlink="http://www.w3.org/1999/xlink" x="0px" y="0px"
	 width="30px" height="30px" viewBox="0 0 30 30" enable-background="new 0 0 30 30" xml:space="preserve">
<g>
	<path d="M27.276,4.539c-0.081-0.023-2-0.567-4.466-0.567c-3.254,0-5.928,0.946-7.81,2.749c-1.882-1.803-4.556-2.749-7.81-2.749
		c-2.466,0-4.386,0.543-4.466,0.567C2.295,4.662,2,5.054,2,5.5v17c0,0.318,0.151,0.616,0.407,0.805
		c0.255,0.188,0.586,0.243,0.89,0.15c0.019-0.006,1.899-0.58,4.203-0.58c2.999,0,5.259,0.925,6.719,2.75
		C14.409,25.862,14.696,26,15,26s0.591-0.138,0.781-0.375c1.46-1.824,3.72-2.75,6.719-2.75c2.304,0,4.184,0.574,4.203,0.58
		c0.303,0.093,0.634,0.038,0.89-0.15C27.849,23.116,28,22.818,28,22.5v-17C28,5.054,27.705,4.662,27.276,4.539z M7.5,20.875
		c-1.389,0-2.628,0.181-3.5,0.354V6.294c0.707-0.142,1.866-0.322,3.19-0.322c3.008,0,5.291,0.885,6.81,2.612v14.134
		C12.282,21.512,10.082,20.875,7.5,20.875z M26,21.229c-0.872-0.174-2.111-0.354-3.5-0.354c-2.582,0-4.782,0.637-6.5,1.844V8.584
		c1.52-1.727,3.802-2.612,6.81-2.612c1.324,0,2.483,0.18,3.19,0.322V21.229z" fill="#839e2e"/>
</g>
</svg>
