<?xml version="1.0" encoding="utf-8"?>
<!-- Generator: Adobe Illustrator 16.2.0, SVG Export Plug-In . SVG Version: 6.00 Build 0)  -->
<!DOCTYPE svg PUBLIC "-//W3C//DTD SVG 1.1//EN" "http://www.w3.org/Graphics/SVG/1.1/DTD/svg11.dtd">
<svg version="1.1" id="Layer_1" xmlns="http://www.w3.org/2000/svg" xmlns:xlink="http://www.w3.org/1999/xlink" x="0px" y="0px"
	 width="30px" height="30px" viewBox="0 0 30 30" enable-background="new 0 0 30 30" xml:space="preserve">
<g>
	<path d="M15,27c-0.572,0-1.157-0.049-1.843-0.154c-0.419-0.064-0.752-0.385-0.831-0.801l-0.438-2.301
		c-0.299-0.106-0.59-0.226-0.871-0.358l-1.936,1.316c-0.35,0.238-0.812,0.23-1.153-0.02c-0.999-0.731-1.875-1.607-2.603-2.603
		c-0.25-0.341-0.258-0.802-0.021-1.152l1.314-1.935c-0.137-0.287-0.258-0.582-0.364-0.883l-2.3-0.438
		c-0.416-0.08-0.736-0.412-0.801-0.831C3.049,16.153,3,15.567,3,15c0-0.563,0.049-1.147,0.154-1.837
		c0.063-0.419,0.385-0.752,0.801-0.832l2.299-0.438c0.106-0.301,0.229-0.596,0.364-0.882L5.303,9.077
		c-0.237-0.35-0.229-0.811,0.021-1.152c0.728-0.996,1.603-1.871,2.6-2.601c0.341-0.25,0.803-0.258,1.153-0.021l1.934,1.315
		c0.284-0.135,0.578-0.256,0.879-0.362l0.438-2.3c0.079-0.416,0.412-0.737,0.83-0.801c1.356-0.209,2.352-0.207,3.682,0
		c0.417,0.065,0.749,0.386,0.828,0.801l0.438,2.298c0.304,0.108,0.601,0.23,0.89,0.368l1.933-1.315
		c0.35-0.238,0.812-0.23,1.153,0.02c0.992,0.726,1.867,1.602,2.601,2.603c0.25,0.341,0.258,0.803,0.021,1.153l-1.316,1.936
		c0.135,0.285,0.256,0.578,0.361,0.877l2.298,0.438c0.416,0.08,0.737,0.413,0.801,0.832C26.951,13.853,27,14.436,27,15
		c0,0.567-0.049,1.152-0.155,1.84c-0.064,0.418-0.386,0.751-0.802,0.831l-2.298,0.438c-0.105,0.301-0.227,0.594-0.362,0.879
		l1.315,1.935c0.237,0.35,0.229,0.811-0.02,1.152c-0.729,0.997-1.605,1.874-2.606,2.605c-0.341,0.25-0.804,0.257-1.152,0.02
		l-1.934-1.315c-0.285,0.135-0.579,0.256-0.88,0.362l-0.438,2.299c-0.079,0.416-0.411,0.736-0.828,0.801
		C16.173,26.949,15.571,27,15,27z M14.155,24.958c0.593,0.058,1.093,0.058,1.684,0l0.414-2.172
		c0.071-0.373,0.348-0.673,0.713-0.776c0.565-0.159,1.104-0.38,1.601-0.66c0.331-0.187,0.739-0.168,1.053,0.045l1.821,1.239
		c0.432-0.364,0.83-0.762,1.192-1.192l-1.238-1.822c-0.214-0.314-0.23-0.722-0.044-1.053c0.278-0.495,0.501-1.033,0.659-1.599
		c0.103-0.366,0.403-0.642,0.776-0.713l2.171-0.413C24.986,15.543,25,15.268,25,15c0-0.266-0.014-0.541-0.043-0.838l-2.171-0.414
		c-0.373-0.071-0.674-0.348-0.775-0.714c-0.157-0.563-0.379-1.1-0.658-1.597c-0.186-0.331-0.168-0.738,0.045-1.052l1.239-1.823
		c-0.363-0.431-0.761-0.829-1.188-1.191L19.627,8.61c-0.314,0.214-0.723,0.231-1.055,0.044c-0.498-0.282-1.039-0.505-1.607-0.665
		c-0.366-0.103-0.642-0.403-0.713-0.775l-0.414-2.171c-0.593-0.058-1.093-0.058-1.682,0l-0.414,2.173
		c-0.071,0.373-0.347,0.673-0.711,0.775c-0.569,0.16-1.107,0.382-1.602,0.66c-0.33,0.187-0.739,0.168-1.053-0.044l-1.82-1.238
		c-0.43,0.363-0.827,0.76-1.188,1.189l1.238,1.822c0.213,0.314,0.23,0.722,0.044,1.052c-0.279,0.498-0.502,1.037-0.661,1.603
		c-0.103,0.365-0.403,0.641-0.775,0.712L5.043,14.16C5.014,14.458,5,14.734,5,15c0,0.268,0.014,0.544,0.043,0.843l2.173,0.414
		c0.373,0.071,0.673,0.348,0.775,0.713c0.157,0.563,0.38,1.102,0.661,1.603c0.187,0.331,0.169,0.738-0.044,1.052l-1.237,1.822
		c0.362,0.429,0.761,0.827,1.19,1.19l1.823-1.24c0.313-0.213,0.722-0.231,1.054-0.044c0.486,0.274,1.022,0.496,1.594,0.657
		c0.364,0.103,0.64,0.403,0.71,0.775L14.155,24.958z" fill="#9fc816"/>
	<path d="M15,19.001c-2.206,0-4-1.795-4-4.001s1.794-4.001,4-4.001s4,1.795,4,4.001S17.206,19.001,15,19.001z M15,12.999
		c-1.103,0-2,0.897-2,2.001s0.897,2.001,2,2.001s2-0.897,2-2.001S16.103,12.999,15,12.999z" fill="#9fc816"/>
</g>
</svg>
