<?xml version="1.0" encoding="utf-8"?>
<!-- Generator: Adobe Illustrator 16.2.0, SVG Export Plug-In . SVG Version: 6.00 Build 0)  -->
<!DOCTYPE svg PUBLIC "-//W3C//DTD SVG 1.1//EN" "http://www.w3.org/Graphics/SVG/1.1/DTD/svg11.dtd">
<svg version="1.1" id="Layer_1" xmlns="http://www.w3.org/2000/svg" xmlns:xlink="http://www.w3.org/1999/xlink" x="0px" y="0px"
	 width="30px" height="30px" viewBox="0 0 30 30" enable-background="new 0 0 30 30" xml:space="preserve">
<g>
	<path d="M25,4h-8c-0.553,0-1,0.448-1,1v8c0,0.552,0.447,1,1,1h8c0.553,0,1-0.448,1-1V5C26,4.448,25.553,4,25,4z M24,12h-6V6h6V12z"
		/>
	<path d="M21,16h-7V9c0-0.552-0.447-1-1-1H5C4.447,8,4,8.448,4,9v16c0,0.552,0.447,1,1,1h16c0.553,0,1-0.448,1-1v-8
		C22,16.448,21.553,16,21,16z M12,24H6v-6h6V24z M12,16H6v-6h6V16z M20,24h-6v-6h6V24z"/>
</g>
</svg>
