<?xml version="1.0" encoding="utf-8"?>
<!-- Generator: Adobe Illustrator 16.2.0, SVG Export Plug-In . SVG Version: 6.00 Build 0)  -->
<!DOCTYPE svg PUBLIC "-//W3C//DTD SVG 1.1//EN" "http://www.w3.org/Graphics/SVG/1.1/DTD/svg11.dtd">
<svg version="1.1" id="Layer_1" xmlns="http://www.w3.org/2000/svg" xmlns:xlink="http://www.w3.org/1999/xlink" x="0px" y="0px"
	 width="30px" height="30px" viewBox="0 0 30 30" enable-background="new 0 0 30 30" xml:space="preserve">
<g>
	<path d="M26,25H4c-0.552,0-1-0.448-1-1V6c0-0.552,0.448-1,1-1h22c0.552,0,1,0.448,1,1v18C27,24.552,26.552,25,26,25z M5,23h20V7H5
		V23z" fill="#9fc816"/>
	<path d="M10,10H8c-0.552,0-1-0.448-1-1s0.448-1,1-1h2c0.552,0,1,0.448,1,1S10.552,10,10,10z" fill="#9fc816"/>
	<path d="M16,10h-2c-0.552,0-1-0.448-1-1s0.448-1,1-1h2c0.552,0,1,0.448,1,1S16.552,10,16,10z" fill="#9fc816"/>
	<path d="M22,10h-2c-0.552,0-1-0.448-1-1s0.448-1,1-1h2c0.552,0,1,0.448,1,1S22.552,10,22,10z" fill="#9fc816"/>
	<path d="M10,22H8c-0.552,0-1-0.448-1-1s0.448-1,1-1h2c0.552,0,1,0.448,1,1S10.552,22,10,22z" fill="#9fc816"/>
	<path d="M16,22h-2c-0.552,0-1-0.448-1-1s0.448-1,1-1h2c0.552,0,1,0.448,1,1S16.552,22,16,22z" fill="#9fc816"/>
	<path d="M22,22h-2c-0.552,0-1-0.448-1-1s0.448-1,1-1h2c0.552,0,1,0.448,1,1S22.552,22,22,22z" fill="#9fc816"/>
</g>
</svg>
