<?xml version="1.0" encoding="utf-8"?>
<!-- Generator: Adobe Illustrator 16.2.0, SVG Export Plug-In . SVG Version: 6.00 Build 0)  -->
<!DOCTYPE svg PUBLIC "-//W3C//DTD SVG 1.1//EN" "http://www.w3.org/Graphics/SVG/1.1/DTD/svg11.dtd">
<svg version="1.1" id="Layer_1" xmlns="http://www.w3.org/2000/svg" xmlns:xlink="http://www.w3.org/1999/xlink" x="0px" y="0px"
	 width="30px" height="30px" viewBox="0 0 30 30" enable-background="new 0 0 30 30" xml:space="preserve">
<g>
	<path d="M26.696,4.07c-0.083-0.384-0.383-0.684-0.767-0.767c-0.14-0.03-7.919-1.688-12.664,3.058
		c-1.288,1.289-2.371,2.952-3.255,4.641C10.007,11.002,10.004,11,10,11H6c-0.446,0-0.839,0.296-0.962,0.725l-2,7
		c-0.086,0.302-0.025,0.626,0.163,0.877C3.391,19.853,3.687,20,4,20h3.533L10,22.467V26c0,0.314,0.147,0.609,0.397,0.798
		C10.573,26.931,10.785,27,11,27c0.092,0,0.185-0.013,0.274-0.039l7-2C18.704,24.839,19,24.446,19,24v-4
		c0-0.004-0.002-0.007-0.002-0.011c1.689-0.883,3.353-1.966,4.641-3.255C28.346,12.028,26.766,4.393,26.696,4.07z M6.754,13h2.302
		c-0.911,2.078-1.507,3.968-1.805,5H5.326L6.754,13z M17,23.246l-5,1.429v-1.926c1.032-0.297,2.922-0.893,5-1.804V23.246z
		 M11.244,20.883l-2.127-2.127c0.519-1.824,2.404-7.822,5.563-10.98c3.223-3.223,8.351-2.87,10.167-2.625
		c0.242,1.816,0.587,6.961-2.622,10.169C19.066,18.479,13.068,20.364,11.244,20.883z"/>
	<path d="M19,7c-2.206,0-4,1.794-4,4s1.794,4,4,4s4-1.794,4-4S21.206,7,19,7z M19,13c-1.103,0-2-0.897-2-2s0.897-2,2-2s2,0.897,2,2
		S20.103,13,19,13z"/>
</g>
</svg>
