<?xml version="1.0" encoding="utf-8"?>
<!-- Generator: Adobe Illustrator 16.2.0, SVG Export Plug-In . SVG Version: 6.00 Build 0)  -->
<!DOCTYPE svg PUBLIC "-//W3C//DTD SVG 1.1//EN" "http://www.w3.org/Graphics/SVG/1.1/DTD/svg11.dtd">
<svg version="1.1" id="Layer_1" xmlns="http://www.w3.org/2000/svg" xmlns:xlink="http://www.w3.org/1999/xlink" x="0px" y="0px"
	 width="30px" height="30px" viewBox="0 0 30 30" enable-background="new 0 0 30 30" xml:space="preserve">
<g>
	<path d="M15,16c-2.206,0-4-1.794-4-4s1.794-4,4-4s4,1.794,4,4S17.206,16,15,16z M15,10c-1.103,0-2,0.897-2,2s0.897,2,2,2
		s2-0.897,2-2S16.103,10,15,10z" fill="#839e2e"/>
	<path d="M15,27c-0.235,0-0.47-0.083-0.659-0.248C14.001,26.455,6,19.369,6,12c0-4.962,4.038-9,9-9s9,4.038,9,9
		c0,7.369-8.001,14.455-8.341,14.752C15.47,26.917,15.235,27,15,27z M15,5c-3.86,0-7,3.14-7,7c0,5.319,5.143,10.816,7,12.628
		c1.857-1.812,7-7.31,7-12.628C22,8.14,18.86,5,15,5z" fill="#839e2e"/>
</g>
</svg>
