<?xml version="1.0" encoding="utf-8"?>
<!-- Generator: Adobe Illustrator 16.2.0, SVG Export Plug-In . SVG Version: 6.00 Build 0)  -->
<!DOCTYPE svg PUBLIC "-//W3C//DTD SVG 1.1//EN" "http://www.w3.org/Graphics/SVG/1.1/DTD/svg11.dtd">
<svg version="1.1" id="Layer_1" xmlns="http://www.w3.org/2000/svg" xmlns:xlink="http://www.w3.org/1999/xlink" x="0px" y="0px"
	 width="30px" height="30px" viewBox="0 0 30 30" enable-background="new 0 0 30 30" xml:space="preserve">
<g>
	<path d="M24.646,4.237c-0.225-0.19-0.521-0.273-0.811-0.223l-12,2C11.354,6.094,11,6.511,11,7v11.557C10.409,18.212,9.732,18,9,18
		c-2.206,0-4,1.794-4,4s1.794,4,4,4s4-1.794,4-4V11.847l10-1.667v6.376C22.409,16.212,21.732,16,21,16c-2.206,0-4,1.794-4,4
		s1.794,4,4,4s4-1.794,4-4V5C25,4.706,24.871,4.427,24.646,4.237z M9,24c-1.103,0-2-0.897-2-2s0.897-2,2-2s2,0.897,2,2
		S10.103,24,9,24z M13,9.819V7.847l10-1.667v1.972L13,9.819z M21,22c-1.103,0-2-0.897-2-2s0.897-2,2-2s2,0.897,2,2S22.103,22,21,22z"
		/>
</g>
</svg>
