<?xml version="1.0" encoding="utf-8"?>
<!-- Generator: Adobe Illustrator 16.2.0, SVG Export Plug-In . SVG Version: 6.00 Build 0)  -->
<!DOCTYPE svg PUBLIC "-//W3C//DTD SVG 1.1//EN" "http://www.w3.org/Graphics/SVG/1.1/DTD/svg11.dtd">
<svg version="1.1" id="Layer_1" xmlns="http://www.w3.org/2000/svg" xmlns:xlink="http://www.w3.org/1999/xlink" x="0px" y="0px"
	 width="30px" height="30px" viewBox="0 0 30 30" enable-background="new 0 0 30 30" xml:space="preserve">
<g>
	<path d="M26.78,7.375C26.59,7.138,26.304,7,26,7H8.02L7.982,6.816C7.735,5.496,6.585,3,4,3H3C2.447,3,2,3.448,2,4s0.447,1,1,1h1
		c1.568,0,2,2.099,2.02,2.196l1.956,9.779L7.03,20.757c-0.075,0.299-0.008,0.615,0.182,0.858S7.692,22,8,22h15c0.553,0,1-0.448,1-1
		s-0.447-1-1-1H9.281l0.499-2H24c0.469,0,0.875-0.326,0.977-0.783l2-9C27.042,7.921,26.97,7.611,26.78,7.375z M23.198,16H9.819
		l-1.4-7h16.334L23.198,16z" fill="#839e2e"/>
	<circle cx="9.5" cy="24.5" r="1.5" fill="#839e2e"/>
	<circle cx="21.5" cy="24.5" r="1.5" fill="#839e2e"/>
</g>
</svg>
