<?xml version="1.0" encoding="utf-8"?>
<!-- Generator: Adobe Illustrator 16.2.0, SVG Export Plug-In . SVG Version: 6.00 Build 0)  -->
<!DOCTYPE svg PUBLIC "-//W3C//DTD SVG 1.1//EN" "http://www.w3.org/Graphics/SVG/1.1/DTD/svg11.dtd">
<svg version="1.1" id="Layer_1" xmlns="http://www.w3.org/2000/svg" xmlns:xlink="http://www.w3.org/1999/xlink" x="0px" y="0px"
	 width="30px" height="30px" viewBox="0 0 30 30" enable-background="new 0 0 30 30" xml:space="preserve">
<g>
	<path d="M9.5,16c2.481,0,4.5-2.019,4.5-4.5S11.981,7,9.5,7S5,9.019,5,11.5S7.019,16,9.5,16z M9.5,9c1.379,0,2.5,1.122,2.5,2.5
		S10.879,14,9.5,14S7,12.878,7,11.5S8.121,9,9.5,9z" fill="#839e2e"/>
	<path d="M27,9H16.563C15.529,6.092,12.758,4,9.5,4C5.364,4,2,7.364,2,11.5V23c0,1.654,1.346,3,3,3h9c1.654,0,3-1.346,3-3v-2h10
		c0.553,0,1-0.448,1-1V10C28,9.448,27.553,9,27,9z M9.5,6c3.032,0,5.5,2.467,5.5,5.5S12.532,17,9.5,17S4,14.533,4,11.5
		S6.468,6,9.5,6z M14,24H5c-0.552,0-1-0.449-1-1v-6.418C5.371,18.064,7.326,19,9.5,19s4.129-0.936,5.5-2.418V23
		C15,23.551,14.552,24,14,24z M26,19h-9v-8h9V19z" fill="#839e2e"/>
	<path d="M8,21H6c-0.553,0-1,0.448-1,1s0.447,1,1,1h2c0.553,0,1-0.448,1-1S8.553,21,8,21z" fill="#839e2e"/>
</g>
</svg>
