<?xml version="1.0" encoding="utf-8"?>
<!-- Generator: Adobe Illustrator 16.2.0, SVG Export Plug-In . SVG Version: 6.00 Build 0)  -->
<!DOCTYPE svg PUBLIC "-//W3C//DTD SVG 1.1//EN" "http://www.w3.org/Graphics/SVG/1.1/DTD/svg11.dtd">
<svg version="1.1" id="Layer_1" xmlns="http://www.w3.org/2000/svg" xmlns:xlink="http://www.w3.org/1999/xlink" x="0px" y="0px"
	 width="30px" height="30px" viewBox="0 0 30 30" enable-background="new 0 0 30 30" xml:space="preserve">
<g>
	<path d="M24,25H6c-1.654,0-3-1.346-3-3V10c0-1.654,1.346-3,3-3h3.586l1.707-1.707C11.48,5.105,11.735,5,12,5h6
		c0.265,0,0.52,0.105,0.707,0.293L20.414,7H24c1.654,0,3,1.346,3,3v12C27,23.654,25.654,25,24,25z M6,9c-0.551,0-1,0.449-1,1v12
		c0,0.551,0.449,1,1,1h18c0.551,0,1-0.449,1-1V10c0-0.551-0.449-1-1-1h-4c-0.265,0-0.52-0.105-0.707-0.293L17.586,7h-5.172
		l-1.707,1.707C10.52,8.895,10.265,9,10,9H6z" fill="#839e2e"/>
	<path d="M15,21c-2.757,0-5-2.243-5-5s2.243-5,5-5s5,2.243,5,5S17.757,21,15,21z M15,13c-1.654,0-3,1.346-3,3s1.346,3,3,3
		s3-1.346,3-3S16.654,13,15,13z" fill="#839e2e"/>
	<circle cx="22" cy="12" r="1" fill="#839e2e"/>
</g>
</svg>
