<?xml version="1.0" encoding="utf-8"?>
<!-- Generator: Adobe Illustrator 16.2.0, SVG Export Plug-In . SVG Version: 6.00 Build 0)  -->
<!DOCTYPE svg PUBLIC "-//W3C//DTD SVG 1.1//EN" "http://www.w3.org/Graphics/SVG/1.1/DTD/svg11.dtd">
<svg version="1.1" id="Layer_1" xmlns="http://www.w3.org/2000/svg" xmlns:xlink="http://www.w3.org/1999/xlink" x="0px" y="0px"
	 width="30px" height="30px" viewBox="0 0 30 30" enable-background="new 0 0 30 30" xml:space="preserve">
<g>
	<path d="M24,25H4c-0.553,0-1,0.447-1,1s0.447,1,1,1h20c0.553,0,1-0.447,1-1S24.553,25,24,25z" fill="#839e2e"/>
	<path d="M25.472,11.721c-0.809-0.629-1.738-0.791-2.472-0.8V10c0-0.553-0.447-1-1-1H6c-0.553,0-1,0.447-1,1v11
		c0,0.379,0.214,0.725,0.553,0.895l1.854,0.928l0.886,0.885C8.48,23.895,8.734,24,9,24h10c0.266,0,0.52-0.105,0.707-0.293
		l0.886-0.885l1.854-0.928C22.786,21.725,23,21.379,23,21v-0.92c0.732-0.01,1.663-0.172,2.472-0.801C26.485,18.49,27,17.219,27,15.5
		S26.485,12.51,25.472,11.721z M21,20.382l-1.447,0.724c-0.096,0.048-0.184,0.111-0.26,0.188L18.586,22H9.414l-0.707-0.707
		c-0.076-0.076-0.164-0.14-0.26-0.188L7,20.382V11h14V20.382z M24.251,17.694c-0.374,0.295-0.854,0.378-1.251,0.386v-5.157
		c0.396,0.009,0.874,0.09,1.244,0.377C24.745,13.69,25,14.431,25,15.5C25,16.564,24.748,17.303,24.251,17.694z" fill="#839e2e"/>
	<path d="M10,8c0.553,0,1-0.447,1-1V4c0-0.553-0.447-1-1-1S9,3.447,9,4v3C9,7.553,9.447,8,10,8z" fill="#839e2e"/>
	<path d="M14,8c0.553,0,1-0.447,1-1V4c0-0.553-0.447-1-1-1s-1,0.447-1,1v3C13,7.553,13.447,8,14,8z" fill="#839e2e"/>
	<path d="M18,8c0.553,0,1-0.447,1-1V4c0-0.553-0.447-1-1-1s-1,0.447-1,1v3C17,7.553,17.447,8,18,8z" fill="#839e2e"/>
</g>
</svg>
