<?xml version="1.0" encoding="utf-8"?>
<!-- Generator: Adobe Illustrator 16.2.0, SVG Export Plug-In . SVG Version: 6.00 Build 0)  -->
<!DOCTYPE svg PUBLIC "-//W3C//DTD SVG 1.1//EN" "http://www.w3.org/Graphics/SVG/1.1/DTD/svg11.dtd">
<svg version="1.1" id="Layer_1" xmlns="http://www.w3.org/2000/svg" xmlns:xlink="http://www.w3.org/1999/xlink" x="0px" y="0px"
	 width="30px" height="30px" viewBox="0 0 30 30" enable-background="new 0 0 30 30" xml:space="preserve">
<g>
	<path d="M25,3H5C4.448,3,4,3.448,4,4v22c0,0.552,0.448,1,1,1h20c0.552,0,1-0.448,1-1V4C26,3.448,25.552,3,25,3z M24,25H6V5h18V25z" fill="#839e2e"
		/>
	<path d="M10,14h10c0.552,0,1-0.448,1-1s-0.448-1-1-1H10c-0.552,0-1,0.448-1,1S9.448,14,10,14z" fill="#839e2e"/>
	<path d="M10,10h10c0.552,0,1-0.448,1-1s-0.448-1-1-1H10C9.448,8,9,8.448,9,9S9.448,10,10,10z" fill="#839e2e"/>
	<path d="M10,18h10c0.552,0,1-0.448,1-1s-0.448-1-1-1H10c-0.552,0-1,0.448-1,1S9.448,18,10,18z" fill="#839e2e"/>
	<path d="M10,22h6c0.552,0,1-0.448,1-1s-0.448-1-1-1h-6c-0.552,0-1,0.448-1,1S9.448,22,10,22z" fill="#839e2e"/>
</g>
</svg>
