<svg xmlns="http://www.w3.org/2000/svg" width="24" height="22" viewBox="0 0 24 22">
    <g fill="#1E2B38" fill-rule="nonzero">
        <path d="M17.379 6.484h-5.383v-.972c0-.207.169-.375.376-.375h3.793a2.352 2.352 0 0 0 2.35-2.35v-1.78a.988.988 0 0 0-.987-.988.988.988 0 0 0-.987.987v1.781a.376.376 0 0 1-.376.376h-3.793a2.352 2.352 0 0 0-2.35 2.349v.972h-3.87C2.768 6.484 0 9.662 0 13.508v1.435c0 3.894 2.768 7.023 6.152 7.023h11.174c3.432 0 6.2-3.124 6.2-7.023v-1.435c.005-3.894-2.763-7.024-6.147-7.024zm4.202 8.512c0 2.768-1.897 5.02-4.202 5.02H6.152c-2.306 0-4.202-2.252-4.202-5.02V13.56c0-2.768 1.896-5.021 4.202-5.021H17.38c2.305 0 4.202 2.253 4.202 5.021v1.435z"/>
        <path d="M16.56 10.692a.973.973 0 0 0 0 1.945c.51 0 .973-.462.973-.973 0-.515-.463-.972-.973-.972zM16.56 15.968c-.51 0-.972.462-.972.972s.409.973.972.973c.51 0 .973-.462.973-.973 0-.51-.463-.972-.973-.972zM19.174 13.306c-.51 0-.972.462-.972.972a.973.973 0 0 0 1.945 0c0-.515-.463-.972-.973-.972zM13.893 13.306a.973.973 0 0 0 0 1.945c.563 0 .973-.41.973-.973a.97.97 0 0 0-.973-.972zM9.845 13.306h-1.95v-1.897c0-.51-.462-.972-.972-.972s-.973.409-.973.972v1.897H4.053a.973.973 0 0 0 0 1.945H5.95v1.95c0 .51.41.972.973.972s1.025-.462.972-.973v-1.95h1.95a.973.973 0 0 0 0-1.944z"/>
    </g>
</svg>
