<?xml version="1.0" encoding="utf-8"?>
<!-- Generator: Adobe Illustrator 16.2.0, SVG Export Plug-In . SVG Version: 6.00 Build 0)  -->
<!DOCTYPE svg PUBLIC "-//W3C//DTD SVG 1.1//EN" "http://www.w3.org/Graphics/SVG/1.1/DTD/svg11.dtd">
<svg version="1.1" id="Layer_1" xmlns="http://www.w3.org/2000/svg" xmlns:xlink="http://www.w3.org/1999/xlink" x="0px" y="0px"
	 width="30px" height="30px" viewBox="0 0 30 30" enable-background="new 0 0 30 30" xml:space="preserve">
<g>
	<path d="M15,3C8.383,3,3,8.383,3,15s5.383,12,12,12c6.617,0,12-5.383,12-12S21.617,3,15,3z M16,24.949V21c0-0.552-0.448-1-1-1
		s-1,0.448-1,1v3.949C9.283,24.479,5.521,20.717,5.051,16H9c0.552,0,1-0.448,1-1s-0.448-1-1-1H5.051
		C5.521,9.283,9.283,5.521,14,5.051V9c0,0.552,0.448,1,1,1s1-0.448,1-1V5.051c4.717,0.471,8.479,4.232,8.949,8.949H21
		c-0.553,0-1,0.448-1,1s0.447,1,1,1h3.949C24.479,20.717,20.717,24.479,16,24.949z"/>
	<circle cx="15" cy="15" r="1"/>
</g>
</svg>
