<?xml version="1.0" encoding="utf-8"?>
<!-- Generator: Adobe Illustrator 16.2.0, SVG Export Plug-In . SVG Version: 6.00 Build 0)  -->
<!DOCTYPE svg PUBLIC "-//W3C//DTD SVG 1.1//EN" "http://www.w3.org/Graphics/SVG/1.1/DTD/svg11.dtd">
<svg version="1.1" id="Layer_1" xmlns="http://www.w3.org/2000/svg" xmlns:xlink="http://www.w3.org/1999/xlink" x="0px" y="0px"
	 width="30px" height="30px" viewBox="0 0 30 30" enable-background="new 0 0 30 30" xml:space="preserve">
<g>
	<path d="M22,8H9.414L6.707,5.293C6.52,5.105,6.265,5,6,5H2C1.701,5,1.418,5.134,1.229,5.364S0.961,5.897,1.019,6.19l2,10.299
		c0.06,0.308,0.26,0.57,0.542,0.708l3.794,1.856l-2.25,4.499c-0.155,0.31-0.138,0.678,0.044,0.973S5.653,25,6,25h6
		c0.315,0,0.611-0.148,0.8-0.4l3.45-4.6H23c3.782,0,5.559-3.112,5.97-4.758c0.033-0.133,0.039-0.271,0.016-0.406
		C28.592,12.472,26.625,8,22,8z M23,18h-5.25l1.05-1.4c0.332-0.441,0.242-1.068-0.2-1.399s-1.068-0.242-1.4,0.2L11.5,23H7.618
		l3.276-6.553c0.247-0.494,0.047-1.095-0.447-1.342c-0.496-0.245-1.095-0.046-1.342,0.447L8.25,17.264l-3.363-1.645L3.213,7h2.373
		l2.707,2.707C8.48,9.895,8.735,10,9,10h13c1.767,0,2.932,0.93,3.694,2H23c-0.552,0-1,0.447-1,1s0.448,1,1,1h3.699
		c0.138,0.403,0.226,0.743,0.271,0.95C26.73,15.659,25.73,18,23,18z"/>
	<circle cx="19" cy="13" r="1"/>
	<circle cx="15" cy="13" r="1"/>
	<circle cx="11" cy="13" r="1"/>
</g>
</svg>
