<?xml version="1.0" encoding="utf-8"?>
<!-- Generator: Adobe Illustrator 16.2.0, SVG Export Plug-In . SVG Version: 6.00 Build 0)  -->
<!DOCTYPE svg PUBLIC "-//W3C//DTD SVG 1.1//EN" "http://www.w3.org/Graphics/SVG/1.1/DTD/svg11.dtd">
<svg version="1.1" id="Layer_1" xmlns="http://www.w3.org/2000/svg" xmlns:xlink="http://www.w3.org/1999/xlink" x="0px" y="0px"
	 width="30px" height="30px" viewBox="0 0 30 30" enable-background="new 0 0 30 30" xml:space="preserve">
<g>
	<g>
		<path d="M21,17h-6c-0.552,0-1-0.448-1-1v-6c0-0.552,0.448-1,1-1s1,0.448,1,1v5h5c0.552,0,1,0.448,1,1S21.552,17,21,17z"/>
	</g>
	<path d="M25.258,12.059C26.368,11.071,27,9.692,27,8.2C27,5.333,24.667,3,21.8,3c-1.723,0-3.319,0.875-4.282,2.302
		C16.708,5.111,15.868,5,15,5s-1.708,0.111-2.518,0.302C11.519,3.875,9.923,3,8.2,3C5.333,3,3,5.333,3,8.2
		c0,1.492,0.632,2.871,1.742,3.859C4.27,13.285,4,14.61,4,16c0,2.803,1.063,5.357,2.795,7.302l-1.591,2.093
		c-0.334,0.439-0.249,1.067,0.191,1.401C5.576,26.934,5.789,27,5.999,27c0.302,0,0.601-0.136,0.797-0.395l1.466-1.929
		C10.126,26.127,12.46,27,15,27s4.874-0.873,6.738-2.324l1.466,1.929C23.401,26.864,23.699,27,24.001,27
		c0.21,0,0.423-0.066,0.604-0.204c0.44-0.334,0.525-0.961,0.191-1.401l-1.591-2.093C24.937,21.357,26,18.803,26,16
		C26,14.61,25.73,13.285,25.258,12.059z M21.8,5C23.564,5,25,6.436,25,8.2c0,0.725-0.252,1.404-0.695,1.96
		c-1.147-1.822-2.81-3.284-4.787-4.179C20.112,5.363,20.932,5,21.8,5z M5,8.2C5,6.436,6.436,5,8.2,5
		c0.868,0,1.688,0.363,2.282,0.982C8.505,6.877,6.843,8.338,5.695,10.16C5.252,9.604,5,8.925,5,8.2z M15,25c-4.962,0-9-4.038-9-9
		s4.038-9,9-9s9,4.038,9,9S19.962,25,15,25z"/>
</g>
</svg>
