<?xml version="1.0" encoding="utf-8"?>
<!-- Generator: Adobe Illustrator 16.2.0, SVG Export Plug-In . SVG Version: 6.00 Build 0)  -->
<!DOCTYPE svg PUBLIC "-//W3C//DTD SVG 1.1//EN" "http://www.w3.org/Graphics/SVG/1.1/DTD/svg11.dtd">
<svg version="1.1" id="Layer_1" xmlns="http://www.w3.org/2000/svg" xmlns:xlink="http://www.w3.org/1999/xlink" x="0px" y="0px"
	 width="30px" height="30px" viewBox="0 0 30 30" enable-background="new 0 0 30 30" xml:space="preserve">
<g>
	<path d="M13,15h8c0.553,0,1-0.448,1-1V9c0-0.552-0.447-1-1-1h-8c-0.552,0-1,0.448-1,1v5C12,14.552,12.448,15,13,15z M14,10h6v3h-6
		V10z"/>
	<path d="M26,3H6C4.346,3,3,4.346,3,6v18c0,1.738,1.262,3,3,3h20c0.553,0,1-0.448,1-1V4C27,3.448,26.553,3,26,3z M25,21H9V5h16V21z
		 M6,5h1v16H6c-0.353,0-0.686,0.072-1,0.184V6C5,5.449,5.449,5,6,5z M6,25c-0.234,0-1-0.072-1-1c0-0.551,0.449-1,1-1h19v2H6z"/>
</g>
</svg>
