<?xml version="1.0" encoding="utf-8"?>
<!-- Generator: Adobe Illustrator 16.2.0, SVG Export Plug-In . SVG Version: 6.00 Build 0)  -->
<!DOCTYPE svg PUBLIC "-//W3C//DTD SVG 1.1//EN" "http://www.w3.org/Graphics/SVG/1.1/DTD/svg11.dtd">
<svg version="1.1" id="Layer_1" xmlns="http://www.w3.org/2000/svg" xmlns:xlink="http://www.w3.org/1999/xlink" x="0px" y="0px"
	 width="30px" height="30px" viewBox="0 0 30 30" enable-background="new 0 0 30 30" xml:space="preserve">
<g>
	<path d="M21.999,11h-2V9c0-0.553-0.448-1-1-1s-1,0.447-1,1v2h-2c-0.552,0-1,0.447-1,1s0.448,1,1,1h2v2c0,0.553,0.448,1,1,1
		s1-0.447,1-1v-2h2c0.552,0,1-0.447,1-1S22.551,11,21.999,11z"/>
	<path d="M26.999,5H10C7.895,5,5.792,6.586,5.214,8.61l-1.046,3.663c-0.812,0.43-2.169,1.546-2.169,4.227V22c0,0.553,0.448,1,1,1
		H5.35c0.564,1.178,1.758,2,3.149,2s2.585-0.822,3.149-2h6.702c0.564,1.178,1.758,2,3.149,2s2.585-0.822,3.149-2h2.351
		c0.552,0,1-0.447,1-1V6C27.999,5.447,27.551,5,26.999,5z M7.137,9.159C7.466,8.009,8.803,7,10,7h1.08l-1.345,4.032L6.414,11.69
		L7.137,9.159z M8.499,23c-0.827,0-1.5-0.673-1.5-1.5s0.673-1.5,1.5-1.5s1.5,0.673,1.5,1.5S9.326,23,8.499,23z M21.499,23
		c-0.827,0-1.5-0.673-1.5-1.5s0.673-1.5,1.5-1.5s1.5,0.673,1.5,1.5S22.326,23,21.499,23z M25.999,21h-1.051
		c-0.245-1.691-1.691-3-3.449-3s-3.204,1.309-3.449,3h-6.102c-0.245-1.691-1.691-3-3.449-3s-3.204,1.309-3.449,3H3.999v-4.5
		c0-2.091,1.136-2.496,1.243-2.53c0.012-0.003,0.02-0.012,0.031-0.015l5.42-1.074c0.353-0.069,0.641-0.323,0.754-0.664L13.188,7
		h12.812V21z"/>
</g>
</svg>
