<?xml version="1.0" encoding="utf-8"?>
<!-- Generator: Adobe Illustrator 16.2.0, SVG Export Plug-In . SVG Version: 6.00 Build 0)  -->
<!DOCTYPE svg PUBLIC "-//W3C//DTD SVG 1.1//EN" "http://www.w3.org/Graphics/SVG/1.1/DTD/svg11.dtd">
<svg version="1.1" id="Layer_1" xmlns="http://www.w3.org/2000/svg" xmlns:xlink="http://www.w3.org/1999/xlink" x="0px" y="0px"
	 width="30px" height="30px" viewBox="0 0 30 30" enable-background="new 0 0 30 30" xml:space="preserve">
<g>
	<path d="M25,18h-4c-0.553,0-1,0.447-1,1s0.447,1,1,1h1.734c-1.725,2.17-4.492,3.583-6.734,3.921V14h4c0.553,0,1-0.447,1-1
		s-0.447-1-1-1h-4v-0.142c1.721-0.447,3-2,3-3.858c0-2.206-1.794-4-4-4s-4,1.794-4,4c0,1.858,1.279,3.411,3,3.858V12h-4
		c-0.553,0-1,0.447-1,1s0.447,1,1,1h4v9.921C11.758,23.583,8.99,22.17,7.266,20H9c0.553,0,1-0.447,1-1s-0.447-1-1-1H5
		c-0.553,0-1,0.447-1,1v4c0,0.553,0.447,1,1,1s1-0.447,1-1v-1.371C8.24,24.183,11.887,26,15,26s6.76-1.817,9-4.371V23
		c0,0.553,0.447,1,1,1s1-0.447,1-1v-4C26,18.447,25.553,18,25,18z M13,8c0-1.103,0.897-2,2-2s2,0.897,2,2s-0.897,2-2,2S13,9.103,13,8
		z"/>
</g>
</svg>
