<?xml version="1.0" encoding="utf-8"?>
<!-- Generator: Adobe Illustrator 16.2.0, SVG Export Plug-In . SVG Version: 6.00 Build 0)  -->
<!DOCTYPE svg PUBLIC "-//W3C//DTD SVG 1.1//EN" "http://www.w3.org/Graphics/SVG/1.1/DTD/svg11.dtd">
<svg version="1.1" id="Layer_1" xmlns="http://www.w3.org/2000/svg" xmlns:xlink="http://www.w3.org/1999/xlink" x="0px" y="0px"
	 width="30px" height="30px" viewBox="0 0 30 30" enable-background="new 0 0 30 30" xml:space="preserve">
<path d="M27.918,14.905l-4-9.3C23.761,5.238,23.399,5,23,5H7C6.601,5,6.239,5.238,6.082,5.605l-4,9.3C2.028,15.029,2,15.164,2,15.3
	V24c0,0.552,0.448,1,1,1h24c0.552,0,1-0.448,1-1v-8.7C28,15.164,27.972,15.029,27.918,14.905z M7.659,7h14.683l3.441,8H18.45
	c-0.497,0-0.918,0.365-0.99,0.857C17.284,17.079,16.226,18,15,18s-2.284-0.921-2.46-2.143C12.469,15.365,12.047,15,11.55,15H4.218
	L7.659,7z M4,23v-6h6.772c0.626,1.759,2.313,3,4.228,3s3.602-1.241,4.228-3H26v6H4z"/>
</svg>
