<?xml version="1.0" encoding="utf-8"?>
<!-- Generator: Adobe Illustrator 16.2.0, SVG Export Plug-In . SVG Version: 6.00 Build 0)  -->
<!DOCTYPE svg PUBLIC "-//W3C//DTD SVG 1.1//EN" "http://www.w3.org/Graphics/SVG/1.1/DTD/svg11.dtd">
<svg version="1.1" id="Layer_1" xmlns="http://www.w3.org/2000/svg" xmlns:xlink="http://www.w3.org/1999/xlink" x="0px" y="0px"
	 width="30px" height="30px" viewBox="0 0 30 30" enable-background="new 0 0 30 30" xml:space="preserve">
<path d="M27,15v-3c0-0.552-0.448-1-1-1V9c0-0.552-0.448-1-1-1V6c0-0.552-0.448-1-1-1H6C5.448,5,5,5.448,5,6v2C4.448,8,4,8.448,4,9v2
	c-0.552,0-1,0.448-1,1v3c-0.552,0-1,0.448-1,1v8c0,0.552,0.448,1,1,1h24c0.552,0,1-0.448,1-1v-8C28,15.448,27.552,15,27,15z M7,7h16
	v1H7V7z M6,10h18v1H6V10z M5,13h20v2h-6.55c-0.497,0-0.918,0.365-0.99,0.857C17.284,17.079,16.226,18,15,18s-2.284-0.921-2.46-2.143
	C12.469,15.365,12.047,15,11.55,15H5V13z M26,23H4v-6h6.772c0.626,1.759,2.313,3,4.228,3s3.602-1.241,4.228-3H26V23z"/>
</svg>
