<?xml version="1.0" encoding="utf-8"?>
<!-- Generator: Adobe Illustrator 16.2.0, SVG Export Plug-In . SVG Version: 6.00 Build 0)  -->
<!DOCTYPE svg PUBLIC "-//W3C//DTD SVG 1.1//EN" "http://www.w3.org/Graphics/SVG/1.1/DTD/svg11.dtd">
<svg version="1.1" id="Layer_1" xmlns="http://www.w3.org/2000/svg" xmlns:xlink="http://www.w3.org/1999/xlink" x="0px" y="0px"
	 width="30px" height="30px" viewBox="0 0 30 30" enable-background="new 0 0 30 30" xml:space="preserve">
<g>
	<path d="M27,4H3C2.447,4,2,4.448,2,5v4c0,0.552,0.447,1,1,1v15c0,0.552,0.447,1,1,1h22c0.553,0,1-0.448,1-1V10c0.553,0,1-0.448,1-1
		V5C28,4.448,27.553,4,27,4z M4,6h22v2H4V6z M25,24H5V10h20V24z"/>
	<path d="M11,17h8c0.553,0,1-0.448,1-1v-3c0-0.552-0.447-1-1-1h-8c-0.553,0-1,0.448-1,1v3C10,16.552,10.447,17,11,17z M12,14h6v1h-6
		V14z"/>
</g>
</svg>
