<?xml version="1.0" encoding="utf-8"?>
<!-- Generator: Adobe Illustrator 16.2.0, SVG Export Plug-In . SVG Version: 6.00 Build 0)  -->
<!DOCTYPE svg PUBLIC "-//W3C//DTD SVG 1.1//EN" "http://www.w3.org/Graphics/SVG/1.1/DTD/svg11.dtd">
<svg version="1.1" id="Layer_1" xmlns="http://www.w3.org/2000/svg" xmlns:xlink="http://www.w3.org/1999/xlink" x="0px" y="0px"
	 width="30px" height="30px" viewBox="0 0 30 30" enable-background="new 0 0 30 30" xml:space="preserve">
<g>
	<path d="M25.707,14.293l-5-5c-0.391-0.391-1.023-0.391-1.414,0s-0.391,1.023,0,1.414L22.586,14H7.414l3.293-3.293
		c0.391-0.391,0.391-1.023,0-1.414s-1.023-0.391-1.414,0l-5,5c-0.391,0.391-0.391,1.023,0,1.414l5,5C9.488,20.902,9.744,21,10,21
		s0.512-0.098,0.707-0.293c0.391-0.391,0.391-1.023,0-1.414L7.414,16h15.172l-3.293,3.293c-0.391,0.391-0.391,1.023,0,1.414
		C19.488,20.902,19.744,21,20,21s0.512-0.098,0.707-0.293l5-5C26.098,15.316,26.098,14.684,25.707,14.293z"/>
</g>	
</svg>
