<?xml version="1.0" encoding="utf-8"?>
<!-- Generator: Adobe Illustrator 16.2.0, SVG Export Plug-In . SVG Version: 6.00 Build 0)  -->
<!DOCTYPE svg PUBLIC "-//W3C//DTD SVG 1.1//EN" "http://www.w3.org/Graphics/SVG/1.1/DTD/svg11.dtd">
<svg version="1.1" id="Layer_1" xmlns="http://www.w3.org/2000/svg" xmlns:xlink="http://www.w3.org/1999/xlink" x="0px" y="0px"
	 width="30px" height="30px" viewBox="0 0 30 30" enable-background="new 0 0 30 30" xml:space="preserve">
<g>
	<path d="M19,24c-0.129,0-0.259-0.024-0.383-0.076C18.243,23.77,18,23.404,18,23v-4h-6v4c0,0.404-0.243,0.77-0.617,0.924
		c-0.373,0.156-0.804,0.07-1.09-0.217l-8-8c-0.391-0.391-0.391-1.023,0-1.414l8-8c0.286-0.286,0.716-0.373,1.09-0.217
		C11.757,6.23,12,6.596,12,7v4h6V7c0-0.404,0.243-0.77,0.617-0.924c0.375-0.156,0.804-0.069,1.09,0.217l8,8
		c0.391,0.391,0.391,1.023,0,1.414l-8,8C19.516,23.898,19.26,24,19,24z M11,17h8c0.553,0,1,0.447,1,1v2.586L25.586,15L20,9.414V12
		c0,0.553-0.447,1-1,1h-8c-0.553,0-1-0.447-1-1V9.414L4.414,15L10,20.586V18C10,17.447,10.447,17,11,17z"/>
</g>
</svg>
