<?xml version="1.0" encoding="utf-8"?>
<!-- Generator: Adobe Illustrator 16.2.0, SVG Export Plug-In . SVG Version: 6.00 Build 0)  -->
<!DOCTYPE svg PUBLIC "-//W3C//DTD SVG 1.1//EN" "http://www.w3.org/Graphics/SVG/1.1/DTD/svg11.dtd">
<svg version="1.1" id="Layer_1" xmlns="http://www.w3.org/2000/svg" xmlns:xlink="http://www.w3.org/1999/xlink" x="0px" y="0px"
	 width="30px" height="30px" viewBox="0 0 30 30" enable-background="new 0 0 30 30" xml:space="preserve">
<g>
	<path d="M19,12H7.414l4.293-4.293c0.391-0.391,0.391-1.023,0-1.414s-1.023-0.391-1.414,0l-6,6c-0.391,0.391-0.391,1.023,0,1.414l6,6
		C10.488,19.902,10.744,20,11,20s0.512-0.098,0.707-0.293c0.391-0.391,0.391-1.023,0-1.414L7.414,14H19c3.458,0,5,1.542,5,5v4
		c0,0.553,0.448,1,1,1s1-0.447,1-1v-4C26,14.421,23.58,12,19,12z"/>
</g>
</svg>
