<?xml version="1.0" encoding="utf-8"?>
<!-- Generator: Adobe Illustrator 16.2.0, SVG Export Plug-In . SVG Version: 6.00 Build 0)  -->
<!DOCTYPE svg PUBLIC "-//W3C//DTD SVG 1.1//EN" "http://www.w3.org/Graphics/SVG/1.1/DTD/svg11.dtd">
<svg version="1.1" id="Layer_1" xmlns="http://www.w3.org/2000/svg" xmlns:xlink="http://www.w3.org/1999/xlink" x="0px" y="0px"
	 width="30px" height="30px" viewBox="0 0 30 30" enable-background="new 0 0 30 30" xml:space="preserve">
<g>
	<path d="M15,26c-0.129,0-0.259-0.024-0.383-0.076C14.244,25.77,14,25.404,14,25v-6H5c-0.552,0-1-0.447-1-1v-6c0-0.553,0.448-1,1-1
		h9V5c0-0.404,0.244-0.77,0.617-0.924c0.373-0.157,0.803-0.07,1.09,0.217l10,10c0.391,0.391,0.391,1.023,0,1.414l-10,10
		C15.516,25.898,15.26,26,15,26z M6,17h9c0.552,0,1,0.447,1,1v4.586L23.586,15L16,7.414V12c0,0.553-0.448,1-1,1H6V17z"/>
</g>
</svg>
