<?xml version="1.0" encoding="utf-8"?>
<!-- Generator: Adobe Illustrator 16.2.0, SVG Export Plug-In . SVG Version: 6.00 Build 0)  -->
<!DOCTYPE svg PUBLIC "-//W3C//DTD SVG 1.1//EN" "http://www.w3.org/Graphics/SVG/1.1/DTD/svg11.dtd">
<svg version="1.1" id="Layer_1" xmlns="http://www.w3.org/2000/svg" xmlns:xlink="http://www.w3.org/1999/xlink" x="0px" y="0px"
	 width="30px" height="30px" viewBox="0 0 30 30" enable-background="new 0 0 30 30" xml:space="preserve">
<g>
	<path d="M26.707,11.293l-5-5c-0.391-0.391-1.023-0.391-1.414,0l-5,5c-0.391,0.391-0.391,1.023,0,1.414s1.023,0.391,1.414,0
		L20,9.414V23c0,0.553,0.447,1,1,1s1-0.447,1-1V9.414l3.293,3.293C25.488,12.902,25.744,13,26,13s0.512-0.098,0.707-0.293
		C27.098,12.316,27.098,11.684,26.707,11.293z"/>
	<path d="M14.707,17.293c-0.391-0.391-1.023-0.391-1.414,0L10,20.586V7c0-0.553-0.447-1-1-1S8,6.447,8,7v13.586l-3.293-3.293
		c-0.391-0.391-1.023-0.391-1.414,0s-0.391,1.023,0,1.414l5,5C8.488,23.902,8.744,24,9,24s0.512-0.098,0.707-0.293l5-5
		C15.098,18.316,15.098,17.684,14.707,17.293z"/>
</g>
</svg>
