<?xml version="1.0" encoding="utf-8"?>
<!-- Generator: Adobe Illustrator 16.2.0, SVG Export Plug-In . SVG Version: 6.00 Build 0)  -->
<!DOCTYPE svg PUBLIC "-//W3C//DTD SVG 1.1//EN" "http://www.w3.org/Graphics/SVG/1.1/DTD/svg11.dtd">
<svg version="1.1" id="Layer_1" xmlns="http://www.w3.org/2000/svg" xmlns:xlink="http://www.w3.org/1999/xlink" x="0px" y="0px"
	 width="30px" height="30px" viewBox="0 0 30 30" enable-background="new 0 0 30 30" xml:space="preserve">
<g>
	<path d="M17.02,25c-0.005,0.001-0.013,0.001-0.02,0H6c-0.553,0-1-0.447-1-1V13c0-0.404,0.243-0.77,0.617-0.924
		c0.374-0.155,0.804-0.069,1.09,0.217L9.5,15.086L15.086,9.5l-2.793-2.793c-0.286-0.286-0.372-0.716-0.217-1.09
		C12.23,5.243,12.596,5,13,5h11c0.553,0,1,0.447,1,1v11c0,0.404-0.243,0.77-0.617,0.924c-0.373,0.157-0.803,0.07-1.09-0.217
		L20.5,14.914L14.914,20.5l2.685,2.684c0.255,0.182,0.421,0.479,0.421,0.816C18.02,24.553,17.572,25,17.02,25z M7,23h7.586
		l-1.793-1.793c-0.391-0.391-0.391-1.023,0-1.414l7-7c0.391-0.391,1.023-0.391,1.414,0L23,14.586V7h-7.586l1.793,1.793
		c0.391,0.391,0.391,1.023,0,1.414l-7,7c-0.391,0.391-1.023,0.391-1.414,0L7,15.414V23z"/>
</g>
</svg>
