<?xml version="1.0" encoding="utf-8"?>
<!-- Generator: Adobe Illustrator 16.2.0, SVG Export Plug-In . SVG Version: 6.00 Build 0)  -->
<!DOCTYPE svg PUBLIC "-//W3C//DTD SVG 1.1//EN" "http://www.w3.org/Graphics/SVG/1.1/DTD/svg11.dtd">
<svg version="1.1" id="Layer_1" xmlns="http://www.w3.org/2000/svg" xmlns:xlink="http://www.w3.org/1999/xlink" x="0px" y="0px"
	 width="30px" height="30px" viewBox="0 0 30 30" enable-background="new 0 0 30 30" xml:space="preserve">
<g>
	<path d="M15,26c-0.26,0-0.516-0.102-0.707-0.293l-10-10c-0.391-0.391-0.391-1.023,0-1.414l10-10
		c0.286-0.287,0.714-0.374,1.09-0.217C15.756,4.23,16,4.596,16,5v6h9c0.552,0,1,0.447,1,1v6c0,0.553-0.448,1-1,1h-9v6
		c0,0.404-0.244,0.77-0.617,0.924C15.259,25.976,15.129,26,15,26z M6.414,15L14,22.586V18c0-0.553,0.448-1,1-1h9v-4h-9
		c-0.552,0-1-0.447-1-1V7.414L6.414,15z"/>
</g>
</svg>
