<?xml version="1.0" encoding="utf-8"?>
<!-- Generator: Adobe Illustrator 16.2.0, SVG Export Plug-In . SVG Version: 6.00 Build 0)  -->
<!DOCTYPE svg PUBLIC "-//W3C//DTD SVG 1.1//EN" "http://www.w3.org/Graphics/SVG/1.1/DTD/svg11.dtd">
<svg version="1.1" id="Layer_1" xmlns="http://www.w3.org/2000/svg" xmlns:xlink="http://www.w3.org/1999/xlink" x="0px" y="0px"
	 width="30px" height="30px" viewBox="0 0 30 30" enable-background="new 0 0 30 30" xml:space="preserve">
<g>
	<path d="M20,18c-0.122,0-0.246-0.022-0.364-0.068C19.252,17.781,19,17.412,19,17v-3h-5c-0.553,0-1-0.447-1-1V8
		c0-0.553,0.447-1,1-1h5V4c0-0.412,0.252-0.781,0.636-0.932c0.384-0.149,0.82-0.049,1.099,0.253l6,6.5
		c0.354,0.384,0.354,0.974,0,1.357l-6,6.5C20.542,17.888,20.273,18,20,18z M15,12h5c0.553,0,1,0.447,1,1v1.442l3.639-3.942
		L21,6.558V8c0,0.553-0.447,1-1,1h-5V12z"/>
	<path d="M10,27c-0.273,0-0.542-0.112-0.734-0.321l-6-6.5c-0.354-0.384-0.354-0.974,0-1.357l6-6.5
		c0.278-0.302,0.716-0.402,1.099-0.253C10.748,12.219,11,12.588,11,13v3h5c0.553,0,1,0.447,1,1v5c0,0.553-0.447,1-1,1h-5v3
		c0,0.412-0.252,0.781-0.636,0.932C10.246,26.978,10.122,27,10,27z M5.361,19.5L9,23.442V22c0-0.553,0.447-1,1-1h5v-3h-5
		c-0.553,0-1-0.447-1-1v-1.442L5.361,19.5z"/>
</g>
</svg>
