<?xml version="1.0" encoding="utf-8"?>
<!-- Generator: Adobe Illustrator 16.2.0, SVG Export Plug-In . SVG Version: 6.00 Build 0)  -->
<!DOCTYPE svg PUBLIC "-//W3C//DTD SVG 1.1//EN" "http://www.w3.org/Graphics/SVG/1.1/DTD/svg11.dtd">
<svg version="1.1" id="Layer_1" xmlns="http://www.w3.org/2000/svg" xmlns:xlink="http://www.w3.org/1999/xlink" x="0px" y="0px"
	 width="30px" height="30px" viewBox="0 0 30 30" enable-background="new 0 0 30 30" xml:space="preserve">
<g>
	<path d="M19.293,19.293L16,22.586V7.414l3.293,3.293C19.488,10.902,19.744,11,20,11s0.512-0.098,0.707-0.293
		c0.391-0.391,0.391-1.023,0-1.414l-5-5c-0.391-0.391-1.023-0.391-1.414,0l-5,5c-0.391,0.391-0.391,1.023,0,1.414
		s1.023,0.391,1.414,0L14,7.414v15.172l-3.293-3.293c-0.391-0.391-1.023-0.391-1.414,0s-0.391,1.023,0,1.414l5,5
		C14.488,25.902,14.744,26,15,26s0.512-0.098,0.707-0.293l5-5c0.391-0.391,0.391-1.023,0-1.414S19.684,18.902,19.293,19.293z"/>
</g>	
</svg>
