<?xml version="1.0" encoding="utf-8"?>
<!-- Generator: Adobe Illustrator 16.2.0, SVG Export Plug-In . SVG Version: 6.00 Build 0)  -->
<!DOCTYPE svg PUBLIC "-//W3C//DTD SVG 1.1//EN" "http://www.w3.org/Graphics/SVG/1.1/DTD/svg11.dtd">
<svg version="1.1" id="Layer_1" xmlns="http://www.w3.org/2000/svg" xmlns:xlink="http://www.w3.org/1999/xlink" x="0px" y="0px"
	 width="30px" height="30px" viewBox="0 0 30 30" enable-background="new 0 0 30 30" xml:space="preserve">
<g>
	<path d="M15,26c-0.256,0-0.512-0.098-0.707-0.293l-10-10c-0.286-0.286-0.372-0.716-0.217-1.09S4.596,14,5,14h6V5
		c0-0.553,0.448-1,1-1h6c0.552,0,1,0.447,1,1v9h6c0.404,0,0.769,0.243,0.924,0.617s0.069,0.804-0.217,1.09l-10,10
		C15.512,25.902,15.256,26,15,26z M7.414,16L15,23.586L22.586,16H18c-0.552,0-1-0.447-1-1V6h-4v9c0,0.553-0.448,1-1,1H7.414z"/>
</g>
</svg>
