<?xml version="1.0" encoding="utf-8"?>
<!-- Generator: Adobe Illustrator 16.2.0, SVG Export Plug-In . SVG Version: 6.00 Build 0)  -->
<!DOCTYPE svg PUBLIC "-//W3C//DTD SVG 1.1//EN" "http://www.w3.org/Graphics/SVG/1.1/DTD/svg11.dtd">
<svg version="1.1" id="Layer_1" xmlns="http://www.w3.org/2000/svg" xmlns:xlink="http://www.w3.org/1999/xlink" x="0px" y="0px"
	 width="30px" height="30px" viewBox="0 0 30 30" enable-background="new 0 0 30 30" xml:space="preserve">
<g>
	<path d="M15,28c-0.256,0-0.512-0.098-0.707-0.293l-8-8c-0.286-0.286-0.372-0.716-0.217-1.09C6.23,18.243,6.596,18,7,18h4v-6H7
		c-0.404,0-0.77-0.243-0.924-0.617c-0.155-0.374-0.069-0.804,0.217-1.09l8-8c0.391-0.391,1.023-0.391,1.414,0l7.892,7.891
		c0.255,0.182,0.421,0.479,0.421,0.816c0,0.553-0.447,1-1,1c-0.005,0-0.012,0-0.02,0h-4v6h4c0.404,0,0.77,0.243,0.924,0.617
		c0.155,0.374,0.069,0.804-0.217,1.09l-8,8C15.512,27.902,15.256,28,15,28z M9.414,20L15,25.586L20.586,20H18
		c-0.553,0-1-0.447-1-1v-8c0-0.553,0.447-1,1-1h2.586L15,4.414L9.414,10H12c0.553,0,1,0.447,1,1v8c0,0.553-0.447,1-1,1H9.414z"/>
</g>
</svg>
