<?xml version="1.0" encoding="utf-8"?>
<!-- Generator: Adobe Illustrator 16.2.0, SVG Export Plug-In . SVG Version: 6.00 Build 0)  -->
<!DOCTYPE svg PUBLIC "-//W3C//DTD SVG 1.1//EN" "http://www.w3.org/Graphics/SVG/1.1/DTD/svg11.dtd">
<svg version="1.1" id="Layer_1" xmlns="http://www.w3.org/2000/svg" xmlns:xlink="http://www.w3.org/1999/xlink" x="0px" y="0px"
	 width="30px" height="30px" viewBox="0 0 30 30" enable-background="new 0 0 30 30" xml:space="preserve">
<g>
	<path d="M18,26h-6c-0.552,0-1-0.447-1-1v-9H5c-0.404,0-0.769-0.243-0.924-0.617s-0.069-0.804,0.217-1.09l10-10
		c0.391-0.391,1.023-0.391,1.414,0l10,10c0.286,0.286,0.372,0.716,0.217,1.09S25.404,16,25,16h-6v9C19,25.553,18.552,26,18,26z
		 M13,24h4v-9c0-0.553,0.448-1,1-1h4.586L15,6.414L7.414,14H12c0.552,0,1,0.447,1,1V24z"/>
</g>
</svg>
