<?xml version="1.0" encoding="utf-8"?>
<!-- Generator: Adobe Illustrator 16.2.0, SVG Export Plug-In . SVG Version: 6.00 Build 0)  -->
<!DOCTYPE svg PUBLIC "-//W3C//DTD SVG 1.1//EN" "http://www.w3.org/Graphics/SVG/1.1/DTD/svg11.dtd">
<svg version="1.1" id="Layer_1" xmlns="http://www.w3.org/2000/svg" xmlns:xlink="http://www.w3.org/1999/xlink" x="0px" y="0px"
	 width="30px" height="30px" viewBox="0 0 30 30" enable-background="new 0 0 30 30" xml:space="preserve">
<g>
	<path d="M23.707,8.293l-5-5c-0.391-0.391-1.023-0.391-1.414,0s-0.391,1.023,0,1.414L20.586,8H7C6.447,8,6,8.447,6,9s0.447,1,1,1
		h13.586l-3.293,3.293c-0.391,0.391-0.391,1.023,0,1.414C17.488,14.902,17.744,15,18,15s0.512-0.098,0.707-0.293l5-5
		C24.098,9.316,24.098,8.684,23.707,8.293z"/>
	<path d="M23,20H9.414l3.293-3.293c0.391-0.391,0.391-1.023,0-1.414s-1.023-0.391-1.414,0l-5,5c-0.391,0.391-0.391,1.023,0,1.414
		l5,5C11.488,26.902,11.744,27,12,27s0.512-0.098,0.707-0.293c0.391-0.391,0.391-1.023,0-1.414L9.414,22H23c0.553,0,1-0.447,1-1
		S23.553,20,23,20z"/>
</g>
</svg>
