<?xml version="1.0" encoding="utf-8"?>
<!-- Generator: Adobe Illustrator 16.2.0, SVG Export Plug-In . SVG Version: 6.00 Build 0)  -->
<!DOCTYPE svg PUBLIC "-//W3C//DTD SVG 1.1//EN" "http://www.w3.org/Graphics/SVG/1.1/DTD/svg11.dtd">
<svg version="1.1" id="Layer_1" xmlns="http://www.w3.org/2000/svg" xmlns:xlink="http://www.w3.org/1999/xlink" x="0px" y="0px"
	 width="30px" height="30px" viewBox="0 0 30 30" enable-background="new 0 0 30 30" xml:space="preserve">
<g>
	<path d="M10.5,27c-0.243,0-0.486-0.089-0.679-0.266l-6.5-6c-0.302-0.279-0.402-0.715-0.253-1.099C3.219,19.252,3.588,19,4,19h3
		v-5c0-0.553,0.447-1,1-1h5c0.553,0,1,0.447,1,1v5h3c0.412,0,0.781,0.252,0.932,0.636c0.149,0.384,0.049,0.819-0.253,1.099l-6.5,6
		C10.986,26.911,10.743,27,10.5,27z M6.558,21l3.942,3.639L14.442,21H13c-0.553,0-1-0.447-1-1v-5H9v5c0,0.553-0.447,1-1,1H6.558z"
		/>
	<path d="M22,17h-5c-0.553,0-1-0.447-1-1v-5h-3c-0.412,0-0.781-0.252-0.932-0.636c-0.149-0.384-0.049-0.819,0.253-1.099l6.5-6
		c0.385-0.354,0.973-0.354,1.357,0l6.5,6c0.302,0.279,0.402,0.715,0.253,1.099C26.781,10.748,26.412,11,26,11h-3v5
		C23,16.553,22.553,17,22,17z M18,15h3v-5c0-0.553,0.447-1,1-1h1.442L19.5,5.361L15.558,9H17c0.553,0,1,0.447,1,1V15z"/>
</g>
</svg>
