<?xml version="1.0" encoding="utf-8"?>
<!-- Generator: Adobe Illustrator 16.2.0, SVG Export Plug-In . SVG Version: 6.00 Build 0)  -->
<!DOCTYPE svg PUBLIC "-//W3C//DTD SVG 1.1//EN" "http://www.w3.org/Graphics/SVG/1.1/DTD/svg11.dtd">
<svg version="1.1" id="Layer_1" xmlns="http://www.w3.org/2000/svg" xmlns:xlink="http://www.w3.org/1999/xlink" x="0px" y="0px"
	 width="30px" height="30px" viewBox="0 0 30 30" enable-background="new 0 0 30 30" xml:space="preserve">
<g>
	<path d="M25.707,12.293l-6-6c-0.391-0.391-1.023-0.391-1.414,0s-0.391,1.023,0,1.414L22.586,12H11c-4.58,0-7,2.421-7,7v4
		c0,0.553,0.448,1,1,1s1-0.447,1-1v-4c0-3.458,1.542-5,5-5h11.586l-4.293,4.293c-0.391,0.391-0.391,1.023,0,1.414
		C18.488,19.902,18.744,20,19,20s0.512-0.098,0.707-0.293l6-6C26.098,13.316,26.098,12.684,25.707,12.293z"/>
</g>	
</svg>
