<?xml version="1.0" encoding="utf-8"?>
<!-- Generator: Adobe Illustrator 16.2.0, SVG Export Plug-In . SVG Version: 6.00 Build 0)  -->
<!DOCTYPE svg PUBLIC "-//W3C//DTD SVG 1.1//EN" "http://www.w3.org/Graphics/SVG/1.1/DTD/svg11.dtd">
<svg version="1.1" id="Layer_1" xmlns="http://www.w3.org/2000/svg" xmlns:xlink="http://www.w3.org/1999/xlink" x="0px" y="0px"
	 width="30px" height="30px" viewBox="0 0 30 30" enable-background="new 0 0 30 30" xml:space="preserve">
<g>
	<path d="M15,4C8.935,4,4,8.935,4,15s4.935,11,11,11c1.122,0,2.232-0.17,3.3-0.505c0.526-0.166,0.819-0.727,0.654-1.253
		c-0.165-0.526-0.725-0.822-1.254-0.655C16.827,23.861,15.919,24,15,24c-4.963,0-9-4.038-9-9s4.037-9,9-9s9,4.038,9,9v3
		c0,1.103-0.897,2-2,2s-2-0.897-2-2v-6.1c0-0.162-0.039-0.322-0.115-0.466C19.833,11.335,18.568,9,15.5,9c-3.032,0-5.5,2.691-5.5,6
		s2.468,6,5.5,6c1.367,0,2.358-0.467,3.062-0.99C19.257,21.194,20.53,22,22,22c2.206,0,4-1.794,4-4v-3C26,8.935,21.065,4,15,4z
		 M15.5,19c-1.93,0-3.5-1.794-3.5-4s1.57-4,3.5-4c1.45,0,2.227,0.826,2.5,1.193v5.612C17.722,18.18,16.945,19,15.5,19z"/>
</g>
</svg>
