<?xml version="1.0" encoding="utf-8"?>
<!-- Generator: Adobe Illustrator 16.2.0, SVG Export Plug-In . SVG Version: 6.00 Build 0)  -->
<!DOCTYPE svg PUBLIC "-//W3C//DTD SVG 1.1//EN" "http://www.w3.org/Graphics/SVG/1.1/DTD/svg11.dtd">
<svg version="1.1" id="Layer_1" xmlns="http://www.w3.org/2000/svg" xmlns:xlink="http://www.w3.org/1999/xlink" x="0px" y="0px"
	 width="30px" height="30px" viewBox="0 0 30 30" enable-background="new 0 0 30 30" xml:space="preserve">
<g>
	<path d="M24.809,5.191c-0.779-0.78-1.896-1.192-3.229-1.192c-1.917,0-4.229,0.839-6.579,2.292
		c-2.352-1.453-4.662-2.292-6.579-2.292c-1.333,0-2.45,0.412-3.229,1.192c-1.939,1.939-1.373,5.774,1.104,9.81
		c-2.477,4.035-3.043,7.869-1.104,9.808C5.971,25.588,7.088,26,8.42,26c1.917,0,4.229-0.838,6.58-2.291
		C17.351,25.162,19.662,26,21.579,26c1.333,0,2.45-0.412,3.229-1.191c1.938-1.938,1.372-5.772-1.104-9.808
		C26.182,10.966,26.748,7.131,24.809,5.191z M21.579,5.999c0.803,0,1.413,0.204,1.815,0.606c1.041,1.041,0.731,3.581-0.927,6.572
		c-0.764-1.019-1.638-2.035-2.624-3.021c-0.979-0.98-1.998-1.859-3.026-2.632C18.564,6.55,20.227,5.999,21.579,5.999z
		 M21.322,15.001c-0.79,1.127-1.749,2.285-2.893,3.429c-1.105,1.105-2.27,2.067-3.43,2.883c-1.16-0.815-2.324-1.777-3.43-2.883
		c-1.144-1.144-2.103-2.302-2.893-3.429c0.79-1.128,1.749-2.287,2.893-3.431c1.105-1.106,2.27-2.067,3.43-2.884
		c1.16,0.816,2.324,1.777,3.43,2.884C19.573,12.714,20.532,13.873,21.322,15.001z M6.605,6.605c0.402-0.402,1.013-0.606,1.815-0.606
		c1.352,0,3.014,0.551,4.761,1.525c-1.027,0.772-2.046,1.651-3.025,2.632c-0.986,0.986-1.86,2.003-2.624,3.021
		C5.874,10.187,5.564,7.646,6.605,6.605z M8.42,24c-0.802,0-1.412-0.203-1.814-0.605c-1.041-1.041-0.73-3.58,0.927-6.571
		c0.764,1.019,1.638,2.035,2.624,3.021c0.979,0.979,1.998,1.859,3.025,2.632C11.434,23.449,9.772,24,8.42,24z M23.395,23.395
		C22.992,23.797,22.382,24,21.579,24c-1.353,0-3.014-0.551-4.761-1.524c1.027-0.772,2.046-1.652,3.025-2.632
		c0.986-0.985,1.86-2.002,2.624-3.021C24.125,19.814,24.436,22.354,23.395,23.395z"/>
	<circle cx="15" cy="15" r="2"/>
</g>
</svg>
