<?xml version="1.0" encoding="utf-8"?>
<!-- Generator: Adobe Illustrator 16.2.0, SVG Export Plug-In . SVG Version: 6.00 Build 0)  -->
<!DOCTYPE svg PUBLIC "-//W3C//DTD SVG 1.1//EN" "http://www.w3.org/Graphics/SVG/1.1/DTD/svg11.dtd">
<svg version="1.1" id="Layer_1" xmlns="http://www.w3.org/2000/svg" xmlns:xlink="http://www.w3.org/1999/xlink" x="0px" y="0px"
	 width="30px" height="30px" viewBox="0 0 30 30" enable-background="new 0 0 30 30" xml:space="preserve">
<g>
	<path d="M25.711,11.085l-1.782-4.456C23.776,6.249,23.409,6,23,6h-9c-2.176,0-4.623,3.508-5.617,5.094C6.155,11.509,2,12.604,2,15
		v5c0,0.553,0.448,1,1,1h2.051c0.245,1.691,1.691,3,3.449,3s3.204-1.309,3.449-3h6.102c0.245,1.691,1.691,3,3.449,3
		s3.204-1.309,3.449-3H27c0.552,0,1-0.447,1-1v-6C28,12.204,26.806,11.342,25.711,11.085z M23.523,11H19V8h3.323L23.523,11z M14,8h3
		v3h-6.137C12.027,9.392,13.356,8,14,8z M8.5,22C7.673,22,7,21.327,7,20.5S7.673,19,8.5,19s1.5,0.673,1.5,1.5S9.327,22,8.5,22z
		 M21.5,22c-0.827,0-1.5-0.673-1.5-1.5s0.673-1.5,1.5-1.5s1.5,0.673,1.5,1.5S22.327,22,21.5,22z M26,19h-1.351
		c-0.564-1.178-1.758-2-3.149-2s-2.585,0.822-3.149,2h-6.702c-0.564-1.178-1.758-2-3.149-2s-2.585,0.822-3.149,2H4v-4
		c0.059-0.522,2.414-1.54,5.095-2h15.894C25.45,13.012,26,13.194,26,14V19z"/>
	<path d="M16,14h-2c-0.552,0-1,0.447-1,1s0.448,1,1,1h2c0.552,0,1-0.447,1-1S16.552,14,16,14z"/>
</g>
</svg>
