<?xml version="1.0" encoding="utf-8"?>
<!-- Generator: Adobe Illustrator 16.2.0, SVG Export Plug-In . SVG Version: 6.00 Build 0)  -->
<!DOCTYPE svg PUBLIC "-//W3C//DTD SVG 1.1//EN" "http://www.w3.org/Graphics/SVG/1.1/DTD/svg11.dtd">
<svg version="1.1" id="Layer_1" xmlns="http://www.w3.org/2000/svg" xmlns:xlink="http://www.w3.org/1999/xlink" x="0px" y="0px"
	 width="30px" height="30px" viewBox="0 0 30 30" enable-background="new 0 0 30 30" xml:space="preserve">
<g>
	<path d="M24.69,21.276c0,0-2.278-2.175-4.83-4.681c0.446-0.457,0.766-0.791,0.896-0.94c3.279-3.782,2.503-8.173,1.183-10.2
		c-0.912-1.401-2.218-2.192-2.412-2.306C19.268,2.978,17.686,2,15,2c-2.592,0-4.24,0.97-4.502,1.135
		c-0.107,0.061-1.488,0.863-2.436,2.319c-1.321,2.029-2.096,6.421,1.183,10.201c0.089,0.104,0.285,0.316,0.895,0.94
		c-2.523,2.479-4.786,4.64-4.83,4.681c-0.295,0.282-0.39,0.716-0.238,1.095l2,5c0.125,0.312,0.396,0.539,0.725,0.607
		C7.864,27.993,7.933,28,8,28c0.26,0,0.514-0.102,0.703-0.288c0.239-0.236,3.308-3.267,6.297-6.241
		c3.102,3.087,6.297,6.241,6.297,6.241C21.486,27.898,21.739,28,22,28c0.068,0,0.137-0.007,0.204-0.021
		c0.328-0.068,0.6-0.296,0.725-0.607l2-5C25.08,21.992,24.986,21.559,24.69,21.276z M15,11.698c-0.512-0.539-0.934-0.997-1.248-1.356
		c-0.47-0.538-0.813-1.14-1.071-1.749c0.341-0.216,1.104-0.588,2.281-0.562c1.23,0.018,2.003,0.369,2.354,0.574
		c-0.259,0.604-0.602,1.199-1.07,1.736C15.916,10.722,15.489,11.184,15,11.698z M18.034,4.611c0.011,0.459-0.006,1.193-0.15,2.041
		c-0.646-0.301-1.602-0.603-2.892-0.621c-1.284-0.009-2.232,0.288-2.875,0.594c-0.14-0.83-0.159-1.551-0.149-2.005
		C12.507,4.373,13.555,4,15,4C16.491,4,17.518,4.37,18.034,4.611z M10.756,14.345C8.22,11.42,8.786,8.009,9.738,6.546
		c0.092-0.142,0.19-0.274,0.291-0.398c0.164,1.601,0.691,3.763,2.218,5.511c0.344,0.394,0.801,0.89,1.361,1.478
		c-0.648,0.66-1.34,1.354-2.045,2.054C11.042,14.657,10.833,14.434,10.756,14.345z M8.37,25.229l-1.19-2.974
		c1.843-1.767,8.264-7.954,10.573-10.598c1.527-1.748,2.055-3.91,2.218-5.511c0.102,0.124,0.199,0.258,0.291,0.398
		c0.953,1.463,1.52,4.874-1.018,7.799C18.58,15.111,11.936,21.703,8.37,25.229z M21.631,25.229c-1.195-1.182-3.223-3.189-5.214-5.17
		c0.729-0.729,1.425-1.424,2.038-2.041c1.851,1.817,3.56,3.463,4.366,4.236L21.631,25.229z"/>
</g>
</svg>
