<?xml version="1.0" encoding="utf-8"?>
<!-- Generator: Adobe Illustrator 16.2.0, SVG Export Plug-In . SVG Version: 6.00 Build 0)  -->
<!DOCTYPE svg PUBLIC "-//W3C//DTD SVG 1.1//EN" "http://www.w3.org/Graphics/SVG/1.1/DTD/svg11.dtd">
<svg version="1.1" id="Layer_1" xmlns="http://www.w3.org/2000/svg" xmlns:xlink="http://www.w3.org/1999/xlink" x="0px" y="0px"
	 width="30px" height="30px" viewBox="0 0 30 30" enable-background="new 0 0 30 30" xml:space="preserve">
<g>
	<path d="M21,11.985V10c0-0.979-0.411-2.66-3-3.516V5c0-1.654-1.346-3-3-3s-3,1.346-3,3v1.484C9.411,7.34,9,9.021,9,10v1.985
		c-0.971,0.849-2,2.305-2,4.682V24c0,1.654,1.346,3,3,3h10c1.654,0,3-1.346,3-3v-7.333C23,14.29,21.971,12.834,21,11.985z M11,10
		c0-0.844,0.748-1.442,2.224-1.781C13.678,8.114,14,7.71,14,7.244V5c0-0.552,0.448-1,1-1s1,0.448,1,1v2.244
		c0,0.466,0.322,0.87,0.776,0.975C18.252,8.558,19,9.156,19,10v1h-8V10z M21,24c0,0.552-0.448,1-1,1H10c-0.552,0-1-0.448-1-1v-7.333
		c0-2.311,1.37-3.319,2.009-3.667h7.982C19.63,13.348,21,14.356,21,16.667V24z"/>
	<path d="M12,22h-1c-0.553,0-1,0.447-1,1s0.447,1,1,1h1c0.553,0,1-0.447,1-1S12.553,22,12,22z"/>
	<path d="M12,19h-1c-0.553,0-1,0.447-1,1s0.447,1,1,1h1c0.553,0,1-0.447,1-1S12.553,19,12,19z"/>
	<path d="M12,16h-1c-0.553,0-1,0.447-1,1s0.447,1,1,1h1c0.553,0,1-0.447,1-1S12.553,16,12,16z"/>
</g>
</svg>
