<?xml version="1.0" encoding="utf-8"?>
<!-- Generator: Adobe Illustrator 16.2.0, SVG Export Plug-In . SVG Version: 6.00 Build 0)  -->
<!DOCTYPE svg PUBLIC "-//W3C//DTD SVG 1.1//EN" "http://www.w3.org/Graphics/SVG/1.1/DTD/svg11.dtd">
<svg version="1.1" id="Layer_1" xmlns="http://www.w3.org/2000/svg" xmlns:xlink="http://www.w3.org/1999/xlink" x="0px" y="0px"
	 width="30px" height="30px" viewBox="0 0 30 30" enable-background="new 0 0 30 30" xml:space="preserve">
<g>
	<path d="M18.414,15l3.293-3.293c0.391-0.391,0.391-1.023,0-1.414s-1.023-0.391-1.414,0L17,13.586l-3.293-3.293
		c-0.391-0.391-1.023-0.391-1.414,0s-0.391,1.023,0,1.414L15.586,15l-3.293,3.293c-0.391,0.391-0.391,1.023,0,1.414
		C12.488,19.902,12.744,20,13,20s0.512-0.098,0.707-0.293L17,16.414l3.293,3.293C20.488,19.902,20.744,20,21,20
		s0.512-0.098,0.707-0.293c0.391-0.391,0.391-1.023,0-1.414L18.414,15z"/>
	<path d="M27,25H8c-0.334,0-0.646-0.167-0.832-0.445l-6-9c-0.224-0.336-0.224-0.773,0-1.109l6-9C7.354,5.167,7.666,5,8,5h19
		c0.553,0,1,0.447,1,1v18C28,24.553,27.553,25,27,25z M8.535,23H26V7H8.535l-5.333,8L8.535,23z"/>
</g>
</svg>
