<?xml version="1.0" encoding="utf-8"?>
<!-- Generator: Adobe Illustrator 16.2.0, SVG Export Plug-In . SVG Version: 6.00 Build 0)  -->
<!DOCTYPE svg PUBLIC "-//W3C//DTD SVG 1.1//EN" "http://www.w3.org/Graphics/SVG/1.1/DTD/svg11.dtd">
<svg version="1.1" id="Layer_1" xmlns="http://www.w3.org/2000/svg" xmlns:xlink="http://www.w3.org/1999/xlink" x="0px" y="0px"
	 width="30px" height="30px" viewBox="0 0 30 30" enable-background="new 0 0 30 30" xml:space="preserve">
<g>
	<path d="M26,9h-5c0-3.309-2.691-6-6-6S9,5.691,9,9H4c-0.553,0-1,0.448-1,1v15c0,0.552,0.447,1,1,1h22c0.553,0,1-0.448,1-1V10
		C27,9.448,26.553,9,26,9z M15,5c2.206,0,4,1.794,4,4h-8C11,6.794,12.794,5,15,5z M25,24H5V11h4v2c0,0.552,0.447,1,1,1s1-0.448,1-1
		v-2h8v2c0,0.552,0.447,1,1,1s1-0.448,1-1v-2h4V24z"/>
</g>	
</svg>
