<?xml version="1.0" encoding="utf-8"?>
<!-- Generator: Adobe Illustrator 16.2.0, SVG Export Plug-In . SVG Version: 6.00 Build 0)  -->
<!DOCTYPE svg PUBLIC "-//W3C//DTD SVG 1.1//EN" "http://www.w3.org/Graphics/SVG/1.1/DTD/svg11.dtd">
<svg version="1.1" id="Layer_1" xmlns="http://www.w3.org/2000/svg" xmlns:xlink="http://www.w3.org/1999/xlink" x="0px" y="0px"
	 width="30px" height="30px" viewBox="0 0 30 30" enable-background="new 0 0 30 30" xml:space="preserve">
<g>
	<path d="M15,3C8.383,3,3,8.383,3,15s5.383,12,12,12s12-5.383,12-12S21.617,3,15,3z M5,15C5,9.486,9.486,5,15,5
		c2.397,0,4.6,0.85,6.324,2.262L7.262,21.324C5.85,19.6,5,17.397,5,15z M15,25c-2.397,0-4.6-0.85-6.324-2.262L22.738,8.676
		C24.15,10.4,25,12.603,25,15C25,20.514,20.514,25,15,25z"/>
</g>
</svg>
