<?xml version="1.0" encoding="utf-8"?>
<!-- Generator: Adobe Illustrator 16.2.0, SVG Export Plug-In . SVG Version: 6.00 Build 0)  -->
<!DOCTYPE svg PUBLIC "-//W3C//DTD SVG 1.1//EN" "http://www.w3.org/Graphics/SVG/1.1/DTD/svg11.dtd">
<svg version="1.1" id="Layer_1" xmlns="http://www.w3.org/2000/svg" xmlns:xlink="http://www.w3.org/1999/xlink" x="0px" y="0px"
	 width="30px" height="30px" viewBox="0 0 30 30" enable-background="new 0 0 30 30" xml:space="preserve">
<g>
	<path d="M27,26H3c-0.552,0-1-0.448-1-1s0.448-1,1-1h24c0.552,0,1,0.448,1,1S27.552,26,27,26z"/>
	<path d="M25,23H5c-0.552,0-1-0.448-1-1s0.448-1,1-1h20c0.552,0,1,0.448,1,1S25.552,23,25,23z"/>
	<path d="M27,12H3c-0.464,0-0.867-0.319-0.973-0.77c-0.106-0.452,0.111-0.917,0.526-1.125l12-6c0.281-0.141,0.613-0.141,0.895,0
		l12,6c0.415,0.208,0.632,0.673,0.526,1.125C27.867,11.681,27.464,12,27,12z M7.236,10h15.528L15,6.118L7.236,10z"/>
	<path d="M6,20c-0.552,0-1-0.448-1-1v-5c0-0.552,0.448-1,1-1s1,0.448,1,1v5C7,19.552,6.552,20,6,20z"/>
	<path d="M24,20c-0.552,0-1-0.448-1-1v-5c0-0.552,0.448-1,1-1s1,0.448,1,1v5C25,19.552,24.552,20,24,20z"/>
	<path d="M20,20c-0.552,0-1-0.448-1-1v-5c0-0.552,0.448-1,1-1s1,0.448,1,1v5C21,19.552,20.552,20,20,20z"/>
	<path d="M10,20c-0.552,0-1-0.448-1-1v-5c0-0.552,0.448-1,1-1s1,0.448,1,1v5C11,19.552,10.552,20,10,20z"/>
</g>
</svg>
