<?xml version="1.0" encoding="utf-8"?>
<!-- Generator: Adobe Illustrator 16.2.0, SVG Export Plug-In . SVG Version: 6.00 Build 0)  -->
<!DOCTYPE svg PUBLIC "-//W3C//DTD SVG 1.1//EN" "http://www.w3.org/Graphics/SVG/1.1/DTD/svg11.dtd">
<svg version="1.1" id="Layer_1" xmlns="http://www.w3.org/2000/svg" xmlns:xlink="http://www.w3.org/1999/xlink" x="0px" y="0px"
	 width="30px" height="30px" viewBox="0 0 30 30" enable-background="new 0 0 30 30" xml:space="preserve">
<g>
	<path d="M27.805,10.406C27.616,10.15,27.317,10,27,10h-6.684l-2.402-5.406c-0.225-0.504-0.815-0.732-1.32-0.507
		c-0.505,0.224-0.731,0.815-0.508,1.32L18.128,10h-6.256l2.042-4.594c0.224-0.505-0.003-1.096-0.508-1.32
		c-0.503-0.225-1.096,0.003-1.32,0.507L9.684,10H3c-0.317,0-0.616,0.15-0.805,0.406s-0.244,0.585-0.151,0.888l4,13
		C6.173,24.714,6.561,25,7,25h16c0.439,0,0.827-0.286,0.956-0.706l4-13C28.049,10.991,27.993,10.661,27.805,10.406z M22.262,23H7.738
		L4.354,12h4.44l-0.708,1.594c-0.224,0.505,0.003,1.096,0.508,1.32C8.726,14.973,8.863,15,8.999,15c0.384,0,0.749-0.222,0.915-0.594
		L10.983,12h8.033l1.069,2.406C20.252,14.779,20.617,15,21.001,15c0.136,0,0.273-0.028,0.405-0.087
		c0.505-0.224,0.731-0.815,0.508-1.32L21.206,12h4.44L22.262,23z"/>
</g>	
</svg>
