<?xml version="1.0" encoding="utf-8"?>
<!-- Generator: Adobe Illustrator 16.2.0, SVG Export Plug-In . SVG Version: 6.00 Build 0)  -->
<!DOCTYPE svg PUBLIC "-//W3C//DTD SVG 1.1//EN" "http://www.w3.org/Graphics/SVG/1.1/DTD/svg11.dtd">
<svg version="1.1" id="Layer_1" xmlns="http://www.w3.org/2000/svg" xmlns:xlink="http://www.w3.org/1999/xlink" x="0px" y="0px"
	 width="30px" height="30px" viewBox="0 0 30 30" enable-background="new 0 0 30 30" xml:space="preserve">
<g>
	<path d="M8,20c-0.553,0-1-0.447-1-1v-8c0-0.553,0.447-1,1-1s1,0.447,1,1v8C9,19.553,8.553,20,8,20z"/>
	<path d="M12,20c-0.553,0-1-0.447-1-1v-8c0-0.553,0.447-1,1-1s1,0.447,1,1v8C13,19.553,12.553,20,12,20z"/>
	<path d="M16,20c-0.553,0-1-0.447-1-1v-8c0-0.553,0.447-1,1-1s1,0.447,1,1v8C17,19.553,16.553,20,16,20z"/>
	<path d="M20,20c-0.553,0-1-0.447-1-1v-8c0-0.553,0.447-1,1-1s1,0.447,1,1v8C21,19.553,20.553,20,20,20z"/>
	<path d="M26,11h-1V8c0-0.553-0.447-1-1-1H4C3.447,7,3,7.447,3,8v14c0,0.553,0.447,1,1,1h20c0.553,0,1-0.447,1-1v-3h1
		c1.475,0,2-2.066,2-4S27.475,11,26,11z M23,21H5V9h18V21z M25.685,17H25v-4h0.685C25.824,13.315,26,14.029,26,15
		S25.824,16.685,25.685,17z"/>
</g>
</svg>
