<?xml version="1.0" encoding="utf-8"?>
<!-- Generator: Adobe Illustrator 16.2.0, SVG Export Plug-In . SVG Version: 6.00 Build 0)  -->
<!DOCTYPE svg PUBLIC "-//W3C//DTD SVG 1.1//EN" "http://www.w3.org/Graphics/SVG/1.1/DTD/svg11.dtd">
<svg version="1.1" id="Layer_1" xmlns="http://www.w3.org/2000/svg" xmlns:xlink="http://www.w3.org/1999/xlink" x="0px" y="0px"
	 width="30px" height="30px" viewBox="0 0 30 30" enable-background="new 0 0 30 30" xml:space="preserve">
<g>
	<path d="M8,19c-0.256,0-0.512-0.098-0.707-0.293c-0.391-0.391-0.391-1.023,0-1.414l5-5c0.227-0.228,0.545-0.333,0.867-0.28
		c0.317,0.052,0.591,0.253,0.734,0.54l1.38,2.759l4.019-4.019c0.391-0.391,1.023-0.391,1.414,0s0.391,1.023,0,1.414l-5,5
		c-0.227,0.228-0.547,0.331-0.867,0.28c-0.317-0.052-0.591-0.253-0.734-0.54l-1.38-2.759l-4.019,4.019C8.512,18.902,8.256,19,8,19z
		"/>
	<path d="M26,11h-1V8c0-0.553-0.447-1-1-1H4C3.447,7,3,7.447,3,8v14c0,0.553,0.447,1,1,1h20c0.553,0,1-0.447,1-1v-3h1
		c1.475,0,2-2.066,2-4S27.475,11,26,11z M23,21H5V9h18V21z M25.685,17H25v-4h0.685C25.824,13.315,26,14.029,26,15
		S25.824,16.685,25.685,17z"/>
</g>
</svg>
