<?xml version="1.0" encoding="utf-8"?>
<!-- Generator: Adobe Illustrator 16.2.0, SVG Export Plug-In . SVG Version: 6.00 Build 0)  -->
<!DOCTYPE svg PUBLIC "-//W3C//DTD SVG 1.1//EN" "http://www.w3.org/Graphics/SVG/1.1/DTD/svg11.dtd">
<svg version="1.1" id="Layer_1" xmlns="http://www.w3.org/2000/svg" xmlns:xlink="http://www.w3.org/1999/xlink" x="0px" y="0px"
	 width="30px" height="30px" viewBox="0 0 30 30" enable-background="new 0 0 30 30" xml:space="preserve">
<g>
	<path d="M26,15H13c0-3.859-3.065-7-6.833-7H5V5c0-0.553-0.447-1-1-1S3,4.447,3,5v20c0,0.553,0.447,1,1,1s1-0.447,1-1v-2h20v2
		c0,0.553,0.447,1,1,1s1-0.447,1-1v-9C27,15.447,26.553,15,26,15z M6.167,10C8.832,10,11,12.243,11,15H5v-5H6.167z M5,21v-4h20v4H5z"
		/>
</g>
</svg>
