<?xml version="1.0" encoding="utf-8"?>
<!-- Generator: Adobe Illustrator 16.2.0, SVG Export Plug-In . SVG Version: 6.00 Build 0)  -->
<!DOCTYPE svg PUBLIC "-//W3C//DTD SVG 1.1//EN" "http://www.w3.org/Graphics/SVG/1.1/DTD/svg11.dtd">
<svg version="1.1" id="Layer_1" xmlns="http://www.w3.org/2000/svg" xmlns:xlink="http://www.w3.org/1999/xlink" x="0px" y="0px"
	 width="30px" height="30px" viewBox="0 0 30 30" enable-background="new 0 0 30 30" xml:space="preserve">
<g>
	<path d="M24,15c-0.334,0-0.659,0.036-0.975,0.099l-1.998-3.33L21.87,10H23c0.553,0,1-0.447,1-1s-0.447-1-1-1h-4
		c-0.553,0-1,0.447-1,1s0.447,1,1,1h0.654l-0.492,1.033C19.107,11.023,19.058,11,19,11h-8.147l0.305-1.011
		c0.12-0.397-0.018-0.827-0.346-1.08L9,7.51V7.5C9,7.225,9.225,7,9.5,7H12c0.553,0,1-0.447,1-1s-0.447-1-1-1H9.5
		C8.121,5,7,6.121,7,7.5V8c0,0.021,0.011,0.04,0.013,0.062c0.004,0.069,0.021,0.134,0.04,0.201c0.017,0.061,0.031,0.119,0.059,0.175
		c0.026,0.054,0.063,0.1,0.1,0.148c0.043,0.058,0.084,0.112,0.138,0.159c0.016,0.014,0.023,0.033,0.04,0.046l1.655,1.279l-1.561,5.18
		C7.012,15.103,6.52,15,6,15c-2.757,0-5,2.243-5,5s2.243,5,5,5s5-2.243,5-5c0-1.501-0.679-2.834-1.729-3.751l0.5-1.658L14.653,20H14
		c-0.553,0-1,0.447-1,1s0.447,1,1,1h2c0.553,0,1-0.447,1-1h2.102c0.464,2.279,2.484,4,4.898,4c2.757,0,5-2.243,5-5S26.757,15,24,15z
		 M6,23c-1.654,0-3-1.346-3-3s1.346-3,3-3c0.254,0,0.496,0.041,0.731,0.101l-1.563,2.345c-0.307,0.46-0.183,1.08,0.277,1.387
		C5.616,20.945,5.809,21,5.999,21c0.323,0,0.641-0.156,0.833-0.445l1.563-2.344C8.77,18.712,9,19.327,9,20C9,21.654,7.654,23,6,23z
		 M21.167,15.888c-1.044,0.722-1.804,1.826-2.065,3.112h-1.518l2.411-5.064L21.167,15.888z M15.74,18.22L11.027,13h7.198L15.74,18.22
		z M24,23c-1.302,0-2.401-0.839-2.815-2H24c0.553,0,1-0.447,1-1s-0.447-1-1-1h-2.815c0.414-1.161,1.514-2,2.815-2
		c1.654,0,3,1.346,3,3S25.654,23,24,23z"/>
</g>
</svg>
