<?xml version="1.0" encoding="utf-8"?>
<!-- Generator: Adobe Illustrator 16.2.0, SVG Export Plug-In . SVG Version: 6.00 Build 0)  -->
<!DOCTYPE svg PUBLIC "-//W3C//DTD SVG 1.1//EN" "http://www.w3.org/Graphics/SVG/1.1/DTD/svg11.dtd">
<svg version="1.1" id="Layer_1" xmlns="http://www.w3.org/2000/svg" xmlns:xlink="http://www.w3.org/1999/xlink" x="0px" y="0px"
	 width="30px" height="30px" viewBox="0 0 30 30" enable-background="new 0 0 30 30" xml:space="preserve">
<g>
	<path d="M25,7h-7V5c0-0.552-0.448-1-1-1h-4c-0.552,0-1,0.448-1,1v2H5C4.448,7,4,7.448,4,8s0.448,1,1,1h1v16c0,0.552,0.448,1,1,1h16
		c0.552,0,1-0.448,1-1V9h1c0.552,0,1-0.448,1-1S25.552,7,25,7z M14,6h2v1h-2V6z M22,24h-2V13c0-0.552-0.448-1-1-1s-1,0.448-1,1v11h-2
		V13c0-0.552-0.448-1-1-1s-1,0.448-1,1v11h-2V13c0-0.552-0.448-1-1-1s-1,0.448-1,1v11H8V9h14V24z"/>
</g>
</svg>
