<?xml version="1.0" encoding="utf-8"?>
<!-- Generator: Adobe Illustrator 16.2.0, SVG Export Plug-In . SVG Version: 6.00 Build 0)  -->
<!DOCTYPE svg PUBLIC "-//W3C//DTD SVG 1.1//EN" "http://www.w3.org/Graphics/SVG/1.1/DTD/svg11.dtd">
<svg version="1.1" id="Layer_1" xmlns="http://www.w3.org/2000/svg" xmlns:xlink="http://www.w3.org/1999/xlink" x="0px" y="0px"
	 width="30px" height="30px" viewBox="0 0 30 30" enable-background="new 0 0 30 30" xml:space="preserve">
<g>
	<path d="M24,3H6C5.448,3,5,3.448,5,4v22c0,0.552,0.448,1,1,1h10.5c0.265,0,0.52-0.105,0.707-0.293l7.5-7.5
		C24.895,19.02,25,18.765,25,18.5V4C25,3.448,24.552,3,24,3z M7,25V5h16v12h-7c-0.552,0-1,0.448-1,1v7H7z M17,24.086V19h5.086
		L17,24.086z"/>
</g>
</svg>
