<?xml version="1.0" encoding="utf-8"?>
<!-- Generator: Adobe Illustrator 16.2.0, SVG Export Plug-In . SVG Version: 6.00 Build 0)  -->
<!DOCTYPE svg PUBLIC "-//W3C//DTD SVG 1.1//EN" "http://www.w3.org/Graphics/SVG/1.1/DTD/svg11.dtd">
<svg version="1.1" id="Layer_1" xmlns="http://www.w3.org/2000/svg" xmlns:xlink="http://www.w3.org/1999/xlink" x="0px" y="0px"
	 width="30px" height="30px" viewBox="0 0 30 30" enable-background="new 0 0 30 30" xml:space="preserve">
<g>
	<path d="M13,14H4c-0.552,0-1-0.447-1-1V5c0-0.553,0.448-1,1-1h9c0.552,0,1,0.447,1,1v8C14,13.553,13.552,14,13,14z M5,12h7V6H5V12
		z"/>
	<path d="M26,14h-9c-0.552,0-1-0.447-1-1V5c0-0.553,0.448-1,1-1h9c0.552,0,1,0.447,1,1v8C27,13.553,26.552,14,26,14z M18,12h7V6h-7
		V12z"/>
	<path d="M13,26H4c-0.552,0-1-0.447-1-1v-8c0-0.553,0.448-1,1-1h9c0.552,0,1,0.447,1,1v8C14,25.553,13.552,26,13,26z M5,24h7v-6H5
		V24z"/>
	<path d="M26,26h-9c-0.552,0-1-0.447-1-1v-8c0-0.553,0.448-1,1-1h9c0.552,0,1,0.447,1,1v8C27,25.553,26.552,26,26,26z M18,24h7v-6
		h-7V24z"/>
</g>
</svg>
