<?xml version="1.0" encoding="utf-8"?>
<!-- Generator: Adobe Illustrator 16.2.0, SVG Export Plug-In . SVG Version: 6.00 Build 0)  -->
<!DOCTYPE svg PUBLIC "-//W3C//DTD SVG 1.1//EN" "http://www.w3.org/Graphics/SVG/1.1/DTD/svg11.dtd">
<svg version="1.1" id="Layer_1" xmlns="http://www.w3.org/2000/svg" xmlns:xlink="http://www.w3.org/1999/xlink" x="0px" y="0px"
	 width="30px" height="30px" viewBox="0 0 30 30" enable-background="new 0 0 30 30" xml:space="preserve">
<g>
	<path d="M15,26c-0.144,0-0.289-0.031-0.424-0.095C14.225,25.741,14,25.388,14,25v-7.865l-4.36,3.634
		c-0.425,0.353-1.055,0.296-1.408-0.128c-0.354-0.425-0.296-1.056,0.128-1.409L13.438,15L8.36,10.769
		c-0.424-0.354-0.481-0.984-0.128-1.409c0.353-0.424,0.984-0.48,1.408-0.128L14,12.865V5c0-0.388,0.225-0.741,0.576-0.905
		c0.35-0.165,0.766-0.112,1.064,0.137l6,5C21.868,9.422,22,9.703,22,10s-0.132,0.578-0.36,0.769L16.562,15l5.078,4.231
		C21.868,19.422,22,19.703,22,20s-0.132,0.578-0.36,0.769l-6,5C15.457,25.921,15.229,26,15,26z M16,17.135v5.73L19.438,20L16,17.135
		z M16,7.135v5.73L19.438,10L16,7.135z"/>
</g>
</svg>
