<?xml version="1.0" encoding="utf-8"?>
<!-- Generator: Adobe Illustrator 16.2.0, SVG Export Plug-In . SVG Version: 6.00 Build 0)  -->
<!DOCTYPE svg PUBLIC "-//W3C//DTD SVG 1.1//EN" "http://www.w3.org/Graphics/SVG/1.1/DTD/svg11.dtd">
<svg version="1.1" id="Layer_1" xmlns="http://www.w3.org/2000/svg" xmlns:xlink="http://www.w3.org/1999/xlink" x="0px" y="0px"
	 width="30px" height="30px" viewBox="0 0 30 30" enable-background="new 0 0 30 30" xml:space="preserve">
<g>
	<path d="M26,5h-2V4c0-0.552-0.448-1-1-1H6C4.346,3,3,4.346,3,6v18c0,0,0,0.001,0,0.001C3.001,25.655,4.346,27,6,27h20
		c0.552,0,1-0.448,1-1V6C27,5.448,26.552,5,26,5z M9,5h5v7.277l-2.004-1.145c-0.308-0.176-0.685-0.176-0.992,0L9,12.277V5z M5,6
		c0-0.551,0.449-1,1-1h1v9c0,0.356,0.19,0.686,0.498,0.865c0.308,0.179,0.688,0.18,0.998,0.003l3.004-1.716l3.004,1.716
		C14.658,14.956,14.829,15,15,15c0.173,0,0.347-0.045,0.502-0.135C15.81,14.686,16,14.356,16,14V5h6v16H6
		c-0.351,0-0.687,0.061-1,0.171V6z M25,25H6c-0.551,0-1-0.449-1-1s0.449-1,1-1h17c0.552,0,1-0.448,1-1V7h1V25z"/>
</g>
</svg>
