<?xml version="1.0" encoding="utf-8"?>
<!-- Generator: Adobe Illustrator 16.2.0, SVG Export Plug-In . SVG Version: 6.00 Build 0)  -->
<!DOCTYPE svg PUBLIC "-//W3C//DTD SVG 1.1//EN" "http://www.w3.org/Graphics/SVG/1.1/DTD/svg11.dtd">
<svg version="1.1" id="Layer_1" xmlns="http://www.w3.org/2000/svg" xmlns:xlink="http://www.w3.org/1999/xlink" x="0px" y="0px"
	 width="30px" height="30px" viewBox="0 0 30 30" enable-background="new 0 0 30 30" xml:space="preserve">
<g>
	<path d="M23,26c-0.185,0-0.368-0.051-0.53-0.152L15,21.179l-7.47,4.669c-0.31,0.192-0.698,0.203-1.015,0.026
		C6.197,25.698,6,25.364,6,25V5c0-0.552,0.447-1,1-1h16c0.553,0,1,0.448,1,1v20c0,0.364-0.197,0.698-0.516,0.875
		C23.334,25.958,23.167,26,23,26z M15,19c0.184,0,0.368,0.051,0.53,0.152L22,23.196V6H8v17.196l6.47-4.044
		C14.632,19.051,14.816,19,15,19z"/>
</g>
</svg>
