<?xml version="1.0" encoding="utf-8"?>
<!-- Generator: Adobe Illustrator 16.2.0, SVG Export Plug-In . SVG Version: 6.00 Build 0)  -->
<!DOCTYPE svg PUBLIC "-//W3C//DTD SVG 1.1//EN" "http://www.w3.org/Graphics/SVG/1.1/DTD/svg11.dtd">
<svg version="1.1" id="Layer_1" xmlns="http://www.w3.org/2000/svg" xmlns:xlink="http://www.w3.org/1999/xlink" x="0px" y="0px"
	 width="30px" height="30px" viewBox="0 0 30 30" enable-background="new 0 0 30 30" xml:space="preserve">
<g>
	<path d="M27,14h-5V6c0-0.552-0.447-1-1-1H9C8.447,5,8,5.448,8,6v8H3c-0.553,0-1,0.448-1,1v9c0,0.552,0.447,1,1,1h24
		c0.553,0,1-0.448,1-1v-9C28,14.448,27.553,14,27,14z M10,7h10v7H10V7z M4,16h10v7H4V16z M26,23H16v-7h10V23z"/>
</g>
</svg>
