<?xml version="1.0" encoding="utf-8"?>
<!-- Generator: Adobe Illustrator 16.2.0, SVG Export Plug-In . SVG Version: 6.00 Build 0)  -->
<!DOCTYPE svg PUBLIC "-//W3C//DTD SVG 1.1//EN" "http://www.w3.org/Graphics/SVG/1.1/DTD/svg11.dtd">
<svg version="1.1" id="Layer_1" xmlns="http://www.w3.org/2000/svg" xmlns:xlink="http://www.w3.org/1999/xlink" x="0px" y="0px"
	 width="30px" height="30px" viewBox="0 0 30 30" enable-background="new 0 0 30 30" xml:space="preserve">
<g>
	<path d="M14,19h2c0.552,0,1-0.448,1-1s-0.448-1-1-1h-2c-0.552,0-1,0.448-1,1S13.448,19,14,19z"/>
	<path d="M26,7h-6V6.5C20,5.122,18.654,4,17,4h-4c-1.654,0-3,1.122-3,2.5V7H4C3.448,7,3,7.448,3,8v17c0,0.552,0.448,1,1,1h22
		c0.552,0,1-0.448,1-1V8C27,7.448,26.552,7,26,7z M12,6.5C12,6.328,12.39,6,13,6h4c0.61,0,1,0.328,1,0.5V7h-6V6.5z M25,9v11H5V9H25z
		 M5,24v-2h20v2H5z"/>
</g>
</svg>
