<?xml version="1.0" encoding="utf-8"?>
<!-- Generator: Adobe Illustrator 16.2.0, SVG Export Plug-In . SVG Version: 6.00 Build 0)  -->
<!DOCTYPE svg PUBLIC "-//W3C//DTD SVG 1.1//EN" "http://www.w3.org/Graphics/SVG/1.1/DTD/svg11.dtd">
<svg version="1.1" id="Layer_1" xmlns="http://www.w3.org/2000/svg" xmlns:xlink="http://www.w3.org/1999/xlink" x="0px" y="0px"
	 width="30px" height="30px" viewBox="0 0 30 30" enable-background="new 0 0 30 30" xml:space="preserve">
<g>
	<path d="M10.051,18.95c-0.256,0-0.512-0.098-0.707-0.293C7.833,17.146,7,15.137,7,13s0.833-4.146,2.344-5.657
		c0.391-0.391,1.023-0.391,1.414,0s0.391,1.023,0,1.414C9.625,9.891,9,11.397,9,13s0.625,3.109,1.758,4.243
		c0.391,0.391,0.391,1.023,0,1.414C10.563,18.853,10.307,18.95,10.051,18.95z"/>
	<path d="M7.222,22c-0.261,0-0.521-0.102-0.717-0.303C4.245,19.373,3,16.284,3,13s1.245-6.373,3.505-8.697
		c0.384-0.396,1.018-0.405,1.414-0.02c0.396,0.385,0.405,1.018,0.02,1.414C6.043,7.646,5,10.239,5,13s1.043,5.354,2.938,7.303
		c0.385,0.396,0.376,1.029-0.02,1.414C7.725,21.906,7.473,22,7.222,22z"/>
	<path d="M19.949,18.95c-0.256,0-0.512-0.098-0.707-0.293c-0.391-0.391-0.391-1.023,0-1.414C20.375,16.109,21,14.603,21,13
		s-0.625-3.109-1.758-4.243c-0.391-0.391-0.391-1.023,0-1.414s1.023-0.391,1.414,0C22.167,8.854,23,10.863,23,13
		s-0.833,4.146-2.344,5.657C20.461,18.853,20.205,18.95,19.949,18.95z"/>
	<path d="M22.778,22c-0.251,0-0.503-0.094-0.697-0.283c-0.396-0.385-0.405-1.018-0.02-1.414C23.957,18.354,25,15.761,25,13
		s-1.043-5.354-2.938-7.303c-0.385-0.396-0.376-1.029,0.02-1.414c0.396-0.385,1.029-0.375,1.414,0.02C25.755,6.627,27,9.716,27,13
		s-1.245,6.373-3.505,8.697C23.299,21.898,23.039,22,22.778,22z"/>
	<path d="M19,13c0-2.206-1.794-4-4-4s-4,1.794-4,4c0,1.858,1.28,3.411,3,3.858V25c0,0.553,0.448,1,1,1s1-0.447,1-1v-8.142
		C17.72,16.411,19,14.858,19,13z M15,15c-1.103,0-2-0.897-2-2s0.897-2,2-2s2,0.897,2,2S16.103,15,15,15z"/>
</g>
</svg>
