<?xml version="1.0" encoding="utf-8"?>
<!-- Generator: Adobe Illustrator 16.2.0, SVG Export Plug-In . SVG Version: 6.00 Build 0)  -->
<!DOCTYPE svg PUBLIC "-//W3C//DTD SVG 1.1//EN" "http://www.w3.org/Graphics/SVG/1.1/DTD/svg11.dtd">
<svg version="1.1" id="Layer_1" xmlns="http://www.w3.org/2000/svg" xmlns:xlink="http://www.w3.org/1999/xlink" x="0px" y="0px"
	 width="30px" height="30px" viewBox="0 0 30 30" enable-background="new 0 0 30 30" xml:space="preserve">
<g>
	<path d="M26,4H4C3.447,4,3,4.448,3,5v20c0,0.552,0.447,1,1,1h22c0.553,0,1-0.448,1-1V5C27,4.448,26.553,4,26,4z M25,6v4H5V6H25z
		 M5,12h14v12H5V12z M21,24V12h4v12H21z"/>
	<circle cx="7" cy="8" r="1"/>
	<circle cx="10" cy="8" r="1"/>
	<circle cx="13" cy="8" r="1"/>
</g>
</svg>
