<?xml version="1.0" encoding="utf-8"?>
<!-- Generator: Adobe Illustrator 16.2.0, SVG Export Plug-In . SVG Version: 6.00 Build 0)  -->
<!DOCTYPE svg PUBLIC "-//W3C//DTD SVG 1.1//EN" "http://www.w3.org/Graphics/SVG/1.1/DTD/svg11.dtd">
<svg version="1.1" id="Layer_1" xmlns="http://www.w3.org/2000/svg" xmlns:xlink="http://www.w3.org/1999/xlink" x="0px" y="0px"
	 width="30px" height="30px" viewBox="0 0 30 30" enable-background="new 0 0 30 30" xml:space="preserve">
<g>
	<path d="M26.651,4.366c-0.239-0.239-0.565-0.36-0.969-0.36c-1.942,0-9.724,3.545-13.24,7.062c-1.692,1.692-2.112,3.628-2.176,4.923
		c-0.481-0.024-1.039,0.037-1.618,0.285c-1.255,0.536-2.173,1.753-2.729,3.617c-0.626,2.101-2.064,2.468-2.11,2.479
		c-0.375,0.077-0.673,0.361-0.769,0.731s0.03,0.763,0.322,1.011c0.996,0.846,2.993,1.913,5.327,1.913
		c1.281,0,2.664-0.321,4.038-1.177c1.816-1.131,2.283-2.831,2.263-4.098c1.227-0.057,3.227-0.446,4.958-2.177
		c2.369-2.368,4.386-6.25,5.143-7.81C27.694,5.408,26.989,4.704,26.651,4.366z M13.472,12.927c0.324,0.813,0.868,1.78,1.833,2.744
		c0.992,0.992,1.988,1.541,2.814,1.86c-1.218,1.001-2.541,1.232-3.479,1.232c-0.164,0-0.305-0.007-0.415-0.017l-1.955-1.956
		C12.212,16.139,12.229,14.462,13.472,12.927z M11.672,23.151c-2.25,1.401-4.379,0.871-5.689,0.252
		c0.693-0.577,1.424-1.494,1.855-2.939c0.369-1.238,0.915-2.047,1.579-2.341c0.551-0.242,1.105-0.098,1.34-0.015l2.177,2.177
		C13.021,20.66,13.252,22.167,11.672,23.151z M19.634,15.913c-0.578-0.109-1.726-0.465-2.916-1.656
		c-1.152-1.152-1.521-2.26-1.643-2.855c3.054-2.44,7.708-4.589,9.753-5.213C24.204,8.218,22.05,12.869,19.634,15.913z"/>
</g>
</svg>
