<?xml version="1.0" encoding="utf-8"?>
<!-- Generator: Adobe Illustrator 16.2.0, SVG Export Plug-In . SVG Version: 6.00 Build 0)  -->
<!DOCTYPE svg PUBLIC "-//W3C//DTD SVG 1.1//EN" "http://www.w3.org/Graphics/SVG/1.1/DTD/svg11.dtd">
<svg version="1.1" id="Layer_1" xmlns="http://www.w3.org/2000/svg" xmlns:xlink="http://www.w3.org/1999/xlink" x="0px" y="0px"
	 width="30px" height="30px" viewBox="0 0 30 30" enable-background="new 0 0 30 30" xml:space="preserve">
<g>
	<path d="M22.5,3c-0.988,0-1.814,0.6-2.482,1.581c-0.041,0.031-0.09,0.048-0.128,0.086C16.653,7.93,13.032,8,13,8H6
		c-1.654,0-3,1.346-3,3v5c0,1.654,1.346,3,3,3h0.975l3.104,7.387C10.234,26.758,10.598,27,11,27h4c0.313,0,0.609-0.147,0.799-0.398
		c0.188-0.251,0.249-0.576,0.162-0.877l-1.891-6.593c1.314,0.252,3.636,0.992,5.821,3.184c0.03,0.031,0.07,0.043,0.104,0.069
		C20.667,23.386,21.501,24,22.5,24c2.954,0,4.5-5.282,4.5-10.5S25.454,3,22.5,3z M20,13.5c0-0.892,0.049-1.72,0.131-2.489
		C21.367,11.068,22,11.899,22,13.5s-0.633,2.432-1.869,2.489C20.049,15.22,20,14.392,20,13.5z M5,16v-5c0-0.551,0.448-1,1-1h6v7H6
		C5.448,17,5,16.551,5,16z M11.665,25l-2.521-6h2.809l1.72,6H11.665z M14,17.091V9.909c1.024-0.154,2.723-0.583,4.569-1.691
		C18.194,9.834,18,11.668,18,13.5c0,1.828,0.193,3.658,0.567,5.272C16.722,17.671,15.023,17.244,14,17.091z M22.5,22
		c-0.594,0-1.521-1.47-2.063-4.04C22.641,17.763,24,16.104,24,13.5s-1.359-4.263-3.563-4.46C20.979,6.47,21.906,5,22.5,5
		c0.882,0,2.5,3.227,2.5,8.5S23.382,22,22.5,22z"/>
	<path d="M8,11H7c-0.553,0-1,0.448-1,1s0.447,1,1,1h1c0.553,0,1-0.448,1-1S8.553,11,8,11z"/>
</g>
</svg>
