<?xml version="1.0" encoding="utf-8"?>
<!-- Generator: Adobe Illustrator 16.2.0, SVG Export Plug-In . SVG Version: 6.00 Build 0)  -->
<!DOCTYPE svg PUBLIC "-//W3C//DTD SVG 1.1//EN" "http://www.w3.org/Graphics/SVG/1.1/DTD/svg11.dtd">
<svg version="1.1" id="Layer_1" xmlns="http://www.w3.org/2000/svg" xmlns:xlink="http://www.w3.org/1999/xlink" x="0px" y="0px"
	 width="30px" height="30px" viewBox="0 0 30 30" enable-background="new 0 0 30 30" xml:space="preserve">
<g>
	<path d="M28,6H4C2.346,6,1,7.346,1,9v12c0,0.553,0.448,1,1,1h2.051c0.245,1.691,1.691,3,3.449,3s3.204-1.309,3.449-3h8.102
		c0.245,1.691,1.691,3,3.449,3s3.204-1.309,3.449-3H28c0.552,0,1-0.447,1-1V7C29,6.447,28.552,6,28,6z M27,12h-4V8h4V12z M8.866,12
		l2.286-4H15v4H8.866z M17,8h4v4h-4V8z M4,8h4.848l-3.429,6H3V9C3,8.448,3.449,8,4,8z M7.5,23C6.673,23,6,22.327,6,21.5
		S6.673,20,7.5,20S9,20.673,9,21.5S8.327,23,7.5,23z M22.5,23c-0.827,0-1.5-0.673-1.5-1.5s0.673-1.5,1.5-1.5s1.5,0.673,1.5,1.5
		S23.327,23,22.5,23z M25.649,20c-0.564-1.178-1.758-2-3.149-2s-2.585,0.822-3.149,2h-8.702c-0.564-1.178-1.758-2-3.149-2
		s-2.585,0.822-3.149,2H3v-4h3c0.359,0,0.69-0.192,0.868-0.504L7.723,14H27v6H25.649z"/>
	<path d="M17,17h-4c-0.552,0-1,0.447-1,1s0.448,1,1,1h4c0.552,0,1-0.447,1-1S17.552,17,17,17z"/>
</g>
</svg>
