<?xml version="1.0" encoding="utf-8"?>
<!-- Generator: Adobe Illustrator 16.2.0, SVG Export Plug-In . SVG Version: 6.00 Build 0)  -->
<!DOCTYPE svg PUBLIC "-//W3C//DTD SVG 1.1//EN" "http://www.w3.org/Graphics/SVG/1.1/DTD/svg11.dtd">
<svg version="1.1" id="Layer_1" xmlns="http://www.w3.org/2000/svg" xmlns:xlink="http://www.w3.org/1999/xlink" x="0px" y="0px"
	 width="30px" height="30px" viewBox="0 0 30 30" enable-background="new 0 0 30 30" xml:space="preserve">
<g>
	<path d="M25,3H5C4.448,3,4,3.447,4,4v20c0,0.553,0.448,1,1,1h2v1c0,0.553,0.448,1,1,1s1-0.447,1-1v-1h12v1c0,0.553,0.448,1,1,1
		s1-0.447,1-1v-1h2c0.552,0,1-0.447,1-1V4C26,3.447,25.552,3,25,3z M24,5v8H6V5H24z M6,23v-8h18v8H6z"/>
	<path d="M15,10c1.738,0,3-0.841,3-2c0-0.553-0.448-1-1-1c-0.478,0-0.877,0.335-0.977,0.783C15.877,7.872,15.521,8,15,8
		s-0.877-0.128-1.023-0.217C13.877,7.335,13.478,7,13,7c-0.552,0-1,0.447-1,1C12,9.159,13.262,10,15,10z"/>
	<path d="M17,17c-0.478,0-0.877,0.335-0.977,0.783C15.877,17.872,15.521,18,15,18s-0.877-0.128-1.023-0.217
		C13.877,17.335,13.478,17,13,17c-0.552,0-1,0.447-1,1c0,1.159,1.262,2,3,2s3-0.841,3-2C18,17.447,17.552,17,17,17z"/>
</g>
</svg>
