<?xml version="1.0" encoding="utf-8"?>
<!-- Generator: Adobe Illustrator 16.2.0, SVG Export Plug-In . SVG Version: 6.00 Build 0)  -->
<!DOCTYPE svg PUBLIC "-//W3C//DTD SVG 1.1//EN" "http://www.w3.org/Graphics/SVG/1.1/DTD/svg11.dtd">
<svg version="1.1" id="Layer_1" xmlns="http://www.w3.org/2000/svg" xmlns:xlink="http://www.w3.org/1999/xlink" x="0px" y="0px"
	 width="30px" height="30px" viewBox="0 0 30 30" enable-background="new 0 0 30 30" xml:space="preserve">
<g>
	<path d="M25,19h-5c-0.553,0-1,0.447-1,1v1H9.5C8.122,21,7,19.879,7,18.5S8.122,16,9.5,16h11c2.481,0,4.5-2.019,4.5-4.5
		S22.981,7,20.5,7H11V6c0-0.553-0.448-1-1-1H5C4.448,5,4,5.447,4,6v4c0,0.553,0.448,1,1,1h5c0.552,0,1-0.447,1-1V9h9.5
		c1.379,0,2.5,1.121,2.5,2.5S21.879,14,20.5,14h-11C7.019,14,5,16.019,5,18.5S7.019,23,9.5,23H19v1c0,0.553,0.447,1,1,1h5
		c0.553,0,1-0.447,1-1v-4C26,19.447,25.553,19,25,19z M9,9H6V7h3V9z M24,23h-3v-2h3V23z"/>
</g>
</svg>
