<?xml version="1.0" encoding="utf-8"?>
<!-- Generator: Adobe Illustrator 16.2.0, SVG Export Plug-In . SVG Version: 6.00 Build 0)  -->
<!DOCTYPE svg PUBLIC "-//W3C//DTD SVG 1.1//EN" "http://www.w3.org/Graphics/SVG/1.1/DTD/svg11.dtd">
<svg version="1.1" id="Layer_1" xmlns="http://www.w3.org/2000/svg" xmlns:xlink="http://www.w3.org/1999/xlink" x="0px" y="0px"
	 width="30px" height="30px" viewBox="0 0 30 30" enable-background="new 0 0 30 30" xml:space="preserve">
<g>
	<path d="M24,27H6c-0.553,0-1-0.448-1-1V4c0-0.552,0.447-1,1-1h18c0.553,0,1,0.448,1,1v22C25,26.552,24.553,27,24,27z M7,25h16V5H7
		V25z"/>
	<path d="M21,12H9c-0.553,0-1-0.448-1-1V7c0-0.552,0.447-1,1-1h12c0.553,0,1,0.448,1,1v4C22,11.552,21.553,12,21,12z M10,10h10V8
		H10V10z"/>
	<path d="M11,15H9c-0.553,0-1-0.448-1-1s0.447-1,1-1h2c0.553,0,1,0.448,1,1S11.553,15,11,15z"/>
	<path d="M16,15h-2c-0.553,0-1-0.448-1-1s0.447-1,1-1h2c0.553,0,1,0.448,1,1S16.553,15,16,15z"/>
	<path d="M21,15h-2c-0.553,0-1-0.448-1-1s0.447-1,1-1h2c0.553,0,1,0.448,1,1S21.553,15,21,15z"/>
	<path d="M11,18H9c-0.553,0-1-0.448-1-1s0.447-1,1-1h2c0.553,0,1,0.448,1,1S11.553,18,11,18z"/>
	<path d="M16,18h-2c-0.553,0-1-0.448-1-1s0.447-1,1-1h2c0.553,0,1,0.448,1,1S16.553,18,16,18z"/>
	<path d="M21,18h-2c-0.553,0-1-0.448-1-1s0.447-1,1-1h2c0.553,0,1,0.448,1,1S21.553,18,21,18z"/>
	<path d="M11,21H9c-0.553,0-1-0.448-1-1s0.447-1,1-1h2c0.553,0,1,0.448,1,1S11.553,21,11,21z"/>
	<path d="M16,21h-2c-0.553,0-1-0.448-1-1s0.447-1,1-1h2c0.553,0,1,0.448,1,1S16.553,21,16,21z"/>
	<path d="M21,21h-2c-0.553,0-1-0.448-1-1s0.447-1,1-1h2c0.553,0,1,0.448,1,1S21.553,21,21,21z"/>
	<path d="M11,24H9c-0.553,0-1-0.448-1-1s0.447-1,1-1h2c0.553,0,1,0.448,1,1S11.553,24,11,24z"/>
	<path d="M16,24h-2c-0.553,0-1-0.448-1-1s0.447-1,1-1h2c0.553,0,1,0.448,1,1S16.553,24,16,24z"/>
	<path d="M21,24h-2c-0.553,0-1-0.448-1-1s0.447-1,1-1h2c0.553,0,1,0.448,1,1S21.553,24,21,24z"/>
</g>
</svg>
