<?xml version="1.0" encoding="utf-8"?>
<!-- Generator: Adobe Illustrator 16.2.0, SVG Export Plug-In . SVG Version: 6.00 Build 0)  -->
<!DOCTYPE svg PUBLIC "-//W3C//DTD SVG 1.1//EN" "http://www.w3.org/Graphics/SVG/1.1/DTD/svg11.dtd">
<svg version="1.1" id="Layer_1" xmlns="http://www.w3.org/2000/svg" xmlns:xlink="http://www.w3.org/1999/xlink" x="0px" y="0px"
	 width="30px" height="30px" viewBox="0 0 30 30" enable-background="new 0 0 30 30" xml:space="preserve">
<g>
	<path d="M26,5h-4V4c0-0.552-0.447-1-1-1s-1,0.448-1,1v1H10V4c0-0.552-0.447-1-1-1S8,3.448,8,4v1H4C3.447,5,3,5.448,3,6v20
		c0,0.552,0.447,1,1,1h22c0.553,0,1-0.448,1-1V6C27,5.448,26.553,5,26,5z M25,25H5V7h3v2c0,0.552,0.447,1,1,1s1-0.448,1-1V7h10v2
		c0,0.552,0.447,1,1,1s1-0.448,1-1V7h3V25z"/>
	<circle cx="9" cy="13" r="1"/>
	<circle cx="13" cy="13" r="1"/>
	<circle cx="17" cy="13" r="1"/>
	<circle cx="21" cy="13" r="1"/>
	<circle cx="9" cy="17" r="1"/>
	<circle cx="13" cy="17" r="1"/>
	<circle cx="17" cy="17" r="1"/>
	<circle cx="21" cy="17" r="1"/>
	<circle cx="9" cy="21" r="1"/>
	<circle cx="13" cy="21" r="1"/>
	<circle cx="17" cy="21" r="1"/>
	<circle cx="21" cy="21" r="1"/>
</g>
</svg>
