<?xml version="1.0" encoding="utf-8"?>
<!-- Generator: Adobe Illustrator 16.2.0, SVG Export Plug-In . SVG Version: 6.00 Build 0)  -->
<!DOCTYPE svg PUBLIC "-//W3C//DTD SVG 1.1//EN" "http://www.w3.org/Graphics/SVG/1.1/DTD/svg11.dtd">
<svg version="1.1" id="Layer_1" xmlns="http://www.w3.org/2000/svg" xmlns:xlink="http://www.w3.org/1999/xlink" x="0px" y="0px"
	 width="30px" height="30px" viewBox="0 0 30 30" enable-background="new 0 0 30 30" xml:space="preserve">
<g>
	<path d="M25.396,19c-0.195,0-0.394-0.021-0.589-0.063l-2.745-0.594c-1.438-0.311-2.625-1.701-2.701-3.166l-0.072-1.371
		c-0.506-0.299-1.804-0.876-4.291-0.877c-2.462,0.001-3.76,0.548-4.285,0.847l-0.073,1.4c-0.079,1.466-1.267,2.856-2.704,3.167
		l-2.744,0.59c-0.194,0.042-0.393,0.063-0.588,0.063c-1.37,0-2.461-1.051-2.536-2.444C2.065,16.497,2,15.22,2,13.076
		c0-3.693,6.743-6.029,12.991-6.075L15.188,7C21.374,7,27.999,9.442,28,13.079c0,2.618-0.049,3.449-0.051,3.483
		C27.862,17.953,26.765,19,25.396,19z M14.999,10.929c4.245,0.002,5.814,1.487,5.979,1.656c0.17,0.174,0.27,0.403,0.283,0.646
		l0.098,1.842c0.029,0.568,0.566,1.194,1.126,1.315l2.745,0.594c0.39,0.086,0.697-0.144,0.723-0.542
		c0-0.005,0.047-0.827,0.047-3.36C25.999,11.437,21.459,9,15.188,9l-0.182,0.001C8.39,9.05,4,11.486,4,13.076
		c0,2.087,0.064,3.357,0.065,3.37c0.021,0.396,0.309,0.616,0.705,0.531l2.744-0.59c0.559-0.121,1.097-0.749,1.127-1.318
		l0.099-1.883c0.014-0.247,0.118-0.481,0.294-0.656C9.198,12.367,10.764,10.93,14.999,10.929z"/>
	<path d="M26,23H4c-0.553,0-1-0.447-1-1s0.447-1,1-1h22c0.553,0,1,0.447,1,1S26.553,23,26,23z"/>
</g>
</svg>
