<?xml version="1.0" encoding="utf-8"?>
<!-- Generator: Adobe Illustrator 16.2.0, SVG Export Plug-In . SVG Version: 6.00 Build 0)  -->
<!DOCTYPE svg PUBLIC "-//W3C//DTD SVG 1.1//EN" "http://www.w3.org/Graphics/SVG/1.1/DTD/svg11.dtd">
<svg version="1.1" id="Layer_1" xmlns="http://www.w3.org/2000/svg" xmlns:xlink="http://www.w3.org/1999/xlink" x="0px" y="0px"
	 width="30px" height="30px" viewBox="0 0 30 30" enable-background="new 0 0 30 30" xml:space="preserve">
<g>
	<path d="M20.893,27.001c-3.157,0-7.829-2.512-11.624-6.249C5.533,17.073,3.014,12.424,3,9.183
		C2.995,7.981,3.345,6.994,4.013,6.326c1.999-1.999,2.668-2.594,2.696-2.618C7.226,3.251,7.872,3,8.528,3
		c0.906,0,1.754,0.477,2.267,1.273l1.634,2.539c0.839,1.304,0.685,3.228-0.353,4.378l-1.021,1.135
		c0.147,0.606,0.684,2.065,2.623,4.007c1.924,1.923,3.36,2.482,3.98,2.644l1.158-1.043c1.117-1.004,3.116-1.164,4.38-0.352
		l2.537,1.635c0.687,0.442,1.141,1.139,1.243,1.909c0.104,0.771-0.15,1.562-0.697,2.17c-0.04,0.044-0.963,1.067-2.6,2.703
		C23.023,26.654,22.06,27.001,20.893,27.001z M8.528,5C8.357,5,8.186,5.071,8.033,5.207C8.028,5.211,7.364,5.803,5.427,7.74
		C5.07,8.097,4.998,8.717,5,9.175c0.009,2.208,1.788,6.327,5.672,10.151c3.958,3.898,8.073,5.675,10.221,5.675
		c0.437,0,1.028-0.072,1.373-0.417c1.596-1.596,2.518-2.616,2.526-2.627c0.156-0.173,0.229-0.375,0.202-0.566
		c-0.025-0.191-0.147-0.366-0.345-0.493l-2.537-1.635c-0.518-0.335-1.496-0.257-1.959,0.157l-1.513,1.362
		c-0.184,0.165-0.422,0.257-0.669,0.257s-2.507-0.093-5.708-3.293C9.058,14.538,8.996,12.239,9,11.987
		c0.004-0.242,0.095-0.475,0.257-0.654l1.333-1.48c0.433-0.48,0.508-1.413,0.157-1.958L9.113,5.355C8.966,5.126,8.758,5,8.528,5z"
		/>
	<path d="M25,4h-7c-0.553,0-1,0.447-1,1s0.447,1,1,1h4.586l-6.293,6.293c-0.391,0.391-0.391,1.023,0,1.414
		C16.488,13.902,16.744,14,17,14s0.512-0.098,0.707-0.293L24,7.414V12c0,0.553,0.447,1,1,1s1-0.447,1-1V5C26,4.447,25.553,4,25,4z"
		/>
</g>
</svg>
