<?xml version="1.0" encoding="utf-8"?>
<!-- Generator: Adobe Illustrator 16.2.0, SVG Export Plug-In . SVG Version: 6.00 Build 0)  -->
<!DOCTYPE svg PUBLIC "-//W3C//DTD SVG 1.1//EN" "http://www.w3.org/Graphics/SVG/1.1/DTD/svg11.dtd">
<svg version="1.1" id="Layer_1" xmlns="http://www.w3.org/2000/svg" xmlns:xlink="http://www.w3.org/1999/xlink" x="0px" y="0px"
	 width="30px" height="30px" viewBox="0 0 30 30" enable-background="new 0 0 30 30" xml:space="preserve">
<g>
	<path d="M20.893,27.001c-3.158,0-7.83-2.512-11.624-6.249C5.533,17.073,3.014,12.424,3,9.183
		C2.995,7.981,3.345,6.994,4.012,6.326c1.999-1.999,2.669-2.594,2.696-2.618C7.226,3.251,7.872,3,8.529,3
		c0.906,0,1.753,0.477,2.266,1.273l1.634,2.539c0.839,1.304,0.684,3.228-0.353,4.378l-1.021,1.135
		c0.147,0.606,0.683,2.065,2.624,4.007c1.923,1.923,3.36,2.482,3.98,2.644l1.158-1.043c1.117-1.003,3.115-1.165,4.38-0.352
		l2.537,1.635c0.688,0.442,1.141,1.139,1.244,1.909c0.103,0.771-0.151,1.562-0.698,2.17c-0.039,0.044-0.963,1.067-2.599,2.703
		C23.023,26.654,22.06,27.001,20.893,27.001z M8.529,5C8.357,5,8.186,5.071,8.033,5.207C8.028,5.211,7.365,5.803,5.427,7.74
		C5.071,8.097,4.998,8.717,5,9.175c0.009,2.208,1.788,6.327,5.672,10.151c3.958,3.898,8.073,5.675,10.221,5.675
		c0.436,0,1.028-0.072,1.373-0.417c1.596-1.596,2.518-2.616,2.527-2.627c0.156-0.173,0.228-0.375,0.202-0.566
		s-0.148-0.366-0.345-0.493l-2.537-1.635c-0.521-0.337-1.499-0.257-1.959,0.157l-1.513,1.362
		c-0.184,0.165-0.422,0.257-0.669,0.257s-2.506-0.093-5.708-3.293C9.057,14.538,8.997,12.239,9,11.987
		c0.003-0.242,0.095-0.475,0.257-0.654l1.333-1.48c0.433-0.48,0.507-1.413,0.157-1.958L9.113,5.355C8.966,5.126,8.758,5,8.529,5z"
		/>
	<path d="M21.5,3C18.467,3,16,5.468,16,8.5s2.467,5.5,5.5,5.5S27,11.532,27,8.5S24.533,3,21.5,3z M21.5,5
		c0.601,0,1.158,0.166,1.652,0.434l-4.719,4.719C18.166,9.658,18,9.101,18,8.5C18,6.57,19.57,5,21.5,5z M21.5,12
		c-0.601,0-1.158-0.166-1.652-0.434l4.719-4.719C24.834,7.342,25,7.899,25,8.5C25,10.43,23.43,12,21.5,12z"/>
</g>
</svg>
