<?xml version="1.0" encoding="utf-8"?>
<!-- Generator: Adobe Illustrator 16.2.0, SVG Export Plug-In . SVG Version: 6.00 Build 0)  -->
<!DOCTYPE svg PUBLIC "-//W3C//DTD SVG 1.1//EN" "http://www.w3.org/Graphics/SVG/1.1/DTD/svg11.dtd">
<svg version="1.1" id="Layer_1" xmlns="http://www.w3.org/2000/svg" xmlns:xlink="http://www.w3.org/1999/xlink" x="0px" y="0px"
	 width="30px" height="30px" viewBox="0 0 30 30" enable-background="new 0 0 30 30" xml:space="preserve">
<g>
	<path d="M18.062,23.146c-1.973,0-5.188-0.899-7.763-3.434c-2.534-2.495-3.442-5.705-3.449-7.695
		c-0.005-1.233,0.307-2.199,0.901-2.794C9.03,7.945,9.463,7.56,9.48,7.544c0.946-0.838,2.47-0.622,3.148,0.433l1.04,1.617
		c0.619,0.962,0.505,2.379-0.261,3.227l-0.55,0.61c0.099,0.395,0.416,1.219,1.458,2.26c1.028,1.028,1.837,1.36,2.245,1.467
		l0.623-0.561c0.825-0.745,2.289-0.864,3.228-0.26l1.615,1.04c0.527,0.341,0.875,0.877,0.955,1.472
		c0.079,0.596-0.115,1.205-0.534,1.673c-0.001,0.002-0.603,0.67-1.668,1.734C20.197,22.839,19.257,23.146,18.062,23.146z
		 M10.144,8.292l0.666,0.745c-0.021,0.02-0.436,0.393-1.645,1.601c-0.147,0.147-0.318,0.596-0.315,1.372
		c0.006,1.733,0.891,4.347,2.853,6.277c2.006,1.976,4.639,2.859,6.359,2.859c0.737,0,1.164-0.164,1.305-0.305
		c1.011-1.011,1.586-1.647,1.595-1.658l0.524-0.966l-0.542,0.841l-1.614-1.04c-0.194-0.125-0.632-0.091-0.807,0.064L17.56,18.95
		c-0.165,0.148-0.374,0.238-0.596,0.254c-0.024,0.002-0.085,0.004-0.11,0.004c-0.434,0-2.001-0.151-3.951-2.104
		c-2.176-2.175-2.097-3.907-2.08-4.098c0.019-0.217,0.107-0.422,0.253-0.584l0.848-0.941c0.166-0.184,0.198-0.598,0.064-0.806
		L10.948,9.06L10.144,8.292z"/>
	<path d="M24,27H6c-1.654,0-3-1.346-3-3V6c0-1.654,1.346-3,3-3h18c1.654,0,3,1.346,3,3v18C27,25.654,25.654,27,24,27z M6,5
		C5.448,5,5,5.448,5,6v18c0,0.552,0.448,1,1,1h18c0.552,0,1-0.448,1-1V6c0-0.552-0.448-1-1-1H6z"/>
</g>
</svg>
