<?xml version="1.0" encoding="utf-8"?>
<!-- Generator: Adobe Illustrator 16.2.0, SVG Export Plug-In . SVG Version: 6.00 Build 0)  -->
<!DOCTYPE svg PUBLIC "-//W3C//DTD SVG 1.1//EN" "http://www.w3.org/Graphics/SVG/1.1/DTD/svg11.dtd">
<svg version="1.1" id="Layer_1" xmlns="http://www.w3.org/2000/svg" xmlns:xlink="http://www.w3.org/1999/xlink" x="0px" y="0px"
	 width="30px" height="30px" viewBox="0 0 30 30" enable-background="new 0 0 30 30" xml:space="preserve">
<g>
	<path d="M25.733,19.216l-2.537-1.635c-1.264-0.813-3.264-0.652-4.38,0.352l-1.158,1.043c-0.539-0.141-1.698-0.584-3.257-1.963
		L26.707,4.707c0.391-0.391,0.391-1.023,0-1.414s-1.023-0.391-1.414,0L12.989,15.597c-1.382-1.572-1.807-2.744-1.935-3.271
		l1.021-1.135c1.037-1.15,1.192-3.074,0.353-4.378l-1.634-2.539C10.282,3.477,9.435,3,8.529,3c-0.657,0-1.303,0.251-1.82,0.708
		C6.681,3.732,6.011,4.327,4.012,6.326C3.345,6.994,2.995,7.981,3,9.183c0.013,3.031,2.218,7.295,5.56,10.844l-5.267,5.267
		c-0.391,0.391-0.391,1.023,0,1.414C3.488,26.902,3.744,27,4,27s0.512-0.098,0.707-0.293l5.276-5.275
		c3.653,3.358,7.948,5.569,10.91,5.569c1.167,0,2.131-0.347,2.787-1.003c1.637-1.636,2.56-2.659,2.6-2.703
		c0.547-0.608,0.801-1.399,0.697-2.17C26.874,20.354,26.42,19.658,25.733,19.216z M5,9.175C4.998,8.717,5.071,8.097,5.427,7.74
		c1.938-1.938,2.601-2.529,2.606-2.533C8.186,5.071,8.357,5,8.529,5c0.229,0,0.437,0.126,0.584,0.355l1.634,2.539
		c0.35,0.545,0.275,1.478-0.157,1.958l-1.333,1.48C9.095,11.513,9.003,11.745,9,11.987c-0.003,0.232,0.054,2.206,2.574,5.025
		l-1.586,1.586C6.595,14.988,5.009,11.244,5,9.175z M24.792,21.957c-0.009,0.011-0.931,1.031-2.526,2.627
		c-0.345,0.345-0.937,0.417-1.373,0.417c-2.014,0-5.759-1.587-9.481-4.998l1.575-1.575c2.814,2.526,4.758,2.611,4.985,2.611
		c0.247,0,0.485-0.092,0.669-0.257l1.513-1.362c0.463-0.414,1.44-0.492,1.959-0.157l2.537,1.635c0.197,0.127,0.319,0.302,0.345,0.493
		C25.021,21.582,24.948,21.784,24.792,21.957z"/>
</g>
</svg>
