<?xml version="1.0" encoding="utf-8"?>
<!-- Generator: Adobe Illustrator 16.0.0, SVG Export Plug-In . SVG Version: 6.00 Build 0)  -->
<!DOCTYPE svg PUBLIC "-//W3C//DTD SVG 1.1//EN" "http://www.w3.org/Graphics/SVG/1.1/DTD/svg11.dtd">
<svg version="1.1" id="Layer_1" xmlns="http://www.w3.org/2000/svg" xmlns:xlink="http://www.w3.org/1999/xlink" x="0px" y="0px"
	 width="30px" height="30px" viewBox="0 0 30 30" enable-background="new 0 0 30 30" xml:space="preserve">
<path d="M26,25H4c-0.552,0-1-0.447-1-1s0.448-1,1-1h22c0.552,0,1,0.447,1,1S26.552,25,26,25z"/>
<g>
	<path d="M25,18c-0.256,0-0.512-0.098-0.707-0.293L15,8.415l-9.293,9.292c-0.391,0.391-1.023,0.391-1.414,0s-0.391-1.023,0-1.414
		l10-10c0.391-0.391,1.023-0.391,1.414,0l10,10c0.391,0.391,0.391,1.023,0,1.414C25.512,17.902,25.256,18,25,18z"/>
</g>
</svg>
