<?xml version="1.0" encoding="utf-8"?>
<!-- Generator: Adobe Illustrator 16.2.0, SVG Export Plug-In . SVG Version: 6.00 Build 0)  -->
<!DOCTYPE svg PUBLIC "-//W3C//DTD SVG 1.1//EN" "http://www.w3.org/Graphics/SVG/1.1/DTD/svg11.dtd">
<svg version="1.1" id="Layer_1" xmlns="http://www.w3.org/2000/svg" xmlns:xlink="http://www.w3.org/1999/xlink" x="0px" y="0px"
	 width="30px" height="30px" viewBox="0 0 30 30" enable-background="new 0 0 30 30" xml:space="preserve">
<g>
	<path d="M24,4H6C4.346,4,3,5.346,3,7v16c0,1.654,1.346,3,3,3h18c1.654,0,3-1.346,3-3V7C27,5.346,25.654,4,24,4z M6,6h18
		c0.551,0,1,0.448,1,1v8h-5.5c-0.379,0-0.725,0.214-0.895,0.553l-1.004,2.008l-3.173-7.932C14.277,9.251,13.914,9.003,13.507,9
		c-0.408-0.01-0.774,0.239-0.93,0.615L10.333,15H5V7C5,6.448,5.449,6,6,6z M24,24H6c-0.551,0-1-0.448-1-1v-6h6
		c0.404,0,0.768-0.243,0.923-0.615l1.558-3.739l3.09,7.726c0.146,0.366,0.494,0.611,0.887,0.628C17.472,21,17.486,21,17.5,21
		c0.377,0,0.725-0.213,0.895-0.553L20.118,17H25v6C25,23.552,24.551,24,24,24z"/>
</g>
</svg>
