<?xml version="1.0" encoding="utf-8"?>
<!-- Generator: Adobe Illustrator 16.2.0, SVG Export Plug-In . SVG Version: 6.00 Build 0)  -->
<!DOCTYPE svg PUBLIC "-//W3C//DTD SVG 1.1//EN" "http://www.w3.org/Graphics/SVG/1.1/DTD/svg11.dtd">
<svg version="1.1" id="Layer_1" xmlns="http://www.w3.org/2000/svg" xmlns:xlink="http://www.w3.org/1999/xlink" x="0px" y="0px"
	 width="30px" height="30px" viewBox="0 0 30 30" enable-background="new 0 0 30 30" xml:space="preserve">
<g>
	<path d="M27,24H3c-0.552,0-1-0.448-1-1V7c0-0.552,0.448-1,1-1h24c0.552,0,1,0.448,1,1v16C28,23.552,27.552,24,27,24z M4,22h22V8H4
		V22z"/>
	<path d="M24,19h-6.042C18.606,17.956,19,16.56,19,15s-0.394-2.956-1.042-4H24c0.552,0,1-0.448,1-1s-0.448-1-1-1H6
		c-0.552,0-1,0.448-1,1s0.448,1,1,1h6.042C11.394,12.044,11,13.44,11,15s0.394,2.956,1.042,4H6c-0.552,0-1,0.448-1,1s0.448,1,1,1h18
		c0.552,0,1-0.448,1-1S24.552,19,24,19z M13,15c0-2.232,1.056-3.9,2-3.9s2,1.668,2,3.9s-1.056,3.9-2,3.9S13,17.232,13,15z"/>
	<circle cx="22" cy="15" r="1"/>
	<circle cx="8" cy="15" r="1"/>
</g>
</svg>
