<?xml version="1.0" encoding="utf-8"?>
<!-- Generator: Adobe Illustrator 16.2.0, SVG Export Plug-In . SVG Version: 6.00 Build 0)  -->
<!DOCTYPE svg PUBLIC "-//W3C//DTD SVG 1.1//EN" "http://www.w3.org/Graphics/SVG/1.1/DTD/svg11.dtd">
<svg version="1.1" id="Layer_1" xmlns="http://www.w3.org/2000/svg" xmlns:xlink="http://www.w3.org/1999/xlink" x="0px" y="0px"
	 width="30px" height="30px" viewBox="0 0 30 30" enable-background="new 0 0 30 30" xml:space="preserve">
<g>
	<path d="M15,27C8.383,27,3,21.617,3,15S8.383,3,15,3s12,5.383,12,12S21.617,27,15,27z M15,5C9.486,5,5,9.486,5,15s4.486,10,10,10
		s10-4.486,10-10S20.514,5,15,5z"/>
	<path d="M9.154,19.852c-0.325,0-0.644-0.158-0.836-0.45c-0.289-0.439-0.535-0.907-0.732-1.392
		c-0.192-0.474-0.34-0.973-0.439-1.483C7.049,16.023,7,15.51,7,15c0-0.51,0.049-1.024,0.146-1.527
		c0.099-0.508,0.247-1.007,0.44-1.483c0.197-0.486,0.444-0.954,0.733-1.392c0.304-0.461,0.926-0.588,1.385-0.284
		c0.461,0.304,0.588,0.924,0.284,1.385c-0.216,0.328-0.401,0.679-0.548,1.042c-0.145,0.357-0.256,0.731-0.33,1.112
		C9.037,14.23,9,14.617,9,15c0,0.383,0.037,0.769,0.11,1.146c0.074,0.382,0.185,0.756,0.33,1.111
		c0.147,0.363,0.332,0.714,0.549,1.044c0.304,0.461,0.176,1.082-0.286,1.385C9.534,19.798,9.343,19.852,9.154,19.852z"/>
	<path d="M20.846,19.852c-0.189,0-0.38-0.053-0.55-0.166c-0.461-0.304-0.588-0.924-0.284-1.385
		c0.216-0.328,0.401-0.679,0.548-1.042c0.145-0.357,0.256-0.731,0.33-1.112C20.963,15.77,21,15.383,21,15
		c0-0.383-0.037-0.769-0.11-1.146c-0.074-0.382-0.185-0.756-0.33-1.111c-0.147-0.363-0.332-0.714-0.549-1.044
		c-0.304-0.461-0.176-1.082,0.286-1.385c0.462-0.302,1.082-0.175,1.385,0.286c0.289,0.439,0.535,0.907,0.732,1.392
		c0.192,0.474,0.34,0.973,0.439,1.483C22.951,13.977,23,14.49,23,15c0,0.51-0.049,1.024-0.146,1.527
		c-0.099,0.508-0.247,1.007-0.44,1.483c-0.197,0.486-0.444,0.954-0.733,1.392C21.489,19.694,21.17,19.852,20.846,19.852z"/>
	<path d="M15,19c-2.206,0-4-1.794-4-4s1.794-4,4-4s4,1.794,4,4S17.206,19,15,19z M15,13c-1.103,0-2,0.897-2,2s0.897,2,2,2
		s2-0.897,2-2S16.103,13,15,13z"/>
</g>
</svg>
