<?xml version="1.0" encoding="utf-8"?>
<!-- Generator: Adobe Illustrator 16.2.0, SVG Export Plug-In . SVG Version: 6.00 Build 0)  -->
<!DOCTYPE svg PUBLIC "-//W3C//DTD SVG 1.1//EN" "http://www.w3.org/Graphics/SVG/1.1/DTD/svg11.dtd">
<svg version="1.1" id="Layer_1" xmlns="http://www.w3.org/2000/svg" xmlns:xlink="http://www.w3.org/1999/xlink" x="0px" y="0px"
	 width="30px" height="30px" viewBox="0 0 30 30" enable-background="new 0 0 30 30" xml:space="preserve">
<g>
	<path d="M15,16c-6.841,0-12-2.58-12-6s5.159-6,12-6c6.841,0,12,2.58,12,6S21.841,16,15,16z M15,6C9.276,6,5,8.112,5,10
		s4.276,4,10,4s10-2.112,10-4S20.724,6,15,6z"/>
	<path d="M15,21c-5.771,0-12-1.912-12-5c0-0.552,0.448-1,1-1s1,0.448,1,1c0,0.917,3.778,3,10,3c6.222,0,10-2.083,10-3
		c0-0.552,0.447-1,1-1s1,0.448,1,1C27,19.088,20.771,21,15,21z"/>
	<path d="M15,26c-5.771,0-12-1.912-12-5c0-0.552,0.448-1,1-1s1,0.448,1,1c0,0.917,3.778,3,10,3c6.222,0,10-2.083,10-3
		c0-0.552,0.447-1,1-1s1,0.448,1,1C27,24.088,20.771,26,15,26z"/>
	<path d="M16,11h-2c-0.552,0-1-0.448-1-1s0.448-1,1-1h2c0.553,0,1,0.448,1,1S16.553,11,16,11z"/>
</g>
</svg>
