<?xml version="1.0" encoding="utf-8"?>
<!-- Generator: Adobe Illustrator 16.2.0, SVG Export Plug-In . SVG Version: 6.00 Build 0)  -->
<!DOCTYPE svg PUBLIC "-//W3C//DTD SVG 1.1//EN" "http://www.w3.org/Graphics/SVG/1.1/DTD/svg11.dtd">
<svg version="1.1" id="Layer_1" xmlns="http://www.w3.org/2000/svg" xmlns:xlink="http://www.w3.org/1999/xlink" x="0px" y="0px"
	 width="30px" height="30px" viewBox="0 0 30 30" enable-background="new 0 0 30 30" xml:space="preserve">
<g>
	<path d="M23.539,5.008C23.525,5.007,23.514,5,23.5,5H7.444C2.619,5,2,10.878,2,16c0,0.552,0.447,1,1,1h2.025
		C5.011,17.165,5,17.331,5,17.5c0,2.305,1.427,4.28,3.442,5.097l-1.266,1.835c-0.313,0.455-0.199,1.078,0.256,1.391
		C7.605,25.943,7.804,26,7.999,26c0.317,0,0.63-0.151,0.824-0.432l1.677-2.431l1.677,2.431C12.371,25.849,12.684,26,13.001,26
		c0.195,0,0.394-0.057,0.566-0.177c0.455-0.313,0.569-0.937,0.256-1.391l-1.266-1.835c0.854-0.346,1.603-0.897,2.182-1.597H24.5
		c2.58,0,3.5-4.132,3.5-8C28,8.496,26.088,5.091,23.539,5.008z M4.016,15c0.16-7.13,2.015-8,3.429-8h12.63
		c-1.199,1.728-1.937,4.496-2.054,8h-2.628c-0.912-1.778-2.761-3-4.893-3s-3.98,1.222-4.893,3H4.016z M10.5,21
		C8.57,21,7,19.43,7,17.5S8.57,14,10.5,14s3.5,1.57,3.5,3.5S12.43,21,10.5,21z M15.975,17H19c0.553,0,1-0.448,1-1
		c0-1.098,0.061-2.098,0.169-3h1.674c-0.364,2.688-0.312,4.674,0.164,6h-6.22C15.923,18.522,16,18.021,16,17.5
		C16,17.331,15.989,17.165,15.975,17z M24.5,19c-0.153,0-0.25-0.047-0.357-0.174c-0.248-0.293-0.993-1.639-0.156-6.662
		c0.005-0.028-0.005-0.055-0.003-0.083C23.986,12.053,24,12.029,24,12c0-0.041-0.019-0.076-0.023-0.115
		c-0.008-0.067-0.018-0.131-0.039-0.194c-0.021-0.062-0.047-0.117-0.079-0.173c-0.031-0.056-0.063-0.106-0.104-0.155
		c-0.042-0.05-0.088-0.091-0.139-0.132c-0.049-0.039-0.098-0.074-0.154-0.104c-0.06-0.032-0.122-0.053-0.188-0.072
		c-0.038-0.011-0.068-0.035-0.108-0.042c-0.028-0.005-0.055,0.005-0.083,0.003C23.053,11.014,23.028,11,23,11h-2.473
		c0.643-2.635,1.783-4,2.917-4C24.653,7,26,9.464,26,13C26,17.155,24.913,19,24.5,19z"/>
</g>
</svg>
