<?xml version="1.0" encoding="utf-8"?>
<!-- Generator: Adobe Illustrator 16.2.0, SVG Export Plug-In . SVG Version: 6.00 Build 0)  -->
<!DOCTYPE svg PUBLIC "-//W3C//DTD SVG 1.1//EN" "http://www.w3.org/Graphics/SVG/1.1/DTD/svg11.dtd">
<svg version="1.1" id="Layer_1" xmlns="http://www.w3.org/2000/svg" xmlns:xlink="http://www.w3.org/1999/xlink" x="0px" y="0px"
	 width="30px" height="30px" viewBox="0 0 30 30" enable-background="new 0 0 30 30" xml:space="preserve">
<g>
	<path d="M24,5H13c-1.654,0-3,1.346-3,3v1H6c-1.654,0-3,1.346-3,3v8c0,1.654,1.346,3,3,3v3c0,0.384,0.22,0.735,0.567,0.901
		C6.705,26.967,6.853,27,7,27c0.223,0,0.444-0.075,0.625-0.219L12.351,23H17c1.338,0,2.461-0.887,2.847-2.099l2.557,1.901
		C22.579,22.933,22.789,23,23,23c0.153,0,0.307-0.035,0.449-0.106C23.787,22.724,24,22.378,24,22v-3c1.654,0,3-1.346,3-3V8
		C27,6.346,25.654,5,24,5z M18,20c0,0.551-0.449,1-1,1h-5c-0.227,0-0.447,0.077-0.625,0.219L8,23.919V22c0-0.552-0.448-1-1-1H6
		c-0.551,0-1-0.449-1-1v-8c0-0.551,0.449-1,1-1h11c0.551,0,1,0.449,1,1V20z M25,16c0,0.551-0.449,1-1,1h-1c-0.552,0-1,0.448-1,1v2.01
		l-2-1.487V12c0-1.654-1.346-3-3-3h-5V8c0-0.551,0.449-1,1-1h11c0.551,0,1,0.449,1,1V16z"/>
</g>
</svg>
