<?xml version="1.0" encoding="utf-8"?>
<!-- Generator: Adobe Illustrator 16.2.0, SVG Export Plug-In . SVG Version: 6.00 Build 0)  -->
<!DOCTYPE svg PUBLIC "-//W3C//DTD SVG 1.1//EN" "http://www.w3.org/Graphics/SVG/1.1/DTD/svg11.dtd">
<svg version="1.1" id="Layer_1" xmlns="http://www.w3.org/2000/svg" xmlns:xlink="http://www.w3.org/1999/xlink" x="0px" y="0px"
	 width="30px" height="30px" viewBox="0 0 30 30" enable-background="new 0 0 30 30" xml:space="preserve">
<g>
	<path d="M13,21c-0.256,0-0.512-0.098-0.707-0.293l-5-5c-0.391-0.391-0.391-1.023,0-1.414s1.023-0.391,1.414,0L13,18.586
		l8.293-8.293c0.391-0.391,1.023-0.391,1.414,0s0.391,1.023,0,1.414l-9,9C13.512,20.902,13.256,21,13,21z"/>
	<path d="M26,27H4c-0.552,0-1-0.447-1-1V4c0-0.553,0.448-1,1-1h22c0.553,0,1,0.447,1,1v22C27,26.553,26.553,27,26,27z M5,25h20V5H5
		V25z"/>
</g>
</svg>
