<?xml version="1.0" encoding="utf-8"?>
<!-- Generator: Adobe Illustrator 16.2.0, SVG Export Plug-In . SVG Version: 6.00 Build 0)  -->
<!DOCTYPE svg PUBLIC "-//W3C//DTD SVG 1.1//EN" "http://www.w3.org/Graphics/SVG/1.1/DTD/svg11.dtd">
<svg version="1.1" id="Layer_1" xmlns="http://www.w3.org/2000/svg" xmlns:xlink="http://www.w3.org/1999/xlink" x="0px" y="0px"
	 width="30px" height="30px" viewBox="0 0 30 30" enable-background="new 0 0 30 30" xml:space="preserve">
<g>
	<path d="M9,10H5c-0.552,0-1-0.447-1-1V5c0-0.553,0.448-1,1-1h4c0.552,0,1,0.447,1,1v4C10,9.553,9.552,10,9,10z M6,8h2V6H6V8z"/>
	<path d="M9,26H5c-0.552,0-1-0.447-1-1v-4c0-0.553,0.448-1,1-1h4c0.552,0,1,0.447,1,1v4C10,25.553,9.552,26,9,26z M6,24h2v-2H6V24z
		"/>
	<path d="M9,18H5c-0.552,0-1-0.447-1-1v-4c0-0.553,0.448-1,1-1h4c0.552,0,1,0.447,1,1v4C10,17.553,9.552,18,9,18z M6,16h2v-2H6V16z
		"/>
	<path d="M25,8H13c-0.552,0-1-0.447-1-1s0.448-1,1-1h12c0.553,0,1,0.447,1,1S25.553,8,25,8z"/>
	<path d="M25,16H13c-0.552,0-1-0.447-1-1s0.448-1,1-1h12c0.553,0,1,0.447,1,1S25.553,16,25,16z"/>
	<path d="M25,24H13c-0.552,0-1-0.447-1-1s0.448-1,1-1h12c0.553,0,1,0.447,1,1S25.553,24,25,24z"/>
</g>
</svg>
