<?xml version="1.0" encoding="utf-8"?>
<!-- Generator: Adobe Illustrator 16.2.0, SVG Export Plug-In . SVG Version: 6.00 Build 0)  -->
<!DOCTYPE svg PUBLIC "-//W3C//DTD SVG 1.1//EN" "http://www.w3.org/Graphics/SVG/1.1/DTD/svg11.dtd">
<svg version="1.1" id="Layer_1" xmlns="http://www.w3.org/2000/svg" xmlns:xlink="http://www.w3.org/1999/xlink" x="0px" y="0px"
	 width="30px" height="30px" viewBox="0 0 30 30" enable-background="new 0 0 30 30" xml:space="preserve">
<g>
	<path d="M22.5,7c-0.119,0-0.239,0.006-0.362,0.018C20.853,4.552,18.329,3,15.5,3c-2.038,0-3.954,0.815-5.36,2.26
		C9.603,5.087,9.054,5,8.5,5C5.468,5,3,7.468,3,10.5c0,2.512,1.667,4.66,4,5.32V24c0,0.155,0.036,0.309,0.105,0.447
		C7.318,24.873,8.701,27,15,27c5.353,0,7.613-2.199,7.707-2.293C22.895,24.52,23,24.266,23,24v-8.027c2.247-0.25,4-2.16,4-4.473
		C27,9.019,24.981,7,22.5,7z M15,25c-4.185,0-5.631-1.007-6-1.341v-1.854C10.239,22.395,12.19,23,15,23s4.761-0.605,6-1.195v1.711
		C20.317,23.984,18.44,25,15,25z M22.5,14H22c-0.553,0-1,0.447-1,1v4.515C20.322,19.981,18.45,21,15,21c-3.457,0-5.33-1.022-6-1.484
		V16h2c0.553,0,1-0.447,1-1s-0.447-1-1-1H8.06C6.34,13.781,5,12.254,5,10.5C5,8.57,6.57,7,8.5,7c0.502,0,1.005,0.118,1.495,0.351
		c0.415,0.198,0.92,0.084,1.21-0.279C12.257,5.755,13.822,5,15.5,5c2.281,0,4.292,1.378,5.122,3.51
		c0.187,0.479,0.699,0.743,1.205,0.599C22.088,9.034,22.302,9,22.5,9c1.379,0,2.5,1.121,2.5,2.5S23.879,14,22.5,14z"/>
</g>
</svg>
