<?xml version="1.0" encoding="utf-8"?>
<!-- Generator: Adobe Illustrator 16.2.0, SVG Export Plug-In . SVG Version: 6.00 Build 0)  -->
<!DOCTYPE svg PUBLIC "-//W3C//DTD SVG 1.1//EN" "http://www.w3.org/Graphics/SVG/1.1/DTD/svg11.dtd">
<svg version="1.1" id="Layer_1" xmlns="http://www.w3.org/2000/svg" xmlns:xlink="http://www.w3.org/1999/xlink" x="0px" y="0px"
	 width="30px" height="30px" viewBox="0 0 30 30" enable-background="new 0 0 30 30" xml:space="preserve">
<g>
	<path d="M13,18h4c0.553,0,1-0.448,1-1v-4c0-0.552-0.447-1-1-1h-4c-0.553,0-1,0.448-1,1v4C12,17.552,12.447,18,13,18z M14,14h2v2h-2
		V14z"/>
	<path d="M26,16c0.553,0,1-0.448,1-1s-0.447-1-1-1h-3v-2h3c0.553,0,1-0.448,1-1s-0.447-1-1-1h-3V8c0-0.552-0.447-1-1-1h-2V4
		c0-0.552-0.447-1-1-1s-1,0.448-1,1v3h-2V4c0-0.552-0.447-1-1-1s-1,0.448-1,1v3h-2V4c0-0.552-0.447-1-1-1s-1,0.448-1,1v3H8
		C7.447,7,7,7.448,7,8v2H4c-0.553,0-1,0.448-1,1s0.447,1,1,1h3v2H4c-0.553,0-1,0.448-1,1s0.447,1,1,1h3v2H4c-0.553,0-1,0.448-1,1
		s0.447,1,1,1h3v2c0,0.552,0.447,1,1,1h2v3c0,0.552,0.447,1,1,1s1-0.448,1-1v-3h2v3c0,0.552,0.447,1,1,1s1-0.448,1-1v-3h2v3
		c0,0.552,0.447,1,1,1s1-0.448,1-1v-3h2c0.553,0,1-0.448,1-1v-2h3c0.553,0,1-0.448,1-1s-0.447-1-1-1h-3v-2H26z M21,21H9V9h12V21z"/>
</g>
</svg>
