<?xml version="1.0" encoding="utf-8"?>
<!-- Generator: Adobe Illustrator 16.2.0, SVG Export Plug-In . SVG Version: 6.00 Build 0)  -->
<!DOCTYPE svg PUBLIC "-//W3C//DTD SVG 1.1//EN" "http://www.w3.org/Graphics/SVG/1.1/DTD/svg11.dtd">
<svg version="1.1" id="Layer_1" xmlns="http://www.w3.org/2000/svg" xmlns:xlink="http://www.w3.org/1999/xlink" x="0px" y="0px"
	 width="30px" height="30px" viewBox="0 0 30 30" enable-background="new 0 0 30 30" xml:space="preserve">
<g>
	<path d="M14,22c-0.256,0-0.512-0.098-0.707-0.293l-4-4c-0.391-0.391-0.391-1.023,0-1.414s1.023-0.391,1.414,0L14,19.586
		l5.293-5.293c0.391-0.391,1.023-0.391,1.414,0s0.391,1.023,0,1.414l-6,6C14.512,21.902,14.256,22,14,22z"/>
	<path d="M23,6h-2c0-0.552-0.448-1-1-1h-1c0-1.682-1.757-3-4-3s-4,1.318-4,3h-1C9.448,5,9,5.448,9,6H7C5.346,6,4,7.346,4,9v15
		c0,1.654,1.346,3,3,3h16c1.654,0,3-1.346,3-3V9C26,7.346,24.654,6,23,6z M11,7h1c0.552,0,1-0.448,1-1V5c0-0.408,0.779-1,2-1
		s2,0.592,2,1v1c0,0.552,0.448,1,1,1h1v2h-8V7z M24,24c0,0.551-0.449,1-1,1H7c-0.551,0-1-0.449-1-1V9c0-0.551,0.449-1,1-1h2v2
		c0,0.552,0.448,1,1,1h10c0.552,0,1-0.448,1-1V8h2c0.551,0,1,0.449,1,1V24z"/>
	<circle cx="15" cy="6" r="1"/>
</g>
</svg>
