<?xml version="1.0" encoding="utf-8"?>
<!-- Generator: Adobe Illustrator 16.2.0, SVG Export Plug-In . SVG Version: 6.00 Build 0)  -->
<!DOCTYPE svg PUBLIC "-//W3C//DTD SVG 1.1//EN" "http://www.w3.org/Graphics/SVG/1.1/DTD/svg11.dtd">
<svg version="1.1" id="Layer_1" xmlns="http://www.w3.org/2000/svg" xmlns:xlink="http://www.w3.org/1999/xlink" x="0px" y="0px"
	 width="30px" height="30px" viewBox="0 0 30 30" enable-background="new 0 0 30 30" xml:space="preserve">
<g>
	<path d="M24.848,15.206C24.949,14.813,25,14.41,25,14c0-2.757-2.243-5-5-5c-0.458,0-0.912,0.066-1.357,0.197
		C17.248,7.206,14.966,6,12.5,6C8.364,6,5,9.364,5,13.5c0,0.294,0.019,0.593,0.056,0.893C3.239,15.161,2,16.967,2,19
		c0,2.757,2.243,5,5,5h2v0.286c0,0.117,0.021,0.233,0.061,0.342C9.205,25.024,10.17,27,15,27s5.795-1.976,5.939-2.372
		C20.979,24.519,21,24.402,21,24.286V24h2.5c2.481,0,4.5-2.019,4.5-4.5C28,17.488,26.673,15.78,24.848,15.206z M19,23.989
		C18.735,24.271,17.783,25,15,25c-2.839,0-3.773-0.758-4-0.991V19h8V23.989z M13,17v-1c0-1.103,0.897-2,2-2c1.103,0,2,0.897,2,2v1
		H13z M23.5,22H21v-4c0-0.552-0.447-1-1-1h-1v-1c0-2.206-1.794-4-4-4c-2.206,0-4,1.794-4,4v1h-1c-0.552,0-1,0.448-1,1v4H7
		c-1.654,0-3-1.346-3-3c0-1.422,1.009-2.658,2.4-2.94c0.268-0.054,0.501-0.215,0.647-0.446c0.146-0.231,0.191-0.512,0.125-0.777
		C7.058,14.384,7,13.934,7,13.5C7,10.467,9.467,8,12.5,8c2.029,0,3.887,1.112,4.849,2.903c0.255,0.476,0.84,0.662,1.325,0.422
		C19.109,11.109,19.556,11,20,11c1.654,0,3,1.346,3,3c0,0.518-0.142,1.023-0.421,1.501c-0.181,0.309-0.183,0.691-0.004,1.002
		c0.178,0.311,0.509,0.502,0.867,0.502c0.028,0,0.065-0.002,0.103-0.005C24.902,17.024,26,18.136,26,19.5
		C26,20.878,24.879,22,23.5,22z"/>
	<circle cx="15" cy="22" r="1"/>
</g>
</svg>
