<?xml version="1.0" encoding="utf-8"?>
<!-- Generator: Adobe Illustrator 16.2.0, SVG Export Plug-In . SVG Version: 6.00 Build 0)  -->
<!DOCTYPE svg PUBLIC "-//W3C//DTD SVG 1.1//EN" "http://www.w3.org/Graphics/SVG/1.1/DTD/svg11.dtd">
<svg version="1.1" id="Layer_1" xmlns="http://www.w3.org/2000/svg" xmlns:xlink="http://www.w3.org/1999/xlink" x="0px" y="0px"
	 width="30px" height="30px" viewBox="0 0 30 30" enable-background="new 0 0 30 30" xml:space="preserve">
<g>
	<path d="M19.707,17.293l-4-4c-0.391-0.391-1.023-0.391-1.414,0l-4,4c-0.391,0.391-0.391,1.023,0,1.414s1.023,0.391,1.414,0
		L14,16.414V23c0,0.552,0.448,1,1,1s1-0.448,1-1v-6.586l2.293,2.293C18.488,18.902,18.744,19,19,19s0.512-0.098,0.707-0.293
		C20.098,18.316,20.098,17.684,19.707,17.293z"/>
	<path d="M23.5,24H19c-0.552,0-1-0.448-1-1s0.448-1,1-1h4.5c1.378,0,2.5-1.122,2.5-2.5c0-1.364-1.097-2.476-2.456-2.5
		c-0.036,0.003-0.074,0.005-0.102,0.005c-0.358,0-0.689-0.191-0.867-0.502c-0.178-0.311-0.177-0.693,0.004-1.002
		C22.858,15.023,23,14.518,23,14c0-1.654-1.346-3-3-3c-0.445,0-0.891,0.109-1.326,0.325c-0.484,0.239-1.07,0.053-1.326-0.422
		C16.386,9.112,14.529,8,12.5,8C9.467,8,7,10.467,7,13.5c0,0.434,0.058,0.884,0.171,1.337c0.066,0.265,0.021,0.545-0.125,0.777
		C6.901,15.845,6.667,16.006,6.4,16.06C5.009,16.342,4,17.578,4,19c0,1.654,1.346,3,3,3h4c0.552,0,1,0.448,1,1s-0.448,1-1,1H7
		c-2.757,0-5-2.243-5-5c0-2.033,1.239-3.839,3.056-4.607C5.019,14.093,5,13.794,5,13.5C5,9.364,8.364,6,12.5,6
		c2.466,0,4.748,1.206,6.143,3.197C19.088,9.066,19.542,9,20,9c2.757,0,5,2.243,5,5c0,0.41-0.051,0.813-0.152,1.206
		C26.672,15.78,28,17.488,28,19.5C28,21.981,25.981,24,23.5,24z"/>
</g>
</svg>
