<?xml version="1.0" encoding="utf-8"?>
<!-- Generator: Adobe Illustrator 16.2.0, SVG Export Plug-In . SVG Version: 6.00 Build 0)  -->
<!DOCTYPE svg PUBLIC "-//W3C//DTD SVG 1.1//EN" "http://www.w3.org/Graphics/SVG/1.1/DTD/svg11.dtd">
<svg version="1.1" id="Layer_1" xmlns="http://www.w3.org/2000/svg" xmlns:xlink="http://www.w3.org/1999/xlink" x="0px" y="0px"
	 width="30px" height="30px" viewBox="0 0 30 30" enable-background="new 0 0 30 30" xml:space="preserve">
<g>
	<path d="M27,12.411c0-1.185-0.475-2.297-1.334-3.13C24.817,8.455,23.688,8,22.484,8c-0.182,0-0.357,0.03-0.535,0.051
		C21.97,7.873,22,7.696,22,7.515c0-1.203-0.455-2.333-1.279-3.18C19.888,3.474,18.775,3,17.588,3C16.642,3,15.743,3.302,15,3.858
		C14.252,3.301,13.354,3,12.408,3c-1.186,0-2.297,0.475-3.123,1.331C8.456,5.18,8,6.31,8,7.515c0,0.183,0.03,0.358,0.051,0.536
		C7.873,8.03,7.696,8,7.514,8C6.311,8,5.181,8.455,4.333,9.28C3.474,10.113,3,11.226,3,12.411C3,13.356,3.301,14.254,3.858,15
		C3.301,15.747,3,16.646,3,17.591c0,1.186,0.474,2.297,1.332,3.126C5.182,21.544,6.312,22,7.514,22c0.183,0,0.359-0.03,0.537-0.051
		C8.03,22.127,8,22.303,8,22.485c0,1.205,0.456,2.335,1.28,3.179C10.111,26.525,11.223,27,12.408,27c0.947,0,1.848-0.302,2.593-0.858
		C15.747,26.699,16.644,27,17.588,27c1.188,0,2.3-0.474,3.131-1.333C21.545,24.818,22,23.688,22,22.485
		c0-0.182-0.03-0.358-0.051-0.536C22.127,21.97,22.303,22,22.484,22c1.202,0,2.332-0.456,3.18-1.281
		C26.525,19.887,27,18.775,27,17.591c0-0.944-0.302-1.843-0.86-2.591C26.698,14.253,27,13.355,27,12.411z M10.72,5.725
		c0.904-0.935,2.453-0.969,3.411,0.038l0.099,0.127c0.379,0.461,1.162,0.461,1.541,0l0.129-0.165
		c0.904-0.935,2.478-0.934,3.386,0.003C19.746,6.201,20,6.836,20,7.515c0,0.674-0.252,1.304-0.708,1.779L15,13.585l-4.283-4.282
		C10.255,8.827,10,8.192,10,7.515C10,6.835,10.254,6.201,10.72,5.725z M5.725,19.281C5.257,18.83,5,18.229,5,17.591
		c0-0.64,0.258-1.241,0.764-1.724l0.131-0.102c0.227-0.19,0.357-0.471,0.357-0.767s-0.131-0.576-0.357-0.767l-0.17-0.131
		C5.257,13.65,5,13.05,5,12.411c0-0.64,0.258-1.241,0.727-1.696c0.947-0.921,2.624-0.923,3.575,0.001L13.586,15l-4.278,4.278
		c-0.002,0.002-0.004,0.002-0.006,0.004C8.349,20.209,6.678,20.208,5.725,19.281z M19.283,24.274
		c-0.904,0.934-2.443,0.984-3.42-0.046l-0.093-0.118c-0.379-0.461-1.162-0.461-1.541,0l-0.126,0.164
		c-0.903,0.934-2.475,0.942-3.389-0.004C10.254,23.799,10,23.165,10,22.485c0-0.678,0.255-1.313,0.717-1.788L15,16.414l4.292,4.292
		C19.748,21.182,20,21.812,20,22.485C20,23.164,19.746,23.799,19.283,24.274z M24.114,15.773l0.158,0.122
		C24.742,16.351,25,16.952,25,17.591c0,0.638-0.258,1.237-0.729,1.692c-0.949,0.923-2.622,0.926-3.575-0.001L16.414,15l4.291-4.291
		c0.954-0.916,2.622-0.913,3.567,0.007C24.742,11.171,25,11.772,25,12.411c0,0.638-0.258,1.237-0.773,1.726l-0.112,0.088
		c-0.233,0.189-0.368,0.474-0.368,0.774S23.881,15.584,24.114,15.773z"/>
</g>
</svg>
