<?xml version="1.0" encoding="utf-8"?>
<!-- Generator: Adobe Illustrator 16.2.0, SVG Export Plug-In . SVG Version: 6.00 Build 0)  -->
<!DOCTYPE svg PUBLIC "-//W3C//DTD SVG 1.1//EN" "http://www.w3.org/Graphics/SVG/1.1/DTD/svg11.dtd">
<svg version="1.1" id="Layer_1" xmlns="http://www.w3.org/2000/svg" xmlns:xlink="http://www.w3.org/1999/xlink" x="0px" y="0px"
	 width="30px" height="30px" viewBox="0 0 30 30" enable-background="new 0 0 30 30" xml:space="preserve">
<g>
	<path d="M25,26h-4c-0.553,0-1-0.447-1-1V5c0-0.553,0.447-1,1-1h4c0.553,0,1,0.447,1,1v20C26,25.553,25.553,26,25,26z M22,24h2V6
		h-2V24z"/>
	<path d="M9,26H5c-0.553,0-1-0.447-1-1V5c0-0.553,0.447-1,1-1h4c0.553,0,1,0.447,1,1v20C10,25.553,9.553,26,9,26z M6,24h2V6H6V24z"
		/>
	<path d="M17,26h-4c-0.553,0-1-0.447-1-1V5c0-0.553,0.447-1,1-1h4c0.553,0,1,0.447,1,1v20C18,25.553,17.553,26,17,26z M14,24h2V6
		h-2V24z"/>
</g>
</svg>
