<?xml version="1.0" encoding="utf-8"?>
<!-- Generator: Adobe Illustrator 16.2.0, SVG Export Plug-In . SVG Version: 6.00 Build 0)  -->
<!DOCTYPE svg PUBLIC "-//W3C//DTD SVG 1.1//EN" "http://www.w3.org/Graphics/SVG/1.1/DTD/svg11.dtd">
<svg version="1.1" id="Layer_1" xmlns="http://www.w3.org/2000/svg" xmlns:xlink="http://www.w3.org/1999/xlink" x="0px" y="0px"
	 width="30px" height="30px" viewBox="0 0 30 30" enable-background="new 0 0 30 30" xml:space="preserve">
<g>
	<path d="M4,27c-0.262,0-0.517-0.103-0.707-0.293c-0.257-0.257-0.354-0.633-0.254-0.982l1.428-4.998C3.506,18.966,3,16.996,3,15
		C3,8.383,8.383,3,15,3s12,5.383,12,12s-5.383,12-12,12c-1.996,0-3.966-0.506-5.728-1.466l-4.998,1.428
		C4.184,26.987,4.092,27,4,27z M9.402,23.457c0.178,0,0.354,0.047,0.51,0.14C11.459,24.515,13.218,25,15,25
		c5.514,0,10-4.486,10-10S20.514,5,15,5S5,9.486,5,15c0,1.782,0.485,3.541,1.403,5.088c0.141,0.236,0.177,0.521,0.102,0.785
		l-1.049,3.671l3.671-1.049C9.217,23.469,9.31,23.457,9.402,23.457z"/>
	<circle cx="15" cy="15" r="1"/>
	<circle cx="19" cy="15" r="1"/>
	<circle cx="11" cy="15" r="1"/>
</g>
</svg>
