<?xml version="1.0" encoding="utf-8"?>
<!-- Generator: Adobe Illustrator 16.2.0, SVG Export Plug-In . SVG Version: 6.00 Build 0)  -->
<!DOCTYPE svg PUBLIC "-//W3C//DTD SVG 1.1//EN" "http://www.w3.org/Graphics/SVG/1.1/DTD/svg11.dtd">
<svg version="1.1" id="Layer_1" xmlns="http://www.w3.org/2000/svg" xmlns:xlink="http://www.w3.org/1999/xlink" x="0px" y="0px"
	 width="30px" height="30px" viewBox="0 0 30 30" enable-background="new 0 0 30 30" xml:space="preserve">
<g>
	<path d="M15,27C8.383,27,3,21.617,3,15S8.383,3,15,3s12,5.383,12,12S21.617,27,15,27z M15,5C9.486,5,5,9.486,5,15s4.486,10,10,10
		s10-4.486,10-10S20.514,5,15,5z"/>
	<path d="M21.605,20.341l-2.828-8.485c-0.1-0.298-0.334-0.533-0.632-0.632L9.659,8.394c-0.36-0.12-0.755-0.027-1.023,0.242
		C8.368,8.903,8.274,9.3,8.394,9.659l2.828,8.485c0.1,0.298,0.334,0.533,0.632,0.632l8.485,2.829
		c0.104,0.035,0.21,0.051,0.316,0.051c0.261,0,0.517-0.102,0.707-0.293C21.631,21.097,21.725,20.7,21.605,20.341z M10.924,10.924
		l5.053,1.685l-3.369,3.369L10.924,10.924z M14.022,17.392l3.369-3.369l1.684,5.053L14.022,17.392z"/>
</g>
</svg>
