<?xml version="1.0" encoding="utf-8"?>
<!-- Generator: Adobe Illustrator 16.2.0, SVG Export Plug-In . SVG Version: 6.00 Build 0)  -->
<!DOCTYPE svg PUBLIC "-//W3C//DTD SVG 1.1//EN" "http://www.w3.org/Graphics/SVG/1.1/DTD/svg11.dtd">
<svg version="1.1" id="Layer_1" xmlns="http://www.w3.org/2000/svg" xmlns:xlink="http://www.w3.org/1999/xlink" x="0px" y="0px"
	 width="30px" height="30px" viewBox="0 0 30 30" enable-background="new 0 0 30 30" xml:space="preserve">
<g>
	<path d="M26,27H4c-0.553,0-1-0.447-1-1V4c0-0.553,0.447-1,1-1h22c0.553,0,1,0.447,1,1v22C27,26.553,26.553,27,26,27z M5,25h20V5H5
		V25z"/>
	<path d="M13,16H8c-0.553,0-1,0.447-1,1s0.447,1,1,1h2.586l-3.293,3.293c-0.391,0.391-0.391,1.023,0,1.414
		C7.488,22.902,7.744,23,8,23s0.512-0.098,0.707-0.293L12,19.414V22c0,0.553,0.447,1,1,1s1-0.447,1-1v-5C14,16.447,13.553,16,13,16z
		"/>
	<path d="M22,12h-2.586l3.293-3.293c0.391-0.391,0.391-1.023,0-1.414s-1.023-0.391-1.414,0L18,10.586V8c0-0.553-0.447-1-1-1
		s-1,0.447-1,1v5c0,0.553,0.447,1,1,1h5c0.553,0,1-0.447,1-1S22.553,12,22,12z"/>
</g>
</svg>
