<?xml version="1.0" encoding="utf-8"?>
<!-- Generator: Adobe Illustrator 16.2.0, SVG Export Plug-In . SVG Version: 6.00 Build 0)  -->
<!DOCTYPE svg PUBLIC "-//W3C//DTD SVG 1.1//EN" "http://www.w3.org/Graphics/SVG/1.1/DTD/svg11.dtd">
<svg version="1.1" id="Layer_1" xmlns="http://www.w3.org/2000/svg" xmlns:xlink="http://www.w3.org/1999/xlink" x="0px" y="0px"
	 width="30px" height="30px" viewBox="0 0 30 30" enable-background="new 0 0 30 30" xml:space="preserve">
<g>
	<path d="M25,7h-3V4c0-0.552-0.448-1-1-1H5C4.448,3,4,3.448,4,4v18c0,0.552,0.448,1,1,1h3v3c0,0.552,0.448,1,1,1h16
		c0.552,0,1-0.448,1-1V8C26,7.448,25.552,7,25,7z M8,8v13H6V5h14v2H9C8.448,7,8,7.448,8,8z M24,25H10V9h14V25z"/>
	<path d="M13,14h8c0.552,0,1-0.448,1-1s-0.448-1-1-1h-8c-0.552,0-1,0.448-1,1S12.448,14,13,14z"/>
	<path d="M13,18h8c0.552,0,1-0.448,1-1s-0.448-1-1-1h-8c-0.552,0-1,0.448-1,1S12.448,18,13,18z"/>
	<path d="M13,22h5c0.552,0,1-0.448,1-1s-0.448-1-1-1h-5c-0.552,0-1,0.448-1,1S12.448,22,13,22z"/>
</g>
</svg>
