<?xml version="1.0" encoding="utf-8"?>
<!-- Generator: Adobe Illustrator 16.2.0, SVG Export Plug-In . SVG Version: 6.00 Build 0)  -->
<!DOCTYPE svg PUBLIC "-//W3C//DTD SVG 1.1//EN" "http://www.w3.org/Graphics/SVG/1.1/DTD/svg11.dtd">
<svg version="1.1" id="Layer_1" xmlns="http://www.w3.org/2000/svg" xmlns:xlink="http://www.w3.org/1999/xlink" x="0px" y="0px"
	 width="30px" height="30px" viewBox="0 0 30 30" enable-background="new 0 0 30 30" xml:space="preserve">
<g>
	<path d="M24,6H6C4.346,6,3,7.346,3,9v12c0,1.654,1.346,3,3,3h18c1.654,0,3-1.346,3-3V9C27,7.346,25.654,6,24,6z M6,8h18
		c0.551,0,1,0.449,1,1v1H5V9C5,8.449,5.449,8,6,8z M24,22H6c-0.551,0-1-0.449-1-1v-9h20v9C25,21.551,24.551,22,24,22z"/>
	<path d="M10,18H8c-0.552,0-1,0.448-1,1s0.448,1,1,1h2c0.552,0,1-0.448,1-1S10.552,18,10,18z"/>
</g>
</svg>
