<?xml version="1.0" encoding="utf-8"?>
<!-- Generator: Adobe Illustrator 16.2.0, SVG Export Plug-In . SVG Version: 6.00 Build 0)  -->
<!DOCTYPE svg PUBLIC "-//W3C//DTD SVG 1.1//EN" "http://www.w3.org/Graphics/SVG/1.1/DTD/svg11.dtd">
<svg version="1.1" id="Layer_1" xmlns="http://www.w3.org/2000/svg" xmlns:xlink="http://www.w3.org/1999/xlink" x="0px" y="0px"
	 width="30px" height="30px" viewBox="0 0 30 30" enable-background="new 0 0 30 30" xml:space="preserve">
<g>
	<path d="M26,22h-3V9c0-0.553-0.447-1-1-1H9V5c0-0.553-0.447-1-1-1S7,4.447,7,5v3H4C3.447,8,3,8.447,3,9s0.447,1,1,1h3v13
		c0,0.553,0.447,1,1,1h13v3c0,0.553,0.447,1,1,1s1-0.447,1-1v-3h3c0.553,0,1-0.447,1-1S26.553,22,26,22z M9,22V10h12v12H9z"/>
</g>	
</svg>
