<?xml version="1.0" encoding="utf-8"?>
<!-- Generator: Adobe Illustrator 16.2.0, SVG Export Plug-In . SVG Version: 6.00 Build 0)  -->
<!DOCTYPE svg PUBLIC "-//W3C//DTD SVG 1.1//EN" "http://www.w3.org/Graphics/SVG/1.1/DTD/svg11.dtd">
<svg version="1.1" id="Layer_1" xmlns="http://www.w3.org/2000/svg" xmlns:xlink="http://www.w3.org/1999/xlink" x="0px" y="0px"
	 width="30px" height="30px" viewBox="0 0 30 30" enable-background="new 0 0 30 30" xml:space="preserve">
<g>
	<path d="M23,25H7c-0.439,0-0.827-0.286-0.956-0.706l-4-13c-0.113-0.368-0.005-0.769,0.278-1.029
		c0.283-0.263,0.69-0.337,1.049-0.193l6.687,2.675l4.07-7.236c0.354-0.629,1.389-0.629,1.743,0l4.07,7.236l6.687-2.675
		c0.36-0.142,0.766-0.068,1.049,0.193c0.283,0.261,0.391,0.661,0.278,1.029l-4,13C23.827,24.714,23.439,25,23,25z M7.739,23h14.522
		l3.168-10.295l-5.558,2.224c-0.466,0.183-0.997-0.001-1.243-0.438L15,8.04l-3.628,6.45c-0.245,0.438-0.777,0.621-1.243,0.438
		l-5.558-2.224L7.739,23z"/>
</g>
</svg>
