<?xml version="1.0" encoding="utf-8"?>
<!-- Generator: Adobe Illustrator 16.2.0, SVG Export Plug-In . SVG Version: 6.00 Build 0)  -->
<!DOCTYPE svg PUBLIC "-//W3C//DTD SVG 1.1//EN" "http://www.w3.org/Graphics/SVG/1.1/DTD/svg11.dtd">
<svg version="1.1" id="Layer_1" xmlns="http://www.w3.org/2000/svg" xmlns:xlink="http://www.w3.org/1999/xlink" x="0px" y="0px"
	 width="30px" height="30px" viewBox="0 0 30 30" enable-background="new 0 0 30 30" xml:space="preserve">
<g>
<path d="M26.93,8.653c-0.012-0.033-0.027-0.063-0.043-0.093c-0.038-0.078-0.086-0.149-0.145-0.215
	c-0.02-0.023-0.037-0.047-0.059-0.069c-0.079-0.074-0.167-0.14-0.27-0.187L26.39,8.079l0,0L15.414,3.09
	c-0.264-0.12-0.564-0.12-0.828,0L3.61,8.079l0,0L3.586,8.09c-0.103,0.046-0.19,0.112-0.27,0.187
	C3.295,8.298,3.277,8.322,3.258,8.345C3.199,8.411,3.151,8.482,3.112,8.56C3.098,8.591,3.082,8.62,3.07,8.653
	C3.029,8.763,3,8.878,3,9v12c0,0.392,0.229,0.748,0.586,0.91l11,5C14.718,26.97,14.858,27,15,27s0.282-0.03,0.414-0.09l11-5
	C26.771,21.748,27,21.392,27,21V9C27,8.878,26.972,8.763,26.93,8.653z M15,5.099L23.583,9L15,12.901L6.417,9L15,5.099z M5,10.553
	l9,4.091v9.803l-9-4.091V10.553z M16,24.447v-9.803l9-4.091v9.803L16,24.447z"/>
</g>
</svg>
