<?xml version="1.0" encoding="utf-8"?>
<!-- Generator: Adobe Illustrator 16.2.0, SVG Export Plug-In . SVG Version: 6.00 Build 0)  -->
<!DOCTYPE svg PUBLIC "-//W3C//DTD SVG 1.1//EN" "http://www.w3.org/Graphics/SVG/1.1/DTD/svg11.dtd">
<svg version="1.1" id="Layer_1" xmlns="http://www.w3.org/2000/svg" xmlns:xlink="http://www.w3.org/1999/xlink" x="0px" y="0px"
	 width="30px" height="30px" viewBox="0 0 30 30" enable-background="new 0 0 30 30" xml:space="preserve">
<g>
<path d="M21.427,17.686c-1.04-1.04-2.683-1.239-3.947-0.62L15.414,15l2.055-2.054c0.467,0.241,0.982,0.383,1.525,0.383h0
	c0.915,0,1.779-0.36,2.432-1.013l2.561-2.561c0.642-0.642,1.001-1.49,1.013-2.39c0.012-0.909-0.333-1.76-0.969-2.395
	c-1.265-1.268-3.495-1.248-4.786,0.042l-2.561,2.561c-1.079,1.079-1.28,2.687-0.628,3.956L14,13.586L6.707,6.293
	c-0.391-0.391-1.023-0.391-1.414,0s-0.391,1.023,0,1.414L12.585,15l-7.293,7.293c-0.391,0.391-0.391,1.023,0,1.414
	C5.488,23.902,5.744,24,6,24s0.512-0.098,0.707-0.293L14,16.414l2.057,2.057c-0.653,1.269-0.451,2.878,0.627,3.957l2.561,2.561
	c0.653,0.653,1.517,1.013,2.432,1.013c0.893,0,1.729-0.344,2.353-0.969c0.637-0.636,0.982-1.487,0.97-2.396
	c-0.011-0.899-0.371-1.748-1.013-2.39L21.427,17.686z M18.098,8.988l2.561-2.561C20.934,6.152,21.296,6,21.677,6
	c0.358,0,0.691,0.137,0.939,0.385C22.868,6.637,23.004,6.976,23,7.341c-0.004,0.375-0.156,0.73-0.427,1l-2.561,2.561
	c-0.275,0.275-0.637,0.427-1.018,0.427c-0.358,0-0.691-0.137-0.938-0.384C17.528,10.417,17.547,9.539,18.098,8.988z M22.616,23.617
	c-0.511,0.51-1.423,0.49-1.957-0.043l-2.561-2.561c-0.551-0.551-0.57-1.429-0.042-1.958c0.248-0.248,0.581-0.384,0.938-0.384
	c0.381,0,0.742,0.151,1.018,0.427l2.561,2.561c0.271,0.271,0.422,0.626,0.427,1C23.004,23.025,22.868,23.365,22.616,23.617z"/>
</g>
</svg>
