<?xml version="1.0" encoding="utf-8"?>
<!-- Generator: Adobe Illustrator 16.2.0, SVG Export Plug-In . SVG Version: 6.00 Build 0)  -->
<!DOCTYPE svg PUBLIC "-//W3C//DTD SVG 1.1//EN" "http://www.w3.org/Graphics/SVG/1.1/DTD/svg11.dtd">
<svg version="1.1" id="Layer_1" xmlns="http://www.w3.org/2000/svg" xmlns:xlink="http://www.w3.org/1999/xlink" x="0px" y="0px"
	 width="30px" height="30px" viewBox="0 0 30 30" enable-background="new 0 0 30 30" xml:space="preserve">
<g>
	<path d="M14,3c-0.553,0-1,0.447-1,1v6.668c0,1.012-0.839,1.867-2,2.188V4c0-0.553-0.447-1-1-1S9,3.447,9,4v8.856
		c-1.161-0.321-2-1.177-2-2.188V4c0-0.553-0.447-1-1-1S5,3.447,5,4v6.668c0,1.41,0.793,2.652,2,3.443V24c0,1.654,1.346,3,3,3
		s3-1.346,3-3v-9.889c1.207-0.791,2-2.033,2-3.443V4C15,3.447,14.553,3,14,3z M11,24c0,0.552-0.448,1-1,1s-1-0.448-1-1v-9.088
		C9.323,14.97,9.657,15,10,15s0.677-0.03,1-0.088V24z"/>
	<path d="M18,3c-0.553,0-1,0.447-1,1v20c0,1.654,1.346,3,3,3s3-1.346,3-3v-6.586l1.707-1.707C24.895,15.52,25,15.266,25,15V9
		C25,5.131,22.514,3,18,3z M23,14.586l-1.707,1.707C21.105,16.48,21,16.734,21,17v7c0,0.552-0.448,1-1,1s-1-0.448-1-1V5.042
		C22.562,5.361,23,7.42,23,9V14.586z"/>
</g>
</svg>
