<?xml version="1.0" encoding="utf-8"?>
<!-- Generator: Adobe Illustrator 16.2.0, SVG Export Plug-In . SVG Version: 6.00 Build 0)  -->
<!DOCTYPE svg PUBLIC "-//W3C//DTD SVG 1.1//EN" "http://www.w3.org/Graphics/SVG/1.1/DTD/svg11.dtd">
<svg version="1.1" id="Layer_1" xmlns="http://www.w3.org/2000/svg" xmlns:xlink="http://www.w3.org/1999/xlink" x="0px" y="0px"
	 width="30px" height="30px" viewBox="0 0 30 30" enable-background="new 0 0 30 30" xml:space="preserve">
<g>
<path d="M27,4H3C2.448,4,2,4.448,2,5v16c0,0.552,0.448,1,1,1h9v2H9c-0.552,0-1,0.448-1,1s0.448,1,1,1h12c0.552,0,1-0.448,1-1
	s-0.448-1-1-1h-3v-2h9c0.552,0,1-0.448,1-1V5C28,4.448,27.552,4,27,4z M16,24h-2v-2h2V24z M26,20H4V6h22V20z"/>
</g>
</svg>
