<?xml version="1.0" encoding="utf-8"?>
<!-- Generator: Adobe Illustrator 16.2.0, SVG Export Plug-In . SVG Version: 6.00 Build 0)  -->
<!DOCTYPE svg PUBLIC "-//W3C//DTD SVG 1.1//EN" "http://www.w3.org/Graphics/SVG/1.1/DTD/svg11.dtd">
<svg version="1.1" id="Layer_1" xmlns="http://www.w3.org/2000/svg" xmlns:xlink="http://www.w3.org/1999/xlink" x="0px" y="0px"
	 width="30px" height="30px" viewBox="0 0 30 30" enable-background="new 0 0 30 30" xml:space="preserve">
<g>
<path d="M27.832,11.445l-4-6C23.646,5.167,23.334,5,23,5H7C6.666,5,6.354,5.167,6.168,5.445l-4,6
	c-0.265,0.396-0.212,0.925,0.125,1.262l12,12C14.488,24.902,14.744,25,15,25s0.512-0.098,0.707-0.293l12-12
	C28.044,12.37,28.097,11.842,27.832,11.445z M6.993,7.813L9.127,11H4.869L6.993,7.813z M12.886,11L15,7.882L17.114,11H12.886z
	 M17.947,13L15,20.93L12.053,13H17.947z M16.819,7h4.325l-2.149,3.21L16.819,7z M11.005,10.21L8.856,7h4.325L11.005,10.21z
	 M9.918,13l2.665,7.17L5.414,13H9.918z M20.082,13h4.505l-7.17,7.17L20.082,13z M20.873,11l2.134-3.188L25.131,11H20.873z"/>
</g>
</svg>
