<?xml version="1.0" encoding="utf-8"?>
<!-- Generator: Adobe Illustrator 16.2.0, SVG Export Plug-In . SVG Version: 6.00 Build 0)  -->
<!DOCTYPE svg PUBLIC "-//W3C//DTD SVG 1.1//EN" "http://www.w3.org/Graphics/SVG/1.1/DTD/svg11.dtd">
<svg version="1.1" id="Layer_1" xmlns="http://www.w3.org/2000/svg" xmlns:xlink="http://www.w3.org/1999/xlink" x="0px" y="0px"
	 width="30px" height="30px" viewBox="0 0 30 30" enable-background="new 0 0 30 30" xml:space="preserve">
<g>
<path d="M27.857,12.485l-3-5C24.677,7.184,24.352,7,24,7h-6V4c0-0.552-0.447-1-1-1h-4c-0.553,0-1,0.448-1,1v3H4
	C3.64,7,3.308,7.194,3.13,7.507S2.957,8.206,3.143,8.515L5.834,13l-2.691,4.485c-0.186,0.309-0.19,0.694-0.013,1.007S3.64,19,4,19h8
	v6h-2c-0.553,0-1,0.448-1,1s0.447,1,1,1h10c0.553,0,1-0.448,1-1s-0.447-1-1-1h-2v-6h6c0.352,0,0.677-0.184,0.857-0.485l3-5
	C28.048,13.198,28.048,12.802,27.857,12.485z M14,5h2v2h-2V5z M16,25h-2v-6h2V25z M23.434,17H5.767l2.091-3.485
	c0.19-0.317,0.19-0.712,0-1.029L5.767,9h17.667l2.4,4L23.434,17z"/>
</g>
</svg>
