<?xml version="1.0" encoding="utf-8"?>
<!-- Generator: Adobe Illustrator 16.2.0, SVG Export Plug-In . SVG Version: 6.00 Build 0)  -->
<!DOCTYPE svg PUBLIC "-//W3C//DTD SVG 1.1//EN" "http://www.w3.org/Graphics/SVG/1.1/DTD/svg11.dtd">
<svg version="1.1" id="Layer_1" xmlns="http://www.w3.org/2000/svg" xmlns:xlink="http://www.w3.org/1999/xlink" x="0px" y="0px"
	 width="30px" height="30px" viewBox="0 0 30 30" enable-background="new 0 0 30 30" xml:space="preserve">
<g>
	<path d="M13,27c-0.412,0-0.786-0.253-0.935-0.644l-8-21C3.925,4.988,4.015,4.571,4.293,4.293c0.28-0.279,0.696-0.366,1.063-0.228
		l21,8c0.419,0.16,0.681,0.58,0.64,1.026c-0.042,0.447-0.376,0.812-0.817,0.892L15.86,15.86l-1.877,10.319
		c-0.08,0.442-0.444,0.776-0.892,0.817C13.061,26.999,13.03,27,13,27z M6.729,6.729l5.929,15.564l1.359-7.471
		c0.074-0.41,0.395-0.73,0.805-0.805l7.471-1.358L6.729,6.729z"/>
</g>
</svg>
