<?xml version="1.0" encoding="utf-8"?>
<!-- Generator: Adobe Illustrator 16.2.0, SVG Export Plug-In . SVG Version: 6.00 Build 0)  -->
<!DOCTYPE svg PUBLIC "-//W3C//DTD SVG 1.1//EN" "http://www.w3.org/Graphics/SVG/1.1/DTD/svg11.dtd">
<svg version="1.1" id="Layer_1" xmlns="http://www.w3.org/2000/svg" xmlns:xlink="http://www.w3.org/1999/xlink" x="0px" y="0px"
	 width="30px" height="30px" viewBox="0 0 30 30" enable-background="new 0 0 30 30" xml:space="preserve">
<g>
<path d="M26.781,8.375l-4-5C22.591,3.138,22.304,3,22,3H8C7.696,3,7.409,3.138,7.219,3.375l-4,5C3.077,8.553,3,8.773,3,9v17
	c0,0.552,0.447,1,1,1h22c0.553,0,1-0.448,1-1V9C27,8.773,26.923,8.553,26.781,8.375z M8.48,5H21.52l2.4,3H17c-0.553,0-1,0.448-1,1v6
	c0,0.552,0.447,1,1,1h2.586L15,20.586L10.414,16H13c0.553,0,1-0.448,1-1V9c0-0.552-0.447-1-1-1H6.08L8.48,5z M5,25V10h7v4H8
	c-0.404,0-0.77,0.244-0.924,0.617c-0.155,0.374-0.069,0.804,0.217,1.09l7,7C14.488,22.902,14.744,23,15,23s0.512-0.098,0.707-0.293
	l7-7c0.286-0.286,0.372-0.716,0.217-1.09C22.77,14.244,22.404,14,22,14h-4v-4h7v15H5z"/>
</g>
</svg>
