<?xml version="1.0" encoding="utf-8"?>
<!-- Generator: Adobe Illustrator 16.2.0, SVG Export Plug-In . SVG Version: 6.00 Build 0)  -->
<!DOCTYPE svg PUBLIC "-//W3C//DTD SVG 1.1//EN" "http://www.w3.org/Graphics/SVG/1.1/DTD/svg11.dtd">
<svg version="1.1" id="Layer_1" xmlns="http://www.w3.org/2000/svg" xmlns:xlink="http://www.w3.org/1999/xlink" x="0px" y="0px"
	 width="30px" height="30px" viewBox="0 0 30 30" enable-background="new 0 0 30 30" xml:space="preserve">
<g>
	<path d="M15,23c-2.757,0-5-2.243-5-5c0-0.553,0.447-1,1-1s1,0.447,1,1c0,1.654,1.346,3,3,3c0.553,0,1,0.447,1,1S15.553,23,15,23z"
		/>
	<path d="M15,27c-4.963,0-9-4.037-9-9c0-7.369,8.001-14.454,8.342-14.753c0.377-0.33,0.939-0.33,1.316,0
		C15.999,3.546,24,10.631,24,18C24,22.963,19.963,27,15,27z M15,5.371C13.143,7.184,8,12.682,8,18c0,3.859,3.141,7,7,7s7-3.141,7-7
		C22,12.682,16.857,7.184,15,5.371z"/>
</g>
</svg>
