<?xml version="1.0" encoding="utf-8"?>
<!-- Generator: Adobe Illustrator 16.2.0, SVG Export Plug-In . SVG Version: 6.00 Build 0)  -->
<!DOCTYPE svg PUBLIC "-//W3C//DTD SVG 1.1//EN" "http://www.w3.org/Graphics/SVG/1.1/DTD/svg11.dtd">
<svg version="1.1" id="Layer_1" xmlns="http://www.w3.org/2000/svg" xmlns:xlink="http://www.w3.org/1999/xlink" x="0px" y="0px"
	 width="30px" height="30px" viewBox="0 0 30 30" enable-background="new 0 0 30 30" xml:space="preserve">
<g>
<path d="M24.346,5.655C23.279,4.588,21.86,4,20.351,4s-2.929,0.588-3.996,1.655c-0.606,0.606-1.059,1.342-1.332,2.145
	c-1.135-1.057-3.044-1.027-4.147,0.075C10.311,8.439,10,9.189,10,9.988c0,0.798,0.312,1.548,0.875,2.111l0.533,0.533l-4.404,4.404
	c-1.084,1.134-1.361,2.226-1.605,3.19c-0.216,0.855-0.387,1.53-1.106,2.249c-0.391,0.39-0.391,1.023,0,1.414
	C4.488,24.084,4.744,24.182,5,24.182s0.512-0.098,0.707-0.293c1.108-1.107,1.386-2.205,1.631-3.172
	c0.21-0.829,0.391-1.545,1.096-2.283l4.388-4.388l3.132,3.131l-4.373,4.373c-0.753,0.721-1.47,0.902-2.299,1.112
	c-0.967,0.245-2.064,0.523-3.171,1.631c-0.391,0.391-0.391,1.024,0,1.414C6.307,25.902,6.563,26,6.818,26s0.512-0.098,0.707-0.293
	c0.718-0.718,1.394-0.89,2.248-1.106c0.964-0.244,2.056-0.521,3.207-1.622l4.388-4.388l0.531,0.531
	c0.564,0.565,1.314,0.876,2.113,0.876c0.798,0,1.549-0.311,2.112-0.875c1.138-1.138,1.164-2.973,0.078-4.143
	c0.801-0.272,1.532-0.725,2.143-1.335C26.548,11.442,26.548,7.858,24.346,5.655z M22.931,12.231
	c-0.728,0.728-1.741,1.105-2.789,1.045c-0.407-0.022-0.8,0.211-0.969,0.59c-0.169,0.378-0.088,0.822,0.206,1.116l1.332,1.333
	c0.385,0.385,0.385,1.011,0,1.396c-0.373,0.373-1.022,0.374-1.396,0l-7.025-7.026C12.103,10.498,12,10.25,12,9.987
	c0-0.264,0.103-0.512,0.29-0.698C12.476,9.103,12.724,9,12.988,9s0.512,0.103,0.699,0.289l1.332,1.332
	c0.292,0.294,0.737,0.377,1.116,0.206c0.379-0.169,0.613-0.555,0.59-0.969c-0.061-1.063,0.311-2.053,1.045-2.788
	c1.378-1.379,3.785-1.379,5.163,0C24.354,8.492,24.354,10.808,22.931,12.231z"/>
</g>
</svg>
