<?xml version="1.0" encoding="utf-8"?>
<!-- Generator: Adobe Illustrator 16.2.0, SVG Export Plug-In . SVG Version: 6.00 Build 0)  -->
<!DOCTYPE svg PUBLIC "-//W3C//DTD SVG 1.1//EN" "http://www.w3.org/Graphics/SVG/1.1/DTD/svg11.dtd">
<svg version="1.1" id="Layer_1" xmlns="http://www.w3.org/2000/svg" xmlns:xlink="http://www.w3.org/1999/xlink" x="0px" y="0px"
	 width="30px" height="30px" viewBox="0 0 30 30" enable-background="new 0 0 30 30" xml:space="preserve">
<g>
<path d="M26.722,4.293c-0.839-0.839-1.736-1.264-2.667-1.264c-1.574,0-2.722,1.197-3.481,1.989l-0.994,0.995
	C19.558,6.012,19.538,6,19.515,6h-14.5c-0.552,0-1,0.448-1,1v19c0,0.552,0.448,1,1,1h17c0.552,0,1-0.448,1-1V13.5
	c0-0.025-0.013-0.046-0.015-0.071l2.722-2.722c0.09-0.09,0.19-0.186,0.298-0.287c0.781-0.742,1.96-1.863,1.98-3.407
	C28.012,6.068,27.582,5.153,26.722,4.293z M17.037,16.564c-0.246-0.487-0.597-1.02-1.131-1.554
	c-0.487-0.487-0.972-0.819-1.424-1.062l6.533-6.534L23.601,10L17.037,16.564z M12.937,15.493l0.033-0.033
	c0.388,0.123,0.943,0.385,1.522,0.963c0.651,0.651,0.906,1.279,1.007,1.659l-3.208,0.642L12.937,15.493z M21.015,25h-15V8h11.581
	l-6.288,6.293c-0.14,0.14-0.235,0.317-0.273,0.511l-1,5c-0.066,0.328,0.037,0.667,0.273,0.903C10.498,20.896,10.752,21,11.015,21
	c0.065,0,0.131-0.006,0.196-0.02l5-1c0.193-0.039,0.371-0.134,0.511-0.273l4.293-4.293V25z M25.026,8.597l-2.605-2.605
	c0.493-0.485,1.075-0.963,1.635-0.963c0.381,0,0.802,0.228,1.252,0.678c0.464,0.464,0.697,0.895,0.692,1.28
	C25.993,7.538,25.509,8.113,25.026,8.597z"/>
</g>
</svg>
