<?xml version="1.0" encoding="utf-8"?>
<!-- Generator: Adobe Illustrator 16.2.0, SVG Export Plug-In . SVG Version: 6.00 Build 0)  -->
<!DOCTYPE svg PUBLIC "-//W3C//DTD SVG 1.1//EN" "http://www.w3.org/Graphics/SVG/1.1/DTD/svg11.dtd">
<svg version="1.1" id="Layer_1" xmlns="http://www.w3.org/2000/svg" xmlns:xlink="http://www.w3.org/1999/xlink" x="0px" y="0px"
	 width="30px" height="30px" viewBox="0 0 30 30" enable-background="new 0 0 30 30" xml:space="preserve">
<g>
	<path d="M23,24H7c-0.553,0-1-0.447-1-1v-4c0-0.553,0.447-1,1-1h16c0.553,0,1,0.447,1,1v4C24,23.553,23.553,24,23,24z M8,22h14v-2
		H8V22z"/>
	<path d="M23.02,16c-0.005,0.001-0.012,0-0.02,0H7c-0.404,0-0.77-0.243-0.924-0.617c-0.155-0.374-0.069-0.804,0.217-1.09l8-8
		c0.391-0.391,1.023-0.391,1.414,0l7.892,7.891c0.255,0.182,0.421,0.479,0.421,0.816C24.02,15.553,23.572,16,23.02,16z M9.414,14
		h11.172L15,8.414L9.414,14z"/>
</g>
</svg>
