<?xml version="1.0" encoding="utf-8"?>
<!-- Generator: Adobe Illustrator 16.2.0, SVG Export Plug-In . SVG Version: 6.00 Build 0)  -->
<!DOCTYPE svg PUBLIC "-//W3C//DTD SVG 1.1//EN" "http://www.w3.org/Graphics/SVG/1.1/DTD/svg11.dtd">
<svg version="1.1" id="Layer_1" xmlns="http://www.w3.org/2000/svg" xmlns:xlink="http://www.w3.org/1999/xlink" x="0px" y="0px"
	 width="30px" height="30px" viewBox="0 0 30 30" enable-background="new 0 0 30 30" xml:space="preserve">
<g>
<path d="M24.811,8.017l-2.828-2.828C21.216,4.422,20.192,4,19.101,4s-2.115,0.423-2.881,1.19L5.189,16.219
	c-1.588,1.589-1.588,4.175,0,5.764l2.828,2.828C8.784,25.578,9.808,26,10.899,26s2.115-0.423,2.881-1.19l11.031-11.03
	C26.399,12.191,26.399,9.606,24.811,8.017z M12.366,23.396c-0.779,0.779-2.155,0.779-2.935,0l-2.828-2.828
	c-0.809-0.809-0.809-2.126,0-2.936l2.808-2.808l5.763,5.763L12.366,23.396z M23.396,12.367l-6.808,6.808l-5.763-5.763l6.808-6.808
	C18.023,6.214,18.544,6,19.101,6s1.078,0.214,1.467,0.604l2.828,2.828C24.205,10.24,24.205,11.557,23.396,12.367z"/>
</g>
</svg>
