<?xml version="1.0" encoding="utf-8"?>
<!-- Generator: Adobe Illustrator 16.2.0, SVG Export Plug-In . SVG Version: 6.00 Build 0)  -->
<!DOCTYPE svg PUBLIC "-//W3C//DTD SVG 1.1//EN" "http://www.w3.org/Graphics/SVG/1.1/DTD/svg11.dtd">
<svg version="1.1" id="Layer_1" xmlns="http://www.w3.org/2000/svg" xmlns:xlink="http://www.w3.org/1999/xlink" x="0px" y="0px"
	 width="30px" height="30px" viewBox="0 0 30 30" enable-background="new 0 0 30 30" xml:space="preserve">
<g>
	<path d="M21,14c-0.553,0-1,0.447-1,1v9H6V10h9c0.553,0,1-0.447,1-1s-0.447-1-1-1H5C4.447,8,4,8.447,4,9v16c0,0.553,0.447,1,1,1h16
		c0.553,0,1-0.447,1-1V15C22,14.447,21.553,14,21,14z"/>
	<path d="M25,4h-9c-0.553,0-1,0.447-1,1s0.447,1,1,1h6.586L12.293,16.293c-0.391,0.391-0.391,1.023,0,1.414
		C12.488,17.902,12.744,18,13,18s0.512-0.098,0.707-0.293L24,7.414V14c0,0.553,0.447,1,1,1s1-0.447,1-1V5C26,4.447,25.553,4,25,4z"
		/>
</g>
</svg>
