<?xml version="1.0" encoding="utf-8"?>
<!-- Generator: Adobe Illustrator 16.2.0, SVG Export Plug-In . SVG Version: 6.00 Build 0)  -->
<!DOCTYPE svg PUBLIC "-//W3C//DTD SVG 1.1//EN" "http://www.w3.org/Graphics/SVG/1.1/DTD/svg11.dtd">
<svg version="1.1" id="Layer_1" xmlns="http://www.w3.org/2000/svg" xmlns:xlink="http://www.w3.org/1999/xlink" x="0px" y="0px"
	 width="30px" height="30px" viewBox="0 0 30 30" enable-background="new 0 0 30 30" xml:space="preserve">
<g>
	<path d="M27.851,12.704c-0.688-1.11-2.14-3.028-4.611-4.529l3.468-3.468c0.391-0.391,0.391-1.023,0-1.414s-1.023-0.391-1.414,0
		L21.366,7.22C19.633,6.491,17.532,6,15,6C7.148,6,3.397,10.688,2.15,12.704c-0.291,0.47-0.146,1.086,0.324,1.376
		c0.47,0.292,1.086,0.146,1.376-0.324c0.701-1.131,2.333-3.237,5.284-4.564C8.419,10.29,8,11.596,8,13
		c0,2.079,0.916,3.943,2.359,5.227l-1.982,1.982c-1.077-0.583-2.003-1.25-2.67-1.916c-0.391-0.391-1.023-0.391-1.414,0
		s-0.391,1.023,0,1.414c0.666,0.667,1.575,1.342,2.624,1.962l-3.624,3.624c-0.391,0.391-0.391,1.023,0,1.414
		C3.488,26.902,3.744,27,4,27s0.512-0.098,0.707-0.293l4.074-4.074C10.646,23.445,12.801,24,15,24c4.407,0,8.64-2.225,10.707-4.293
		c0.391-0.391,0.391-1.023,0-1.414s-1.023-0.391-1.414,0C22.508,20.078,18.838,22,15,22c-1.595,0-3.202-0.365-4.671-0.915
		l1.738-1.738C12.96,19.762,13.952,20,15,20c3.859,0,7-3.14,7-7c0-1.048-0.234-2.042-0.651-2.935l0.417-0.416
		c2.385,1.316,3.759,3.098,4.384,4.108c0.189,0.306,0.517,0.474,0.852,0.474c0.18,0,0.361-0.048,0.525-0.15
		C27.996,13.79,28.141,13.174,27.851,12.704z M10,13c0-2.757,2.243-5,5-5c1.527,0,2.881,0.704,3.799,1.787l-7.012,7.012
		C10.704,15.881,10,14.528,10,13z M20,13c0,2.757-2.243,5-5,5c-0.479,0-0.932-0.089-1.371-0.215l6.156-6.155
		C19.911,12.068,20,12.521,20,13z"/>
</g>
</svg>
