<?xml version="1.0" encoding="utf-8"?>
<!-- Generator: Adobe Illustrator 16.2.0, SVG Export Plug-In . SVG Version: 6.00 Build 0)  -->
<!DOCTYPE svg PUBLIC "-//W3C//DTD SVG 1.1//EN" "http://www.w3.org/Graphics/SVG/1.1/DTD/svg11.dtd">
<svg version="1.1" id="Layer_1" xmlns="http://www.w3.org/2000/svg" xmlns:xlink="http://www.w3.org/1999/xlink" x="0px" y="0px"
	 width="30px" height="30px" viewBox="0 0 30 30" enable-background="new 0 0 30 30" xml:space="preserve">
<g>
	<path d="M24.293,18.293C22.507,20.078,18.838,22,15,22c-3.667,0-7.451-1.865-9.293-3.707c-0.391-0.391-1.023-0.391-1.414,0
		s-0.391,1.023,0,1.414C6.36,21.775,10.593,24,15,24s8.64-2.225,10.707-4.293c0.391-0.391,0.391-1.023,0-1.414
		S24.684,17.902,24.293,18.293z"/>
	<path d="M27.85,12.704C26.603,10.688,22.852,6,15,6S3.397,10.688,2.15,12.704c-0.291,0.47-0.146,1.086,0.324,1.376
		c0.469,0.292,1.086,0.146,1.376-0.324c0.701-1.131,2.333-3.237,5.284-4.564C8.419,10.29,8,11.596,8,13c0,3.86,3.14,7,7,7
		s7-3.14,7-7c0-1.404-0.419-2.71-1.134-3.808c2.952,1.327,4.583,3.433,5.284,4.564c0.189,0.306,0.516,0.474,0.851,0.474
		c0.18,0,0.361-0.048,0.525-0.15C27.996,13.79,28.141,13.174,27.85,12.704z M20,13c0,2.757-2.243,5-5,5s-5-2.243-5-5s2.243-5,5-5
		S20,10.243,20,13z"/>
</g>
</svg>
