<?xml version="1.0" encoding="utf-8"?>
<!-- Generator: Adobe Illustrator 16.2.0, SVG Export Plug-In . SVG Version: 6.00 Build 0)  -->
<!DOCTYPE svg PUBLIC "-//W3C//DTD SVG 1.1//EN" "http://www.w3.org/Graphics/SVG/1.1/DTD/svg11.dtd">
<svg version="1.1" id="Layer_1" xmlns="http://www.w3.org/2000/svg" xmlns:xlink="http://www.w3.org/1999/xlink" x="0px" y="0px"
	 width="30px" height="30px" viewBox="0 0 30 30" enable-background="new 0 0 30 30" xml:space="preserve">
<g>
	<path d="M14,24c-0.139,0-0.278-0.028-0.409-0.088C13.231,23.751,13,23.394,13,23v-3.842l-5.348,4.6
		c-0.297,0.255-0.714,0.312-1.069,0.151C6.228,23.746,6,23.391,6,23V7c0-0.391,0.228-0.746,0.583-0.909
		c0.356-0.159,0.772-0.104,1.069,0.151l5.348,4.6V7c0-0.394,0.231-0.751,0.591-0.912c0.358-0.163,0.779-0.097,1.073,0.165l9,8
		C23.878,14.442,24,14.715,24,15s-0.122,0.558-0.336,0.747l-9,8C14.478,23.913,14.24,24,14,24z M8,9.18V20.82l5.348-4.6
		c0.297-0.255,0.714-0.313,1.069-0.151C14.772,16.232,15,16.588,15,16.979v3.795L21.495,15L15,9.227v3.795
		c0,0.391-0.228,0.746-0.583,0.909c-0.354,0.162-0.771,0.104-1.069-0.151L8,9.18z"/>
</g>
</svg>
