<?xml version="1.0" encoding="utf-8"?>
<!-- Generator: Adobe Illustrator 16.2.0, SVG Export Plug-In . SVG Version: 6.00 Build 0)  -->
<!DOCTYPE svg PUBLIC "-//W3C//DTD SVG 1.1//EN" "http://www.w3.org/Graphics/SVG/1.1/DTD/svg11.dtd">
<svg version="1.1" id="Layer_1" xmlns="http://www.w3.org/2000/svg" xmlns:xlink="http://www.w3.org/1999/xlink" x="0px" y="0px"
	 width="30px" height="30px" viewBox="0 0 30 30" enable-background="new 0 0 30 30" xml:space="preserve">
<g>
	<path d="M15,3C9.229,3,3,7.588,3,15c0,7.154,2.02,11.275,2.105,11.447c0.133,0.265,0.376,0.458,0.665,0.526
		C6.059,27.041,6.361,26.979,6.6,26.8l3.832-2.874C11.906,25.142,13.738,26,15,26s3.094-0.858,4.568-2.074L23.4,26.8
		c0.175,0.131,0.386,0.2,0.6,0.2c0.077,0,0.153-0.009,0.229-0.027c0.289-0.068,0.532-0.261,0.665-0.526
		C24.98,26.275,27,22.154,27,15C27,7.588,20.771,3,15,3z M15,24c-1.592,0-5-2.511-5-4v-4.154c1.852-0.315,4.558-1.249,6.511-3.885
		L20,13.303V20C20,21.489,16.592,24,15,24z M23.557,24.417l-2.575-1.931C21.6,21.686,22,20.829,22,20v-6
		c0.401,0,0.78-0.244,0.934-0.642c0.198-0.516-0.06-1.094-0.574-1.292l-4.806-1.848c0.132-0.277,0.264-0.556,0.38-0.861
		c0.197-0.516-0.061-1.094-0.576-1.292c-0.513-0.197-1.094,0.06-1.291,0.577c-2.173,5.676-7.746,5.375-7.996,5.36
		c-0.539-0.03-1.027,0.375-1.067,0.924c-0.041,0.551,0.373,1.03,0.924,1.07C7.931,15.998,7.96,15.999,8,16v4
		c0,0.829,0.4,1.686,1.019,2.487l-2.577,1.933C5.881,22.821,5,19.582,5,15C5,8.823,10.19,5,15,5s10,3.823,10,10
		C25,19.558,24.116,22.812,23.557,24.417z"/>
	<path d="M15,19c-0.553,0-1,0.448-1,1v1c0,0.552,0.447,1,1,1s1-0.448,1-1v-1C16,19.448,15.553,19,15,19z"/>
</g>
</svg>
