<?xml version="1.0" encoding="utf-8"?>
<!-- Generator: Adobe Illustrator 16.0.0, SVG Export Plug-In . SVG Version: 6.00 Build 0)  -->
<!DOCTYPE svg PUBLIC "-//W3C//DTD SVG 1.1//EN" "http://www.w3.org/Graphics/SVG/1.1/DTD/svg11.dtd">
<svg version="1.1" id="Layer_1" xmlns="http://www.w3.org/2000/svg" xmlns:xlink="http://www.w3.org/1999/xlink" x="0px" y="0px"
	 width="30px" height="30px" viewBox="0 0 30 30" enable-background="new 0 0 30 30" xml:space="preserve">
<g>
	<path d="M25,26V11.5c0-0.266-0.105-0.52-0.293-0.707l-7.5-7.5C17.02,3.105,16.766,3,16.5,3H6C5.448,3,5,3.448,5,4v22
		c0,0.552,0.448,1,1,1h18C24.552,27,25,26.552,25,26z M15,5v7c0,0.552,0.448,1,1,1h7v12H7V5H15z M22.086,11H17V5.914L22.086,11z"/>
</g>
<path d="M8.293,19.02c0.391,0.391,1.023,0.391,1.414,0L12,16.727v6.586c0,0.552,0.447,1,1,1s1-0.448,1-1v-6.586l2.293,2.293
	c0.391,0.391,1.023,0.391,1.414,0s0.391-1.023,0-1.414l-4-4c-0.195-0.195-0.451-0.293-0.707-0.293s-0.512,0.098-0.707,0.293l-4,4
	C7.902,17.996,7.902,18.629,8.293,19.02z"/>
</svg>
