<?xml version="1.0" encoding="utf-8"?>
<!-- Generator: Adobe Illustrator 16.0.0, SVG Export Plug-In . SVG Version: 6.00 Build 0)  -->
<!DOCTYPE svg PUBLIC "-//W3C//DTD SVG 1.1//EN" "http://www.w3.org/Graphics/SVG/1.1/DTD/svg11.dtd">
<svg version="1.1" id="Layer_1" xmlns="http://www.w3.org/2000/svg" xmlns:xlink="http://www.w3.org/1999/xlink" x="0px" y="0px"
	 width="30px" height="30px" viewBox="0 0 30 30" enable-background="new 0 0 30 30" xml:space="preserve">
<path d="M25,26V11.5c0-0.265-0.105-0.52-0.293-0.707l-7.5-7.5C17.02,3.105,16.766,3,16.5,3H6C5.448,3,5,3.448,5,4v22
	c0,0.553,0.448,1,1,1h18C24.553,27,25,26.553,25,26z M15,5v7c0,0.552,0.448,1,1,1h7v12H7V5H15z M22.086,11H17V5.914L22.086,11z"/>
<g>
	<g>
		<path d="M11.625,21.875c-0.207,0-0.375-0.168-0.375-0.375v-0.75c0-0.207,0.168-0.375,0.375-0.375S12,20.543,12,20.75v0.75
			C12,21.707,11.832,21.875,11.625,21.875z"/>
	</g>
	<path d="M14.625,17.75H13.5v-1.125c0-1.033-0.841-1.875-1.875-1.875S9.75,15.592,9.75,16.625v1.125H8.625
		c-0.207,0-0.375,0.168-0.375,0.375v4.125c0,0.04,0.006,0.08,0.019,0.119c0.047,0.141,0.542,1.381,3.356,1.381
		s3.309-1.24,3.356-1.381C14.994,22.33,15,22.29,15,22.25v-4.125C15,17.918,14.832,17.75,14.625,17.75z M10.5,16.625
		c0-0.621,0.504-1.125,1.125-1.125s1.125,0.504,1.125,1.125v1.125H10.5V16.625z M14.25,22.167C14.15,22.33,13.615,23,11.625,23
		C9.637,23,9.1,22.326,9,22.166V18.5h5.25V22.167z"/>
</g>
</svg>
