<?xml version="1.0" encoding="utf-8"?>
<!-- Generator: Adobe Illustrator 16.2.0, SVG Export Plug-In . SVG Version: 6.00 Build 0)  -->
<!DOCTYPE svg PUBLIC "-//W3C//DTD SVG 1.1//EN" "http://www.w3.org/Graphics/SVG/1.1/DTD/svg11.dtd">
<svg version="1.1" id="Layer_1" xmlns="http://www.w3.org/2000/svg" xmlns:xlink="http://www.w3.org/1999/xlink" x="0px" y="0px"
	 width="30px" height="30px" viewBox="0 0 30 30" enable-background="new 0 0 30 30" xml:space="preserve">
<g>
	<path d="M17,26c-0.212,0-0.424-0.068-0.6-0.2l-4-3C12.148,22.611,12,22.315,12,22v-6.649L4.219,5.625
		c-0.24-0.3-0.286-0.711-0.12-1.058C4.266,4.22,4.615,4,5,4h20c0.385,0,0.734,0.22,0.901,0.567c0.166,0.346,0.12,0.758-0.12,1.058
		L18,15.351V25c0,0.379-0.214,0.725-0.553,0.895C17.306,25.965,17.152,26,17,26z M14,21.5l2,1.5v-8c0-0.227,0.077-0.447,0.219-0.625
		L22.919,6H7.081l6.7,8.375C13.923,14.553,14,14.773,14,15V21.5z"/>
</g>
</svg>
