<?xml version="1.0" encoding="utf-8"?>
<!-- Generator: Adobe Illustrator 16.2.0, SVG Export Plug-In . SVG Version: 6.00 Build 0)  -->
<!DOCTYPE svg PUBLIC "-//W3C//DTD SVG 1.1//EN" "http://www.w3.org/Graphics/SVG/1.1/DTD/svg11.dtd">
<svg version="1.1" id="Layer_1" xmlns="http://www.w3.org/2000/svg" xmlns:xlink="http://www.w3.org/1999/xlink" x="0px" y="0px"
	 width="30px" height="30px" viewBox="0 0 30 30" enable-background="new 0 0 30 30" xml:space="preserve">
<g>
<path d="M24.592,7.287c-4.584-3.371-6.947-2.299-9.232-1.262C13.46,6.888,11.654,7.698,8,6.244V5c0-0.552-0.447-1-1-1S6,4.448,6,5
	v21c0,0.552,0.447,1,1,1s1-0.448,1-1v-6.704c1.421,0.506,2.634,0.71,3.683,0.71c1.895,0,3.276-0.629,4.484-1.18
	c2.08-0.947,3.582-1.628,7.253,0.988c0.304,0.218,0.705,0.247,1.038,0.075S25,19.375,25,19V8.093
	C25,7.774,24.849,7.476,24.592,7.287z M23,17.175c-3.601-2.02-5.662-1.08-7.662-0.168c-1.89,0.86-3.684,1.666-7.338,0.151V8.374
	c3.993,1.366,6.303,0.329,8.187-0.527c1.999-0.908,3.466-1.573,6.813,0.76V17.175z"/>
</g>
</svg>
