<?xml version="1.0" encoding="utf-8"?>
<!-- Generator: Adobe Illustrator 16.2.0, SVG Export Plug-In . SVG Version: 6.00 Build 0)  -->
<!DOCTYPE svg PUBLIC "-//W3C//DTD SVG 1.1//EN" "http://www.w3.org/Graphics/SVG/1.1/DTD/svg11.dtd">
<svg version="1.1" id="Layer_1" xmlns="http://www.w3.org/2000/svg" xmlns:xlink="http://www.w3.org/1999/xlink" x="0px" y="0px"
	 width="30px" height="30px" viewBox="0 0 30 30" enable-background="new 0 0 30 30" xml:space="preserve">
<g>
<path d="M26.359,10.067L14,5.313V4c0-0.552-0.447-1-1-1s-1,0.448-1,1v16.027c-3.537,0.174-7,1.275-7,3.473c0,2.405,4.146,3.5,8,3.5
	s8-1.095,8-3.5c0-2.197-3.463-3.298-7-3.473v-3.341l12.359-4.753C26.745,11.785,27,11.414,27,11S26.745,10.215,26.359,10.067z
	 M19.002,23.482C18.878,23.9,16.845,25,13,25s-5.878-1.1-6.002-1.482c0.112-0.38,1.815-1.313,5.002-1.483V23c0,0.552,0.447,1,1,1
	s1-0.448,1-1v-0.965C17.187,22.205,18.89,23.135,19.002,23.482z M14,14.543V7.456L23.214,11L14,14.543z"/>
</g>
</svg>
