<?xml version="1.0" encoding="utf-8"?>
<!-- Generator: Adobe Illustrator 16.2.0, SVG Export Plug-In . SVG Version: 6.00 Build 0)  -->
<!DOCTYPE svg PUBLIC "-//W3C//DTD SVG 1.1//EN" "http://www.w3.org/Graphics/SVG/1.1/DTD/svg11.dtd">
<svg version="1.1" id="Layer_1" xmlns="http://www.w3.org/2000/svg" xmlns:xlink="http://www.w3.org/1999/xlink" x="0px" y="0px"
	 width="30px" height="30px" viewBox="0 0 30 30" enable-background="new 0 0 30 30" xml:space="preserve">
<g>
<path d="M23.86,14.632c-1.61-4.075-0.708-6.543-0.702-6.559c0.124-0.308,0.087-0.658-0.099-0.933C22.873,6.865,22.563,6.7,22.23,6.7
	c-2.287,0-3.786,1.367-4.604,2.647c-1.511-1.984-0.854-5.094-0.846-5.128c0.087-0.386-0.063-0.788-0.381-1.023
	c-0.317-0.235-0.746-0.26-1.089-0.065C5.667,8.615,4.895,15.248,5.011,17.844c0.379,8.488,7.845,9.147,7.92,9.153
	C12.956,26.999,12.981,27,13.006,27c0.004,0,0.008,0,0.011,0c0.578-0.012,1.009-0.445,1.009-1c0-0.311-0.142-0.588-0.363-0.772
	c-0.345-0.419-1.655-2.144-1.655-4.061c0-1.965,0.814-3.76,2.426-5.352c0.565,1.603,1.445,2.553,2.186,3.353
	c0.895,0.965,1.435,1.548,1.346,2.979c-0.062,0.992-1.08,2.482-1.707,3.188c-0.262,0.294-0.326,0.715-0.165,1.074
	C16.254,26.769,16.61,27,17.004,27C22.527,27,25,23.484,25,20C25,17.923,24.582,16.459,23.86,14.632z M19.108,24.76
	c0.426-0.75,0.799-1.633,0.852-2.489c0.142-2.286-0.883-3.392-1.874-4.461c-0.864-0.933-1.758-1.897-2.094-3.969
	c-0.057-0.347-0.291-0.639-0.618-0.769C15.255,13.023,15.13,13,15.005,13c-0.216,0-0.431,0.07-0.607,0.206
	c-2.913,2.229-4.391,4.908-4.391,7.961c0,1.164,0.326,2.238,0.731,3.124c-1.637-0.837-3.556-2.645-3.729-6.535
	c-0.093-2.077,0.514-7.182,7.618-11.863c0.006,1.819,0.471,4.386,2.742,5.934c0.262,0.178,0.594,0.222,0.892,0.118
	c0.3-0.104,0.532-0.344,0.626-0.646c0.007-0.021,0.549-1.695,2.068-2.344c-0.146,1.382-0.07,3.589,1.046,6.413
	C22.648,17.008,23,18.232,23,20C23,21.895,21.94,24.05,19.108,24.76z"/>
</g>
</svg>
