<?xml version="1.0" encoding="utf-8"?>
<!-- Generator: Adobe Illustrator 16.2.0, SVG Export Plug-In . SVG Version: 6.00 Build 0)  -->
<!DOCTYPE svg PUBLIC "-//W3C//DTD SVG 1.1//EN" "http://www.w3.org/Graphics/SVG/1.1/DTD/svg11.dtd">
<svg version="1.1" id="Layer_1" xmlns="http://www.w3.org/2000/svg" xmlns:xlink="http://www.w3.org/1999/xlink" x="0px" y="0px"
	 width="30px" height="30px" viewBox="0 0 30 30" enable-background="new 0 0 30 30" xml:space="preserve">
<g>
<path d="M24.884,22.031L19,11.734V4c0-0.553-0.448-1-1-1h-6c-0.552,0-1,0.447-1,1v7.734L5.116,22.031
	c-0.702,1.229-0.783,2.486-0.223,3.45C5.453,26.446,6.585,27,8,27h14c1.415,0,2.547-0.554,3.107-1.519
	C25.667,24.518,25.585,23.26,24.884,22.031z M12.868,12.496C12.955,12.345,13,12.174,13,12V5h4v7c0,0.174,0.045,0.345,0.132,0.496
	L20.848,19H9.152L12.868,12.496z M23.377,24.478C23.185,24.81,22.683,25,22,25H8c-0.683,0-1.185-0.19-1.377-0.522
	c-0.192-0.331-0.108-0.861,0.23-1.454L8.009,21h13.982l1.156,2.023C23.486,23.616,23.57,24.146,23.377,24.478z"/>
</g>
</svg>
