<?xml version="1.0" encoding="utf-8"?>
<!-- Generator: Adobe Illustrator 16.2.0, SVG Export Plug-In . SVG Version: 6.00 Build 0)  -->
<!DOCTYPE svg PUBLIC "-//W3C//DTD SVG 1.1//EN" "http://www.w3.org/Graphics/SVG/1.1/DTD/svg11.dtd">
<svg version="1.1" id="Layer_1" xmlns="http://www.w3.org/2000/svg" xmlns:xlink="http://www.w3.org/1999/xlink" x="0px" y="0px"
	 width="30px" height="30px" viewBox="0 0 30 30" enable-background="new 0 0 30 30" xml:space="preserve">
<g>
	<path d="M26.707,12.293l-9-9c-0.391-0.391-1.023-0.391-1.414,0l-3,3c-0.096,0.096-0.171,0.21-0.222,0.335l-1.939,4.85l-6.966,6.967
		C3.414,19.195,3,20.196,3,21.264s0.413,2.069,1.165,2.82l1.751,1.752c0.777,0.777,1.799,1.166,2.82,1.166
		c1.021,0,2.042-0.389,2.819-1.166l6.969-6.968l4.847-1.939c0.126-0.05,0.24-0.126,0.336-0.222l3-3
		C27.098,13.316,27.098,12.684,26.707,12.293z M14.365,8.78l6.855,6.855l-2.98,1.192l-5.066-5.067L14.365,8.78z M10.142,24.422
		c-0.774,0.774-2.035,0.776-2.812,0l-1.751-1.752C5.205,22.296,5,21.797,5,21.264c0-0.533,0.205-1.031,0.579-1.404l6.433-6.434
		l4.563,4.563L10.142,24.422z M23,14.586L15.414,7L17,5.414L24.586,13L23,14.586z"/>
	<circle cx="12.5" cy="17.5" r="1.5"/>
</g>
</svg>
