<?xml version="1.0" encoding="utf-8"?>
<!-- Generator: Adobe Illustrator 16.2.0, SVG Export Plug-In . SVG Version: 6.00 Build 0)  -->
<!DOCTYPE svg PUBLIC "-//W3C//DTD SVG 1.1//EN" "http://www.w3.org/Graphics/SVG/1.1/DTD/svg11.dtd">
<svg version="1.1" id="Layer_1" xmlns="http://www.w3.org/2000/svg" xmlns:xlink="http://www.w3.org/1999/xlink" x="0px" y="0px"
	 width="30px" height="30px" viewBox="0 0 30 30" enable-background="new 0 0 30 30" xml:space="preserve">
<g>
	<path d="M26,25h-6c-0.553,0-1-0.448-1-1s0.447-1,1-1h5V9H14c-0.334,0-0.646-0.167-0.832-0.445L11.465,6H5v17h5
		c0.553,0,1,0.448,1,1s-0.447,1-1,1H4c-0.553,0-1-0.448-1-1V5c0-0.552,0.447-1,1-1h8c0.334,0,0.646,0.167,0.832,0.445L14.535,7H26
		c0.553,0,1,0.448,1,1v16C27,24.552,26.553,25,26,25z"/>
	<path d="M19.707,19.293c-0.391-0.391-1.023-0.391-1.414,0L16,21.586V15c0-0.552-0.447-1-1-1s-1,0.448-1,1v6.586l-2.293-2.293
		c-0.391-0.391-1.023-0.391-1.414,0s-0.391,1.023,0,1.414l4,4C14.488,24.902,14.744,25,15,25s0.512-0.098,0.707-0.293l4-4
		C20.098,20.316,20.098,19.684,19.707,19.293z"/>
</g>
</svg>
