<?xml version="1.0" encoding="utf-8"?>
<!-- Generator: Adobe Illustrator 16.2.0, SVG Export Plug-In . SVG Version: 6.00 Build 0)  -->
<!DOCTYPE svg PUBLIC "-//W3C//DTD SVG 1.1//EN" "http://www.w3.org/Graphics/SVG/1.1/DTD/svg11.dtd">
<svg version="1.1" id="Layer_1" xmlns="http://www.w3.org/2000/svg" xmlns:xlink="http://www.w3.org/1999/xlink" x="0px" y="0px"
	 width="30px" height="30px" viewBox="0 0 30 30" enable-background="new 0 0 30 30" xml:space="preserve">
<g>
<path d="M27.82,11.427C27.633,11.16,27.327,11,27,11h-3V8c0-0.552-0.447-1-1-1h-9.465l-1.703-2.555C11.646,4.167,11.334,4,11,4H3
	C2.447,4,2,4.448,2,5v19c0,0.552,0.447,1,1,1h19.55c0.008,0,0.015-0.004,0.022-0.004c0.009,0,0.019,0.005,0.027,0.005
	c0.407,0,0.79-0.251,0.938-0.656l4.4-12C28.052,12.038,28.007,11.695,27.82,11.427z M10.465,6l1.703,2.555
	C12.354,8.833,12.666,9,13,9h9v2H9c-0.42,0-0.795,0.262-0.938,0.656L4,22.731V6H10.465z M21.901,23H6.031l3.667-10h15.87L21.901,23z
	"/>
</g>
</svg>
