<?xml version="1.0" encoding="utf-8"?>
<!-- Generator: Adobe Illustrator 16.2.0, SVG Export Plug-In . SVG Version: 6.00 Build 0)  -->
<!DOCTYPE svg PUBLIC "-//W3C//DTD SVG 1.1//EN" "http://www.w3.org/Graphics/SVG/1.1/DTD/svg11.dtd">
<svg version="1.1" id="Layer_1" xmlns="http://www.w3.org/2000/svg" xmlns:xlink="http://www.w3.org/1999/xlink" x="0px" y="0px"
	 width="30px" height="30px" viewBox="0 0 30 30" enable-background="new 0 0 30 30" xml:space="preserve">
<g>
	<path d="M26,7H14.535l-1.703-2.555C12.646,4.167,12.334,4,12,4H4C3.447,4,3,4.448,3,5v19c0,0.552,0.447,1,1,1h5.253
		c0.458,0.703,1.833,2,5.747,2s5.289-1.297,5.747-2H26c0.553,0,1-0.448,1-1V8C27,7.448,26.553,7,26,7z M19,23.989
		C18.735,24.271,17.783,25,15,25c-2.839,0-3.773-0.758-4-0.991V19h8V23.989z M13,17v-1c0-1.103,0.897-2,2-2s2,0.897,2,2v1H13z
		 M25,23h-4v-5c0-0.552-0.447-1-1-1h-1v-1c0-2.206-1.794-4-4-4s-4,1.794-4,4v1h-1c-0.553,0-1,0.448-1,1v5H5V6h6.465l1.703,2.555
		C13.354,8.833,13.666,9,14,9h11V23z"/>
	<circle cx="15" cy="22" r="1"/>
</g>
</svg>
