<?xml version="1.0" encoding="utf-8"?>
<!-- Generator: Adobe Illustrator 16.2.0, SVG Export Plug-In . SVG Version: 6.00 Build 0)  -->
<!DOCTYPE svg PUBLIC "-//W3C//DTD SVG 1.1//EN" "http://www.w3.org/Graphics/SVG/1.1/DTD/svg11.dtd">
<svg version="1.1" id="Layer_1" xmlns="http://www.w3.org/2000/svg" xmlns:xlink="http://www.w3.org/1999/xlink" x="0px" y="0px"
	 width="30px" height="30px" viewBox="0 0 30 30" enable-background="new 0 0 30 30" xml:space="preserve">
<g>
<path d="M26,7h-4.522l-5.846-4.774c-0.367-0.301-0.897-0.301-1.265,0L8.522,7H4C3.448,7,3,7.447,3,8v17c0,0.553,0.448,1,1,1h22
	c0.552,0,1-0.447,1-1V8C27,7.447,26.552,7,26,7z M23.586,9l-2,2H8.414l-2-2H23.586z M21,13v7H9v-7H21z M7,20.586l-2,2V10.414l2,2
	V20.586z M8.414,22h13.172l2,2H6.414L8.414,22z M23,12.414l2-2v12.172l-2-2V12.414z M15,4.291L18.317,7h-6.634L15,4.291z"/>
</g>
</svg>
