<?xml version="1.0" encoding="utf-8"?>
<!-- Generator: Adobe Illustrator 16.2.0, SVG Export Plug-In . SVG Version: 6.00 Build 0)  -->
<!DOCTYPE svg PUBLIC "-//W3C//DTD SVG 1.1//EN" "http://www.w3.org/Graphics/SVG/1.1/DTD/svg11.dtd">
<svg version="1.1" id="Layer_1" xmlns="http://www.w3.org/2000/svg" xmlns:xlink="http://www.w3.org/1999/xlink" x="0px" y="0px"
	 width="30px" height="30px" viewBox="0 0 30 30" enable-background="new 0 0 30 30" xml:space="preserve">
<g>
	<path d="M15,6H9C8.448,6,8,6.447,8,7v5c0,0.553,0.448,1,1,1h6c0.552,0,1-0.447,1-1V7C16,6.447,15.552,6,15,6z M14,11h-4V8h4V11z"/>
	<path d="M26.74,9.827l-5-5.5C21.369,3.92,20.737,3.89,20.327,4.26c-0.409,0.372-0.438,1.004-0.067,1.413l2.113,2.325
		C21.507,8.752,21,9.833,21,11c0,2.206,1.794,4,4,4v7c0,0.552-0.449,1-1,1s-1-0.448-1-1v-2c0-2.754-1.581-4.677-4-5.026V4
		c0-0.553-0.448-1-1-1H6C5.448,3,5,3.447,5,4v21H4c-0.552,0-1,0.447-1,1s0.448,1,1,1h16c0.552,0,1-0.447,1-1s-0.448-1-1-1h-1v-7.991
		c1.248,0.319,2,1.397,2,2.991v2c0,1.654,1.346,3,3,3s3-1.346,3-3V10.5C27,10.251,26.907,10.012,26.74,9.827z M7,25V5h10v20H7z
		 M23,11c0-0.594,0.275-1.136,0.727-1.514l1.273,1.4V13C23.897,13,23,12.103,23,11z"/>
	<path d="M13,15h-2c-0.552,0-1,0.447-1,1s0.448,1,1,1h2c0.552,0,1-0.447,1-1S13.552,15,13,15z"/>
</g>
</svg>
