<?xml version="1.0" encoding="utf-8"?>
<!-- Generator: Adobe Illustrator 16.2.0, SVG Export Plug-In . SVG Version: 6.00 Build 0)  -->
<!DOCTYPE svg PUBLIC "-//W3C//DTD SVG 1.1//EN" "http://www.w3.org/Graphics/SVG/1.1/DTD/svg11.dtd">
<svg version="1.1" id="Layer_1" xmlns="http://www.w3.org/2000/svg" xmlns:xlink="http://www.w3.org/1999/xlink" x="0px" y="0px"
	 width="30px" height="30px" viewBox="0 0 30 30" enable-background="new 0 0 30 30" xml:space="preserve">
<g>
<path d="M26,9h-4.331l1.3-1.56c0.348-0.417,0.299-1.035-0.11-1.393l-3.2-2.8c-0.205-0.18-0.467-0.267-0.747-0.244
	c-0.271,0.024-0.521,0.158-0.692,0.372L15,7.399l-3.219-4.024c-0.171-0.213-0.421-0.347-0.692-0.372
	c-0.279-0.023-0.542,0.064-0.747,0.244l-3.2,2.8C6.732,6.405,6.684,7.023,7.031,7.44L8.331,9H4c-0.553,0-1,0.448-1,1v4
	c0,0.552,0.447,1,1,1v10c0,0.552,0.447,1,1,1h20c0.553,0,1-0.448,1-1V15c0.553,0,1-0.448,1-1v-4C27,9.448,26.553,9,26,9z
	 M19.128,5.441l1.679,1.469L19.064,9h-2.783L19.128,5.441z M9.193,6.91l1.679-1.469L13.719,9h-2.783L9.193,6.91z M5,11h20v2H5V11z
	 M24,24H6v-9h18V24z"/>
</g>
</svg>
