<?xml version="1.0" encoding="utf-8"?>
<!-- Generator: Adobe Illustrator 16.2.0, SVG Export Plug-In . SVG Version: 6.00 Build 0)  -->
<!DOCTYPE svg PUBLIC "-//W3C//DTD SVG 1.1//EN" "http://www.w3.org/Graphics/SVG/1.1/DTD/svg11.dtd">
<svg version="1.1" id="Layer_1" xmlns="http://www.w3.org/2000/svg" xmlns:xlink="http://www.w3.org/1999/xlink" x="0px" y="0px"
	 width="30px" height="30px" viewBox="0 0 30 30" enable-background="new 0 0 30 30" xml:space="preserve">
<g>
	<path d="M23,4H7C6.447,4,6,4.447,6,5v7c0,4.625,3.507,8.441,8,8.941V25h-4c-0.553,0-1,0.447-1,1s0.447,1,1,1h10
		c0.553,0,1-0.447,1-1s-0.447-1-1-1h-4v-4.059c4.493-0.5,8-4.316,8-8.941V5C24,4.447,23.553,4,23,4z M22,12c0,3.859-3.141,7-7,7
		s-7-3.141-7-7V6h14V12z"/>
	<path d="M15,17c0.553,0,1-0.447,1-1s-0.447-1-1-1c-1.654,0-3-1.346-3-3V9c0-0.553-0.447-1-1-1s-1,0.447-1,1v3
		C10,14.757,12.243,17,15,17z"/>
</g>
</svg>
