<?xml version="1.0" encoding="utf-8"?>
<!-- Generator: Adobe Illustrator 16.2.0, SVG Export Plug-In . SVG Version: 6.00 Build 0)  -->
<!DOCTYPE svg PUBLIC "-//W3C//DTD SVG 1.1//EN" "http://www.w3.org/Graphics/SVG/1.1/DTD/svg11.dtd">
<svg version="1.1" id="Layer_1" xmlns="http://www.w3.org/2000/svg" xmlns:xlink="http://www.w3.org/1999/xlink" x="0px" y="0px"
	 width="30px" height="30px" viewBox="0 0 30 30" enable-background="new 0 0 30 30" xml:space="preserve">
<g>
<path d="M26.552,13.558C26.831,13.102,27,12.572,27,12v-1c0-1.654-1.346-3-3-3s-3,1.346-3,3v1c0,0.573,0.17,1.104,0.45,1.56
	c-0.311,0.225-0.666,0.531-1.013,0.959c-0.748-1.007-1.603-1.745-2.2-2.188C18.712,11.673,19,10.872,19,10V9c0-2.206-1.794-4-4-4
	s-4,1.794-4,4v1c0,0.872,0.288,1.673,0.763,2.331c-0.597,0.443-1.452,1.181-2.2,2.188c-0.348-0.428-0.702-0.734-1.013-0.959
	C8.83,13.104,9,12.574,9,12v-1c0-1.654-1.346-3-3-3s-3,1.346-3,3v1c0,0.572,0.169,1.102,0.448,1.557C2.465,14.267,1,15.85,1,19v2
	c0,0.552,0.448,1,1,1l6,0v2c0,0.552,0.448,1,1,1h12c0.552,0,1-0.448,1-1v-2l6,0c0.552,0,1-0.448,1-1v-2
	C29,15.85,27.535,14.267,26.552,13.558z M23,11c0-0.551,0.449-1,1-1s1,0.449,1,1v1c0,0.551-0.449,1-1,1s-1-0.449-1-1V11z M13,9
	c0-1.103,0.897-2,2-2s2,0.897,2,2v1c0,1.103-0.897,2-2,2s-2-0.897-2-2V9z M5,11c0-0.551,0.449-1,1-1s1,0.449,1,1v1
	c0,0.551-0.449,1-1,1s-1-0.449-1-1V11z M3,20v-1c0-3.186,1.927-4.026,2.029-4.068c0.043-0.017,0.073-0.05,0.113-0.072
	C5.416,14.943,5.7,15,6,15c0.301,0,0.585-0.058,0.859-0.141c0.042,0.023,0.073,0.058,0.119,0.075c0.009,0.003,0.9,0.397,1.489,1.568
	C8.183,17.252,8,18.083,8,19v1L3,20z M20,23H10v-4c0-3,2.76-4.957,3.373-5.354C13.871,13.87,14.419,14,15,14s1.129-0.13,1.628-0.354
	C17.242,14.041,20,15.979,20,19V23z M27,20l-5,0v-1c0-0.917-0.183-1.748-0.467-2.498c0.588-1.173,1.462-1.557,1.489-1.568
	c0.045-0.018,0.077-0.052,0.119-0.075C23.415,14.942,23.699,15,24,15c0.301,0,0.586-0.058,0.861-0.141
	c0.038,0.022,0.067,0.055,0.109,0.072C25.053,14.966,27,15.797,27,19V20z"/>
</g>
</svg>
