<?xml version="1.0" encoding="utf-8"?>
<!-- Generator: Adobe Illustrator 16.2.0, SVG Export Plug-In . SVG Version: 6.00 Build 0)  -->
<!DOCTYPE svg PUBLIC "-//W3C//DTD SVG 1.1//EN" "http://www.w3.org/Graphics/SVG/1.1/DTD/svg11.dtd">
<svg version="1.1" id="Layer_1" xmlns="http://www.w3.org/2000/svg" xmlns:xlink="http://www.w3.org/1999/xlink" x="0px" y="0px"
	 width="30px" height="30px" viewBox="0 0 30 30" enable-background="new 0 0 30 30" xml:space="preserve">
<g>
	<path d="M25.874,5.514C25.546,4.924,23.794,3,15,3C7.068,3,4.588,5.026,4.331,5.257C4.12,5.446,4,5.716,4,6v12c0,3.554,5.9,9,11,9
		s11-5.446,11-9V6C26,5.83,25.957,5.663,25.874,5.514z M24,18c0,2.126-4.18,6.246-8,6.901V23c0-0.552-0.447-1-1-1s-1,0.448-1,1
		v1.901C10.18,24.246,6,20.126,6,18V6.539C6.854,6.068,9.408,5,15,5c6.319,0,8.43,1.035,9,1.426V18z"/>
	<path d="M8.555,9.832c2.036-1.358,3.37,0.367,3.616,0.728c0.193,0.286,0.509,0.44,0.83,0.44c0.19,0,0.383-0.054,0.554-0.168
		c0.46-0.306,0.584-0.927,0.277-1.387c-1.026-1.541-3.576-3.151-6.387-1.277c-0.46,0.306-0.584,0.927-0.277,1.387
		C7.473,10.014,8.094,10.138,8.555,9.832z"/>
	<path d="M16.999,11c0.323,0,0.641-0.156,0.833-0.445c0.147-0.221,1.505-2.128,3.613-0.723c0.461,0.306,1.081,0.182,1.387-0.277
		c0.307-0.459,0.183-1.081-0.277-1.387c-2.809-1.874-5.36-0.264-6.387,1.277c-0.307,0.459-0.183,1.081,0.277,1.387
		C16.616,10.946,16.809,11,16.999,11z"/>
	<path d="M11,11H9c-0.553,0-1,0.448-1,1s0.447,1,1,1h2c0.553,0,1-0.448,1-1S11.553,11,11,11z"/>
	<path d="M21,11h-2c-0.553,0-1,0.448-1,1s0.447,1,1,1h2c0.553,0,1-0.448,1-1S21.553,11,21,11z"/>
	<path d="M13.78,17.563C13.355,18.436,12.461,19,11.5,19c-1.227,0-2.283-0.921-2.459-2.143c-0.079-0.547-0.589-0.925-1.133-0.847
		c-0.547,0.079-0.926,0.586-0.848,1.132C7.378,19.342,9.286,21,11.5,21c1.361,0,2.647-0.629,3.5-1.663
		C15.853,20.371,17.139,21,18.5,21c2.214,0,4.122-1.658,4.439-3.857c0.078-0.546-0.301-1.054-0.848-1.132
		c-0.545-0.073-1.054,0.301-1.133,0.847C20.783,18.079,19.727,19,18.5,19c-0.961,0-1.855-0.564-2.28-1.438
		C16.052,17.218,15.703,17,15.32,17H14.68C14.297,17,13.948,17.218,13.78,17.563z"/>
</g>
</svg>
