<?xml version="1.0" encoding="utf-8"?>
<!-- Generator: Adobe Illustrator 16.2.0, SVG Export Plug-In . SVG Version: 6.00 Build 0)  -->
<!DOCTYPE svg PUBLIC "-//W3C//DTD SVG 1.1//EN" "http://www.w3.org/Graphics/SVG/1.1/DTD/svg11.dtd">
<svg version="1.1" id="Layer_1" xmlns="http://www.w3.org/2000/svg" xmlns:xlink="http://www.w3.org/1999/xlink" x="0px" y="0px"
	 width="30px" height="30px" viewBox="0 0 30 30" enable-background="new 0 0 30 30" xml:space="preserve">
<g>
	<path d="M29,10.5C29,6.294,22.851,3,15,3S1,6.294,1,10.5c0,2.825,2.782,5.234,6.984,6.514l-0.97,5.822
		c-0.053,0.318,0.051,0.643,0.279,0.871C7.387,23.801,9.647,26,15,26s7.613-2.199,7.707-2.293c0.229-0.229,0.333-0.553,0.279-0.871
		l-0.97-5.822C26.218,15.734,29,13.325,29,10.5z M20.915,22.573C20.169,23.062,18.307,24,15,24c-3.313,0-5.176-0.941-5.915-1.426
		l0.845-5.072C11.497,17.819,13.2,18,15,18s3.503-0.181,5.07-0.498L20.915,22.573z M15,16c-7.178,0-12-2.844-12-5.5S7.822,5,15,5
		s12,2.844,12,5.5S22.178,16,15,16z"/>
	<path d="M15,7c-3.484,0-7,0.928-7,3s3.516,3,7,3s7-0.928,7-3S18.484,7,15,7z M15,11c-2.763,0-4.439-0.631-4.909-1
		C10.56,9.63,12.236,9,15,9s4.44,0.63,4.909,1C19.439,10.369,17.763,11,15,11z"/>
</g>
</svg>
