<?xml version="1.0" encoding="utf-8"?>
<!-- Generator: Adobe Illustrator 16.2.0, SVG Export Plug-In . SVG Version: 6.00 Build 0)  -->
<!DOCTYPE svg PUBLIC "-//W3C//DTD SVG 1.1//EN" "http://www.w3.org/Graphics/SVG/1.1/DTD/svg11.dtd">
<svg version="1.1" id="Layer_1" xmlns="http://www.w3.org/2000/svg" xmlns:xlink="http://www.w3.org/1999/xlink" x="0px" y="0px"
	 width="30px" height="30px" viewBox="0 0 30 30" enable-background="new 0 0 30 30" xml:space="preserve">
<g>
	<path d="M27,25H3c-0.552,0-1-0.448-1-1V6c0-0.552,0.448-1,1-1h24c0.552,0,1,0.448,1,1v18C28,24.552,27.552,25,27,25z M4,23h22V7H4
		V23z"/>
	<path d="M13,10c-0.552,0-1,0.448-1,1v3H8v-3c0-0.552-0.448-1-1-1s-1,0.448-1,1v8c0,0.552,0.448,1,1,1s1-0.448,1-1v-3h4v3
		c0,0.552,0.448,1,1,1s1-0.448,1-1v-8C14,10.448,13.552,10,13,10z"/>
	<path d="M19,20h-2c-0.552,0-1-0.448-1-1v-8c0-0.552,0.448-1,1-1h2c2.757,0,5,2.243,5,5S21.757,20,19,20z M18,18h1
		c1.654,0,3-1.346,3-3s-1.346-3-3-3h-1V18z"/>
</g>
</svg>
