<?xml version="1.0" encoding="utf-8"?>
<!-- Generator: Adobe Illustrator 16.2.0, SVG Export Plug-In . SVG Version: 6.00 Build 0)  -->
<!DOCTYPE svg PUBLIC "-//W3C//DTD SVG 1.1//EN" "http://www.w3.org/Graphics/SVG/1.1/DTD/svg11.dtd">
<svg version="1.1" id="Layer_1" xmlns="http://www.w3.org/2000/svg" xmlns:xlink="http://www.w3.org/1999/xlink" x="0px" y="0px"
	 width="30px" height="30px" viewBox="0 0 30 30" enable-background="new 0 0 30 30" xml:space="preserve">
<g>
	<path d="M26.721,18.754L24.367,6.769C24.061,5.216,22.583,4,21,4H9C7.417,4,5.939,5.216,5.633,6.77L3.279,18.755
		C3.104,19.135,3,19.555,3,20v3c0,1.654,1.346,3,3,3h18c1.654,0,3-1.346,3-3v-3C27,19.555,26.896,19.135,26.721,18.754z
		 M7.595,7.156C7.717,6.54,8.373,6,9,6h12c0.627,0,1.283,0.54,1.404,1.155l1.94,9.879C24.23,17.021,24.118,17,24,17H6
		c-0.118,0-0.23,0.021-0.345,0.035L7.595,7.156z M25,23c0,0.551-0.449,1-1,1H6c-0.551,0-1-0.449-1-1v-3c0-0.551,0.449-1,1-1h18
		c0.551,0,1,0.449,1,1V23z"/>
	<path d="M9,21H8c-0.552,0-1,0.448-1,1s0.448,1,1,1h1c0.552,0,1-0.448,1-1S9.552,21,9,21z"/>
	<path d="M22,21h-4c-0.552,0-1,0.448-1,1s0.448,1,1,1h4c0.552,0,1-0.448,1-1S22.552,21,22,21z"/>
</g>
</svg>
