<?xml version="1.0" encoding="utf-8"?>
<!-- Generator: Adobe Illustrator 16.2.0, SVG Export Plug-In . SVG Version: 6.00 Build 0)  -->
<!DOCTYPE svg PUBLIC "-//W3C//DTD SVG 1.1//EN" "http://www.w3.org/Graphics/SVG/1.1/DTD/svg11.dtd">
<svg version="1.1" id="Layer_1" xmlns="http://www.w3.org/2000/svg" xmlns:xlink="http://www.w3.org/1999/xlink" x="0px" y="0px"
	 width="30px" height="30px" viewBox="0 0 30 30" enable-background="new 0 0 30 30" xml:space="preserve">
<g>
<path d="M24.136,15.951c0.505-1.415,1.856-5.995-0.391-9.375C22.167,4.204,19.225,3,15,3S7.833,4.204,6.255,6.576
	c-2.245,3.376-0.898,7.95-0.393,9.37C4.818,16.678,4,17.904,4,19.872c0,2.287,1.194,4.483,2.305,5.556
	C7.382,26.471,8.588,27,9.889,27c2.158,0,3.74-1.508,3.807-1.572c0.305-0.295,0.391-0.75,0.214-1.136l-4-8.708
	C9.746,15.228,9.354,15,8.963,15c-0.379,0-0.813,0.047-1.261,0.149c-0.296-0.868-0.852-2.828-0.665-4.786
	C7.717,10.102,10.826,9,15,9c4.164,0,7.269,1.096,7.959,1.361c0.185,1.962-0.372,3.93-0.665,4.794
	c-0.467-0.106-0.921-0.155-1.321-0.155c-0.001,0-0.002,0-0.003,0c-0.379,0.011-0.72,0.237-0.879,0.582l-4,8.708
	c-0.177,0.386-0.091,0.841,0.214,1.136C16.371,25.492,17.953,27,20.111,27c1.301,0,2.507-0.529,3.584-1.572
	c1.11-1.073,2.305-3.27,2.305-5.556C26,17.908,25.186,16.683,24.136,15.951z M11.758,24.4c-0.442,0.28-1.113,0.6-1.869,0.6
	c-0.774,0-1.491-0.331-2.193-1.01C6.853,23.176,6,21.5,6,19.872c0-2.122,1.438-2.686,2.379-2.827L11.758,24.4z M15,7
	c-3.153,0-5.72,0.569-7.273,1.024C7.79,7.911,7.847,7.794,7.92,7.684C9.104,5.903,11.486,5,15,5c3.51,0,5.891,0.901,7.076,2.678
	c0.074,0.112,0.133,0.23,0.197,0.347C20.72,7.569,18.153,7,15,7z M22.305,23.991C21.603,24.669,20.886,25,20.111,25
	c-0.755,0-1.427-0.321-1.868-0.601l3.378-7.354C22.558,17.185,24,17.747,24,19.872C24,21.5,23.147,23.176,22.305,23.991z"/>
</g>
</svg>
