<?xml version="1.0" encoding="utf-8"?>
<!-- Generator: Adobe Illustrator 16.2.0, SVG Export Plug-In . SVG Version: 6.00 Build 0)  -->
<!DOCTYPE svg PUBLIC "-//W3C//DTD SVG 1.1//EN" "http://www.w3.org/Graphics/SVG/1.1/DTD/svg11.dtd">
<svg version="1.1" id="Layer_1" xmlns="http://www.w3.org/2000/svg" xmlns:xlink="http://www.w3.org/1999/xlink" x="0px" y="0px"
	 width="30px" height="30px" viewBox="0 0 30 30" enable-background="new 0 0 30 30" xml:space="preserve">
<g>
	<path d="M15.001,26c-0.146,0-0.29-0.032-0.425-0.095c-0.247-0.116-6.099-2.912-9.83-9.107C3.52,14.762,2.525,11.29,3.241,8.479
		c0.397-1.563,1.3-2.794,2.609-3.563C6.888,4.309,7.961,4,9.042,4c2.75,0,4.855,1.974,5.959,3.298C16.104,5.974,18.209,4,20.958,4
		c1.081,0,2.154,0.309,3.191,0.917c1.31,0.768,2.212,1.999,2.609,3.562c0.716,2.811-0.278,6.283-1.505,8.319
		c-3.731,6.196-9.581,8.992-9.828,9.107C15.291,25.968,15.146,26,15.001,26z M9.042,6c-0.721,0-1.454,0.216-2.18,0.642
		C6,7.147,5.45,7.91,5.18,8.972c-0.549,2.154,0.229,5.048,1.279,6.794c2.854,4.738,7.18,7.364,8.542,8.107
		c1.362-0.744,5.686-3.369,8.54-8.107c1.051-1.746,1.828-4.64,1.279-6.794C24.55,7.91,24,7.147,23.138,6.642
		C22.412,6.216,21.679,6,20.958,6c-2.919,0-5.082,3.469-5.104,3.504c-0.363,0.593-1.342,0.593-1.707,0C14.126,9.47,11.962,6,9.042,6
		z"/>
</g>
</svg>
