<?xml version="1.0" encoding="utf-8"?>
<!-- Generator: Adobe Illustrator 16.2.0, SVG Export Plug-In . SVG Version: 6.00 Build 0)  -->
<!DOCTYPE svg PUBLIC "-//W3C//DTD SVG 1.1//EN" "http://www.w3.org/Graphics/SVG/1.1/DTD/svg11.dtd">
<svg version="1.1" id="Layer_1" xmlns="http://www.w3.org/2000/svg" xmlns:xlink="http://www.w3.org/1999/xlink" x="0px" y="0px"
	 width="30px" height="30px" viewBox="0 0 30 30" enable-background="new 0 0 30 30" xml:space="preserve">
<g>
<path d="M28.812,10.415C28.623,10.154,28.321,10,28,10h-3c-0.266,0-0.52,0.105-0.707,0.293L22.586,12h-2.928
	c-0.525-1.067-1.804-3-4.158-3H14V7h10c0.553,0,1-0.447,1-1s-0.447-1-1-1H14c0-0.553-0.448-1-1-1s-1,0.447-1,1H2
	C1.448,5,1,5.447,1,6s0.448,1,1,1h10v2h-2c-3.518,0-8,5.423-8,8c0,1.661,1.551,4,5,4h1v2H6c-1.497,0-2.251-0.67-2.303-0.717
	c-0.391-0.381-1.018-0.377-1.404,0.01c-0.391,0.391-0.391,1.023,0,1.414C2.425,23.84,3.653,25,6,25h14c0.553,0,1-0.447,1-1
	s-0.447-1-1-1h-3v-2.417c1.427-0.625,2.254-1.82,2.648-2.583H26c0.431,0,0.813-0.275,0.948-0.684l2-6
	C29.051,11.012,28.999,10.676,28.812,10.415z M10,11v2.4c0,0.867-0.916,1.6-2,1.6H4.885C6.099,13.18,8.322,11,10,11z M15,23h-5v-2h5
	V23z M25.279,16H19c-0.426,0-0.808,0.275-0.947,0.679C18.021,16.773,17.224,19,15,19H7c-2.491,0-3-1.577-3-2h4
	c2.206,0,4-1.615,4-3.6V11h3.5c1.738,0,2.545,2.297,2.552,2.316C18.188,13.725,18.569,14,19,14h4c0.266,0,0.52-0.105,0.707-0.293
	L25.414,12h1.198L25.279,16z"/>
</g>
</svg>
