<?xml version="1.0" encoding="utf-8"?>
<!-- Generator: Adobe Illustrator 16.2.0, SVG Export Plug-In . SVG Version: 6.00 Build 0)  -->
<!DOCTYPE svg PUBLIC "-//W3C//DTD SVG 1.1//EN" "http://www.w3.org/Graphics/SVG/1.1/DTD/svg11.dtd">
<svg version="1.1" id="Layer_1" xmlns="http://www.w3.org/2000/svg" xmlns:xlink="http://www.w3.org/1999/xlink" x="0px" y="0px"
	 width="30px" height="30px" viewBox="0 0 30 30" enable-background="new 0 0 30 30" xml:space="preserve">
<g>
<path d="M15,3C8.383,3,3,8.383,3,15s5.383,12,12,12s12-5.383,12-12S21.617,3,15,3z M21.324,7.262l-2.141,2.14
	C18.016,8.525,16.569,8,15,8s-3.016,0.525-4.184,1.401l-2.141-2.14C10.4,5.85,12.603,5,15,5S19.6,5.85,21.324,7.262z M10,15
	c0-2.757,2.243-5,5-5s5,2.243,5,5s-2.243,5-5,5S10,17.757,10,15z M5,15c0-2.397,0.85-4.6,2.262-6.324l2.141,2.14
	C8.525,11.984,8,13.43,8,15s0.525,3.016,1.402,4.185l-2.141,2.14C5.85,19.6,5,17.397,5,15z M8.676,22.738l2.141-2.14
	C11.984,21.475,13.431,22,15,22s3.016-0.525,4.184-1.401l2.141,2.14C19.6,24.15,17.397,25,15,25S10.4,24.15,8.676,22.738z
	 M22.738,21.324l-2.141-2.14C21.475,18.016,22,16.57,22,15s-0.525-3.016-1.402-4.185l2.141-2.14C24.15,10.4,25,12.603,25,15
	S24.15,19.6,22.738,21.324z"/>
</g>
</svg>
