<?xml version="1.0" encoding="utf-8"?>
<!-- Generator: Adobe Illustrator 16.2.0, SVG Export Plug-In . SVG Version: 6.00 Build 0)  -->
<!DOCTYPE svg PUBLIC "-//W3C//DTD SVG 1.1//EN" "http://www.w3.org/Graphics/SVG/1.1/DTD/svg11.dtd">
<svg version="1.1" id="Layer_1" xmlns="http://www.w3.org/2000/svg" xmlns:xlink="http://www.w3.org/1999/xlink" x="0px" y="0px"
	 width="30px" height="30px" viewBox="0 0 30 30" enable-background="new 0 0 30 30" xml:space="preserve">
<g>
	<path d="M21,16h-6c-0.552,0-1-0.448-1-1V9c0-0.552,0.448-1,1-1s1,0.448,1,1v5h5c0.552,0,1,0.448,1,1S21.552,16,21,16z"/>
	<path d="M15,4C8.935,4,4,8.935,4,15c0,3.646,1.769,6.959,4.701,9L6,24c-0.552,0-1,0.448-1,1s0.448,1,1,1l4.998-0.001
		c0.552,0,1-0.448,1-1L12,20c0-0.552-0.447-1-1-1c0,0,0,0,0,0c-0.552,0-1,0.447-1,1l-0.001,2.467C7.508,20.808,6,18.045,6,15
		c0-4.962,4.038-9,9-9s9,4.038,9,9s-4.038,9-9,9c-0.552,0-1,0.448-1,1s0.448,1,1,1c6.065,0,11-4.935,11-11S21.065,4,15,4z"/>
</g>
</svg>
