<?xml version="1.0" encoding="utf-8"?>
<!-- Generator: Adobe Illustrator 16.2.0, SVG Export Plug-In . SVG Version: 6.00 Build 0)  -->
<!DOCTYPE svg PUBLIC "-//W3C//DTD SVG 1.1//EN" "http://www.w3.org/Graphics/SVG/1.1/DTD/svg11.dtd">
<svg version="1.1" id="Layer_1" xmlns="http://www.w3.org/2000/svg" xmlns:xlink="http://www.w3.org/1999/xlink" x="0px" y="0px"
	 width="30px" height="30px" viewBox="0 0 30 30" enable-background="new 0 0 30 30" xml:space="preserve">
<g>
	<path d="M24,25h-1v-1c0-3.477-1.732-6.58-4.485-8.079C18.192,15.728,18,15.384,18,15s0.193-0.729,0.478-0.902
		C21.268,12.581,23,9.478,23,6V5h1c0.553,0,1-0.448,1-1s-0.447-1-1-1H6C5.448,3,5,3.448,5,4s0.448,1,1,1h1v1
		c0,3.477,1.732,6.58,4.485,8.078C11.807,14.272,12,14.617,12,15s-0.193,0.729-0.478,0.902C8.733,17.419,7,20.522,7,24v1H6
		c-0.552,0-1,0.448-1,1s0.448,1,1,1h18c0.553,0,1-0.448,1-1S24.553,25,24,25z M12.515,17.636C13.431,17.085,14,16.075,14,15
		c0-1.09-0.554-2.076-1.522-2.659C10.365,11.192,9,8.703,9,6V5h12v1c0,2.702-1.365,5.192-3.515,6.364C16.569,12.914,16,13.924,16,15
		c0,1.075,0.568,2.085,1.522,2.659c1.76,0.958,2.987,2.849,3.353,5.014C19.069,21.524,16.408,20,15,20s-4.068,1.524-5.875,2.673
		C9.491,20.507,10.725,18.612,12.515,17.636z M20.775,25H9.225c2.242-1.499,4.946-3,5.775-3C15.828,22,18.533,23.501,20.775,25z"/>
</g>
</svg>
