<?xml version="1.0" encoding="utf-8"?>
<!-- Generator: Adobe Illustrator 16.2.0, SVG Export Plug-In . SVG Version: 6.00 Build 0)  -->
<!DOCTYPE svg PUBLIC "-//W3C//DTD SVG 1.1//EN" "http://www.w3.org/Graphics/SVG/1.1/DTD/svg11.dtd">
<svg version="1.1" id="Layer_1" xmlns="http://www.w3.org/2000/svg" xmlns:xlink="http://www.w3.org/1999/xlink" x="0px" y="0px"
	 width="30px" height="30px" viewBox="0 0 30 30" enable-background="new 0 0 30 30" xml:space="preserve">
<g>
<path d="M28.838,13.391c-0.105-0.519-0.262-1.025-0.466-1.503c-0.201-0.476-0.45-0.935-0.74-1.362
	c-0.284-0.421-0.612-0.818-0.976-1.181c-0.362-0.363-0.76-0.691-1.18-0.975c-0.428-0.29-0.887-0.54-1.361-0.74
	c-0.481-0.205-0.988-0.361-1.505-0.467c-1.055-0.215-2.167-0.215-3.22,0c-0.518,0.105-1.024,0.262-1.505,0.466
	c-0.476,0.201-0.935,0.451-1.361,0.74c-0.421,0.285-0.818,0.613-1.181,0.976c-0.12,0.12-0.231,0.25-0.344,0.378
	c-0.112-0.128-0.223-0.257-0.344-0.378c-0.362-0.363-0.76-0.691-1.18-0.975c-0.428-0.29-0.887-0.54-1.361-0.74
	c-0.481-0.205-0.988-0.361-1.505-0.467c-1.055-0.215-2.167-0.215-3.22,0C6.873,7.267,6.366,7.424,5.886,7.628
	C5.41,7.829,4.951,8.079,4.524,8.368C4.104,8.653,3.706,8.981,3.344,9.344c-0.363,0.363-0.691,0.76-0.976,1.18
	c-0.29,0.429-0.539,0.887-0.739,1.361c-0.205,0.48-0.361,0.987-0.467,1.505C1.055,13.917,1,14.458,1,15s0.055,1.083,0.162,1.609
	c0.104,0.518,0.262,1.024,0.466,1.505c0.201,0.476,0.45,0.934,0.74,1.361c0.284,0.421,0.612,0.818,0.976,1.181
	c0.362,0.363,0.76,0.691,1.18,0.975c0.428,0.29,0.887,0.54,1.361,0.74c0.481,0.205,0.988,0.361,1.505,0.467
	C7.917,22.946,8.458,23,9,23s1.083-0.054,1.609-0.162c0.518-0.105,1.024-0.262,1.505-0.466c0.476-0.201,0.935-0.451,1.361-0.74
	c0.421-0.285,0.818-0.613,1.181-0.976c0.12-0.12,0.231-0.25,0.344-0.378c0.112,0.128,0.223,0.257,0.344,0.378
	c0.362,0.363,0.76,0.691,1.18,0.975c0.428,0.29,0.887,0.54,1.361,0.74c0.481,0.205,0.988,0.361,1.505,0.467
	C19.917,22.946,20.458,23,21,23s1.083-0.054,1.609-0.162c0.518-0.105,1.024-0.262,1.505-0.466c0.476-0.201,0.935-0.451,1.361-0.74
	c0.421-0.285,0.818-0.613,1.181-0.976c0.363-0.363,0.691-0.76,0.976-1.18c0.29-0.428,0.539-0.886,0.74-1.361
	c0.204-0.482,0.361-0.988,0.466-1.505C28.945,16.083,29,15.542,29,15S28.945,13.917,28.838,13.391z M26.879,16.211
	c-0.079,0.386-0.196,0.764-0.349,1.124c-0.15,0.356-0.337,0.699-0.555,1.02c-0.214,0.315-0.461,0.614-0.733,0.887
	c-0.273,0.273-0.571,0.52-0.889,0.734c-0.32,0.217-0.663,0.403-1.02,0.555c-0.358,0.152-0.736,0.269-1.124,0.348
	c-0.789,0.161-1.63,0.161-2.421,0c-0.387-0.079-0.765-0.196-1.124-0.348c-0.355-0.151-0.698-0.337-1.02-0.555
	c-0.316-0.214-0.614-0.46-0.888-0.733c-0.2-0.201-0.369-0.427-0.539-0.652l1.17-1.763l0.295,0.41
	c0.143,0.21,0.307,0.409,0.488,0.591c0.182,0.182,0.381,0.346,0.59,0.487c0.214,0.145,0.443,0.27,0.68,0.37
	c0.241,0.102,0.494,0.181,0.758,0.234c0.531,0.106,1.065,0.107,1.606-0.001c0.259-0.053,0.512-0.132,0.753-0.233
	c0.236-0.101,0.466-0.225,0.679-0.369c0.21-0.142,0.409-0.306,0.591-0.488c0.182-0.182,0.346-0.381,0.487-0.59
	c0.145-0.214,0.27-0.443,0.37-0.68c0.102-0.24,0.181-0.494,0.234-0.757C24.973,15.535,25,15.266,25,15s-0.027-0.535-0.081-0.805
	c-0.053-0.259-0.132-0.513-0.233-0.753c-0.101-0.237-0.226-0.466-0.369-0.679c-0.143-0.21-0.307-0.409-0.488-0.591
	c-0.182-0.182-0.381-0.346-0.59-0.487c-0.214-0.145-0.443-0.27-0.68-0.37c-0.241-0.102-0.494-0.181-0.758-0.234
	c-0.531-0.106-1.065-0.107-1.606,0.001c-0.259,0.053-0.512,0.132-0.753,0.233c-0.236,0.101-0.466,0.225-0.679,0.369
	c-0.21,0.142-0.409,0.306-0.591,0.488c-0.182,0.182-0.346,0.381-0.492,0.598l-3.704,5.585c-0.214,0.315-0.461,0.614-0.733,0.887
	c-0.273,0.273-0.571,0.52-0.889,0.734c-0.32,0.217-0.663,0.403-1.02,0.555c-0.358,0.152-0.736,0.269-1.124,0.348
	c-0.789,0.161-1.63,0.161-2.421,0C7.402,20.8,7.024,20.683,6.665,20.53c-0.355-0.151-0.698-0.337-1.02-0.555
	c-0.316-0.214-0.614-0.46-0.888-0.733c-0.272-0.273-0.52-0.572-0.733-0.888c-0.218-0.32-0.404-0.663-0.555-1.02
	c-0.152-0.359-0.27-0.737-0.349-1.124C3.041,15.815,3,15.408,3,15s0.041-0.815,0.121-1.211c0.079-0.387,0.196-0.764,0.349-1.124
	c0.15-0.356,0.337-0.699,0.555-1.021c0.214-0.315,0.461-0.614,0.733-0.887c0.273-0.273,0.571-0.52,0.889-0.734
	c0.32-0.217,0.663-0.403,1.02-0.555C7.024,9.317,7.402,9.2,7.79,9.122c0.789-0.161,1.63-0.161,2.421,0
	c0.387,0.079,0.765,0.196,1.124,0.348c0.355,0.151,0.698,0.337,1.02,0.555c0.316,0.214,0.614,0.46,0.888,0.733
	c0.2,0.201,0.369,0.427,0.539,0.652l-1.17,1.763l-0.295-0.41c-0.143-0.21-0.307-0.409-0.488-0.591
	c-0.182-0.182-0.381-0.346-0.59-0.487c-0.214-0.145-0.443-0.27-0.68-0.37c-0.241-0.102-0.494-0.181-0.758-0.234
	c-0.531-0.106-1.065-0.107-1.606,0.001c-0.259,0.053-0.512,0.132-0.753,0.233c-0.236,0.101-0.466,0.225-0.679,0.369
	c-0.21,0.142-0.409,0.306-0.591,0.488c-0.182,0.182-0.346,0.381-0.487,0.59c-0.145,0.214-0.27,0.443-0.37,0.68
	c-0.102,0.24-0.181,0.494-0.234,0.757C5.027,14.465,5,14.734,5,15s0.027,0.535,0.081,0.805c0.053,0.259,0.132,0.513,0.233,0.753
	c0.101,0.237,0.226,0.466,0.369,0.679c0.143,0.21,0.307,0.409,0.488,0.591c0.182,0.182,0.381,0.346,0.59,0.487
	c0.214,0.145,0.443,0.27,0.68,0.37c0.241,0.102,0.494,0.181,0.758,0.234c0.531,0.106,1.065,0.107,1.606-0.001
	c0.259-0.053,0.512-0.132,0.753-0.233c0.236-0.101,0.466-0.225,0.679-0.369c0.21-0.142,0.409-0.306,0.591-0.488
	c0.182-0.182,0.346-0.381,0.492-0.598l3.704-5.585c0.214-0.315,0.461-0.614,0.733-0.887c0.273-0.273,0.571-0.52,0.889-0.734
	c0.32-0.217,0.663-0.403,1.02-0.555c0.358-0.152,0.736-0.269,1.124-0.348c0.789-0.161,1.63-0.161,2.421,0
	c0.387,0.079,0.765,0.196,1.124,0.348c0.355,0.151,0.698,0.337,1.02,0.555c0.316,0.214,0.614,0.46,0.888,0.733
	c0.272,0.273,0.52,0.572,0.733,0.888c0.218,0.321,0.404,0.664,0.556,1.021c0.151,0.357,0.269,0.735,0.348,1.122
	C26.959,14.185,27,14.592,27,15S26.959,15.815,26.879,16.211z M18.569,15.046l0.772-1.164c0.071-0.106,0.153-0.205,0.244-0.296
	c0.091-0.09,0.189-0.173,0.297-0.245c0.106-0.072,0.22-0.134,0.34-0.185c0.119-0.051,0.244-0.089,0.369-0.115
	c0.264-0.053,0.558-0.052,0.812-0.001c0.13,0.027,0.255,0.065,0.374,0.116c0.12,0.05,0.233,0.112,0.341,0.186
	c0.106,0.071,0.205,0.154,0.296,0.244c0.091,0.091,0.173,0.189,0.245,0.297c0.072,0.106,0.134,0.22,0.185,0.339
	s0.09,0.245,0.115,0.37C22.985,14.724,23,14.86,23,15s-0.015,0.276-0.04,0.404c-0.026,0.129-0.065,0.254-0.116,0.374
	s-0.112,0.233-0.186,0.34c-0.071,0.106-0.153,0.205-0.244,0.296c-0.091,0.09-0.189,0.173-0.297,0.245
	c-0.106,0.072-0.22,0.134-0.34,0.185c-0.119,0.051-0.244,0.089-0.369,0.115c-0.264,0.053-0.558,0.052-0.812,0.001
	c-0.13-0.027-0.255-0.065-0.374-0.116c-0.12-0.05-0.233-0.112-0.341-0.186c-0.106-0.071-0.205-0.154-0.296-0.244
	c-0.091-0.091-0.173-0.189-0.262-0.321L18.569,15.046z M11.431,14.954l-0.772,1.164c-0.071,0.106-0.153,0.205-0.244,0.296
	c-0.091,0.09-0.189,0.173-0.297,0.245c-0.106,0.072-0.22,0.134-0.34,0.185c-0.119,0.051-0.244,0.089-0.369,0.115
	c-0.264,0.053-0.558,0.052-0.812,0.001c-0.13-0.027-0.255-0.065-0.374-0.116c-0.12-0.05-0.233-0.112-0.341-0.186
	c-0.106-0.071-0.205-0.154-0.296-0.244c-0.091-0.091-0.173-0.189-0.245-0.297c-0.072-0.106-0.134-0.22-0.185-0.339
	s-0.09-0.245-0.115-0.37C7.015,15.276,7,15.14,7,15s0.015-0.276,0.04-0.404c0.026-0.129,0.065-0.254,0.116-0.374
	s0.112-0.233,0.186-0.34c0.071-0.106,0.153-0.205,0.244-0.296c0.091-0.09,0.189-0.173,0.297-0.245
	c0.106-0.072,0.22-0.134,0.34-0.185c0.119-0.051,0.244-0.089,0.369-0.115C8.724,13.015,8.86,13,9,13s0.276,0.015,0.403,0.04
	c0.13,0.027,0.255,0.065,0.374,0.116c0.12,0.05,0.233,0.112,0.341,0.186c0.106,0.071,0.205,0.154,0.296,0.244
	c0.091,0.091,0.173,0.189,0.262,0.321L11.431,14.954z"/>
</g>
</svg>
