<?xml version="1.0" encoding="utf-8"?>
<!-- Generator: Adobe Illustrator 16.2.0, SVG Export Plug-In . SVG Version: 6.00 Build 0)  -->
<!DOCTYPE svg PUBLIC "-//W3C//DTD SVG 1.1//EN" "http://www.w3.org/Graphics/SVG/1.1/DTD/svg11.dtd">
<svg version="1.1" id="Layer_1" xmlns="http://www.w3.org/2000/svg" xmlns:xlink="http://www.w3.org/1999/xlink" x="0px" y="0px"
	 width="30px" height="30px" viewBox="0 0 30 30" enable-background="new 0 0 30 30" xml:space="preserve">
<g>
	<path d="M26.707,22.293l-8.036-8.037C18.89,13.52,19,12.764,19,12c0-4.411-3.589-8-8-8s-8,3.589-8,8s3.589,8,8,8
		c0.764,0,1.52-0.11,2.256-0.329l2.037,2.036C15.48,21.895,15.735,22,16,22h1v1c0,0.552,0.448,1,1,1h1v1c0,0.552,0.448,1,1,1h4
		c0.265,0,0.52-0.105,0.707-0.293l2-2C27.098,23.316,27.098,22.684,26.707,22.293z M23.586,24H21v-1c0-0.552-0.448-1-1-1h-1v-1
		c0-0.552-0.448-1-1-1h-1.586l-2.184-2.184c-0.28-0.28-0.7-0.369-1.068-0.226C12.462,17.862,11.734,18,11,18c-3.309,0-6-2.691-6-6
		s2.691-6,6-6s6,2.691,6,6c0,0.734-0.138,1.462-0.409,2.162c-0.143,0.369-0.055,0.789,0.226,1.068l7.77,7.77L23.586,24z"/>
	<circle cx="9.5" cy="10.5" r="1.5"/>
</g>
</svg>
