<?xml version="1.0" encoding="utf-8"?>
<!-- Generator: Adobe Illustrator 16.2.0, SVG Export Plug-In . SVG Version: 6.00 Build 0)  -->
<!DOCTYPE svg PUBLIC "-//W3C//DTD SVG 1.1//EN" "http://www.w3.org/Graphics/SVG/1.1/DTD/svg11.dtd">
<svg version="1.1" id="Layer_1" xmlns="http://www.w3.org/2000/svg" xmlns:xlink="http://www.w3.org/1999/xlink" x="0px" y="0px"
	 width="30px" height="30px" viewBox="0 0 30 30" enable-background="new 0 0 30 30" xml:space="preserve">
<g>
<path d="M26.895,16.553l-6-12C20.725,4.214,20.379,4,20,4H10C9.621,4,9.275,4.214,9.105,4.553l-6,12
	c-0.155,0.31-0.138,0.678,0.044,0.973S3.653,18,4,18h8v6h-2c-0.552,0-1,0.447-1,1s0.448,1,1,1h10c0.552,0,1-0.447,1-1s-0.448-1-1-1
	h-2v-6h3v2c0,0.553,0.448,1,1,1s1-0.447,1-1v-2h3c0.347,0,0.668-0.18,0.851-0.475S27.049,16.862,26.895,16.553z M16,24h-2v-6h2V24z
	 M5.618,16l5-10h8.764l5,10H5.618z"/>
</g>
</svg>
