<?xml version="1.0" encoding="utf-8"?>
<!-- Generator: Adobe Illustrator 16.2.0, SVG Export Plug-In . SVG Version: 6.00 Build 0)  -->
<!DOCTYPE svg PUBLIC "-//W3C//DTD SVG 1.1//EN" "http://www.w3.org/Graphics/SVG/1.1/DTD/svg11.dtd">
<svg version="1.1" id="Layer_1" xmlns="http://www.w3.org/2000/svg" xmlns:xlink="http://www.w3.org/1999/xlink" x="0px" y="0px"
	 width="30px" height="30px" viewBox="0 0 30 30" enable-background="new 0 0 30 30" xml:space="preserve">
<g>
<path d="M27.889,24.505L26,18.838V5c0-0.552-0.448-1-1-1H5C4.448,4,4,4.448,4,5v13.838l-1.949,5.846
	c-0.102,0.305-0.05,0.64,0.138,0.901C2.377,25.846,2.679,26,3,26h24c0.006,0,0.013,0,0.02,0c0.552,0,1-0.448,1-1
	C28.02,24.82,27.972,24.651,27.889,24.505z M24,6v12H6V6H24z M19,24c0-0.552-0.448-1-1-1h-6c-0.552,0-1,0.448-1,1H4.387l1.333-4
	h18.559l1.333,4H19z"/>
</g>
</svg>
