<?xml version="1.0" encoding="utf-8"?>
<!-- Generator: Adobe Illustrator 16.2.0, SVG Export Plug-In . SVG Version: 6.00 Build 0)  -->
<!DOCTYPE svg PUBLIC "-//W3C//DTD SVG 1.1//EN" "http://www.w3.org/Graphics/SVG/1.1/DTD/svg11.dtd">
<svg version="1.1" id="Layer_1" xmlns="http://www.w3.org/2000/svg" xmlns:xlink="http://www.w3.org/1999/xlink" x="0px" y="0px"
	 width="30px" height="30px" viewBox="0 0 30 30" enable-background="new 0 0 30 30" xml:space="preserve">
<g>
<path d="M26.265,24.036c-1.684-0.462-3.281-1.035-4.781-1.7c0.017-0.023,0.04-0.04,0.055-0.065c1.627-2.775,1.975-5.747,0.953-8.151
	c-0.963-2.27-3.075-3.903-5.948-4.6c-4.09-0.991-6.533-1.718-9.19-5.133C7.158,4.135,6.852,3.986,6.536,4
	C6.218,4.009,5.923,4.168,5.742,4.43c-0.94,1.355-3.086,5.104-2.695,10.624c0.31,4.384,2.836,8.196,6.592,9.949
	c1.402,0.655,2.875,0.978,4.355,0.978c2.135,0,4.283-0.682,6.263-2.006c1.711,0.789,3.544,1.459,5.479,1.99
	C25.824,25.989,25.913,26,26.001,26c0.438,0,0.842-0.292,0.964-0.736C27.11,24.732,26.797,24.182,26.265,24.036z M10.484,23.191
	c-3.099-1.446-5.184-4.618-5.443-8.278C4.775,11.148,5.824,8.34,6.694,6.709c2.687,2.95,5.422,3.794,9.378,4.753
	c2.274,0.552,3.858,1.741,4.578,3.438c0.771,1.817,0.466,4.135-0.837,6.358c-0.043,0.073-0.06,0.152-0.083,0.23
	c-3.946-2.063-7.046-4.818-8.863-7.986c-0.274-0.48-0.885-0.646-1.365-0.37c-0.479,0.275-0.645,0.886-0.369,1.365
	c1.899,3.311,5.037,6.202,9.007,8.404C15.644,24.202,12.924,24.329,10.484,23.191z"/>
</g>
</svg>
