<?xml version="1.0" encoding="utf-8"?>
<!-- Generator: Adobe Illustrator 16.2.0, SVG Export Plug-In . SVG Version: 6.00 Build 0)  -->
<!DOCTYPE svg PUBLIC "-//W3C//DTD SVG 1.1//EN" "http://www.w3.org/Graphics/SVG/1.1/DTD/svg11.dtd">
<svg version="1.1" id="Layer_1" xmlns="http://www.w3.org/2000/svg" xmlns:xlink="http://www.w3.org/1999/xlink" x="0px" y="0px"
	 width="30px" height="30px" viewBox="0 0 30 30" enable-background="new 0 0 30 30" xml:space="preserve">
<g>
	<path d="M12,24c-0.26,0-0.516-0.102-0.707-0.293l-8-8c-0.391-0.391-0.391-1.023,0-1.414l8-8c0.286-0.286,0.714-0.374,1.09-0.217
		C12.756,6.23,13,6.596,13,7v16c0,0.404-0.244,0.77-0.617,0.924C12.259,23.976,12.129,24,12,24z M5.414,15L11,20.586V9.414
		L5.414,15z"/>
	<path d="M18,24c-0.129,0-0.259-0.024-0.383-0.076C17.243,23.77,17,23.404,17,23V7c0-0.404,0.243-0.77,0.617-0.924
		c0.374-0.156,0.804-0.069,1.09,0.217l8,8c0.391,0.391,0.391,1.023,0,1.414l-8,8C18.516,23.898,18.26,24,18,24z M19,9.414v11.172
		L24.586,15L19,9.414z"/>
</g>
</svg>
