<?xml version="1.0" encoding="utf-8"?>
<!-- Generator: Adobe Illustrator 16.2.0, SVG Export Plug-In . SVG Version: 6.00 Build 0)  -->
<!DOCTYPE svg PUBLIC "-//W3C//DTD SVG 1.1//EN" "http://www.w3.org/Graphics/SVG/1.1/DTD/svg11.dtd">
<svg version="1.1" id="Layer_1" xmlns="http://www.w3.org/2000/svg" xmlns:xlink="http://www.w3.org/1999/xlink" x="0px" y="0px"
	 width="30px" height="30px" viewBox="0 0 30 30" enable-background="new 0 0 30 30" xml:space="preserve">
<g>
	<path d="M17,11c-0.553,0-1,0.448-1,1v0.586l-1,1l-1-1V12c0-0.552-0.447-1-1-1s-1,0.448-1,1v1c0,0.265,0.105,0.52,0.293,0.707
		L14,15.414V19c0,0.552,0.447,1,1,1s1-0.448,1-1v-3.586l1.707-1.707C17.895,13.52,18,13.265,18,13v-1C18,11.448,17.553,11,17,11z"/>
	<path d="M15,3c-4.347,0-9,3.215-9,8c0,3.021,1.343,4.522,2.422,5.729C9.304,17.715,10,18.494,10,20c0,0.903,0.388,1.693,1,2.238
		v2.206C11,25.673,12.529,27,15,27s4-1.327,4-2.556v-2.206c0.612-0.545,1-1.335,1-2.238c0-1.506,0.696-2.285,1.578-3.271
		C22.657,15.522,24,14.021,24,11C24,6.215,19.347,3,15,3z M17,24.341C16.868,24.521,16.284,25,15,25s-1.868-0.479-2-0.659V23h4
		V24.341z M20.088,15.396C19.109,16.489,18,17.729,18,20c0,0.58-0.421,1-1,1h-4c-0.579,0-1-0.42-1-1
		c0-2.271-1.109-3.511-2.088-4.604C8.886,14.248,8,13.257,8,11c0-3.536,3.689-6,7-6s7,2.464,7,6
		C22,13.257,21.114,14.248,20.088,15.396z"/>
</g>
</svg>
