<?xml version="1.0" encoding="utf-8"?>
<!-- Generator: Adobe Illustrator 16.2.0, SVG Export Plug-In . SVG Version: 6.00 Build 0)  -->
<!DOCTYPE svg PUBLIC "-//W3C//DTD SVG 1.1//EN" "http://www.w3.org/Graphics/SVG/1.1/DTD/svg11.dtd">
<svg version="1.1" id="Layer_1" xmlns="http://www.w3.org/2000/svg" xmlns:xlink="http://www.w3.org/1999/xlink" x="0px" y="0px"
	 width="30px" height="30px" viewBox="0 0 30 30" enable-background="new 0 0 30 30" xml:space="preserve">
<g>
	<path d="M15,22c-0.552,0-1-0.448-1-1v-2c0-0.552,0.448-1,1-1s1,0.448,1,1v2C16,21.552,15.552,22,15,22z"/>
	<path d="M23,11h-3V8c0-2.757-2.243-5-5-5s-5,2.243-5,5v3H7c-0.552,0-1,0.448-1,1v11c0,0.107,0.017,0.214,0.051,0.316
		C6.177,23.693,7.496,27,15,27s8.823-3.307,8.949-3.684C23.983,23.214,24,23.107,24,23V12C24,11.448,23.552,11,23,11z M12,8
		c0-1.654,1.346-3,3-3s3,1.346,3,3v3h-6V8z M22,22.778C21.733,23.213,20.306,25,15,25c-5.301,0-6.732-1.796-7-2.225V13h14V22.778z"
		/>
</g>
</svg>
