<?xml version="1.0" encoding="utf-8"?>
<!-- Generator: Adobe Illustrator 16.2.0, SVG Export Plug-In . SVG Version: 6.00 Build 0)  -->
<!DOCTYPE svg PUBLIC "-//W3C//DTD SVG 1.1//EN" "http://www.w3.org/Graphics/SVG/1.1/DTD/svg11.dtd">
<svg version="1.1" id="Layer_1" xmlns="http://www.w3.org/2000/svg" xmlns:xlink="http://www.w3.org/1999/xlink" x="0px" y="0px"
	 width="30px" height="30px" viewBox="0 0 30 30" enable-background="new 0 0 30 30" xml:space="preserve">
<g>
	<path d="M4,15c0-2.757,2.243-5,5-5h10.586l-2.293,2.293c-0.391,0.391-0.391,1.023,0,1.414C17.488,13.902,17.744,14,18,14
		s0.512-0.098,0.707-0.293l4-4c0.391-0.391,0.391-1.023,0-1.414l-4-4c-0.391-0.391-1.023-0.391-1.414,0s-0.391,1.023,0,1.414
		L19.586,8H9c-3.859,0-7,3.141-7,7c0,1.992,0.859,3.898,2.357,5.229c0.19,0.17,0.428,0.253,0.664,0.253
		c0.275,0,0.55-0.113,0.747-0.336c0.367-0.412,0.33-1.045-0.083-1.411C4.614,17.783,4,16.422,4,15z"/>
	<path d="M25.643,9.771c-0.413-0.368-1.045-0.331-1.411,0.083c-0.367,0.412-0.33,1.045,0.083,1.411C25.386,12.217,26,13.578,26,15
		c0,2.757-2.243,5-5,5H10.414l2.293-2.293c0.391-0.391,0.391-1.023,0-1.414s-1.023-0.391-1.414,0l-4,4
		c-0.391,0.391-0.391,1.023,0,1.414l4,4C11.488,25.902,11.744,26,12,26s0.512-0.098,0.707-0.293c0.391-0.391,0.391-1.023,0-1.414
		L10.414,22H21c3.859,0,7-3.141,7-7C28,13.008,27.141,11.102,25.643,9.771z"/>
</g>
</svg>
