<?xml version="1.0" encoding="utf-8"?>
<!-- Generator: Adobe Illustrator 16.2.0, SVG Export Plug-In . SVG Version: 6.00 Build 0)  -->
<!DOCTYPE svg PUBLIC "-//W3C//DTD SVG 1.1//EN" "http://www.w3.org/Graphics/SVG/1.1/DTD/svg11.dtd">
<svg version="1.1" id="Layer_1" xmlns="http://www.w3.org/2000/svg" xmlns:xlink="http://www.w3.org/1999/xlink" x="0px" y="0px"
	 width="30px" height="30px" viewBox="0 0 30 30" enable-background="new 0 0 30 30" xml:space="preserve">
<g>
	<path d="M15,23c-3.309,0-6-2.691-6-6s2.691-6,6-6s6,2.691,6,6S18.309,23,15,23z M15,13c-2.206,0-4,1.794-4,4s1.794,4,4,4
		s4-1.794,4-4S17.206,13,15,13z"/>
	<path d="M22,3H8C6.346,3,5,4.346,5,6v18c0,1.654,1.346,3,3,3h14c1.654,0,3-1.346,3-3V6C25,4.346,23.654,3,22,3z M13,5h4v2h-4V5z
		 M23,24c0,0.551-0.448,1-1,1H8c-0.552,0-1-0.449-1-1V6c0-0.551,0.448-1,1-1h3v3c0,0.552,0.447,1,1,1h6c0.553,0,1-0.448,1-1V5h3
		c0.552,0,1,0.449,1,1V24z"/>
	<circle cx="9" cy="12" r="1"/>
	<circle cx="21" cy="12" r="1"/>
	<circle cx="9" cy="22" r="1"/>
	<circle cx="21" cy="22" r="1"/>
	<circle cx="15" cy="17" r="2"/>
</g>
</svg>
