<?xml version="1.0" encoding="utf-8"?>
<!-- Generator: Adobe Illustrator 16.2.0, SVG Export Plug-In . SVG Version: 6.00 Build 0)  -->
<!DOCTYPE svg PUBLIC "-//W3C//DTD SVG 1.1//EN" "http://www.w3.org/Graphics/SVG/1.1/DTD/svg11.dtd">
<svg version="1.1" id="Layer_1" xmlns="http://www.w3.org/2000/svg" xmlns:xlink="http://www.w3.org/1999/xlink" x="0px" y="0px"
	 width="30px" height="30px" viewBox="0 0 30 30" enable-background="new 0 0 30 30" xml:space="preserve">
<g>
<path d="M26,5H4C3.448,5,3,5.448,3,6v18c0,0.552,0.448,1,1,1h22c0.552,0,1-0.448,1-1V6C27,5.448,26.552,5,26,5z M25,7v2.651
	l-10,6.364L5,9.651V7H25z M5,23V12.022l9.463,6.022C14.627,18.148,14.813,18.2,15,18.2s0.373-0.052,0.537-0.156L25,12.022V23H5z"/>
</g>
</svg>
