<?xml version="1.0" encoding="utf-8"?>
<!-- Generator: Adobe Illustrator 16.2.0, SVG Export Plug-In . SVG Version: 6.00 Build 0)  -->
<!DOCTYPE svg PUBLIC "-//W3C//DTD SVG 1.1//EN" "http://www.w3.org/Graphics/SVG/1.1/DTD/svg11.dtd">
<svg version="1.1" id="Layer_1" xmlns="http://www.w3.org/2000/svg" xmlns:xlink="http://www.w3.org/1999/xlink" x="0px" y="0px"
	 width="30px" height="30px" viewBox="0 0 30 30" enable-background="new 0 0 30 30" xml:space="preserve">
<g>
	<path d="M26.545,7.762L23,5.458V4c0-0.552-0.448-1-1-1H8C7.448,3,7,3.448,7,4v1.458L3.455,7.762C3.171,7.946,3,8.262,3,8.6V24
		c0,0.552,0.448,1,1,1h22c0.552,0,1-0.448,1-1V8.6C27,8.262,26.829,7.946,26.545,7.762z M25,9.143v1.464l-2,1.091V7.843L25,9.143z
		 M21,5v7.788l-6,3.273l-6-3.273V5H21z M7,7.843v3.854l-2-1.091V9.143L7,7.843z M5,23V12.885l9.521,5.193
		C14.67,18.16,14.835,18.2,15,18.2s0.33-0.041,0.479-0.122L25,12.885V23H5z"/>
	<path d="M12,9h6c0.552,0,1-0.448,1-1s-0.448-1-1-1h-6c-0.552,0-1,0.448-1,1S11.448,9,12,9z"/>
	<path d="M12,12h6c0.552,0,1-0.448,1-1s-0.448-1-1-1h-6c-0.552,0-1,0.448-1,1S11.448,12,12,12z"/>
</g>
</svg>
