<?xml version="1.0" encoding="utf-8"?>
<!-- Generator: Adobe Illustrator 16.2.0, SVG Export Plug-In . SVG Version: 6.00 Build 0)  -->
<!DOCTYPE svg PUBLIC "-//W3C//DTD SVG 1.1//EN" "http://www.w3.org/Graphics/SVG/1.1/DTD/svg11.dtd">
<svg version="1.1" id="Layer_1" xmlns="http://www.w3.org/2000/svg" xmlns:xlink="http://www.w3.org/1999/xlink" x="0px" y="0px"
	 width="30px" height="30px" viewBox="0 0 30 30" enable-background="new 0 0 30 30" xml:space="preserve">
<g>
	<path d="M16,21h-2c-0.553,0-1,0.448-1,1s0.447,1,1,1h2c0.553,0,1-0.448,1-1S16.553,21,16,21z"/>
	<path d="M15,3C8.112,3,4,6.738,4,13v3c0,2.298,1.035,3.369,2,3.782V21c0,3.756,4.576,6,9,6c5.131,0,9-2.58,9-6v-1.218
		c0.965-0.413,2-1.483,2-3.782v-3C26,6.738,21.888,3,15,3z M15,5c5.72,0,9,2.916,9,8v0.279l-1.077,0.359
		c-0.552-4.569-3.854-4.736-3.89-4.738c-0.229-0.011-0.457,0.064-0.64,0.205c-0.035,0.026-3.521,2.625-9.029,1.708
		c-0.398-0.068-0.802,0.041-1.131,0.301c-0.614,0.488-0.93,1.559-1.091,2.545L6,13.279V13C6,7.916,9.28,5,15,5z M23,18
		c-0.553,0-1,0.448-1,1v2c0,2.243-3.075,4-7,4c-3.381,0-7-1.607-7-4v-2c0-0.527-0.445-0.965-0.972-1C6.857,17.989,6,17.84,6,16
		v-0.612l1.684,0.561c0.295,0.098,0.616,0.054,0.875-0.119c0.257-0.173,0.419-0.456,0.439-0.766c0.055-0.846,0.233-1.787,0.409-2.22
		c5.108,0.736,8.664-1.154,9.808-1.881C19.775,11.157,21,11.934,21,15c0,0.321,0.154,0.624,0.415,0.811
		C21.588,15.936,21.793,16,22,16c0.106,0,0.213-0.017,0.316-0.051L24,15.388V16C24,17.84,23.143,17.989,23,18z"/>
</g>
</svg>
