<?xml version="1.0" encoding="utf-8"?>
<!-- Generator: Adobe Illustrator 16.2.0, SVG Export Plug-In . SVG Version: 6.00 Build 0)  -->
<!DOCTYPE svg PUBLIC "-//W3C//DTD SVG 1.1//EN" "http://www.w3.org/Graphics/SVG/1.1/DTD/svg11.dtd">
<svg version="1.1" id="Layer_1" xmlns="http://www.w3.org/2000/svg" xmlns:xlink="http://www.w3.org/1999/xlink" x="0px" y="0px"
	 width="30px" height="30px" viewBox="0 0 30 30" enable-background="new 0 0 30 30" xml:space="preserve">
<g>
<path d="M18.83,9.091C18.93,8.742,19,8.381,19,8V7c0-2.206-1.794-4-4-4s-4,1.794-4,4v1c0,0.381,0.07,0.742,0.17,1.091
	C7.908,9.537,6,11.673,6,15v3.5C6,19.878,7.121,21,8.5,21H10v3.5c0,1.378,1.121,2.5,2.5,2.5h5c1.379,0,2.5-1.122,2.5-2.5V21h1.5
	c1.379,0,2.5-1.122,2.5-2.5V15C24,11.673,22.092,9.537,18.83,9.091z M13,7c0-1.103,0.897-2,2-2s2,0.897,2,2v1c0,1.103-0.897,2-2,2
	s-2-0.897-2-2V7z M22,18.5c0,0.271-0.229,0.5-0.5,0.5H20v-4c0-0.552-0.447-1-1-1s-1,0.448-1,1v9.5c0,0.271-0.229,0.5-0.5,0.5H16v-7
	c0-0.552-0.447-1-1-1s-1,0.448-1,1v7h-1.5c-0.271,0-0.5-0.229-0.5-0.5V15c0-0.552-0.447-1-1-1s-1,0.448-1,1v4H8.5
	C8.229,19,8,18.771,8,18.5V15c0-3.245,2.357-3.972,4.385-3.998C13.088,11.616,13.996,12,15,12s1.912-0.384,2.615-0.998
	C19.643,11.028,22,11.755,22,15V18.5z"/>
</g>
</svg>
