<?xml version="1.0" encoding="utf-8"?>
<!-- Generator: Adobe Illustrator 16.2.0, SVG Export Plug-In . SVG Version: 6.00 Build 0)  -->
<!DOCTYPE svg PUBLIC "-//W3C//DTD SVG 1.1//EN" "http://www.w3.org/Graphics/SVG/1.1/DTD/svg11.dtd">
<svg version="1.1" id="Layer_1" xmlns="http://www.w3.org/2000/svg" xmlns:xlink="http://www.w3.org/1999/xlink" x="0px" y="0px"
	 width="30px" height="30px" viewBox="0 0 30 30" enable-background="new 0 0 30 30" xml:space="preserve">
<g>
	<circle cx="11" cy="17" r="2"/>
	<path d="M27.57,4.178c-0.27-0.187-0.614-0.229-0.921-0.115L19,6.932l-7.649-2.869c-0.227-0.085-0.476-0.085-0.702,0l-8,3
		C2.259,7.21,2,7.583,2,8v17c0,0.332,0.165,0.642,0.439,0.828C2.607,25.942,2.803,26,3,26c0.125,0,0.251-0.023,0.372-0.071
		L7.945,24.1c1.178,1.53,2.284,2.551,2.383,2.641C10.519,26.914,10.759,27,11,27s0.481-0.086,0.672-0.26
		c0.099-0.089,1.205-1.11,2.383-2.641l4.573,1.829c0.231,0.092,0.489,0.096,0.723,0.008l8-3C27.741,22.79,28,22.417,28,22V5
		C28,4.672,27.839,4.365,27.57,4.178z M4,23.523V8.693l6-2.25v4.648c-2.833,0.482-5,2.965-5,5.954c0,1.897,0.8,3.773,1.779,5.366
		L4,23.523z M11,24.59c-1.293-1.356-4-4.552-4-7.545C7,14.814,8.794,13,11,13s4,1.814,4,4.045C15,20.039,12.293,23.234,11,24.59z
		 M12,11.091V6.443l6,2.25v14.83l-2.779-1.112C16.2,20.818,17,18.942,17,17.045C17,14.056,14.833,11.573,12,11.091z M26,21.307
		l-6,2.25V8.693l6-2.25V21.307z"/>
</g>
</svg>
