<?xml version="1.0" encoding="utf-8"?>
<!-- Generator: Adobe Illustrator 16.2.0, SVG Export Plug-In . SVG Version: 6.00 Build 0)  -->
<!DOCTYPE svg PUBLIC "-//W3C//DTD SVG 1.1//EN" "http://www.w3.org/Graphics/SVG/1.1/DTD/svg11.dtd">
<svg version="1.1" id="Layer_1" xmlns="http://www.w3.org/2000/svg" xmlns:xlink="http://www.w3.org/1999/xlink" x="0px" y="0px"
	 width="30px" height="30px" viewBox="0 0 30 30" enable-background="new 0 0 30 30" xml:space="preserve">
<g>
	<path d="M26.247,8.232l-3.479-3.479c-0.949-0.948-2.514-1.037-3.564-0.197L8.375,13.219c-0.035,0.028-0.052,0.067-0.082,0.098
		c-0.045,0.046-0.087,0.092-0.122,0.146c-0.038,0.058-0.064,0.118-0.088,0.181C8.061,13.7,8.042,13.753,8.03,13.813
		c-0.014,0.07-0.015,0.139-0.013,0.21c0,0.04-0.013,0.076-0.007,0.116c0.004,0.03,0.397,3.04-1.217,4.654
		c-0.317,0.317-0.363,0.788-0.165,1.165l-3.335,3.335c-0.261,0.261-0.357,0.644-0.25,0.997c0.107,0.353,0.399,0.619,0.761,0.691l5,1
		C8.869,25.994,8.935,26,9,26c0.263,0,0.518-0.104,0.707-0.293l1.335-1.335C11.187,24.448,11.34,24.5,11.5,24.5
		c0.256,0,0.512-0.098,0.707-0.293c1.614-1.614,4.624-1.222,4.654-1.217c0.021,0.003,0.04-0.005,0.061-0.003
		C16.948,22.989,16.974,23,17,23c0.034,0,0.065-0.019,0.099-0.022c0.093-0.009,0.18-0.026,0.264-0.059
		c0.042-0.016,0.079-0.036,0.119-0.058c0.088-0.05,0.164-0.111,0.233-0.185c0.02-0.021,0.048-0.029,0.066-0.052l8.663-10.829
		C27.283,10.747,27.196,9.181,26.247,8.232z M8.671,23.915l-2.643-0.529L8,21.414L9.586,23L8.671,23.915z M11.567,22.153l-2.72-2.72
		c0.886-1.297,1.144-2.84,1.197-3.975l5.498,5.498C14.407,21.009,12.863,21.268,11.567,22.153z M24.882,10.547l-7.521,9.401
		l-6.309-6.309l9.4-7.521c0.247-0.198,0.677-0.174,0.9,0.049l3.479,3.479C25.057,9.871,25.08,10.299,24.882,10.547z"/>
</g>
</svg>
