<?xml version="1.0" encoding="utf-8"?>
<!-- Generator: Adobe Illustrator 16.2.0, SVG Export Plug-In . SVG Version: 6.00 Build 0)  -->
<!DOCTYPE svg PUBLIC "-//W3C//DTD SVG 1.1//EN" "http://www.w3.org/Graphics/SVG/1.1/DTD/svg11.dtd">
<svg version="1.1" id="Layer_1" xmlns="http://www.w3.org/2000/svg" xmlns:xlink="http://www.w3.org/1999/xlink" x="0px" y="0px"
	 width="30px" height="30px" viewBox="0 0 30 30" enable-background="new 0 0 30 30" xml:space="preserve">
<g>
	<path d="M21,22c-2.774,0-3.972-1.27-4.846-2.196C15.594,19.208,15.364,19,15,19s-0.594,0.208-1.154,0.804
		C12.972,20.73,11.774,22,9,22c-5.736,0-7.888-9.384-7.977-9.783c-0.082-0.372,0.054-0.759,0.352-0.998C1.915,10.787,6.743,7,10,7
		c2.303,0,4.075,1.023,5,1.704C15.925,8.023,17.697,7,20,7c3.257,0,8.085,3.787,8.625,4.219c0.298,0.238,0.434,0.625,0.352,0.998
		C28.888,12.616,26.736,22,21,22z M15,17c1.26,0,1.978,0.761,2.609,1.432C18.37,19.238,19.089,20,21,20
		c3.17,0,5.178-5.024,5.873-7.606C25.251,11.179,21.938,9,20,9c-2.557,0-4.275,1.69-4.293,1.707c-0.375,0.375-1.039,0.375-1.414,0
		C14.278,10.693,12.526,9,10,9c-1.941,0-5.251,2.178-6.872,3.393C3.826,14.975,5.839,20,9,20c1.911,0,2.63-0.762,3.391-1.568
		C13.022,17.761,13.74,17,15,17z"/>
	<path d="M10,16c-1.508,0-2.623-1.196-2.745-1.333c-0.34-0.379-0.34-0.955,0-1.334C7.377,13.196,8.492,12,10,12
		s2.623,1.196,2.745,1.333c0.34,0.379,0.34,0.955,0,1.334C12.623,14.804,11.508,16,10,16z"/>
	<path d="M20,16c-1.508,0-2.623-1.196-2.745-1.333c-0.34-0.379-0.34-0.955,0-1.334C17.377,13.196,18.492,12,20,12
		s2.623,1.196,2.745,1.333c0.34,0.379,0.34,0.955,0,1.334C22.623,14.804,21.508,16,20,16z"/>
</g>
</svg>
