<?xml version="1.0" encoding="utf-8"?>
<!-- Generator: Adobe Illustrator 16.2.0, SVG Export Plug-In . SVG Version: 6.00 Build 0)  -->
<!DOCTYPE svg PUBLIC "-//W3C//DTD SVG 1.1//EN" "http://www.w3.org/Graphics/SVG/1.1/DTD/svg11.dtd">
<svg version="1.1" id="Layer_1" xmlns="http://www.w3.org/2000/svg" xmlns:xlink="http://www.w3.org/1999/xlink" x="0px" y="0px"
	 width="30px" height="30px" viewBox="0 0 30 30" enable-background="new 0 0 30 30" xml:space="preserve">
<g>
	<path d="M18,26h-6c-0.552,0-1-0.447-1-1v-6H5c-0.552,0-1-0.447-1-1v-6c0-0.553,0.448-1,1-1h6V5c0-0.553,0.448-1,1-1h6
		c0.552,0,1,0.447,1,1v6h6c0.552,0,1,0.447,1,1v6c0,0.553-0.448,1-1,1h-6v6C19,25.553,18.552,26,18,26z M13,24h4v-6
		c0-0.553,0.448-1,1-1h6v-4h-6c-0.552,0-1-0.447-1-1V6h-4v6c0,0.553-0.448,1-1,1H6v4h6c0.552,0,1,0.447,1,1V24z"/>
</g>
</svg>
