<?xml version="1.0" encoding="utf-8"?>
<!-- Generator: Adobe Illustrator 16.2.0, SVG Export Plug-In . SVG Version: 6.00 Build 0)  -->
<!DOCTYPE svg PUBLIC "-//W3C//DTD SVG 1.1//EN" "http://www.w3.org/Graphics/SVG/1.1/DTD/svg11.dtd">
<svg version="1.1" id="Layer_1" xmlns="http://www.w3.org/2000/svg" xmlns:xlink="http://www.w3.org/1999/xlink" x="0px" y="0px"
	 width="30px" height="30px" viewBox="0 0 30 30" enable-background="new 0 0 30 30" xml:space="preserve">
<g>
	<path d="M17,23h-4c-0.552,0-1-0.447-1-1v-2h-2c-0.552,0-1-0.447-1-1v-4c0-0.553,0.448-1,1-1h2v-2c0-0.553,0.448-1,1-1h4
		c0.552,0,1,0.447,1,1v2h2c0.552,0,1,0.447,1,1v4c0,0.553-0.448,1-1,1h-2v2C18,22.553,17.552,23,17,23z M14,21h2v-2
		c0-0.553,0.448-1,1-1h2v-2h-2c-0.552,0-1-0.447-1-1v-2h-2v2c0,0.553-0.448,1-1,1h-2v2h2c0.552,0,1,0.447,1,1V21z"/>
	<path d="M26,7h-6V4c0-0.553-0.448-1-1-1h-8c-0.552,0-1,0.447-1,1v3H4C3.448,7,3,7.447,3,8v18c0,0.553,0.448,1,1,1h22
		c0.552,0,1-0.447,1-1V8C27,7.447,26.552,7,26,7z M12,5h6v2h-6V5z M25,25H5V9h20V25z"/>
</g>
</svg>
