<?xml version="1.0" encoding="utf-8"?>
<!-- Generator: Adobe Illustrator 16.2.0, SVG Export Plug-In . SVG Version: 6.00 Build 0)  -->
<!DOCTYPE svg PUBLIC "-//W3C//DTD SVG 1.1//EN" "http://www.w3.org/Graphics/SVG/1.1/DTD/svg11.dtd">
<svg version="1.1" id="Layer_1" xmlns="http://www.w3.org/2000/svg" xmlns:xlink="http://www.w3.org/1999/xlink" x="0px" y="0px"
	 width="30px" height="30px" viewBox="0 0 30 30" enable-background="new 0 0 30 30" xml:space="preserve">
<g>
	<path d="M10,28c-0.156,0-0.313-0.037-0.458-0.111C9.209,27.718,9,27.375,9,27v-4H6c-1.654,0-3-1.346-3-3V8c0-1.654,1.346-3,3-3h18
		c1.654,0,3,1.346,3,3v12c0,1.654-1.346,3-3,3h-6.68l-6.739,4.814C10.408,27.937,10.205,28,10,28z M6,7C5.449,7,5,7.449,5,8v12
		c0,0.551,0.449,1,1,1h4c0.552,0,1,0.448,1,1v3.057l5.419-3.871C16.588,21.065,16.792,21,17,21h7c0.551,0,1-0.449,1-1V8
		c0-0.551-0.449-1-1-1H6z"/>
</g>
</svg>
