<?xml version="1.0" encoding="utf-8"?>
<!-- Generator: Adobe Illustrator 16.2.0, SVG Export Plug-In . SVG Version: 6.00 Build 0)  -->
<!DOCTYPE svg PUBLIC "-//W3C//DTD SVG 1.1//EN" "http://www.w3.org/Graphics/SVG/1.1/DTD/svg11.dtd">
<svg version="1.1" id="Layer_1" xmlns="http://www.w3.org/2000/svg" xmlns:xlink="http://www.w3.org/1999/xlink" x="0px" y="0px"
	 width="30px" height="30px" viewBox="0 0 30 30" enable-background="new 0 0 30 30" xml:space="preserve">
<g>
	<path d="M15,19c2.757,0,5-2.243,5-5v-2.586l6.707-6.707c0.391-0.391,0.391-1.023,0-1.414s-1.023-0.391-1.414,0L20,8.586V8
		c0-2.757-2.243-5-5-5s-5,2.243-5,5v6c0,1.272,0.493,2.424,1.279,3.307L9.855,18.73C8.707,17.483,8,15.824,8,14v-2
		c0-0.553-0.448-1-1-1s-1,0.447-1,1v2c0,2.377,0.931,4.536,2.441,6.146l-5.148,5.147c-0.391,0.391-0.391,1.023,0,1.414
		C3.488,26.902,3.744,27,4,27s0.512-0.098,0.707-0.293l5.261-5.261c1.178,0.798,2.549,1.33,4.032,1.495V25H9c-0.552,0-1,0.447-1,1
		s0.448,1,1,1h12c0.552,0,1-0.447,1-1s-0.448-1-1-1h-5v-2.059c4.493-0.5,8-4.316,8-8.941v-2c0-0.553-0.448-1-1-1s-1,0.447-1,1v2
		c0,3.859-3.14,7-7,7c-1.312,0-2.536-0.369-3.586-1l1.481-1.48C13.537,18.819,14.245,19,15,19z M18,14c0,1.654-1.346,3-3,3
		c-0.182,0-0.359-0.022-0.532-0.054L18,13.414V14z M12,14V8c0-1.654,1.346-3,3-3s3,1.346,3,3v2.586l-5.308,5.308
		C12.266,15.375,12,14.722,12,14z"/>
</g>
</svg>
