<?xml version="1.0" encoding="utf-8"?>
<!-- Generator: Adobe Illustrator 16.2.0, SVG Export Plug-In . SVG Version: 6.00 Build 0)  -->
<!DOCTYPE svg PUBLIC "-//W3C//DTD SVG 1.1//EN" "http://www.w3.org/Graphics/SVG/1.1/DTD/svg11.dtd">
<svg version="1.1" id="Layer_1" xmlns="http://www.w3.org/2000/svg" xmlns:xlink="http://www.w3.org/1999/xlink" x="0px" y="0px"
	 width="30px" height="30px" viewBox="0 0 30 30" enable-background="new 0 0 30 30" xml:space="preserve">
<g>
	<path d="M15,19c2.757,0,5-2.243,5-5V8c0-2.757-2.243-5-5-5s-5,2.243-5,5v6C10,16.757,12.243,19,15,19z M12,8c0-1.654,1.346-3,3-3
		s3,1.346,3,3v6c0,1.654-1.346,3-3,3s-3-1.346-3-3V8z"/>
	<path d="M24,14v-2c0-0.553-0.448-1-1-1s-1,0.447-1,1v2c0,3.859-3.14,7-7,7s-7-3.141-7-7v-2c0-0.553-0.448-1-1-1s-1,0.447-1,1v2
		c0,4.625,3.507,8.441,8,8.941V25H9c-0.552,0-1,0.447-1,1s0.448,1,1,1h12c0.552,0,1-0.447,1-1s-0.448-1-1-1h-5v-2.059
		C20.493,22.441,24,18.625,24,14z"/>
</g>
</svg>
