<?xml version="1.0" encoding="utf-8"?>
<!-- Generator: Adobe Illustrator 16.2.0, SVG Export Plug-In . SVG Version: 6.00 Build 0)  -->
<!DOCTYPE svg PUBLIC "-//W3C//DTD SVG 1.1//EN" "http://www.w3.org/Graphics/SVG/1.1/DTD/svg11.dtd">
<svg version="1.1" id="Layer_1" xmlns="http://www.w3.org/2000/svg" xmlns:xlink="http://www.w3.org/1999/xlink" x="0px" y="0px"
	 width="30px" height="30px" viewBox="0 0 30 30" enable-background="new 0 0 30 30" xml:space="preserve">
<g>
<path d="M14.181,22.459C12.623,23.766,11.15,25,9.2,25c-0.99,0-1.761-0.432-2.061-1.155c-0.255-0.616-0.098-1.308,0.385-1.906
	l0.769,0.769C8.487,22.901,8.743,23,9,23c0.221,0,0.442-0.073,0.626-0.22l8.463-6.786C21.653,15.939,25,12.568,25,9
	c0-3.533-2.468-6-6-6c-3.568,0-6.939,3.346-6.995,6.911L5.22,18.375c-0.319,0.398-0.287,0.972,0.073,1.333L6.1,20.514
	c-1.055,1.191-1.372,2.734-0.808,4.097C5.902,26.084,7.4,27,9.2,27c2.678,0,4.584-1.598,6.266-3.008
	c2.411-2.023,3.868-3.244,6.827-0.285c0.391,0.391,1.023,0.391,1.414,0s0.391-1.023,0-1.414
	C19.453,18.038,16.53,20.491,14.181,22.459z M12.403,17.989l-2.393-2.393l3.204-3.997l3.186,3.186L12.403,17.989z M14.546,7.96
	l5.494,5.494c-0.518,0.273-1.066,0.458-1.623,0.52l-4.391-4.392C14.088,9.026,14.272,8.477,14.546,7.96z M23,9
	c0,1.147-0.545,2.301-1.373,3.213l-5.84-5.84C16.699,5.545,17.853,5,19,5C21.43,5,23,6.57,23,9z M8.752,17.166l2.082,2.082
	l-1.761,1.411l-1.732-1.733L8.752,17.166z"/>
</g>
</svg>
