<?xml version="1.0" encoding="utf-8"?>
<!-- Generator: Adobe Illustrator 16.2.0, SVG Export Plug-In . SVG Version: 6.00 Build 0)  -->
<!DOCTYPE svg PUBLIC "-//W3C//DTD SVG 1.1//EN" "http://www.w3.org/Graphics/SVG/1.1/DTD/svg11.dtd">
<svg version="1.1" id="Layer_1" xmlns="http://www.w3.org/2000/svg" xmlns:xlink="http://www.w3.org/1999/xlink" x="0px" y="0px"
	 width="30px" height="30px" viewBox="0 0 30 30" enable-background="new 0 0 30 30" xml:space="preserve">
<g>
	<path d="M21,3H9C7.346,3,6,4.346,6,6v18c0,1.654,1.346,3,3,3h12c1.654,0,3-1.346,3-3V6C24,4.346,22.654,3,21,3z M9,5h12
		c0.551,0,1,0.449,1,1v13H8V6C8,5.449,8.449,5,9,5z M21,25H9c-0.551,0-1-0.449-1-1v-3h14v3C22,24.551,21.551,25,21,25z"/>
	<circle cx="15" cy="23" r="1"/>
</g>
</svg>
