<?xml version="1.0" encoding="utf-8"?>
<!-- Generator: Adobe Illustrator 16.2.0, SVG Export Plug-In . SVG Version: 6.00 Build 0)  -->
<!DOCTYPE svg PUBLIC "-//W3C//DTD SVG 1.1//EN" "http://www.w3.org/Graphics/SVG/1.1/DTD/svg11.dtd">
<svg version="1.1" id="Layer_1" xmlns="http://www.w3.org/2000/svg" xmlns:xlink="http://www.w3.org/1999/xlink" x="0px" y="0px"
	 width="30px" height="30px" viewBox="0 0 30 30" enable-background="new 0 0 30 30" xml:space="preserve">
<g>
	<path d="M18.57,21.903C18.707,21.968,18.854,22,19,22c0.166,0,0.33-0.041,0.479-0.122l8-4.364c0.486-0.265,0.664-0.872,0.4-1.357
		c-0.266-0.485-0.873-0.663-1.357-0.399l-7.551,4.119L14,17.51v-1.839l4.563,2.227C18.701,17.966,18.85,18,19,18
		c0.166,0,0.33-0.041,0.479-0.122l8-4.364c0.33-0.18,0.531-0.529,0.521-0.905s-0.23-0.714-0.568-0.875l-16-7.636
		c-0.291-0.139-0.629-0.129-0.91,0.024l-8,4.364C2.192,8.666,1.991,9.015,2,9.391c0.011,0.375,0.23,0.714,0.569,0.875l4.483,2.139
		C7.02,12.589,7,12.786,7,13v1.165l-3.569-1.704c-0.499-0.239-1.097-0.026-1.333,0.472c-0.238,0.499-0.026,1.095,0.472,1.333L7,16.38
		v1.785l-3.569-1.704c-0.499-0.239-1.095-0.027-1.333,0.472s-0.026,1.095,0.472,1.333l16,7.636C18.707,25.968,18.854,26,19,26
		c0.166,0,0.33-0.041,0.479-0.122l8-4.364c0.486-0.265,0.664-0.872,0.4-1.357c-0.266-0.485-0.873-0.664-1.357-0.399l-7.551,4.119
		L14,21.506v-1.781L18.57,21.903z M18.975,15.875l-3.518-1.717l5.846-3.132l3.5,1.67L18.975,15.875z M11.031,6.123l2.76,1.317
		c-1.115,0.609-2.824,1.547-4.734,2.61l-0.092,0.05c-0.26,0.144-0.582,0.326-0.891,0.578L5.197,9.304L11.031,6.123z M8.979,19.109
		C8.982,19.071,9,19.039,9,19v-6c0-0.585,0.229-0.761,0.934-1.15l0.096-0.053c3.049-1.697,5.584-3.074,5.99-3.293l3.045,1.453
		l-6.537,3.502C12.203,13.632,12,13.971,12,14.34v6.211L8.979,19.109z"/>
</g>
</svg>
