<?xml version="1.0" encoding="utf-8"?>
<!-- Generator: Adobe Illustrator 16.2.0, SVG Export Plug-In . SVG Version: 6.00 Build 0)  -->
<!DOCTYPE svg PUBLIC "-//W3C//DTD SVG 1.1//EN" "http://www.w3.org/Graphics/SVG/1.1/DTD/svg11.dtd">
<svg version="1.1" id="Layer_1" xmlns="http://www.w3.org/2000/svg" xmlns:xlink="http://www.w3.org/1999/xlink" x="0px" y="0px"
	 width="30px" height="30px" viewBox="0 0 30 30" enable-background="new 0 0 30 30" xml:space="preserve">
<g>
	<path d="M15,27C8.383,27,3,21.617,3,15S8.383,3,15,3s12,5.383,12,12S21.617,27,15,27z M15,5C9.486,5,5,9.486,5,15s4.486,10,10,10
		s10-4.486,10-10S20.514,5,15,5z"/>
	<path d="M11,14c-0.553,0-1-0.447-1-1v-2c0-0.553,0.447-1,1-1s1,0.447,1,1v2C12,13.553,11.553,14,11,14z"/>
	<path d="M19,14c-0.553,0-1-0.447-1-1v-2c0-0.553,0.447-1,1-1s1,0.447,1,1v2C20,13.553,19.553,14,19,14z"/>
	<path d="M15,22c-2.476,0-4.791-1.341-6.042-3.498c-0.277-0.479-0.114-1.09,0.363-1.367c0.48-0.276,1.09-0.112,1.367,0.363
		C11.583,19.041,13.235,20,15,20s3.417-0.959,4.312-2.502c0.277-0.477,0.887-0.642,1.367-0.363
		c0.478,0.277,0.641,0.889,0.363,1.367C19.791,20.659,17.476,22,15,22z"/>
</g>
</svg>
