<?xml version="1.0" encoding="utf-8"?>
<!-- Generator: Adobe Illustrator 16.2.0, SVG Export Plug-In . SVG Version: 6.00 Build 0)  -->
<!DOCTYPE svg PUBLIC "-//W3C//DTD SVG 1.1//EN" "http://www.w3.org/Graphics/SVG/1.1/DTD/svg11.dtd">
<svg version="1.1" id="Layer_1" xmlns="http://www.w3.org/2000/svg" xmlns:xlink="http://www.w3.org/1999/xlink" x="0px" y="0px"
	 width="30px" height="30px" viewBox="0 0 30 30" enable-background="new 0 0 30 30" xml:space="preserve">
<g>
	<path d="M15,27C8.383,27,3,21.617,3,15S8.383,3,15,3s12,5.383,12,12S21.617,27,15,27z M15,5C9.486,5,5,9.486,5,15s4.486,10,10,10
		s10-4.486,10-10S20.514,5,15,5z"/>
	<path d="M11,14c-0.553,0-1-0.447-1-1v-2c0-0.553,0.447-1,1-1s1,0.447,1,1v2C12,13.553,11.553,14,11,14z"/>
	<path d="M19,14c-0.553,0-1-0.447-1-1v-2c0-0.553,0.447-1,1-1s1,0.447,1,1v2C20,13.553,19.553,14,19,14z"/>
	<path d="M20.001,21c-0.286,0-0.569-0.121-0.767-0.357C18.422,19.676,16.681,19,15,19s-3.422,0.676-4.234,1.643
		c-0.354,0.424-0.986,0.479-1.408,0.123c-0.424-0.354-0.479-0.985-0.123-1.408C10.437,17.925,12.699,17,15,17
		s4.563,0.925,5.766,2.357c0.355,0.423,0.301,1.054-0.123,1.408C20.456,20.923,20.228,21,20.001,21z"/>
</g>
</svg>
