<?xml version="1.0" encoding="utf-8"?>
<!-- Generator: Adobe Illustrator 16.2.0, SVG Export Plug-In . SVG Version: 6.00 Build 0)  -->
<!DOCTYPE svg PUBLIC "-//W3C//DTD SVG 1.1//EN" "http://www.w3.org/Graphics/SVG/1.1/DTD/svg11.dtd">
<svg version="1.1" id="Layer_1" xmlns="http://www.w3.org/2000/svg" xmlns:xlink="http://www.w3.org/1999/xlink" x="0px" y="0px"
	 width="30px" height="30px" viewBox="0 0 30 30" enable-background="new 0 0 30 30" xml:space="preserve">
<g>
	<path d="M17,26c-6.065,0-11-4.935-11-11S10.935,4,17,4c2.367,0,4.629,0.75,6.541,2.17c0.278,0.206,0.43,0.542,0.4,0.888
		c-0.029,0.345-0.235,0.65-0.544,0.808C20.685,9.238,19,11.972,19,15s1.685,5.762,4.397,7.135c0.309,0.157,0.515,0.463,0.544,0.809
		c0.029,0.345-0.122,0.681-0.4,0.888C21.626,25.25,19.364,26,17,26z M17,6c-4.963,0-9,4.037-9,9s4.037,9,9,9
		c1.421,0,2.797-0.332,4.049-0.97C18.518,21.163,17,18.214,17,15c0-3.215,1.518-6.164,4.05-8.031C19.799,6.332,18.422,6,17,6z"/>
</g>
</svg>
