<?xml version="1.0" encoding="utf-8"?>
<!-- Generator: Adobe Illustrator 16.2.0, SVG Export Plug-In . SVG Version: 6.00 Build 0)  -->
<!DOCTYPE svg PUBLIC "-//W3C//DTD SVG 1.1//EN" "http://www.w3.org/Graphics/SVG/1.1/DTD/svg11.dtd">
<svg version="1.1" id="Layer_1" xmlns="http://www.w3.org/2000/svg" xmlns:xlink="http://www.w3.org/1999/xlink" x="0px" y="0px"
	 width="30px" height="30px" viewBox="0 0 30 30" enable-background="new 0 0 30 30" xml:space="preserve">
<g>
	<path d="M28.937,14.649l-3-8C25.79,6.259,25.417,6,25,6H2C1.672,6,1.365,6.161,1.178,6.43C0.991,6.7,0.948,7.044,1.063,7.351l3,8
		C4.21,15.741,4.583,16,5,16h2v4c0,0.265,0.105,0.52,0.293,0.707C7.387,20.801,9.647,23,15,23s7.613-2.199,7.707-2.293
		C22.895,20.52,23,20.265,23,20v-4h2v5.764l-0.895,1.789c-0.155,0.31-0.139,0.678,0.044,0.973C24.332,24.82,24.653,25,25,25h2
		c0.347,0,0.668-0.18,0.851-0.474c0.183-0.295,0.199-0.663,0.044-0.973L27,21.764V16h1c0.328,0,0.635-0.161,0.822-0.43
		C29.009,15.3,29.052,14.956,28.937,14.649z M3.443,8h20.863l2.25,6H5.693L3.443,8z M21,19.516C20.317,19.984,18.44,21,15,21
		c-3.447,0-5.325-1.02-6-1.483V16h12V19.516z"/>
</g>
</svg>
