<?xml version="1.0" encoding="utf-8"?>
<!-- Generator: Adobe Illustrator 16.2.0, SVG Export Plug-In . SVG Version: 6.00 Build 0)  -->
<!DOCTYPE svg PUBLIC "-//W3C//DTD SVG 1.1//EN" "http://www.w3.org/Graphics/SVG/1.1/DTD/svg11.dtd">
<svg version="1.1" id="Layer_1" xmlns="http://www.w3.org/2000/svg" xmlns:xlink="http://www.w3.org/1999/xlink" x="0px" y="0px"
	 width="30px" height="30px" viewBox="0 0 30 30" enable-background="new 0 0 30 30" xml:space="preserve">
<g>
	<path d="M15,3c-3.113,0-9,1.045-9,5v10c0,4.71,4.29,9,9,9s9-4.29,9-9V8C24,4.045,18.113,3,15,3z M15,13c-0.552,0-1-0.449-1-1v-2
		c0-0.551,0.448-1,1-1s1,0.449,1,1v2C16,12.551,15.552,13,15,13z M22,18c0,3.598-3.402,7-7,7s-7-3.402-7-7V8
		c0-1.815,3.286-2.77,6-2.962v2.146C12.839,7.599,12,8.698,12,10v2c0,1.302,0.839,2.401,2,2.815V17c0,0.552,0.447,1,1,1s1-0.448,1-1
		v-2.184c1.161-0.415,2-1.514,2-2.816v-2c0-1.302-0.839-2.401-2-2.816V5.038C18.714,5.23,22,6.185,22,8V18z"/>
</g>
</svg>
