<?xml version="1.0" encoding="utf-8"?>
<!-- Generator: Adobe Illustrator 16.2.0, SVG Export Plug-In . SVG Version: 6.00 Build 0)  -->
<!DOCTYPE svg PUBLIC "-//W3C//DTD SVG 1.1//EN" "http://www.w3.org/Graphics/SVG/1.1/DTD/svg11.dtd">
<svg version="1.1" id="Layer_1" xmlns="http://www.w3.org/2000/svg" xmlns:xlink="http://www.w3.org/1999/xlink" x="0px" y="0px"
	 width="30px" height="30px" viewBox="0 0 30 30" enable-background="new 0 0 30 30" xml:space="preserve">
<g>
	<path d="M25,4H11c-0.553,0-1,0.448-1,1v5H5c-0.553,0-1,0.448-1,1v14c0,0.552,0.447,1,1,1h14c0.553,0,1-0.448,1-1v-5h5
		c0.553,0,1-0.448,1-1V5C26,4.448,25.553,4,25,4z M24,6v2H12V6H24z M10,12v2H6v-2H10z M18,24H6v-8h4v3c0,0.552,0.447,1,1,1h7V24z
		 M12,18v-8h12v8H12z"/>
</g>
</svg>
