<?xml version="1.0" encoding="utf-8"?>
<!-- Generator: Adobe Illustrator 16.2.0, SVG Export Plug-In . SVG Version: 6.00 Build 0)  -->
<!DOCTYPE svg PUBLIC "-//W3C//DTD SVG 1.1//EN" "http://www.w3.org/Graphics/SVG/1.1/DTD/svg11.dtd">
<svg version="1.1" id="Layer_1" xmlns="http://www.w3.org/2000/svg" xmlns:xlink="http://www.w3.org/1999/xlink" x="0px" y="0px"
	 width="30px" height="30px" viewBox="0 0 30 30" enable-background="new 0 0 30 30" xml:space="preserve">
<g>
	<path d="M26,3H8C7.447,3,7,3.448,7,4v5H4c-0.553,0-1,0.448-1,1v14c0,1.654,1.345,2.999,2.998,3C5.999,27,5.999,27,6,27h18
		c1.654,0,3-1.346,3-3V4C27,3.448,26.553,3,26,3z M7,23c0,0.602-0.098,2-1,2c-0.552,0-1-0.449-1-1V11h2V23z M25,24
		c0,0.551-0.448,1-1,1H8.69C8.886,24.462,9,23.801,9,23V5h16V24z"/>
	<path d="M12,14h10c0.553,0,1-0.448,1-1V9c0-0.552-0.447-1-1-1H12c-0.553,0-1,0.448-1,1v4C11,13.552,11.447,14,12,14z M13,10h8v2h-8
		V10z"/>
	<path d="M12,18h10c0.553,0,1-0.448,1-1s-0.447-1-1-1H12c-0.553,0-1,0.448-1,1S11.447,18,12,18z"/>
	<path d="M12,22h10c0.553,0,1-0.448,1-1s-0.447-1-1-1H12c-0.553,0-1,0.448-1,1S11.447,22,12,22z"/>
</g>
</svg>
