<?xml version="1.0" encoding="utf-8"?>
<!-- Generator: Adobe Illustrator 16.2.0, SVG Export Plug-In . SVG Version: 6.00 Build 0)  -->
<!DOCTYPE svg PUBLIC "-//W3C//DTD SVG 1.1//EN" "http://www.w3.org/Graphics/SVG/1.1/DTD/svg11.dtd">
<svg version="1.1" id="Layer_1" xmlns="http://www.w3.org/2000/svg" xmlns:xlink="http://www.w3.org/1999/xlink" x="0px" y="0px"
	 width="30px" height="30px" viewBox="0 0 30 30" enable-background="new 0 0 30 30" xml:space="preserve">
<g>
	<path d="M23,18.142v-6.284c1.721-0.447,3-2,3-3.858c0-2.206-1.794-4-4-4c-1.858,0-3.411,1.28-3.858,3h-6.283
		c-0.447-1.72-2-3-3.858-3C5.794,4,4,5.794,4,8c0,1.858,1.279,3.411,3,3.858v6.284c-1.721,0.447-3,2-3,3.858c0,2.206,1.794,4,4,4
		c1.858,0,3.411-1.28,3.858-3h6.283c0.447,1.72,2,3,3.858,3c2.206,0,4-1.794,4-4C26,20.142,24.721,18.589,23,18.142z M22,6
		c1.103,0,2,0.897,2,2s-0.897,2-2,2s-2-0.897-2-2S20.897,6,22,6z M6,8c0-1.103,0.897-2,2-2s2,0.897,2,2s-0.897,2-2,2S6,9.103,6,8z
		 M8,24c-1.103,0-2-0.897-2-2s0.897-2,2-2s2,0.897,2,2S9.103,24,8,24z M18.142,21h-6.283c-0.364-1.399-1.459-2.494-2.858-2.858
		v-6.284c1.399-0.364,2.494-1.459,2.858-2.858h6.283c0.364,1.399,1.459,2.494,2.858,2.858v6.284
		C19.601,18.506,18.506,19.601,18.142,21z M22,24c-1.103,0-2-0.897-2-2s0.897-2,2-2s2,0.897,2,2S23.103,24,22,24z"/>
</g>
</svg>
