<?xml version="1.0" encoding="utf-8"?>
<!-- Generator: Adobe Illustrator 16.2.0, SVG Export Plug-In . SVG Version: 6.00 Build 0)  -->
<!DOCTYPE svg PUBLIC "-//W3C//DTD SVG 1.1//EN" "http://www.w3.org/Graphics/SVG/1.1/DTD/svg11.dtd">
<svg version="1.1" id="Layer_1" xmlns="http://www.w3.org/2000/svg" xmlns:xlink="http://www.w3.org/1999/xlink" x="0px" y="0px"
	 width="30px" height="30px" viewBox="0 0 30 30" enable-background="new 0 0 30 30" xml:space="preserve">
<g>
	<path d="M26,25H4c-0.552,0-1-0.448-1-1V6c0-0.552,0.448-1,1-1h4.05c0.3,0,0.584,0.135,0.774,0.367
		C9.014,5.599,9.09,5.904,9.03,6.198C9.011,6.296,9,6.396,9,6.5C9,7.327,9.673,8,10.5,8S12,7.327,12,6.5
		c0-0.104-0.011-0.204-0.03-0.302c-0.06-0.294,0.016-0.599,0.206-0.832C12.366,5.135,12.65,5,12.95,5h4.101
		c0.3,0,0.584,0.135,0.774,0.367c0.19,0.232,0.266,0.538,0.206,0.832C18.011,6.296,18,6.396,18,6.5C18,7.327,18.673,8,19.5,8
		S21,7.327,21,6.5c0-0.104-0.011-0.204-0.03-0.302c-0.06-0.294,0.016-0.599,0.206-0.832C21.366,5.135,21.65,5,21.95,5H26
		c0.552,0,1,0.448,1,1v18C27,24.552,26.552,25,26,25z M5,23h20V7h-2.036c-0.243,1.694-1.704,3-3.464,3s-3.221-1.306-3.464-3h-2.071
		c-0.243,1.694-1.704,3-3.464,3S7.279,8.694,7.036,7H5V23z"/>
</g>
</svg>
