<?xml version="1.0" encoding="utf-8"?>
<!-- Generator: Adobe Illustrator 16.2.0, SVG Export Plug-In . SVG Version: 6.00 Build 0)  -->
<!DOCTYPE svg PUBLIC "-//W3C//DTD SVG 1.1//EN" "http://www.w3.org/Graphics/SVG/1.1/DTD/svg11.dtd">
<svg version="1.1" id="Layer_1" xmlns="http://www.w3.org/2000/svg" xmlns:xlink="http://www.w3.org/1999/xlink" x="0px" y="0px"
	 width="30px" height="30px" viewBox="0 0 30 30" enable-background="new 0 0 30 30" xml:space="preserve">
<g>
	<path d="M24.5,4h-14c-0.001,0-0.001,0-0.002,0C8.569,4.001,7,5.571,7,7.5V16H3c-0.553,0-1,0.448-1,1v5.5C2,24.43,3.57,26,5.5,26h15
		c1.93,0,3.5-1.57,3.5-3.5V11h3c0.553,0,1-0.448,1-1V7.5C28,5.57,26.43,4,24.5,4z M4,22.5V18h3v4.5C7,23.327,6.327,24,5.5,24
		S4,23.327,4,22.5z M22,22.5c0,0.827-0.673,1.5-1.5,1.5H8.648C8.867,23.543,9,23.039,9,22.5v-15C9,6.673,9.673,6,10.5,6
		S12,6.673,12,7.5V10c0,0.552,0.447,1,1,1h9V22.5z M26,9H14V7.5c0-0.537-0.121-1.045-0.338-1.5H24.5C25.327,6,26,6.673,26,7.5V9z"/>
</g>
</svg>
