<?xml version="1.0" encoding="utf-8"?>
<!-- Generator: Adobe Illustrator 16.2.0, SVG Export Plug-In . SVG Version: 6.00 Build 0)  -->
<!DOCTYPE svg PUBLIC "-//W3C//DTD SVG 1.1//EN" "http://www.w3.org/Graphics/SVG/1.1/DTD/svg11.dtd">
<svg version="1.1" id="Layer_1" xmlns="http://www.w3.org/2000/svg" xmlns:xlink="http://www.w3.org/1999/xlink" x="0px" y="0px"
	 width="30px" height="30px" viewBox="0 0 30 30" enable-background="new 0 0 30 30" xml:space="preserve">
<g>
	<path d="M12.247,25.994c-1.852,0-3.702-0.679-5.11-2.036C5.758,22.631,5,20.863,5,18.981s0.759-3.649,2.137-4.976l8.836-8.512
		c2.057-1.984,5.406-1.985,7.463,0C24.443,6.464,25,7.758,25,9.137c0.001,1.38-0.556,2.676-1.565,3.648l-7.682,7.338
		c-1.317,1.27-3.427,1.304-4.698,0.076c-0.639-0.614-0.991-1.436-0.992-2.313c0-0.878,0.353-1.701,0.992-2.318l7.551-7.288
		c0.398-0.383,1.031-0.373,1.414,0.025c0.384,0.397,0.372,1.03-0.025,1.414l-7.551,7.289c-0.246,0.237-0.381,0.549-0.381,0.878
		c0,0.328,0.135,0.638,0.38,0.874c0.508,0.491,1.374,0.455,1.926-0.08l7.683-7.338c0.611-0.589,0.95-1.373,0.949-2.204
		c0-0.831-0.338-1.613-0.952-2.204c-1.293-1.248-3.395-1.249-4.688-0.001l-8.837,8.512C7.541,16.392,7,17.648,7,18.981
		c0,1.334,0.541,2.59,1.524,3.537c2.053,1.978,5.394,1.979,7.448,0l7.33-7.135c0.395-0.385,1.027-0.377,1.414,0.02
		c0.385,0.396,0.376,1.029-0.02,1.414l-7.334,7.139C15.952,25.314,14.099,25.994,12.247,25.994z"/>
</g>
</svg>
