<?xml version="1.0" encoding="utf-8"?>
<!-- Generator: Adobe Illustrator 16.2.0, SVG Export Plug-In . SVG Version: 6.00 Build 0)  -->
<!DOCTYPE svg PUBLIC "-//W3C//DTD SVG 1.1//EN" "http://www.w3.org/Graphics/SVG/1.1/DTD/svg11.dtd">
<svg version="1.1" id="Layer_1" xmlns="http://www.w3.org/2000/svg" xmlns:xlink="http://www.w3.org/1999/xlink" x="0px" y="0px"
	 width="30px" height="30px" viewBox="0 0 30 30" enable-background="new 0 0 30 30" xml:space="preserve">
<g>
	<path d="M26,22h-3v-1c0-0.553-0.447-1-1-1h-4c-0.553,0-1,0.447-1,1v1H4c-0.553,0-1,0.447-1,1s0.447,1,1,1h13v1c0,0.553,0.447,1,1,1
		h4c0.553,0,1-0.447,1-1v-1h3c0.553,0,1-0.447,1-1S26.553,22,26,22z M21,24h-2v-2h2V24z"/>
	<path d="M26,14h-8v-1c0-0.553-0.447-1-1-1h-4c-0.553,0-1,0.447-1,1v1H4c-0.553,0-1,0.447-1,1s0.447,1,1,1h8v1c0,0.553,0.447,1,1,1
		h4c0.553,0,1-0.447,1-1v-1h8c0.553,0,1-0.447,1-1S26.553,14,26,14z M16,16h-2v-2h2V16z"/>
	<path d="M4,8h3v1c0,0.553,0.447,1,1,1h4c0.553,0,1-0.447,1-1V8h13c0.553,0,1-0.447,1-1s-0.447-1-1-1H13V5c0-0.553-0.447-1-1-1H8
		C7.447,4,7,4.447,7,5v1H4C3.447,6,3,6.447,3,7S3.447,8,4,8z M9,6h2v2H9V6z"/>
</g>
</svg>
