<?xml version="1.0" encoding="utf-8"?>
<!-- Generator: Adobe Illustrator 16.2.0, SVG Export Plug-In . SVG Version: 6.00 Build 0)  -->
<!DOCTYPE svg PUBLIC "-//W3C//DTD SVG 1.1//EN" "http://www.w3.org/Graphics/SVG/1.1/DTD/svg11.dtd">
<svg version="1.1" id="Layer_1" xmlns="http://www.w3.org/2000/svg" xmlns:xlink="http://www.w3.org/1999/xlink" x="0px" y="0px"
	 width="30px" height="30px" viewBox="0 0 30 30" enable-background="new 0 0 30 30" xml:space="preserve">
<g>
	<path d="M13,24H7c-0.552,0-1-0.447-1-1V7c0-0.553,0.448-1,1-1h6c0.552,0,1,0.447,1,1v16C14,23.553,13.552,24,13,24z M8,22h4V8H8
		V22z"/>
	<path d="M23,24h-6c-0.552,0-1-0.447-1-1V7c0-0.553,0.448-1,1-1h6c0.552,0,1,0.447,1,1v16C24,23.553,23.552,24,23,24z M18,22h4V8
		h-4V22z"/>
</g>
</svg>
