<?xml version="1.0" encoding="utf-8"?>
<!-- Generator: Adobe Illustrator 16.2.0, SVG Export Plug-In . SVG Version: 6.00 Build 0)  -->
<!DOCTYPE svg PUBLIC "-//W3C//DTD SVG 1.1//EN" "http://www.w3.org/Graphics/SVG/1.1/DTD/svg11.dtd">
<svg version="1.1" id="Layer_1" xmlns="http://www.w3.org/2000/svg" xmlns:xlink="http://www.w3.org/1999/xlink" x="0px" y="0px"
	 width="30px" height="30px" viewBox="0 0 30 30" enable-background="new 0 0 30 30" xml:space="preserve">
<g>
	<path d="M26.895,14.553l-1.452-2.904c0.81-1.643,0.871-4.15-1.035-6.056c-1.3-1.3-2.744-1.573-3.726-1.573
		c-1.305,0-2.604,0.488-3.389,1.273l-10,10c-2.763,2.763-2.542,6.885-2.357,8.357l-0.643,0.643c-0.391,0.391-0.391,1.023,0,1.414
		C4.488,25.902,4.744,26,5,26s0.512-0.098,0.707-0.293l0.644-0.644c0.381,0.047,0.936,0.097,1.601,0.097
		c1.963,0,4.728-0.426,6.755-2.453l9.352-9.352l0.724,1.448l-4.49,4.49c-0.391,0.391-0.391,1.023,0,1.414
		C20.488,20.902,20.744,21,21,21s0.512-0.098,0.707-0.293l5-5C27.011,15.403,27.087,14.938,26.895,14.553z M13.293,21.293
		c-1.543,1.543-3.756,1.867-5.341,1.867c-0.411,0-0.774-0.022-1.061-0.049c-0.125-1.367-0.149-4.438,1.816-6.404l5.257-5.257
		c0.346,0.796,0.919,1.848,1.829,2.757s1.961,1.483,2.757,1.829L13.293,21.293z M20.099,14.487c-0.434-0.135-1.822-0.625-2.892-1.694
		c-1.069-1.07-1.559-2.458-1.694-2.892l3.194-3.194c0.331-0.331,1.09-0.687,1.975-0.687c0.604,0,1.496,0.171,2.312,0.987
		c1.633,1.633,0.886,3.7,0.3,4.286L20.099,14.487z"/>
</g>
</svg>
