<?xml version="1.0" encoding="utf-8"?>
<!-- Generator: Adobe Illustrator 16.2.0, SVG Export Plug-In . SVG Version: 6.00 Build 0)  -->
<!DOCTYPE svg PUBLIC "-//W3C//DTD SVG 1.1//EN" "http://www.w3.org/Graphics/SVG/1.1/DTD/svg11.dtd">
<svg version="1.1" id="Layer_1" xmlns="http://www.w3.org/2000/svg" xmlns:xlink="http://www.w3.org/1999/xlink" x="0px" y="0px"
	 width="30px" height="30px" viewBox="0 0 30 30" enable-background="new 0 0 30 30" xml:space="preserve">
<g>
	<path d="M23.804,6.196C22.264,4.657,21.116,4,19.964,4c-1.41,0-2.428,1.018-3.606,2.196L5.298,17.255
		c-0.153,0.153-0.252,0.352-0.283,0.565L4.01,24.858c-0.045,0.312,0.06,0.626,0.283,0.849C4.482,25.896,4.737,26,5,26
		c0.047,0,0.094-0.003,0.142-0.01l7.038-1.005c0.214-0.03,0.413-0.13,0.565-0.283l11.059-11.059
		C26.12,11.326,27.276,9.669,23.804,6.196z M16.984,8.398L18.586,10l-8.63,8.63c-0.722-0.576-1.415-0.942-2.023-1.181L16.984,8.398z
		 M11.37,20.044l8.63-8.63l1.602,1.602l-9.051,9.051C12.312,21.458,11.946,20.766,11.37,20.044z M6.843,19.172
		c0.629,0.194,1.524,0.609,2.45,1.535c0.927,0.927,1.342,1.823,1.536,2.45l-4.65,0.664L6.843,19.172z M23.012,11.598l-4.61-4.61
		C19.025,6.391,19.521,6,19.964,6c0.541,0,1.357,0.542,2.426,1.61C24.431,9.652,24.424,10.131,23.012,11.598z"/>
</g>
</svg>
