<?xml version="1.0" encoding="utf-8"?>
<!-- Generator: Adobe Illustrator 16.2.0, SVG Export Plug-In . SVG Version: 6.00 Build 0)  -->
<!DOCTYPE svg PUBLIC "-//W3C//DTD SVG 1.1//EN" "http://www.w3.org/Graphics/SVG/1.1/DTD/svg11.dtd">
<svg version="1.1" id="Layer_1" xmlns="http://www.w3.org/2000/svg" xmlns:xlink="http://www.w3.org/1999/xlink" x="0px" y="0px"
	 width="30px" height="30px" viewBox="0 0 30 30" enable-background="new 0 0 30 30" xml:space="preserve">
<g>
	<path d="M7,24c-0.256,0-0.512-0.098-0.707-0.293c-0.391-0.391-0.391-1.023,0-1.414l16-16c0.391-0.391,1.023-0.391,1.414,0
		s0.391,1.023,0,1.414l-16,16C7.512,23.902,7.256,24,7,24z"/>
	<path d="M9,14c-2.206,0-4-1.794-4-4V8c0-2.206,1.794-4,4-4s4,1.794,4,4v2C13,12.206,11.206,14,9,14z M9,6C7.897,6,7,6.897,7,8v2
		c0,1.103,0.897,2,2,2s2-0.897,2-2V8C11,6.897,10.103,6,9,6z"/>
	<path d="M21,26c-2.206,0-4-1.794-4-4v-2c0-2.206,1.794-4,4-4s4,1.794,4,4v2C25,24.206,23.206,26,21,26z M21,18
		c-1.103,0-2,0.897-2,2v2c0,1.103,0.897,2,2,2s2-0.897,2-2v-2C23,18.897,22.103,18,21,18z"/>
</g>
</svg>
