<?xml version="1.0" encoding="utf-8"?>
<!-- Generator: Adobe Illustrator 16.2.0, SVG Export Plug-In . SVG Version: 6.00 Build 0)  -->
<!DOCTYPE svg PUBLIC "-//W3C//DTD SVG 1.1//EN" "http://www.w3.org/Graphics/SVG/1.1/DTD/svg11.dtd">
<svg version="1.1" id="Layer_1" xmlns="http://www.w3.org/2000/svg" xmlns:xlink="http://www.w3.org/1999/xlink" x="0px" y="0px"
	 width="30px" height="30px" viewBox="0 0 30 30" enable-background="new 0 0 30 30" xml:space="preserve">
<g>
	<path d="M26,4H4C3.448,4,3,4.448,3,5v20c0,0.552,0.448,1,1,1h22c0.552,0,1-0.448,1-1V5C27,4.448,26.552,4,26,4z M25,6v14.062
		l-3.896-2.958c-0.325-0.248-0.768-0.27-1.119-0.061l-2.831,1.698l-5.448-5.448C11.52,13.105,11.265,13,11,13
		c-0.265,0.01-0.524,0.108-0.712,0.298L5,18.662V6H25z M5,24v-2.488l6.005-6.092l5.288,5.288c0.324,0.325,0.828,0.387,1.222,0.15
		l2.919-1.752L25,22.572V24H5z"/>
	<path d="M19.5,15c1.93,0,3.5-1.57,3.5-3.5S21.43,8,19.5,8S16,9.57,16,11.5S17.57,15,19.5,15z M19.5,10c0.827,0,1.5,0.673,1.5,1.5
		S20.327,13,19.5,13S18,12.327,18,11.5S18.673,10,19.5,10z"/>
</g>
</svg>
