<?xml version="1.0" encoding="utf-8"?>
<!-- Generator: Adobe Illustrator 16.2.0, SVG Export Plug-In . SVG Version: 6.00 Build 0)  -->
<!DOCTYPE svg PUBLIC "-//W3C//DTD SVG 1.1//EN" "http://www.w3.org/Graphics/SVG/1.1/DTD/svg11.dtd">
<svg version="1.1" id="Layer_1" xmlns="http://www.w3.org/2000/svg" xmlns:xlink="http://www.w3.org/1999/xlink" x="0px" y="0px"
	 width="30px" height="30px" viewBox="0 0 30 30" enable-background="new 0 0 30 30" xml:space="preserve">
<g>
	<path d="M15,16H4c-0.552,0-1-0.448-1-1C3,8.383,8.383,3,15,3c0.552,0,1,0.448,1,1v11C16,15.552,15.552,16,15,16z M5.05,14H14V5.05
		C9.283,5.52,5.52,9.283,5.05,14z"/>
	<path d="M15,27c-4.969,0-9.352-2.997-11.165-7.636c-0.201-0.515,0.053-1.095,0.567-1.295c0.514-0.202,1.094,0.053,1.295,0.567
		C7.209,22.502,10.86,25,15,25c5.514,0,10-4.486,10-10c0-4.14-2.498-7.791-6.364-9.301c-0.514-0.201-0.769-0.781-0.567-1.295
		s0.779-0.768,1.296-0.568C24.003,5.647,27,10.03,27,15C27,21.617,21.617,27,15,27z"/>
</g>
</svg>
