<?xml version="1.0" encoding="utf-8"?>
<!-- Generator: Adobe Illustrator 16.2.0, SVG Export Plug-In . SVG Version: 6.00 Build 0)  -->
<!DOCTYPE svg PUBLIC "-//W3C//DTD SVG 1.1//EN" "http://www.w3.org/Graphics/SVG/1.1/DTD/svg11.dtd">
<svg version="1.1" id="Layer_1" xmlns="http://www.w3.org/2000/svg" xmlns:xlink="http://www.w3.org/1999/xlink" x="0px" y="0px"
	 width="30px" height="30px" viewBox="0 0 30 30" enable-background="new 0 0 30 30" xml:space="preserve">
<g>
	<path d="M25.289,4.711C24.186,3.607,22.719,3,21.16,3s-3.026,0.607-4.129,1.711L4.711,17.031C3.607,18.135,3,19.601,3,21.16
		s0.607,3.025,1.711,4.129C5.814,26.393,7.281,27,8.84,27s3.026-0.607,4.129-1.711l12.319-12.318C26.393,11.867,27,10.4,27,8.841
		S26.393,5.814,25.289,4.711z M11.556,23.875c-1.451,1.451-3.979,1.451-5.431,0C5.399,23.149,5,22.186,5,21.16
		s0.399-1.989,1.125-2.715l5.166-5.167c0.288,1.007,0.861,2.288,2.002,3.429c1.141,1.142,2.422,1.714,3.429,2.002L11.556,23.875z
		 M23.875,11.557l-5.44,5.439c-0.335-0.018-2.209-0.185-3.728-1.703c-1.519-1.519-1.686-3.393-1.703-3.727l5.44-5.441
		C19.17,5.399,20.134,5,21.16,5s1.99,0.399,2.715,1.125S25,7.815,25,8.841S24.601,10.831,23.875,11.557z"/>
</g>
</svg>
