<?xml version="1.0" encoding="utf-8"?>
<!-- Generator: Adobe Illustrator 16.2.0, SVG Export Plug-In . SVG Version: 6.00 Build 0)  -->
<!DOCTYPE svg PUBLIC "-//W3C//DTD SVG 1.1//EN" "http://www.w3.org/Graphics/SVG/1.1/DTD/svg11.dtd">
<svg version="1.1" id="Layer_1" xmlns="http://www.w3.org/2000/svg" xmlns:xlink="http://www.w3.org/1999/xlink" x="0px" y="0px"
	 width="30px" height="30px" viewBox="0 0 30 30" enable-background="new 0 0 30 30" xml:space="preserve">
<g>
	<path d="M26.707,11.293l-8-8c-0.391-0.391-1.023-0.391-1.414,0l-1,1C16.105,4.48,16,4.735,16,5v2.586l-2.15,2.15
		c-0.638-0.339-1.616-0.737-2.694-0.737c-1.059,0-2.014,0.396-2.778,1.161l-1.1,1.15c-0.376,0.393-0.369,1.014,0.016,1.398
		l2.448,2.448l-5.599,9.331c-0.236,0.394-0.174,0.897,0.15,1.222C4.485,25.9,4.742,26,5,26c0.177,0,0.354-0.047,0.515-0.143
		l9.33-5.598l2.448,2.448C17.488,22.902,17.744,23,18,23c0.249,0,0.498-0.092,0.691-0.277l1.166-1.116
		c1.723-1.723,1.175-4.023,0.41-5.46L22.414,14H25c0.266,0,0.52-0.105,0.707-0.293l1-1C27.098,12.316,27.098,11.684,26.707,11.293z
		 M7.915,22.084l3.283-5.472l2.189,2.188L7.915,22.084z M22,12c-0.266,0-0.52,0.105-0.707,0.293l-3,3
		c-0.351,0.351-0.392,0.905-0.097,1.303c0.017,0.022,1.621,2.223,0.263,3.582l-0.443,0.424l-8.617-8.617l0.408-0.427
		c0.376-0.376,0.817-0.559,1.349-0.559c1.133,0,2.241,0.799,2.249,0.805c0.397,0.296,0.954,0.255,1.303-0.096l3-3
		C17.895,8.52,18,8.265,18,8V5.414L24.586,12H22z"/>
</g>
</svg>
