<?xml version="1.0" encoding="utf-8"?>
<!-- Generator: Adobe Illustrator 16.2.0, SVG Export Plug-In . SVG Version: 6.00 Build 0)  -->
<!DOCTYPE svg PUBLIC "-//W3C//DTD SVG 1.1//EN" "http://www.w3.org/Graphics/SVG/1.1/DTD/svg11.dtd">
<svg version="1.1" id="Layer_1" xmlns="http://www.w3.org/2000/svg" xmlns:xlink="http://www.w3.org/1999/xlink" x="0px" y="0px"
	 width="30px" height="30px" viewBox="0 0 30 30" enable-background="new 0 0 30 30" xml:space="preserve">
<g>
	<path d="M22.196,6.02l-10-2c-0.295-0.06-0.599,0.017-0.83,0.207C11.134,4.417,11,4.7,11,5v12.762C10.284,17.282,9.425,17,8.5,17
		C6.019,17,4,19.019,4,21.5S6.019,26,8.5,26s4.5-2.019,4.5-4.5V10.364l8.819,1.62c0.292,0.054,0.593-0.025,0.821-0.215
		C22.868,11.578,23,11.297,23,11V7C23,6.523,22.664,6.113,22.196,6.02z M8.5,24C7.122,24,6,22.878,6,21.5S7.122,19,8.5,19
		s2.5,1.122,2.5,2.5S9.878,24,8.5,24z M21,9.8l-8-1.469V6.22l8,1.6V9.8z"/>
	<path d="M25,17h-8c-0.552,0-1-0.448-1-1s0.448-1,1-1h8c0.552,0,1,0.448,1,1S25.552,17,25,17z"/>
	<path d="M25,21h-8c-0.552,0-1-0.448-1-1s0.448-1,1-1h8c0.552,0,1,0.448,1,1S25.552,21,25,21z"/>
	<path d="M25,25h-8c-0.552,0-1-0.448-1-1s0.448-1,1-1h8c0.552,0,1,0.448,1,1S25.552,25,25,25z"/>
</g>
</svg>
