<?xml version="1.0" encoding="utf-8"?>
<!-- Generator: Adobe Illustrator 16.2.0, SVG Export Plug-In . SVG Version: 6.00 Build 0)  -->
<!DOCTYPE svg PUBLIC "-//W3C//DTD SVG 1.1//EN" "http://www.w3.org/Graphics/SVG/1.1/DTD/svg11.dtd">
<svg version="1.1" id="Layer_1" xmlns="http://www.w3.org/2000/svg" xmlns:xlink="http://www.w3.org/1999/xlink" x="0px" y="0px"
	 width="30px" height="30px" viewBox="0 0 30 30" enable-background="new 0 0 30 30" xml:space="preserve">
<g>
	<path d="M23,8h-4V4c0-0.553-0.447-1-1-1s-1,0.447-1,1v4h-4V4c0-0.553-0.447-1-1-1s-1,0.447-1,1v4H7C6.447,8,6,8.447,6,9s0.447,1,1,1
		h1v5c0,2.884,2.225,4.693,6,4.961V21c0,3.48,2.506,4,4,4c1.847,0,2,0.946,2,2c0,0.553,0.447,1,1,1s1-0.447,1-1c0-3.48-2.506-4-4-4
		c-1.847,0-2-0.946-2-2v-1.039c3.775-0.268,6-2.077,6-4.961v-5h1c0.553,0,1-0.447,1-1S23.553,8,23,8z M20,15c0,2.708-3.497,3-5,3
		s-5-0.292-5-3v-5h10V15z"/>
</g>
</svg>
