<?xml version="1.0" encoding="utf-8"?>
<!-- Generator: Adobe Illustrator 16.2.0, SVG Export Plug-In . SVG Version: 6.00 Build 0)  -->
<!DOCTYPE svg PUBLIC "-//W3C//DTD SVG 1.1//EN" "http://www.w3.org/Graphics/SVG/1.1/DTD/svg11.dtd">
<svg version="1.1" id="Layer_1" xmlns="http://www.w3.org/2000/svg" xmlns:xlink="http://www.w3.org/1999/xlink" x="0px" y="0px"
	 width="30px" height="30px" viewBox="0 0 30 30" enable-background="new 0 0 30 30" xml:space="preserve">
<g>
	<path d="M15,16c-0.553,0-1-0.447-1-1V4c0-0.553,0.447-1,1-1c0.553,0,1,0.447,1,1v11C16,15.553,15.553,16,15,16z"/>
	<path d="M15,27C8.383,27,3,21.617,3,15c0-4.97,2.997-9.352,7.636-11.164c0.515-0.202,1.095,0.053,1.296,0.567
		c0.201,0.514-0.054,1.095-0.567,1.296C7.498,7.209,5,10.86,5,15c0,5.514,4.486,10,10,10c5.514,0,10-4.486,10-10
		c0-4.14-2.498-7.791-6.363-9.301c-0.515-0.201-0.77-0.781-0.568-1.296c0.203-0.515,0.779-0.769,1.297-0.567
		C24.003,5.648,27,10.03,27,15C27,21.617,21.617,27,15,27z"/>
</g>
</svg>
