<?xml version="1.0" encoding="utf-8"?>
<!-- Generator: Adobe Illustrator 16.2.0, SVG Export Plug-In . SVG Version: 6.00 Build 0)  -->
<!DOCTYPE svg PUBLIC "-//W3C//DTD SVG 1.1//EN" "http://www.w3.org/Graphics/SVG/1.1/DTD/svg11.dtd">
<svg version="1.1" id="Layer_1" xmlns="http://www.w3.org/2000/svg" xmlns:xlink="http://www.w3.org/1999/xlink" x="0px" y="0px"
	 width="30px" height="30px" viewBox="0 0 30 30" enable-background="new 0 0 30 30" xml:space="preserve">
<g>
	<path d="M26.949,13.684l-1-3C25.813,10.275,25.431,10,25,10h-3V5c0-0.552-0.448-1-1-1H9C8.448,4,8,4.448,8,5v5H5
		c-0.431,0-0.813,0.275-0.949,0.684l-1,3C3.017,13.786,3,13.893,3,14v8c0,0.459,0.313,0.859,0.757,0.97L7,23.781V25
		c0,0.552,0.448,1,1,1h14c0.552,0,1-0.448,1-1v-1.219l3.243-0.811C26.688,22.859,27,22.459,27,22v-8
		C27,13.893,26.983,13.786,26.949,13.684z M10,6h10v6H10V6z M21,24H9v-2h12V24z M25,21.219l-2,0.5V21c0-0.552-0.448-1-1-1H8
		c-0.552,0-1,0.448-1,1v0.719l-2-0.5v-7.057L5.721,12H8v1c0,0.552,0.448,1,1,1h12c0.552,0,1-0.448,1-1v-1h2.279L25,14.162V21.219z"
		/>
	<path d="M9,16H8c-0.552,0-1,0.448-1,1s0.448,1,1,1h1c0.552,0,1-0.448,1-1S9.552,16,9,16z"/>
	<path d="M13,16h-1c-0.552,0-1,0.448-1,1s0.448,1,1,1h1c0.552,0,1-0.448,1-1S13.552,16,13,16z"/>
</g>
</svg>
