<?xml version="1.0" encoding="utf-8"?>
<!-- Generator: Adobe Illustrator 16.2.0, SVG Export Plug-In . SVG Version: 6.00 Build 0)  -->
<!DOCTYPE svg PUBLIC "-//W3C//DTD SVG 1.1//EN" "http://www.w3.org/Graphics/SVG/1.1/DTD/svg11.dtd">
<svg version="1.1" id="Layer_1" xmlns="http://www.w3.org/2000/svg" xmlns:xlink="http://www.w3.org/1999/xlink" x="0px" y="0px"
	 width="30px" height="30px" viewBox="0 0 30 30" enable-background="new 0 0 30 30" xml:space="preserve">
<g>
	<path d="M25,5h-9V4c0-0.552-0.447-1-1-1s-1,0.448-1,1v1H5C4.447,5,4,5.448,4,6v13c0,0.552,0.447,1,1,1h9v0.954l-6.541,4.205
		c-0.464,0.299-0.599,0.917-0.3,1.382c0.298,0.465,0.917,0.599,1.382,0.301L14,23.332V25c0,0.552,0.447,1,1,1s1-0.448,1-1v-1.668
		l5.459,3.509C21.627,26.949,21.813,27,21.999,27c0.329,0,0.651-0.162,0.842-0.459c0.299-0.464,0.164-1.083-0.3-1.382L16,20.954V20h9
		c0.553,0,1-0.448,1-1V6C26,5.448,25.553,5,25,5z M24,18H6V7h18V18z"/>
</g>
</svg>
