<?xml version="1.0" encoding="utf-8"?>
<!-- Generator: Adobe Illustrator 16.2.0, SVG Export Plug-In . SVG Version: 6.00 Build 0)  -->
<!DOCTYPE svg PUBLIC "-//W3C//DTD SVG 1.1//EN" "http://www.w3.org/Graphics/SVG/1.1/DTD/svg11.dtd">
<svg version="1.1" id="Layer_1" xmlns="http://www.w3.org/2000/svg" xmlns:xlink="http://www.w3.org/1999/xlink" x="0px" y="0px"
	 width="30px" height="30px" viewBox="0 0 30 30" enable-background="new 0 0 30 30" xml:space="preserve">
<g>
	<path d="M25,10h-6.182c-0.68-2.862-3.251-5-6.318-5s-5.639,2.138-6.318,5H4.9c-1.6,0-2.9,1.346-2.9,3v6
		c0,1.302,0.839,2.401,2,2.815V24c0,0.552,0.447,1,1,1h20c0.553,0,1-0.448,1-1v-2.184c1.161-0.415,2-1.514,2-2.816v-6
		C28,11.346,26.654,10,25,10z M12.5,7c2.481,0,4.5,2.019,4.5,4.5S14.981,16,12.5,16S8,13.981,8,11.5S10.019,7,12.5,7z M6,23v-1h18v1
		H6z M26,19c0,0.551-0.448,1-1,1H5c-0.552,0-1-0.449-1-1v-6c0-0.542,0.412-1,0.9-1h1.125c0.257,3.351,3.06,6,6.475,6
		s6.218-2.649,6.475-6H25c0.552,0,1,0.449,1,1V19z"/>
	<path d="M11,11.5c0-0.827,0.673-1.5,1.5-1.5c0.553,0,1-0.448,1-1s-0.447-1-1-1C10.57,8,9,9.57,9,11.5c0,0.552,0.447,1,1,1
		S11,12.052,11,11.5z"/>
	<path d="M24,13h-2c-0.553,0-1,0.448-1,1s0.447,1,1,1h2c0.553,0,1-0.448,1-1S24.553,13,24,13z"/>
</g>
</svg>
