<?xml version="1.0" encoding="utf-8"?>
<!-- Generator: Adobe Illustrator 16.2.0, SVG Export Plug-In . SVG Version: 6.00 Build 0)  -->
<!DOCTYPE svg PUBLIC "-//W3C//DTD SVG 1.1//EN" "http://www.w3.org/Graphics/SVG/1.1/DTD/svg11.dtd">
<svg version="1.1" id="Layer_1" xmlns="http://www.w3.org/2000/svg" xmlns:xlink="http://www.w3.org/1999/xlink" x="0px" y="0px"
	 width="30px" height="30px" viewBox="0 0 30 30" enable-background="new 0 0 30 30" xml:space="preserve">
<g>
	<path d="M15,27C8.383,27,3,21.617,3,15S8.383,3,15,3s12,5.383,12,12S21.617,27,15,27z M15,5C9.486,5,5,9.486,5,15s4.486,10,10,10
		s10-4.486,10-10S20.514,5,15,5z"/>
	<path d="M15,18.5c-0.553,0-1-0.447-1-1c0-2.021,1.087-2.913,1.88-3.563C16.578,13.363,17,13.018,17,12c0-1.903-1.666-2-2-2
		c-0.464,0.008-2,0.174-2,2c0,0.553-0.447,1-1,1s-1-0.447-1-1c0-2.935,2.393-4,4-4s4,1.065,4,4c0,1.964-1.07,2.842-1.852,3.482
		C16.433,16.07,16,16.425,16,17.5C16,18.053,15.553,18.5,15,18.5z"/>
	<circle cx="15" cy="21" r="1"/>
</g>
</svg>
