<?xml version="1.0" encoding="utf-8"?>
<!-- Generator: Adobe Illustrator 16.2.0, SVG Export Plug-In . SVG Version: 6.00 Build 0)  -->
<!DOCTYPE svg PUBLIC "-//W3C//DTD SVG 1.1//EN" "http://www.w3.org/Graphics/SVG/1.1/DTD/svg11.dtd">
<svg version="1.1" id="Layer_1" xmlns="http://www.w3.org/2000/svg" xmlns:xlink="http://www.w3.org/1999/xlink" x="0px" y="0px"
	 width="30px" height="30px" viewBox="0 0 30 30" enable-background="new 0 0 30 30" xml:space="preserve">
<g>
	<path d="M25,13h-3.461l3.375-7.594c0.138-0.31,0.109-0.667-0.075-0.951S24.339,4,24,4h-5c-0.396,0-0.753,0.233-0.914,0.594
		L14.351,13h-2.812l3.375-7.594c0.138-0.31,0.109-0.667-0.075-0.951S14.339,4,14,4H9C8.604,4,8.247,4.233,8.086,4.594l-4,9
		C4.029,13.722,4,13.86,4,14v11c0,0.552,0.447,1,1,1h20c0.553,0,1-0.448,1-1V14C26,13.448,25.553,13,25,13z M6,14.212L9.649,6h2.812
		l-3.375,7.594c-0.138,0.31-0.109,0.667,0.075,0.951S9.661,15,10,15h4v9H6V14.212z M24,24h-8v-9.787L19.649,6h2.812l-3.375,7.594
		c-0.138,0.31-0.109,0.667,0.075,0.951S19.661,15,20,15h4V24z"/>
</g>
</svg>
