<?xml version="1.0" encoding="utf-8"?>
<!-- Generator: Adobe Illustrator 16.2.0, SVG Export Plug-In . SVG Version: 6.00 Build 0)  -->
<!DOCTYPE svg PUBLIC "-//W3C//DTD SVG 1.1//EN" "http://www.w3.org/Graphics/SVG/1.1/DTD/svg11.dtd">
<svg version="1.1" id="Layer_1" xmlns="http://www.w3.org/2000/svg" xmlns:xlink="http://www.w3.org/1999/xlink" x="0px" y="0px"
	 width="30px" height="30px" viewBox="0 0 30 30" enable-background="new 0 0 30 30" xml:space="preserve">
<g>
	<path d="M24,10H12.57l10.854-5.095c0.5-0.235,0.715-0.83,0.48-1.33c-0.234-0.499-0.826-0.717-1.33-0.48l-14.7,6.9
		C7.872,9.996,7.87,9.999,7.868,10H6c-1.654,0-3,1.346-3,3v11c0,1.654,1.346,3,3,3h18c1.654,0,3-1.346,3-3V13
		C27,11.346,25.654,10,24,10z M25,24c0,0.551-0.448,1-1,1H6c-0.552,0-1-0.449-1-1V13c0-0.551,0.448-1,1-1h18c0.552,0,1,0.449,1,1V24
		z"/>
	<path d="M14,22.999c-0.553,0-1-0.448-1-1v-7c0-0.552,0.447-1,1-1s1,0.448,1,1v7C15,22.551,14.553,22.999,14,22.999z"/>
	<path d="M18,23c-0.553,0-1-0.448-1-1v-7c0-0.552,0.447-1,1-1s1,0.448,1,1v7C19,22.552,18.553,23,18,23z"/>
	<path d="M22,23c-0.553,0-1-0.448-1-1v-7c0-0.552,0.447-1,1-1s1,0.448,1,1v7C23,22.552,22.553,23,22,23z"/>
	<circle cx="8.5" cy="15.5" r="1.5"/>
	<circle cx="8.5" cy="19.5" r="1.5"/>
</g>
</svg>
