<?xml version="1.0" encoding="utf-8"?>
<!-- Generator: Adobe Illustrator 16.2.0, SVG Export Plug-In . SVG Version: 6.00 Build 0)  -->
<!DOCTYPE svg PUBLIC "-//W3C//DTD SVG 1.1//EN" "http://www.w3.org/Graphics/SVG/1.1/DTD/svg11.dtd">
<svg version="1.1" id="Layer_1" xmlns="http://www.w3.org/2000/svg" xmlns:xlink="http://www.w3.org/1999/xlink" x="0px" y="0px"
	 width="30px" height="30px" viewBox="0 0 30 30" enable-background="new 0 0 30 30" xml:space="preserve">
<g>
	<path d="M26.697,15.289c-0.188-0.188-0.441-0.293-0.707-0.293h-7.135c-0.089-0.342-0.207-0.68-0.392-1
		c-0.183-0.316-0.407-0.602-0.663-0.852l3.561-6.167c0.133-0.229,0.168-0.503,0.1-0.76c-0.069-0.256-0.237-0.475-0.467-0.606
		C17.286,3.476,12.69,3.474,9,5.604C8.771,5.736,8.603,5.955,8.534,6.211S8.501,6.74,8.634,6.97l3.571,6.186
		c-0.523,0.516-0.895,1.15-1.072,1.841H4.01c-0.552,0-0.999,0.446-1,0.998c-0.003,2.11,0.549,4.186,1.598,6.002
		c1.048,1.815,2.569,3.332,4.398,4.385c0.157,0.091,0.329,0.134,0.498,0.134c0.346,0,0.682-0.18,0.867-0.5l3.561-6.167
		c0.345,0.096,0.704,0.148,1.071,0.148c0.361,0,0.72-0.052,1.066-0.148l3.564,6.175c0.133,0.229,0.352,0.397,0.607,0.466
		c0.085,0.022,0.172,0.034,0.259,0.034c0.174,0,0.347-0.046,0.5-0.134c3.69-2.131,5.985-6.113,5.99-10.392
		C26.99,15.731,26.886,15.478,26.697,15.289z M19.104,6.889l-3.035,5.256c-0.345-0.096-0.704-0.148-1.071-0.148
		c-0.361,0-0.72,0.052-1.066,0.148L10.892,6.88C13.49,5.713,16.495,5.716,19.104,6.889z M9.163,24.106
		c-1.151-0.825-2.117-1.887-2.823-3.11c-0.707-1.225-1.143-2.591-1.282-4h6.087c0.089,0.342,0.207,0.68,0.392,1
		c0.183,0.316,0.407,0.602,0.663,0.852L9.163,24.106z M13.269,16.996c-0.552-0.955-0.224-2.181,0.731-2.731
		c0.304-0.176,0.649-0.269,0.997-0.269c0.714,0,1.379,0.383,1.734,1c0.552,0.955,0.224,2.181-0.731,2.731
		C15.072,18.265,13.797,17.913,13.269,16.996z M20.841,24.112l-3.046-5.275c0.523-0.516,0.895-1.15,1.072-1.841h6.071
		C24.649,19.843,23.15,22.444,20.841,24.112z"/>
</g>
</svg>
