<?xml version="1.0" encoding="utf-8"?>
<!-- Generator: Adobe Illustrator 16.2.0, SVG Export Plug-In . SVG Version: 6.00 Build 0)  -->
<!DOCTYPE svg PUBLIC "-//W3C//DTD SVG 1.1//EN" "http://www.w3.org/Graphics/SVG/1.1/DTD/svg11.dtd">
<svg version="1.1" id="Layer_1" xmlns="http://www.w3.org/2000/svg" xmlns:xlink="http://www.w3.org/1999/xlink" x="0px" y="0px"
	 width="30px" height="30px" viewBox="0 0 30 30" enable-background="new 0 0 30 30" xml:space="preserve">
<g>
	<path d="M4,26c-0.076,0-0.153-0.009-0.23-0.026C3.319,25.866,3,25.464,3,25c0-9.008,2.158-14.385,13-14.949V5
		c0-0.403,0.242-0.768,0.615-0.923c0.372-0.155,0.801-0.073,1.088,0.212l9,8.896c0.188,0.187,0.295,0.44,0.297,0.705
		c0.001,0.266-0.103,0.521-0.289,0.709l-9,9.104c-0.285,0.288-0.717,0.376-1.091,0.222C16.245,23.771,16,23.405,16,23v-5h-1
		c-5.657,0-8.372,3.979-10.105,7.447C4.722,25.792,4.373,26,4,26z M18,7.395v3.619c0,0.543-0.433,0.986-0.975,1
		c-8.54,0.211-11.203,3.132-11.849,9.096C7.186,18.405,10.207,16,15,16h2c0.552,0,1,0.447,1,1v3.566l6.586-6.662L18,7.395z"/>
</g>
</svg>
