<?xml version="1.0" encoding="utf-8"?>
<!-- Generator: Adobe Illustrator 16.2.0, SVG Export Plug-In . SVG Version: 6.00 Build 0)  -->
<!DOCTYPE svg PUBLIC "-//W3C//DTD SVG 1.1//EN" "http://www.w3.org/Graphics/SVG/1.1/DTD/svg11.dtd">
<svg version="1.1" id="Layer_1" xmlns="http://www.w3.org/2000/svg" xmlns:xlink="http://www.w3.org/1999/xlink" x="0px" y="0px"
	 width="30px" height="30px" viewBox="0 0 30 30" enable-background="new 0 0 30 30" xml:space="preserve">
<g>
	<path d="M26.707,3.293c-0.391-0.391-1.023-0.391-1.414,0L21.076,7.51c-1.092-1.276-2.576-2.202-4.266-2.595
		c-0.026-0.036-0.042-0.08-0.073-0.111l-0.905-1.358c-0.371-0.557-1.293-0.557-1.664,0l-0.979,1.47C9.648,5.739,7,8.913,7,12.7V17
		c0,2.401-2.502,4.132-2.557,4.169c-0.027,0.019-0.042,0.047-0.067,0.068c-0.053,0.043-0.099,0.089-0.142,0.143
		c-0.04,0.05-0.075,0.1-0.105,0.156c-0.029,0.055-0.051,0.111-0.07,0.172c-0.02,0.066-0.033,0.13-0.04,0.199
		C4.016,21.939,4,21.967,4,22c0,0.032,0.016,0.059,0.018,0.089c0.007,0.067,0.021,0.13,0.04,0.196
		c0.02,0.066,0.044,0.126,0.076,0.186c0.015,0.027,0.017,0.057,0.034,0.083c0.029,0.043,0.065,0.078,0.1,0.115
		c0.015,0.016,0.026,0.034,0.043,0.049c0.082,0.079,0.175,0.14,0.275,0.186c0.021,0.01,0.044,0.017,0.066,0.025
		C4.764,22.971,4.879,23,4.998,23C4.999,23,5,23,5,23h0.586l-2.293,2.293c-0.391,0.391-0.391,1.023,0,1.414
		C3.488,26.902,3.744,27,4,27s0.512-0.098,0.707-0.293L8.414,23H11c0,2.206,1.794,4,4,4s4-1.794,4-4h6
		c0.034,0,0.063-0.016,0.097-0.02c0.065-0.006,0.126-0.019,0.189-0.038c0.065-0.02,0.125-0.043,0.184-0.075
		c0.052-0.028,0.097-0.06,0.143-0.096c0.059-0.046,0.109-0.096,0.156-0.155c0.019-0.022,0.044-0.035,0.061-0.06
		c0.017-0.024,0.019-0.052,0.032-0.077c0.035-0.063,0.062-0.129,0.082-0.2c0.019-0.061,0.031-0.119,0.037-0.181
		C25.983,22.064,26,22.035,26,22c0-0.036-0.017-0.065-0.021-0.1c-0.006-0.063-0.019-0.123-0.037-0.184
		c-0.02-0.066-0.043-0.127-0.075-0.187c-0.028-0.052-0.061-0.098-0.098-0.145c-0.045-0.056-0.093-0.105-0.148-0.15
		c-0.024-0.02-0.038-0.047-0.064-0.065C25.531,21.152,23,19.415,23,17v-4.3c0-1.248-0.295-2.425-0.808-3.479l4.515-4.514
		C27.098,4.316,27.098,3.684,26.707,3.293z M7.481,21C8.27,20.004,9,18.643,9,17v-4.3c0-3.309,2.691-6,6-6
		c1.88,0,3.559,0.87,4.659,2.227L7.586,21H7.481z M15,25c-1.103,0-2-0.897-2-2h4C17,24.103,16.103,25,15,25z M21,12.7V17
		c0,1.643,0.73,3.004,1.519,4H10.414l10.253-10.253C20.879,11.36,21,12.016,21,12.7z"/>
</g>	
</svg>
