<?xml version="1.0" encoding="utf-8"?>
<!-- Generator: Adobe Illustrator 16.2.0, SVG Export Plug-In . SVG Version: 6.00 Build 0)  -->
<!DOCTYPE svg PUBLIC "-//W3C//DTD SVG 1.1//EN" "http://www.w3.org/Graphics/SVG/1.1/DTD/svg11.dtd">
<svg version="1.1" id="Layer_1" xmlns="http://www.w3.org/2000/svg" xmlns:xlink="http://www.w3.org/1999/xlink" x="0px" y="0px"
	 width="30px" height="30px" viewBox="0 0 30 30" enable-background="new 0 0 30 30" xml:space="preserve">
<g>
	<path d="M16.414,15l7.293-7.293c0.391-0.391,0.391-1.023,0-1.414s-1.023-0.391-1.414,0L15,13.586L7.707,6.293
		c-0.391-0.391-1.023-0.391-1.414,0s-0.391,1.023,0,1.414L13.586,15l-7.293,7.293c-0.391,0.391-0.391,1.023,0,1.414
		C6.488,23.902,6.744,24,7,24s0.512-0.098,0.707-0.293L15,16.414l7.293,7.293C22.488,23.902,22.744,24,23,24s0.512-0.098,0.707-0.293
		c0.391-0.391,0.391-1.023,0-1.414L16.414,15z"/>
</g>
</svg>
