<?xml version="1.0" encoding="utf-8"?>
<!-- Generator: Adobe Illustrator 16.2.0, SVG Export Plug-In . SVG Version: 6.00 Build 0)  -->
<!DOCTYPE svg PUBLIC "-//W3C//DTD SVG 1.1//EN" "http://www.w3.org/Graphics/SVG/1.1/DTD/svg11.dtd">
<svg version="1.1" id="Layer_1" xmlns="http://www.w3.org/2000/svg" xmlns:xlink="http://www.w3.org/1999/xlink" x="0px" y="0px"
	 width="30px" height="30px" viewBox="0 0 30 30" enable-background="new 0 0 30 30" xml:space="preserve">
<g>
	<path d="M25,4c-0.553,0-1,0.447-1,1v3.701C21.96,5.77,18.646,4,15,4C8.935,4,4,8.935,4,15c0,0.553,0.447,1,1,1s1-0.447,1-1
		c0-4.963,4.037-9,9-9c3.045,0,5.808,1.509,7.467,4H19c-0.553,0-1,0.447-1,1s0.447,1,1,1h6c0.553,0,1-0.447,1-1V5
		C26,4.447,25.553,4,25,4z"/>
	<path d="M25,14c-0.553,0-1,0.447-1,1c0,4.963-4.037,9-9,9c-3.045,0-5.808-1.509-7.467-4H11c0.553,0,1-0.447,1-1s-0.447-1-1-1H5
		c-0.553,0-1,0.447-1,1v6c0,0.553,0.447,1,1,1s1-0.447,1-1v-3.701C8.04,24.23,11.354,26,15,26c6.065,0,11-4.935,11-11
		C26,14.447,25.553,14,25,14z"/>
</g>
</svg>
