<?xml version="1.0" encoding="utf-8"?>
<!-- Generator: Adobe Illustrator 16.2.0, SVG Export Plug-In . SVG Version: 6.00 Build 0)  -->
<!DOCTYPE svg PUBLIC "-//W3C//DTD SVG 1.1//EN" "http://www.w3.org/Graphics/SVG/1.1/DTD/svg11.dtd">
<svg version="1.1" id="Layer_1" xmlns="http://www.w3.org/2000/svg" xmlns:xlink="http://www.w3.org/1999/xlink" x="0px" y="0px"
	 width="30px" height="30px" viewBox="0 0 30 30" enable-background="new 0 0 30 30" xml:space="preserve">
<g>
	<path d="M12,5c0-0.553-0.447-1-1-1H5C4.447,4,4,4.447,4,5v6c0,0.553,0.447,1,1,1s1-0.447,1-1V7.414l4.293,4.293
		C10.488,11.902,10.744,12,11,12s0.512-0.098,0.707-0.293c0.391-0.391,0.391-1.023,0-1.414L7.414,6H11C11.553,6,12,5.553,12,5z"/>
	<path d="M11.707,18.293c-0.391-0.391-1.023-0.391-1.414,0L6,22.586V19c0-0.553-0.447-1-1-1s-1,0.447-1,1v6c0,0.553,0.447,1,1,1h6
		c0.553,0,1-0.447,1-1s-0.447-1-1-1H7.414l4.293-4.293C12.098,19.316,12.098,18.684,11.707,18.293z"/>
	<path d="M25,4h-6c-0.553,0-1,0.447-1,1s0.447,1,1,1h3.586l-4.293,4.293c-0.391,0.391-0.391,1.023,0,1.414
		C18.488,11.902,18.744,12,19,12s0.512-0.098,0.707-0.293L24,7.414V11c0,0.553,0.447,1,1,1s1-0.447,1-1V5C26,4.447,25.553,4,25,4z"
		/>
	<path d="M25,18c-0.553,0-1,0.447-1,1v3.586l-4.293-4.293c-0.391-0.391-1.023-0.391-1.414,0s-0.391,1.023,0,1.414L22.586,24H19
		c-0.553,0-1,0.447-1,1s0.447,1,1,1h6c0.553,0,1-0.447,1-1v-6C26,18.447,25.553,18,25,18z"/>
</g>
</svg>
