<?xml version="1.0" encoding="utf-8"?>
<!-- Generator: Adobe Illustrator 16.2.0, SVG Export Plug-In . SVG Version: 6.00 Build 0)  -->
<!DOCTYPE svg PUBLIC "-//W3C//DTD SVG 1.1//EN" "http://www.w3.org/Graphics/SVG/1.1/DTD/svg11.dtd">
<svg version="1.1" id="Layer_1" xmlns="http://www.w3.org/2000/svg" xmlns:xlink="http://www.w3.org/1999/xlink" x="0px" y="0px"
	 width="30px" height="30px" viewBox="0 0 30 30" enable-background="new 0 0 30 30" xml:space="preserve">
<g>
	<path d="M16,24c-0.24,0-0.478-0.087-0.664-0.253l-9-8C6.122,15.558,6,15.285,6,15s0.122-0.558,0.336-0.747l9-8
		c0.295-0.262,0.716-0.328,1.073-0.165C16.769,6.249,17,6.606,17,7v3.842l5.348-4.6c0.298-0.256,0.714-0.312,1.069-0.151
		C23.772,6.254,24,6.609,24,7v16c0,0.391-0.228,0.746-0.583,0.909c-0.355,0.161-0.771,0.104-1.069-0.151L17,19.158V23
		c0,0.394-0.231,0.751-0.591,0.912C16.278,23.972,16.139,24,16,24z M16,15.979c0.234,0,0.467,0.083,0.652,0.242L22,20.82V9.18
		l-5.348,4.6c-0.298,0.255-0.714,0.313-1.069,0.151C15.228,13.768,15,13.412,15,13.021V9.227L8.505,15L15,20.773v-3.795
		c0-0.391,0.228-0.746,0.583-0.909C15.717,16.009,15.858,15.979,16,15.979z"/>
</g>
</svg>
