<?xml version="1.0" encoding="utf-8"?>
<!-- Generator: Adobe Illustrator 16.2.0, SVG Export Plug-In . SVG Version: 6.00 Build 0)  -->
<!DOCTYPE svg PUBLIC "-//W3C//DTD SVG 1.1//EN" "http://www.w3.org/Graphics/SVG/1.1/DTD/svg11.dtd">
<svg version="1.1" id="Layer_1" xmlns="http://www.w3.org/2000/svg" xmlns:xlink="http://www.w3.org/1999/xlink" x="0px" y="0px"
	 width="30px" height="30px" viewBox="0 0 30 30" enable-background="new 0 0 30 30" xml:space="preserve">
<g>
	<path d="M26,18H10V6.5C10,5.121,8.878,4,7.5,4S5,5.121,5,6.5V18H4c-0.552,0-1,0.447-1,1v6c0,0.553,0.448,1,1,1h22
		c0.552,0,1-0.447,1-1v-6C27,18.447,26.552,18,26,18z M7,6.5C7,6.225,7.224,6,7.5,6S8,6.225,8,6.5V18H7V6.5z M25,24H5v-4h20V24z"/>
	<path d="M17,23h1c0.552,0,1-0.447,1-1s-0.448-1-1-1h-1c-0.552,0-1,0.447-1,1S16.448,23,17,23z"/>
	<path d="M21,23h1c0.552,0,1-0.447,1-1s-0.448-1-1-1h-1c-0.552,0-1,0.447-1,1S20.448,23,21,23z"/>
	<path d="M24,16c-0.552,0-1-0.447-1-1c0-5.514-4.486-10-10-10c-0.552,0-1-0.447-1-1s0.448-1,1-1c6.617,0,12,5.383,12,12
		C25,15.553,24.552,16,24,16z"/>
	<path d="M20,16c-0.552,0-1-0.447-1-1c0-3.309-2.691-6-6-6c-0.552,0-1-0.447-1-1s0.448-1,1-1c4.411,0,8,3.589,8,8
		C21,15.553,20.552,16,20,16z"/>
	<path d="M16,16c-0.552,0-1-0.447-1-1c0-1.103-0.897-2-2-2c-0.552,0-1-0.447-1-1s0.448-1,1-1c2.206,0,4,1.794,4,4
		C17,15.553,16.552,16,16,16z"/>
</g>
</svg>
