<?xml version="1.0" encoding="utf-8"?>
<!-- Generator: Adobe Illustrator 16.2.0, SVG Export Plug-In . SVG Version: 6.00 Build 0)  -->
<!DOCTYPE svg PUBLIC "-//W3C//DTD SVG 1.1//EN" "http://www.w3.org/Graphics/SVG/1.1/DTD/svg11.dtd">
<svg version="1.1" id="Layer_1" xmlns="http://www.w3.org/2000/svg" xmlns:xlink="http://www.w3.org/1999/xlink" x="0px" y="0px"
	 width="30px" height="30px" viewBox="0 0 30 30" enable-background="new 0 0 30 30" xml:space="preserve">
<g>
	<path d="M26.707,10.293l-7-7c-0.391-0.391-1.023-0.391-1.414,0l-15,15c-0.391,0.391-0.391,1.023,0,1.414l7,7
		C10.488,26.902,10.744,27,11,27s0.512-0.098,0.707-0.293l15-15C27.098,11.316,27.098,10.684,26.707,10.293z M11,24.586L5.414,19
		L7,17.414l2.393,2.393C9.588,20.002,9.844,20.1,10.1,20.1s0.512-0.098,0.707-0.293c0.391-0.391,0.391-1.023,0-1.414L8.414,16
		L10,14.414l1.393,1.393c0.195,0.195,0.451,0.293,0.707,0.293s0.512-0.098,0.707-0.293c0.391-0.391,0.391-1.023,0-1.414L11.414,13
		L13,11.414l2.393,2.393c0.195,0.195,0.451,0.293,0.707,0.293s0.512-0.098,0.707-0.293c0.391-0.391,0.391-1.023,0-1.414L14.414,10
		L16,8.414l1.393,1.393c0.195,0.195,0.451,0.293,0.707,0.293s0.512-0.098,0.707-0.293c0.391-0.391,0.391-1.023,0-1.414L17.414,7
		L19,5.414L24.586,11L11,24.586z"/>
</g>
</svg>
