<?xml version="1.0" encoding="utf-8"?>
<!-- Generator: Adobe Illustrator 16.2.0, SVG Export Plug-In . SVG Version: 6.00 Build 0)  -->
<!DOCTYPE svg PUBLIC "-//W3C//DTD SVG 1.1//EN" "http://www.w3.org/Graphics/SVG/1.1/DTD/svg11.dtd">
<svg version="1.1" id="Layer_1" xmlns="http://www.w3.org/2000/svg" xmlns:xlink="http://www.w3.org/1999/xlink" x="0px" y="0px"
	 width="30px" height="30px" viewBox="0 0 30 30" enable-background="new 0 0 30 30" xml:space="preserve">
<g>
	<path d="M26,3H7.5C7.235,3,6.98,3.105,6.793,3.293l-3.5,3.5C3.105,6.98,3,7.235,3,7.5V26c0,0.552,0.448,1,1,1h22
		c0.552,0,1-0.448,1-1V4C27,3.448,26.552,3,26,3z M11,5h8v6h-8V5z M21,25H9v-7h12V25z M25,25h-2v-8c0-0.552-0.448-1-1-1H8
		c-0.552,0-1,0.448-1,1v8H5V7.914L7.914,5H9v7c0,0.552,0.448,1,1,1h10c0.552,0,1-0.448,1-1V5h4V25z"/>
	<path d="M17,6c-0.552,0-1,0.448-1,1v2c0,0.552,0.448,1,1,1s1-0.448,1-1V7C18,6.448,17.552,6,17,6z"/>
</g>
</svg>
