<?xml version="1.0" encoding="utf-8"?>
<!-- Generator: Adobe Illustrator 16.2.0, SVG Export Plug-In . SVG Version: 6.00 Build 0)  -->
<!DOCTYPE svg PUBLIC "-//W3C//DTD SVG 1.1//EN" "http://www.w3.org/Graphics/SVG/1.1/DTD/svg11.dtd">
<svg version="1.1" id="Layer_1" xmlns="http://www.w3.org/2000/svg" xmlns:xlink="http://www.w3.org/1999/xlink" x="0px" y="0px"
	 width="30px" height="30px" viewBox="0 0 30 30" enable-background="new 0 0 30 30" xml:space="preserve">
<g>
	<path d="M27.895,17.553L24.618,11H26c0.553,0,1-0.447,1-1s-0.447-1-1-1h-2.615C22.509,8.253,19.893,6.354,16,6.06V4
		c0-0.553-0.448-1-1-1s-1,0.447-1,1v2.06C10.108,6.354,7.491,8.253,6.616,9H4c-0.552,0-1,0.447-1,1s0.448,1,1,1h1.382l-3.276,6.553
		C2.036,17.691,2,17.845,2,18c0,2.757,2.243,5,5,5s5-2.243,5-5c0-0.155-0.036-0.309-0.105-0.447l-3.647-7.295
		C9.157,9.566,11.177,8.304,14,8.05V25H9c-0.552,0-1,0.447-1,1s0.448,1,1,1h12c0.553,0,1-0.447,1-1s-0.447-1-1-1h-5V8.05
		c2.824,0.254,4.845,1.518,5.753,2.208l-3.647,7.295C18.036,17.691,18,17.845,18,18c0,2.757,2.243,5,5,5s5-2.243,5-5
		C28,17.845,27.964,17.691,27.895,17.553z M9.382,17H4.618L7,12.236L9.382,17z M7,21c-1.301,0-2.4-0.839-2.815-2h5.63
		C9.4,20.161,8.301,21,7,21z M25.382,17h-4.764L23,12.236L25.382,17z M23,21c-1.302,0-2.4-0.839-2.815-2h5.631
		C25.4,20.161,24.302,21,23,21z"/>
</g>
</svg>
