<?xml version="1.0" encoding="utf-8"?>
<!-- Generator: Adobe Illustrator 16.2.0, SVG Export Plug-In . SVG Version: 6.00 Build 0)  -->
<!DOCTYPE svg PUBLIC "-//W3C//DTD SVG 1.1//EN" "http://www.w3.org/Graphics/SVG/1.1/DTD/svg11.dtd">
<svg version="1.1" id="Layer_1" xmlns="http://www.w3.org/2000/svg" xmlns:xlink="http://www.w3.org/1999/xlink" x="0px" y="0px"
	 width="30px" height="30px" viewBox="0 0 30 30" enable-background="new 0 0 30 30" xml:space="preserve">
<g>
	<path d="M19,26c-0.553,0-1-0.447-1-1v-6c0-0.553,0.447-1,1-1h6c0.553,0,1,0.447,1,1s-0.447,1-1,1h-5v5C20,25.553,19.553,26,19,26z
		"/>
	<path d="M11,26c-0.553,0-1-0.447-1-1v-5H5c-0.553,0-1-0.447-1-1s0.447-1,1-1h6c0.553,0,1,0.447,1,1v6C12,25.553,11.553,26,11,26z"
		/>
	<path d="M25,12h-6c-0.553,0-1-0.447-1-1V5c0-0.553,0.447-1,1-1s1,0.447,1,1v5h5c0.553,0,1,0.447,1,1S25.553,12,25,12z"/>
	<path d="M11,12H5c-0.553,0-1-0.447-1-1s0.447-1,1-1h5V5c0-0.553,0.447-1,1-1s1,0.447,1,1v6C12,11.553,11.553,12,11,12z"/>
</g>
</svg>
