<?xml version="1.0" encoding="utf-8"?>
<!-- Generator: Adobe Illustrator 16.2.0, SVG Export Plug-In . SVG Version: 6.00 Build 0)  -->
<!DOCTYPE svg PUBLIC "-//W3C//DTD SVG 1.1//EN" "http://www.w3.org/Graphics/SVG/1.1/DTD/svg11.dtd">
<svg version="1.1" id="Layer_1" xmlns="http://www.w3.org/2000/svg" xmlns:xlink="http://www.w3.org/1999/xlink" x="0px" y="0px"
	 width="30px" height="30px" viewBox="0 0 30 30" enable-background="new 0 0 30 30" xml:space="preserve">
<g>
	<path d="M22,10h-1c-0.553,0-1,0.448-1,1s0.447,1,1,1h1c0.553,0,1-0.448,1-1S22.553,10,22,10z"/>
	<path d="M22,16h-1c-0.553,0-1,0.448-1,1s0.447,1,1,1h1c0.553,0,1-0.448,1-1S22.553,16,22,16z"/>
	<path d="M26.923,7.618c-0.051-0.123-0.124-0.233-0.217-0.326l-3.999-4C22.52,3.105,22.266,3,22,3H8C7.735,3,7.48,3.105,7.293,3.293
		l-4,4C3.201,7.385,3.128,7.496,3.077,7.618C3.027,7.74,3,7.87,3,8v18c0,0.552,0.448,1,1,1h22c0.553,0,1-0.448,1-1V8
		C27,7.87,26.974,7.74,26.923,7.618z M5,15h20v4H5V15z M5,13V9h20v4H5z M8.414,5h13.172l2,2H6.414L8.414,5z M5,25v-4h20v4H5z"/>
	<path d="M22,22h-1c-0.553,0-1,0.448-1,1s0.447,1,1,1h1c0.553,0,1-0.448,1-1S22.553,22,22,22z"/>
</g>
</svg>
