<?xml version="1.0" encoding="utf-8"?>
<!-- Generator: Adobe Illustrator 16.2.0, SVG Export Plug-In . SVG Version: 6.00 Build 0)  -->
<!DOCTYPE svg PUBLIC "-//W3C//DTD SVG 1.1//EN" "http://www.w3.org/Graphics/SVG/1.1/DTD/svg11.dtd">
<svg version="1.1" id="Layer_1" xmlns="http://www.w3.org/2000/svg" xmlns:xlink="http://www.w3.org/1999/xlink" x="0px" y="0px"
	 width="30px" height="30px" viewBox="0 0 30 30" enable-background="new 0 0 30 30" xml:space="preserve">
<g>
	<path d="M21,17c-1.478,0-2.793,0.657-3.709,1.679l-3.575-2.085C13.887,16.09,14,15.561,14,15s-0.113-1.09-0.284-1.593l3.575-2.085
		C18.207,12.344,19.522,13,21,13c2.757,0,5-2.243,5-5s-2.243-5-5-5s-5,2.243-5,5c0,0.56,0.113,1.09,0.284,1.593l-3.575,2.085
		C11.793,10.657,10.478,10,9,10c-2.757,0-5,2.243-5,5s2.243,5,5,5c1.478,0,2.793-0.657,3.709-1.679l3.575,2.085
		C16.113,20.911,16,21.44,16,22c0,2.757,2.243,5,5,5s5-2.243,5-5S23.757,17,21,17z M21,5c1.654,0,3,1.346,3,3s-1.346,3-3,3
		s-3-1.346-3-3S19.346,5,21,5z M9,18c-1.654,0-3-1.346-3-3s1.346-3,3-3s3,1.346,3,3S10.654,18,9,18z M21,25c-1.654,0-3-1.346-3-3
		s1.346-3,3-3s3,1.346,3,3S22.654,25,21,25z"/>
</g>
</svg>
