<?xml version="1.0" encoding="utf-8"?>
<!-- Generator: Adobe Illustrator 16.2.0, SVG Export Plug-In . SVG Version: 6.00 Build 0)  -->
<!DOCTYPE svg PUBLIC "-//W3C//DTD SVG 1.1//EN" "http://www.w3.org/Graphics/SVG/1.1/DTD/svg11.dtd">
<svg version="1.1" id="Layer_1" xmlns="http://www.w3.org/2000/svg" xmlns:xlink="http://www.w3.org/1999/xlink" x="0px" y="0px"
	 width="30px" height="30px" viewBox="0 0 30 30" enable-background="new 0 0 30 30" xml:space="preserve">
<g>
	<path d="M26.68,10.68l-8-7.413c-0.292-0.271-0.717-0.342-1.08-0.183C17.235,3.243,17,3.603,17,4v4.102C11.026,8.757,8,12.755,8,20
		c0,0.443,0.292,0.834,0.717,0.959C8.811,20.987,8.906,21,9,21c0.333,0,0.652-0.167,0.84-0.458c1.525-2.361,3.692-5.042,7.16-5.48
		V19c0,0.399,0.238,0.761,0.605,0.919c0.364,0.158,0.792,0.082,1.083-0.193l8-7.587c0.2-0.19,0.313-0.455,0.312-0.731
		S26.883,10.868,26.68,10.68z M19,16.674V14c0-0.552-0.447-1-1-1c-3.453,0-5.931,1.702-7.726,3.663
		c0.793-4.29,3.317-6.419,7.774-6.638C18.582,9.999,19,9.56,19,9.026V6.291l5.538,5.131L19,16.674z"/>
	<path d="M25,17c-0.553,0-1,0.448-1,1v6H6V6h7c0.553,0,1-0.448,1-1s-0.447-1-1-1H5C4.447,4,4,4.448,4,5v20c0,0.552,0.447,1,1,1h20
		c0.553,0,1-0.448,1-1v-7C26,17.448,25.553,17,25,17z"/>
</g>
</svg>
