<?xml version="1.0" encoding="utf-8"?>
<!-- Generator: Adobe Illustrator 16.2.0, SVG Export Plug-In . SVG Version: 6.00 Build 0)  -->
<!DOCTYPE svg PUBLIC "-//W3C//DTD SVG 1.1//EN" "http://www.w3.org/Graphics/SVG/1.1/DTD/svg11.dtd">
<svg version="1.1" id="Layer_1" xmlns="http://www.w3.org/2000/svg" xmlns:xlink="http://www.w3.org/1999/xlink" x="0px" y="0px"
	 width="30px" height="30px" viewBox="0 0 30 30" enable-background="new 0 0 30 30" xml:space="preserve">
<g>
	<path d="M13,19c-0.256,0-0.512-0.098-0.707-0.293l-4-4c-0.391-0.391-0.391-1.023,0-1.414s1.023-0.391,1.414,0L13,16.586
		l7.293-7.293c0.391-0.391,1.023-0.391,1.414,0s0.391,1.023,0,1.414l-8,8C13.512,18.902,13.256,19,13,19z"/>
	<path d="M15,27c-0.097,0-0.194-0.014-0.287-0.042C14.275,26.827,4,23.656,4,16V4c0-0.552,0.448-1,1-1h20c0.552,0,1,0.448,1,1v12
		c0,7.656-10.275,10.827-10.713,10.958C15.194,26.986,15.097,27,15,27z M6,5v11c0,5.544,7.431,8.405,9,8.947
		c1.569-0.542,9-3.403,9-8.947V5H6z"/>
</g>
</svg>
