<?xml version="1.0" encoding="utf-8"?>
<!-- Generator: Adobe Illustrator 16.2.0, SVG Export Plug-In . SVG Version: 6.00 Build 0)  -->
<!DOCTYPE svg PUBLIC "-//W3C//DTD SVG 1.1//EN" "http://www.w3.org/Graphics/SVG/1.1/DTD/svg11.dtd">
<svg version="1.1" id="Layer_1" xmlns="http://www.w3.org/2000/svg" xmlns:xlink="http://www.w3.org/1999/xlink" x="0px" y="0px"
	 width="30px" height="30px" viewBox="0 0 30 30" enable-background="new 0 0 30 30" xml:space="preserve">
<g>
	<path d="M15,27c-0.097,0-0.194-0.014-0.287-0.042C14.275,26.827,4,23.656,4,16V4c0-0.552,0.448-1,1-1h20c0.552,0,1,0.448,1,1v12
		c0,7.656-10.275,10.827-10.713,10.958C15.194,26.986,15.097,27,15,27z M6,5v11c0,5.544,7.431,8.405,9,8.947
		c1.569-0.542,9-3.403,9-8.947V5H6z"/>
	<path d="M15,8c-3.309,0-6,2.691-6,6s2.691,6,6,6s6-2.691,6-6S18.309,8,15,8z M15,10c0.74,0,1.424,0.215,2.019,0.567l-5.452,5.452
		C11.215,15.424,11,14.74,11,14C11,11.794,12.794,10,15,10z M15,18c-0.74,0-1.424-0.215-2.019-0.567l5.452-5.452
		C18.785,12.576,19,13.26,19,14C19,16.206,17.206,18,15,18z"/>
</g>
</svg>
