<?xml version="1.0" encoding="utf-8"?>
<!-- Generator: Adobe Illustrator 16.2.0, SVG Export Plug-In . SVG Version: 6.00 Build 0)  -->
<!DOCTYPE svg PUBLIC "-//W3C//DTD SVG 1.1//EN" "http://www.w3.org/Graphics/SVG/1.1/DTD/svg11.dtd">
<svg version="1.1" id="Layer_1" xmlns="http://www.w3.org/2000/svg" xmlns:xlink="http://www.w3.org/1999/xlink" x="0px" y="0px"
	 width="30px" height="30px" viewBox="0 0 30 30" enable-background="new 0 0 30 30" xml:space="preserve">
<g>
	<path d="M15,27c-0.097,0-0.194-0.014-0.287-0.042C14.275,26.827,4,23.656,4,16V4c0-0.552,0.448-1,1-1h20c0.552,0,1,0.448,1,1v12
		c0,7.656-10.275,10.827-10.713,10.958C15.194,26.986,15.097,27,15,27z M6,5v11c0,5.544,7.431,8.405,9,8.947
		c1.569-0.542,9-3.403,9-8.947V5H6z"/>
	<path d="M20,11h-1v-1c0-2.206-1.794-4-4-4s-4,1.794-4,4v1h-1c-0.552,0-1,0.448-1,1v6.286c0,0.117,0.021,0.233,0.061,0.342
		C9.205,19.024,10.17,21,15,21s5.795-1.976,5.939-2.372C20.979,18.519,21,18.402,21,18.286V12C21,11.448,20.552,11,20,11z M13,10
		c0-1.103,0.897-2,2-2s2,0.897,2,2v1h-4V10z M19,17.989C18.736,18.271,17.783,19,15,19c-2.839,0-3.773-0.758-4-0.991V13h8V17.989z"
		/>
	<circle cx="15" cy="16" r="1"/>
</g>
</svg>
