<?xml version="1.0" encoding="utf-8"?>
<!-- Generator: Adobe Illustrator 16.2.0, SVG Export Plug-In . SVG Version: 6.00 Build 0)  -->
<!DOCTYPE svg PUBLIC "-//W3C//DTD SVG 1.1//EN" "http://www.w3.org/Graphics/SVG/1.1/DTD/svg11.dtd">
<svg version="1.1" id="Layer_1" xmlns="http://www.w3.org/2000/svg" xmlns:xlink="http://www.w3.org/1999/xlink" x="0px" y="0px"
	 width="30px" height="30px" viewBox="0 0 30 30" enable-background="new 0 0 30 30" xml:space="preserve">
<g>
	<path d="M28.851,18.475C28.668,18.18,28.347,18,28,18h-2.693l-2.695-1.828c-0.068-0.046-0.145-0.064-0.219-0.092
		c-0.002-0.001-0.004-0.001-0.006-0.002c-0.098-0.035-0.193-0.056-0.294-0.06C22.061,16.016,22.033,16,22,16h-3v-1h6
		c0.393,0,0.748-0.229,0.91-0.587c0.163-0.357,0.101-0.776-0.157-1.071L19,5.624V4c0-0.553-0.447-1-1-1s-1,0.447-1,1v0.563
		L4.321,16.266c-0.302,0.279-0.402,0.715-0.253,1.099C4.219,17.748,4.588,18,5,18h6.014l-1.345,1H2
		c-0.385,0-0.734,0.221-0.901,0.566c-0.166,0.347-0.12,0.758,0.12,1.059l4,5C5.409,25.862,5.696,26,6,26h19
		c0.379,0,0.725-0.214,0.895-0.553l3-6C29.05,19.138,29.033,18.77,28.851,18.475z M22.796,13H19V8.662L22.796,13z M17,7.284V16
		H7.558L17,7.284z M24.382,24H6.48l-2.399-3H10c0.215,0,0.424-0.069,0.597-0.197L14.365,18h7.377l2.696,1.828
		C24.604,19.94,24.8,20,25,20h1.382L24.382,24z"/>
	<path d="M15.29,19.29C15.109,19.479,15,19.729,15,20c0,0.27,0.109,0.52,0.29,0.71C15.479,20.89,15.74,21,16,21s0.52-0.11,0.71-0.29
		C16.89,20.52,17,20.26,17,20s-0.11-0.521-0.29-0.71C16.33,18.92,15.67,18.92,15.29,19.29z"/>
	<path d="M19.29,19.29C19.109,19.479,19,19.74,19,20s0.109,0.52,0.29,0.71C19.479,20.89,19.74,21,20,21s0.52-0.11,0.71-0.29
		C20.89,20.52,21,20.26,21,20s-0.11-0.521-0.29-0.71C20.33,18.92,19.66,18.92,19.29,19.29z"/>
</g>
</svg>
