<?xml version="1.0" encoding="utf-8"?>
<!-- Generator: Adobe Illustrator 16.2.0, SVG Export Plug-In . SVG Version: 6.00 Build 0)  -->
<!DOCTYPE svg PUBLIC "-//W3C//DTD SVG 1.1//EN" "http://www.w3.org/Graphics/SVG/1.1/DTD/svg11.dtd">
<svg version="1.1" id="Layer_1" xmlns="http://www.w3.org/2000/svg" xmlns:xlink="http://www.w3.org/1999/xlink" x="0px" y="0px"
	 width="30px" height="30px" viewBox="0 0 30 30" enable-background="new 0 0 30 30" xml:space="preserve">
<g>
	<path d="M8,10"/>
	<path d="M15,21c-0.553,0-1-0.447-1-1v-3c0-0.553,0.447-1,1-1s1,0.447,1,1v3C16,20.553,15.553,21,15,21z"/>
	<path d="M15,27c-0.553,0-1-0.447-1-1v-3c0-0.553,0.447-1,1-1s1,0.447,1,1v3C16,26.553,15.553,27,15,27z"/>
	<path d="M20.025,20.818c-0.408,0-0.792-0.252-0.939-0.658l-1.025-2.818c-0.189-0.519,0.078-1.093,0.598-1.281
		c0.518-0.188,1.093,0.078,1.281,0.598l1.025,2.818c0.189,0.519-0.078,1.093-0.598,1.281
		C20.255,20.799,20.139,20.818,20.025,20.818z"/>
	<path d="M22.078,26.457c-0.408,0-0.792-0.252-0.939-0.658l-1.026-2.818c-0.189-0.519,0.078-1.093,0.598-1.281
		c0.517-0.189,1.093,0.079,1.281,0.598l1.026,2.818c0.189,0.519-0.078,1.093-0.598,1.281
		C22.308,26.438,22.191,26.457,22.078,26.457z"/>
	<path d="M9.975,20.818c-0.113,0-0.229-0.02-0.342-0.061c-0.52-0.188-0.787-0.763-0.598-1.281l1.025-2.818
		c0.188-0.519,0.766-0.785,1.281-0.598c0.52,0.188,0.787,0.763,0.598,1.281l-1.025,2.818C10.767,20.566,10.383,20.818,9.975,20.818
		z"/>
	<path d="M7.922,26.457c-0.113,0-0.229-0.02-0.342-0.061c-0.52-0.188-0.787-0.763-0.598-1.281l1.026-2.818
		c0.188-0.519,0.766-0.787,1.281-0.598c0.52,0.188,0.787,0.763,0.598,1.281l-1.026,2.818C8.714,26.205,8.33,26.457,7.922,26.457z"
		/>
	<path d="M22,10"/>
	<path d="M22,14H8c-0.431,0-0.813-0.275-0.948-0.684C7.001,13.165,5.918,9.663,12,6.393V4c0-0.553,0.447-1,1-1s1,0.447,1,1v3
		c0,0.379-0.214,0.725-0.553,0.895C10.099,9.568,9.214,11.139,8.998,12h11.998c-0.22-0.862-1.105-2.437-4.443-4.105
		C16.214,7.725,16,7.379,16,7V4c0-0.553,0.447-1,1-1s1,0.447,1,1v2.393c6.082,3.271,4.999,6.772,4.948,6.924
		C22.813,13.725,22.431,14,22,14z"/>
</g>
</svg>
