<?xml version="1.0" encoding="utf-8"?>
<!-- Generator: Adobe Illustrator 16.2.0, SVG Export Plug-In . SVG Version: 6.00 Build 0)  -->
<!DOCTYPE svg PUBLIC "-//W3C//DTD SVG 1.1//EN" "http://www.w3.org/Graphics/SVG/1.1/DTD/svg11.dtd">
<svg version="1.1" id="Layer_1" xmlns="http://www.w3.org/2000/svg" xmlns:xlink="http://www.w3.org/1999/xlink" x="0px" y="0px"
	 width="30px" height="30px" viewBox="0 0 30 30" enable-background="new 0 0 30 30" xml:space="preserve">
<g>
	<path d="M19,10h4.586l-1.293,1.293c-0.391,0.391-0.391,1.023,0,1.414C22.488,12.902,22.744,13,23,13s0.512-0.098,0.707-0.293l3-3
		c0.391-0.391,0.391-1.023,0-1.414l-3-3c-0.391-0.391-1.023-0.391-1.414,0s-0.391,1.023,0,1.414L23.586,8H19
		c-4.371,0-6.593,3.854-8.553,7.254C9.041,17.694,7.712,20,6,20H4c-0.553,0-1,0.447-1,1s0.447,1,1,1h2
		c2.868,0,4.477-2.792,6.181-5.747C13.952,13.179,15.784,10,19,10z"/>
	<path d="M23.707,17.293c-0.391-0.391-1.023-0.391-1.414,0s-0.391,1.023,0,1.414L23.586,20H19c-1.612,0-2.995-0.774-4.352-2.437
		c-0.349-0.427-0.979-0.494-1.406-0.143c-0.429,0.349-0.492,0.979-0.143,1.406C14.841,20.962,16.771,22,19,22h4.586l-1.293,1.293
		c-0.391,0.391-0.391,1.023,0,1.414C22.488,24.902,22.744,25,23,25s0.512-0.098,0.707-0.293l3-3c0.391-0.391,0.391-1.023,0-1.414
		L23.707,17.293z"/>
	<path d="M4,10h2c0.939,0,1.819,0.662,2.854,2.146c0.194,0.279,0.505,0.429,0.821,0.429c0.197,0,0.396-0.059,0.57-0.18
		c0.453-0.315,0.564-0.938,0.249-1.392C9.521,9.605,8.129,8,6,8H4C3.447,8,3,8.447,3,9S3.447,10,4,10z"/>
</g>
</svg>
