<?xml version="1.0" encoding="utf-8"?>
<!-- Generator: Adobe Illustrator 16.2.0, SVG Export Plug-In . SVG Version: 6.00 Build 0)  -->
<!DOCTYPE svg PUBLIC "-//W3C//DTD SVG 1.1//EN" "http://www.w3.org/Graphics/SVG/1.1/DTD/svg11.dtd">
<svg version="1.1" id="Layer_1" xmlns="http://www.w3.org/2000/svg" xmlns:xlink="http://www.w3.org/1999/xlink" x="0px" y="0px"
	 width="30px" height="30px" viewBox="0 0 30 30" enable-background="new 0 0 30 30" xml:space="preserve">
<g>
	<path d="M8,3C5.243,3,3,5.243,3,8s2.243,5,5,5s5-2.243,5-5S10.757,3,8,3z M8,5c0.462,0,0.894,0.113,1.285,0.301L5.301,9.285
		C5.113,8.895,5,8.462,5,8C5,6.346,6.346,5,8,5z M8,11c-0.462,0-0.894-0.113-1.285-0.301l3.984-3.984C10.887,7.105,11,7.538,11,8
		C11,9.654,9.654,11,8,11z"/>

	<path d="M22.427,20.427c3.25-4.072,3.466-9.527,0.297-12.697c-0.145-0.145-0.312-0.272-0.506-0.384
		c-0.174-0.097-0.365-0.175-0.566-0.231c-0.186-0.052-0.386-0.088-0.592-0.104c-0.193-0.016-0.399-0.016-0.616,0.001
		c-0.195,0.016-0.4,0.044-0.62,0.087c-0.203,0.041-0.414,0.094-0.636,0.16c-0.21,0.063-0.427,0.139-0.653,0.226
		c-0.219,0.085-0.443,0.182-0.674,0.289c-0.227,0.105-0.458,0.222-0.693,0.348c-0.232,0.125-0.469,0.261-0.709,0.406
		c-0.239,0.146-0.48,0.298-0.724,0.463c-0.458,0.309-0.579,0.93-0.271,1.388c0.308,0.459,0.929,0.579,1.388,0.271
		c0.217-0.146,0.431-0.282,0.643-0.41c0.211-0.128,0.417-0.246,0.621-0.355c0.2-0.108,0.397-0.207,0.59-0.297
		c0.189-0.088,0.373-0.167,0.551-0.235c0.176-0.068,0.346-0.128,0.506-0.176c0.157-0.047,0.31-0.086,0.451-0.114
		c0.136-0.026,0.266-0.045,0.39-0.055c0.103-0.009,0.202-0.009,0.301-0.001c0.074,0.006,0.143,0.017,0.209,0.035
		c0.05,0.015,0.093,0.031,0.129,0.052l0.016-0.027c0.021,0.024,0.029,0.056,0.053,0.079c0.021,0.021,0.037,0.044,0.057,0.065
		l-0.003,0.008c0.013,0.022,0.032,0.063,0.049,0.124c0.019,0.065,0.03,0.136,0.036,0.217c0.007,0.094,0.007,0.191-0.001,0.295
		c-0.01,0.124-0.028,0.254-0.053,0.383c-0.03,0.146-0.068,0.299-0.114,0.452c-0.05,0.165-0.109,0.336-0.177,0.51
		c-0.069,0.18-0.148,0.363-0.236,0.551c-0.09,0.193-0.189,0.391-0.297,0.592c-0.109,0.202-0.228,0.41-0.354,0.619
		c-0.129,0.212-0.266,0.427-0.414,0.646c-0.146,0.219-0.301,0.44-0.465,0.662c-0.164,0.225-0.336,0.45-0.516,0.676
		c-0.181,0.226-0.368,0.453-0.566,0.682c-0.197,0.229-0.4,0.456-0.613,0.685c-0.211,0.229-0.43,0.454-0.655,0.68
		c-0.226,0.226-0.453,0.444-0.681,0.656c-0.227,0.211-0.454,0.415-0.68,0.609c-0.229,0.196-0.458,0.387-0.684,0.566
		c-0.227,0.181-0.452,0.354-0.674,0.517c-0.223,0.162-0.445,0.319-0.664,0.466c-0.218,0.146-0.433,0.282-0.646,0.411
		c-0.211,0.128-0.417,0.246-0.621,0.355c-0.202,0.108-0.399,0.208-0.593,0.299c-0.188,0.089-0.371,0.167-0.549,0.236
		c-0.174,0.067-0.345,0.126-0.509,0.176c-0.154,0.046-0.304,0.084-0.451,0.113c-0.131,0.026-0.257,0.045-0.377,0.054
		c-0.109,0.008-0.211,0.007-0.308,0.001c-0.075-0.006-0.145-0.018-0.208-0.035c-0.062-0.018-0.1-0.035-0.12-0.047
		c-0.003-0.002-0.128-0.124-0.131-0.126c-0.02-0.035-0.037-0.079-0.051-0.131c-0.018-0.064-0.029-0.134-0.036-0.214
		c-0.007-0.093-0.007-0.191,0.001-0.295c0.01-0.123,0.028-0.254,0.054-0.384c0.029-0.146,0.068-0.299,0.113-0.452
		c0.05-0.165,0.109-0.335,0.177-0.509c0.069-0.18,0.149-0.363,0.237-0.553c0.09-0.193,0.188-0.39,0.296-0.59
		c0.109-0.203,0.228-0.41,0.355-0.62c0.129-0.213,0.265-0.427,0.411-0.644c0.309-0.458,0.188-1.079-0.271-1.388
		c-0.458-0.308-1.08-0.188-1.388,0.271c-0.165,0.244-0.318,0.485-0.462,0.724c-0.146,0.241-0.281,0.478-0.406,0.71
		c-0.127,0.235-0.243,0.467-0.349,0.693c-0.107,0.23-0.204,0.455-0.289,0.676c-0.086,0.225-0.162,0.441-0.227,0.656
		c-0.065,0.217-0.118,0.428-0.16,0.636c-0.042,0.215-0.07,0.42-0.086,0.615c-0.017,0.215-0.017,0.421-0.001,0.608
		c0.016,0.214,0.051,0.414,0.103,0.598c0.057,0.203,0.135,0.395,0.238,0.578c0.105,0.183,0.231,0.348,0.374,0.491
		c0.001,0.001,0.002,0.004,0.003,0.005c1.485,1.486,3.497,2.278,5.74,2.277c0.324,0,0.652-0.016,0.984-0.049
		c0.222-0.022,0.441-0.062,0.662-0.098C15.044,25.232,15,25.614,15,26c0,0.553,0.448,1,1,1h9c0.552,0,1-0.447,1-1
		C26,23.45,24.53,21.28,22.427,20.427z M14.254,22.962c-0.737,0.073-1.443,0.039-2.106-0.09c0.148-0.062,0.295-0.12,0.448-0.192
		c0.226-0.106,0.456-0.222,0.69-0.348c0.232-0.125,0.469-0.261,0.709-0.406c0.238-0.145,0.479-0.297,0.722-0.46
		c0.242-0.162,0.485-0.333,0.732-0.514c0.245-0.18,0.49-0.368,0.739-0.565c0.245-0.196,0.492-0.4,0.74-0.614
		c0.247-0.212,0.494-0.434,0.74-0.662c0.245-0.228,0.49-0.464,0.733-0.707c0.244-0.243,0.48-0.488,0.707-0.733
		c0.229-0.245,0.449-0.492,0.661-0.738c0.213-0.248,0.418-0.495,0.615-0.742c0.197-0.247,0.386-0.494,0.566-0.738
		c0.18-0.246,0.352-0.49,0.512-0.73c0.165-0.243,0.317-0.485,0.461-0.723c0.146-0.24,0.282-0.478,0.407-0.711
		c0.126-0.234,0.243-0.467,0.348-0.691c0.072-0.153,0.131-0.302,0.193-0.451c0.5,2.552-0.478,5.611-2.797,7.931
		C18.424,21.727,16.357,22.751,14.254,22.962z M17.121,25c0.064-0.265,0.16-0.526,0.274-0.784c1.245-0.501,2.425-1.232,3.483-2.163
		c1.48,0.185,2.656,1.378,3.011,2.947H17.121z"/>
	<path d="M13,18c0.552,0,1-0.447,1-1v-3h3c0.552,0,1-0.447,1-1s-0.448-1-1-1h-4c-0.552,0-1,0.447-1,1v4C12,17.553,12.448,18,13,18z
		"/>
</g>
</svg>
