<?xml version="1.0" encoding="utf-8"?>
<!-- Generator: Adobe Illustrator 16.2.0, SVG Export Plug-In . SVG Version: 6.00 Build 0)  -->
<!DOCTYPE svg PUBLIC "-//W3C//DTD SVG 1.1//EN" "http://www.w3.org/Graphics/SVG/1.1/DTD/svg11.dtd">
<svg version="1.1" id="Layer_1" xmlns="http://www.w3.org/2000/svg" xmlns:xlink="http://www.w3.org/1999/xlink" x="0px" y="0px"
	 width="30px" height="30px" viewBox="0 0 30 30" enable-background="new 0 0 30 30" xml:space="preserve">
<g>
	<path d="M25.707,14.293l-5-5c-0.391-0.391-1.023-0.391-1.414,0s-0.391,1.023,0,1.414L22.586,14H11c-0.553,0-1,0.447-1,1
		s0.447,1,1,1h11.586l-3.293,3.293c-0.391,0.391-0.391,1.023,0,1.414C19.488,20.902,19.744,21,20,21s0.512-0.098,0.707-0.293l5-5
		C26.098,15.316,26.098,14.684,25.707,14.293z"/>
	<path d="M20,24H6V6h14c0.553,0,1-0.447,1-1s-0.447-1-1-1H5C4.447,4,4,4.447,4,5v20c0,0.553,0.447,1,1,1h15c0.553,0,1-0.447,1-1
		S20.553,24,20,24z"/>
</g>
</svg>
