<?xml version="1.0" encoding="utf-8"?>
<!-- Generator: Adobe Illustrator 16.2.0, SVG Export Plug-In . SVG Version: 6.00 Build 0)  -->
<!DOCTYPE svg PUBLIC "-//W3C//DTD SVG 1.1//EN" "http://www.w3.org/Graphics/SVG/1.1/DTD/svg11.dtd">
<svg version="1.1" id="Layer_1" xmlns="http://www.w3.org/2000/svg" xmlns:xlink="http://www.w3.org/1999/xlink" x="0px" y="0px"
	 width="30px" height="30px" viewBox="0 0 30 30" enable-background="new 0 0 30 30" xml:space="preserve">
<g>
	<path d="M25,5H8C7.734,5,7.48,5.105,7.293,5.293l-5,5C2.105,10.48,2,10.734,2,11v11c0,1.542,1.458,3,3,3h20c1.542,0,3-1.458,3-3V8
		C28,6.458,26.542,5,25,5z M26,22c0,0.448-0.552,1-1,1H5c-0.448,0-1-0.552-1-1V11.414L8.414,7H25c0.448,0,1,0.552,1,1V22z"/>
	<path d="M21,9h-6c-1.654,0-3,1.346-3,3v6c0,1.654,1.346,3,3,3h6c1.654,0,3-1.346,3-3v-6C24,10.346,22.654,9,21,9z M22,12v2h-1.394
		l-1.563-3H21C21.552,11,22,11.448,22,12z M14,18v-2h1.394l1.563,3H15C14.448,19,14,18.552,14,18z M22,18c0,0.552-0.448,1-1,1h-1.79
		l-2.323-4.462C16.715,14.207,16.373,14,16,14h-2v-2c0-0.552,0.448-1,1-1h1.789l2.324,4.462C19.285,15.793,19.627,16,20,16h2V18z"/>
</g>
</svg>
