<?xml version="1.0" encoding="utf-8"?>
<!-- Generator: Adobe Illustrator 16.2.0, SVG Export Plug-In . SVG Version: 6.00 Build 0)  -->
<!DOCTYPE svg PUBLIC "-//W3C//DTD SVG 1.1//EN" "http://www.w3.org/Graphics/SVG/1.1/DTD/svg11.dtd">
<svg version="1.1" id="Layer_1" xmlns="http://www.w3.org/2000/svg" xmlns:xlink="http://www.w3.org/1999/xlink" x="0px" y="0px"
	 width="30px" height="30px" viewBox="0 0 30 30" enable-background="new 0 0 30 30" xml:space="preserve">
<g>
	<path d="M15,10c-0.553,0-1-0.447-1-1V4c0-0.553,0.447-1,1-1s1,0.447,1,1v5C16,9.553,15.553,10,15,10z"/>
	<path d="M15,27c-0.553,0-1-0.447-1-1v-5c0-0.553,0.447-1,1-1s1,0.447,1,1v5C16,26.553,15.553,27,15,27z"/>
	<path d="M9,16H4c-0.553,0-1-0.447-1-1s0.447-1,1-1h5c0.553,0,1,0.447,1,1S9.553,16,9,16z"/>
	<path d="M26,16h-5c-0.553,0-1-0.447-1-1s0.447-1,1-1h5c0.553,0,1,0.447,1,1S26.553,16,26,16z"/>
	<path d="M19.242,11.758c-0.256,0-0.512-0.098-0.707-0.293c-0.391-0.391-0.391-1.023,0-1.414l3.536-3.535
		c0.391-0.391,1.023-0.391,1.414,0s0.391,1.023,0,1.414l-3.536,3.535C19.754,11.66,19.498,11.758,19.242,11.758z"/>
	<path d="M7.222,23.779c-0.256,0-0.512-0.098-0.707-0.293c-0.391-0.391-0.391-1.023,0-1.414l3.536-3.537
		c0.391-0.391,1.023-0.391,1.414,0s0.391,1.023,0,1.414l-3.536,3.537C7.733,23.682,7.478,23.779,7.222,23.779z"/>
	<path d="M10.758,11.758c-0.256,0-0.512-0.098-0.707-0.293L6.515,7.93c-0.391-0.391-0.391-1.023,0-1.414s1.023-0.391,1.414,0
		l3.536,3.535c0.391,0.391,0.391,1.023,0,1.414C11.27,11.66,11.014,11.758,10.758,11.758z"/>
	<path d="M22.778,23.779c-0.256,0-0.512-0.098-0.707-0.293l-3.536-3.537c-0.391-0.391-0.391-1.023,0-1.414s1.023-0.391,1.414,0
		l3.536,3.537c0.391,0.391,0.391,1.023,0,1.414C23.29,23.682,23.034,23.779,22.778,23.779z"/>
</g>
</svg>
