<?xml version="1.0" encoding="utf-8"?>
<!-- Generator: Adobe Illustrator 16.2.0, SVG Export Plug-In . SVG Version: 6.00 Build 0)  -->
<!DOCTYPE svg PUBLIC "-//W3C//DTD SVG 1.1//EN" "http://www.w3.org/Graphics/SVG/1.1/DTD/svg11.dtd">
<svg version="1.1" id="Layer_1" xmlns="http://www.w3.org/2000/svg" xmlns:xlink="http://www.w3.org/1999/xlink" x="0px" y="0px"
	 width="30px" height="30px" viewBox="0 0 30 30" enable-background="new 0 0 30 30" xml:space="preserve">
<g>
	<path d="M23.707,18.293c-0.391-0.391-1.023-0.391-1.414,0s-0.391,1.023,0,1.414L23.586,21H21c-1.922,0-2.629-1.229-3.624-3.236
		c-0.468-0.943-1.012-2.005-1.835-2.764c0.823-0.759,1.367-1.82,1.835-2.764C18.371,10.229,19.078,9,21,9h2.586l-1.293,1.293
		c-0.391,0.391-0.391,1.023,0,1.414C22.488,11.902,22.744,12,23,12s0.512-0.098,0.707-0.293l3-3c0.391-0.391,0.391-1.023,0-1.414
		l-3-3c-0.391-0.391-1.023-0.391-1.414,0s-0.391,1.023,0,1.414L23.586,7H21c-3.26,0-4.455,2.411-5.416,4.348
		C14.743,13.042,14.209,14,13,14h-2.142c-0.447-1.721-2-3-3.858-3c-2.206,0-4,1.794-4,4s1.794,4,4,4c1.858,0,3.411-1.279,3.858-3H13
		c1.209,0,1.743,0.958,2.584,2.652C16.545,20.589,17.74,23,21,23h2.586l-1.293,1.293c-0.391,0.391-0.391,1.023,0,1.414
		C22.488,25.902,22.744,26,23,26s0.512-0.098,0.707-0.293l3-3c0.391-0.391,0.391-1.023,0-1.414L23.707,18.293z M7,17
		c-1.103,0-2-0.897-2-2s0.897-2,2-2s2,0.897,2,2S8.103,17,7,17z"/>
</g>
</svg>
