<?xml version="1.0" encoding="utf-8"?>
<!-- Generator: Adobe Illustrator 16.2.0, SVG Export Plug-In . SVG Version: 6.00 Build 0)  -->
<!DOCTYPE svg PUBLIC "-//W3C//DTD SVG 1.1//EN" "http://www.w3.org/Graphics/SVG/1.1/DTD/svg11.dtd">
<svg version="1.1" id="Layer_1" xmlns="http://www.w3.org/2000/svg" xmlns:xlink="http://www.w3.org/1999/xlink" x="0px" y="0px"
	 width="30px" height="30px" viewBox="0 0 30 30" enable-background="new 0 0 30 30" xml:space="preserve">
<g>
	<path d="M27.955,16.704c-0.09-0.288-0.304-0.52-0.584-0.632l-3.039-1.216C25.366,14.142,26,13.258,26,12.2
		c0-1.74-1.788-3.201-4.933-4.055L19.97,3.757c-0.073-0.294-0.276-0.539-0.552-0.666c-0.276-0.127-0.594-0.122-0.865,0.014L15,4.882
		l-3.553-1.776c-0.271-0.136-0.59-0.141-0.865-0.014s-0.479,0.372-0.552,0.666L8.933,8.146C5.788,8.999,4,10.46,4,12.2
		c0,1.058,0.634,1.941,1.668,2.655l-3.039,1.216c-0.28,0.112-0.494,0.344-0.584,0.632c-0.089,0.288-0.044,0.6,0.123,0.851l6,9
		C8.36,26.844,8.678,27,9.001,27c0.19,0,0.383-0.054,0.554-0.168c0.46-0.306,0.584-0.927,0.277-1.387l-5.316-7.975L8,16.077v2.172
		C8,21.206,11.402,24,15,24s7-2.794,7-5.75v-2.172l3.484,1.394l-5.316,7.975c-0.307,0.459-0.183,1.081,0.277,1.387
		C20.616,26.946,20.809,27,20.999,27c0.323,0,0.641-0.156,0.833-0.445l6-9C27.999,17.304,28.044,16.991,27.955,16.704z M11.668,5.452
		l2.885,1.442c0.281,0.141,0.613,0.141,0.895,0l2.885-1.442l0.776,3.104c-0.003,0.006-0.01,0.01-0.013,0.016
		C19.065,8.631,18.317,10,15,10c-3.265,0-4.041-1.326-4.094-1.423c-0.004-0.008-0.011-0.013-0.015-0.021L11.668,5.452z M9.524,10.066
		C10.188,10.845,11.723,12,15,12s4.812-1.155,5.476-1.934C23.035,10.75,24,11.699,24,12.2c0,1.115-3.59,2.8-9,2.8s-9-1.685-9-2.8
		C6,11.699,6.965,10.75,9.524,10.066z M15,22c-2.43,0-5-1.928-5-3.75v-1.734C11.558,16.836,13.282,17,15,17s3.442-0.164,5-0.485
		v1.734C20,20.072,17.43,22,15,22z"/>
</g>
</svg>
