<?xml version="1.0" encoding="utf-8"?>
<!-- Generator: Adobe Illustrator 16.2.0, SVG Export Plug-In . SVG Version: 6.00 Build 0)  -->
<!DOCTYPE svg PUBLIC "-//W3C//DTD SVG 1.1//EN" "http://www.w3.org/Graphics/SVG/1.1/DTD/svg11.dtd">
<svg version="1.1" id="Layer_1" xmlns="http://www.w3.org/2000/svg" xmlns:xlink="http://www.w3.org/1999/xlink" x="0px" y="0px"
	 width="30px" height="30px" viewBox="0 0 30 30" enable-background="new 0 0 30 30" xml:space="preserve">
<g>
	<path d="M15,16c-0.131,0-0.262-0.026-0.385-0.077l-12-5C2.243,10.768,2,10.404,2,10s0.243-0.768,0.615-0.923l12-5
		c0.246-0.103,0.523-0.103,0.77,0l12,5C27.757,9.232,28,9.596,28,10s-0.243,0.768-0.615,0.923l-12,5C15.262,15.974,15.131,16,15,16
		z M5.6,10l9.4,3.917L24.4,10L15,6.083L5.6,10z"/>
	<path d="M15,26c-0.131,0-0.262-0.026-0.385-0.077l-12-5c-0.51-0.212-0.751-0.798-0.538-1.308c0.213-0.51,0.8-0.75,1.308-0.538
		L15,23.917l11.615-4.839c0.509-0.213,1.095,0.028,1.308,0.538c0.213,0.51-0.028,1.095-0.538,1.308l-12,5
		C15.262,25.974,15.131,26,15,26z"/>
	<path d="M15,21c-0.131,0-0.262-0.026-0.385-0.077l-12-5c-0.51-0.212-0.751-0.798-0.538-1.308s0.8-0.75,1.308-0.538L15,18.917
		l11.615-4.839c0.509-0.213,1.095,0.028,1.308,0.538s-0.028,1.095-0.538,1.308l-12,5C15.262,20.974,15.131,21,15,21z"/>
</g>
</svg>
