<?xml version="1.0" encoding="utf-8"?>
<!-- Generator: Adobe Illustrator 16.2.0, SVG Export Plug-In . SVG Version: 6.00 Build 0)  -->
<!DOCTYPE svg PUBLIC "-//W3C//DTD SVG 1.1//EN" "http://www.w3.org/Graphics/SVG/1.1/DTD/svg11.dtd">
<svg version="1.1" id="Layer_1" xmlns="http://www.w3.org/2000/svg" xmlns:xlink="http://www.w3.org/1999/xlink" x="0px" y="0px"
	 width="30px" height="30px" viewBox="0 0 30 30" enable-background="new 0 0 30 30" xml:space="preserve">
<g>
	<path d="M17.999,27h-6c-0.552,0-1-0.447-1-1v-4.072l-3.526,2.036c-0.478,0.276-1.09,0.111-1.366-0.366l-3-5.195
		c-0.132-0.229-0.168-0.503-0.1-0.759c0.068-0.256,0.236-0.475,0.466-0.607L7,15l-3.527-2.036
		c-0.229-0.133-0.397-0.352-0.466-0.607c-0.069-0.256-0.033-0.529,0.1-0.759l3-5.195c0.276-0.479,0.888-0.644,1.366-0.366
		l3.526,2.036V4c0-0.553,0.448-1,1-1h6c0.552,0,1,0.447,1,1v4.072l3.526-2.036c0.477-0.277,1.089-0.112,1.366,0.366l3,5.195
		c0.132,0.229,0.168,0.503,0.1,0.759c-0.068,0.256-0.236,0.475-0.466,0.607L22.999,15l3.527,2.036
		c0.229,0.133,0.397,0.352,0.466,0.607c0.069,0.256,0.033,0.529-0.1,0.759l-3,5.195c-0.277,0.478-0.889,0.643-1.366,0.366
		l-3.526-2.036V26C18.999,26.553,18.551,27,17.999,27z M12.999,25h4v-4.805c0-0.357,0.19-0.688,0.5-0.866
		c0.31-0.178,0.69-0.178,1,0l4.161,2.402l2-3.463l-4.161-2.402c-0.31-0.179-0.5-0.509-0.5-0.866s0.19-0.688,0.5-0.866l4.161-2.402
		l-2-3.463l-4.161,2.402c-0.31,0.178-0.69,0.178-1,0c-0.31-0.179-0.5-0.509-0.5-0.866V5h-4v4.805c0,0.357-0.19,0.688-0.5,0.866
		c-0.31,0.178-0.69,0.178-1,0L7.338,8.269l-2,3.463L9.5,14.134C9.809,14.313,10,14.643,10,15s-0.19,0.688-0.5,0.866l-4.161,2.402
		l2,3.463l4.161-2.402c0.31-0.178,0.69-0.178,1,0c0.31,0.179,0.5,0.509,0.5,0.866V25z"/>
</g>
</svg>
