<?xml version="1.0" encoding="utf-8"?>
<!-- Generator: Adobe Illustrator 16.2.0, SVG Export Plug-In . SVG Version: 6.00 Build 0)  -->
<!DOCTYPE svg PUBLIC "-//W3C//DTD SVG 1.1//EN" "http://www.w3.org/Graphics/SVG/1.1/DTD/svg11.dtd">
<svg version="1.1" id="Layer_1" xmlns="http://www.w3.org/2000/svg" xmlns:xlink="http://www.w3.org/1999/xlink" x="0px" y="0px"
	 width="30px" height="30px" viewBox="0 0 30 30" enable-background="new 0 0 30 30" xml:space="preserve">
<g>
	<path d="M26,26H4c-0.552,0-1-0.448-1-1V5c0-0.552,0.448-1,1-1s1,0.448,1,1v19h21c0.552,0,1,0.448,1,1S26.552,26,26,26z"/>
	<path d="M8,22c-0.256,0-0.512-0.098-0.707-0.293c-0.391-0.391-0.391-1.023,0-1.414l6-6C13.48,14.105,13.735,14,14,14h5.54
		l5.701-6.651c0.361-0.418,0.992-0.467,1.41-0.108c0.419,0.359,0.468,0.991,0.108,1.41l-6,7C20.569,15.873,20.292,16,20,16h-5.586
		l-5.707,5.707C8.512,21.902,8.256,22,8,22z"/>
</g>
</svg>
