<?xml version="1.0" encoding="utf-8"?>
<!-- Generator: Adobe Illustrator 16.2.0, SVG Export Plug-In . SVG Version: 6.00 Build 0)  -->
<!DOCTYPE svg PUBLIC "-//W3C//DTD SVG 1.1//EN" "http://www.w3.org/Graphics/SVG/1.1/DTD/svg11.dtd">
<svg version="1.1" id="Layer_1" xmlns="http://www.w3.org/2000/svg" xmlns:xlink="http://www.w3.org/1999/xlink" x="0px" y="0px"
	 width="30px" height="30px" viewBox="0 0 30 30" enable-background="new 0 0 30 30" xml:space="preserve">
<g>
	<path d="M15,19c-0.552,0-1-0.448-1-1v-5c0-0.552,0.448-1,1-1s1,0.448,1,1v5C16,18.552,15.552,19,15,19z"/>
	<path d="M24.707,10.293l-2-2c-0.391-0.391-1.023-0.391-1.414,0s-0.391,1.023,0,1.414L21.586,10l-0.975,0.975
		c-0.879-0.704-1.889-1.248-2.991-1.583C19.042,8.686,20,7.435,20,6c0-2.206-2.243-4-5-4s-5,1.794-5,4
		c0,1.435,0.958,2.686,2.38,3.392C8.692,10.516,6,13.949,6,18c0,4.962,4.038,9,9,9s9-4.038,9-9c0-2.122-0.742-4.071-1.975-5.611
		L23,11.414l0.293,0.293C23.488,11.902,23.744,12,24,12s0.512-0.098,0.707-0.293C25.098,11.316,25.098,10.684,24.707,10.293z M15,4
		c1.626,0,3,0.916,3,2c0,0.851-0.85,1.59-2,1.873V6c0-0.552-0.448-1-1-1s-1,0.448-1,1v1.873C12.85,7.59,12,6.851,12,6
		C12,4.916,13.374,4,15,4z M15,25c-3.86,0-7-3.14-7-7s3.14-7,7-7s7,3.14,7,7S18.86,25,15,25z"/>
</g>
</svg>
