<?xml version="1.0" encoding="utf-8"?>
<!-- Generator: Adobe Illustrator 16.2.0, SVG Export Plug-In . SVG Version: 6.00 Build 0)  -->
<!DOCTYPE svg PUBLIC "-//W3C//DTD SVG 1.1//EN" "http://www.w3.org/Graphics/SVG/1.1/DTD/svg11.dtd">
<svg version="1.1" id="Layer_1" xmlns="http://www.w3.org/2000/svg" xmlns:xlink="http://www.w3.org/1999/xlink" x="0px" y="0px"
	 width="30px" height="30px" viewBox="0 0 30 30" enable-background="new 0 0 30 30" xml:space="preserve">
<g>
	<path d="M25,19h-1v-4c0-0.553-0.447-1-1-1h-7v-3h3c0.553,0,1-0.447,1-1V5c0-0.553-0.447-1-1-1h-8c-0.553,0-1,0.447-1,1v5
		c0,0.553,0.447,1,1,1h3v3H7c-0.553,0-1,0.447-1,1v4H5c-0.553,0-1,0.447-1,1v5c0,0.553,0.447,1,1,1h4c0.553,0,1-0.447,1-1v-5
		c0-0.553-0.447-1-1-1H8v-3h6v3h-1c-0.553,0-1,0.447-1,1v5c0,0.553,0.447,1,1,1h4c0.553,0,1-0.447,1-1v-5c0-0.553-0.447-1-1-1h-1v-3
		h6v3h-1c-0.553,0-1,0.447-1,1v5c0,0.553,0.447,1,1,1h4c0.553,0,1-0.447,1-1v-5C26,19.447,25.553,19,25,19z M12,6h6v3h-6V6z M8,24H6
		v-3h2V24z M16,24h-2v-3h2V24z M24,24h-2v-3h2V24z"/>
</g>
</svg>
