<?xml version="1.0" encoding="utf-8"?>
<!-- Generator: Adobe Illustrator 16.2.0, SVG Export Plug-In . SVG Version: 6.00 Build 0)  -->
<!DOCTYPE svg PUBLIC "-//W3C//DTD SVG 1.1//EN" "http://www.w3.org/Graphics/SVG/1.1/DTD/svg11.dtd">
<svg version="1.1" id="Layer_1" xmlns="http://www.w3.org/2000/svg" xmlns:xlink="http://www.w3.org/1999/xlink" x="0px" y="0px"
	 width="30px" height="30px" viewBox="0 0 30 30" enable-background="new 0 0 30 30" xml:space="preserve">
<g>
	<path d="M24,8h-4V7c0-1.654-1.346-3-3-3h-4c-1.654,0-3,1.346-3,3v1H6c-1.654,0-3,1.346-3,3v12c0,1.654,1.346,3,3,3h18
		c1.654,0,3-1.346,3-3V11C27,9.346,25.654,8,24,8z M25,11v1.988c-1.481-0.343-2.646-1.507-2.988-2.988H24C24.552,10,25,10.448,25,11z
		 M19.976,24h-9.951C9.633,21.413,7.587,19.367,5,18.976v-3.951c2.587-0.392,4.633-2.438,5.024-5.024h9.951
		c0.392,2.587,2.438,4.633,5.024,5.024v3.951C22.413,19.367,20.367,21.413,19.976,24z M12,7c0-0.552,0.448-1,1-1h4
		c0.552,0,1,0.448,1,1v1h-6V7z M6,10h1.988C7.646,11.481,6.481,12.646,5,12.988V11C5,10.448,5.448,10,6,10z M5,23v-1.988
		C6.481,21.354,7.646,22.519,7.988,24H6C5.448,24,5,23.552,5,23z M24,24h-1.988c0.343-1.481,1.507-2.646,2.988-2.988V23
		C25,23.552,24.552,24,24,24z"/>
</g>
</svg>
