<?xml version="1.0" encoding="utf-8"?>
<!-- Generator: Adobe Illustrator 16.2.0, SVG Export Plug-In . SVG Version: 6.00 Build 0)  -->
<!DOCTYPE svg PUBLIC "-//W3C//DTD SVG 1.1//EN" "http://www.w3.org/Graphics/SVG/1.1/DTD/svg11.dtd">
<svg version="1.1" id="Layer_1" xmlns="http://www.w3.org/2000/svg" xmlns:xlink="http://www.w3.org/1999/xlink" x="0px" y="0px"
	 width="30px" height="30px" viewBox="0 0 30 30" enable-background="new 0 0 30 30" xml:space="preserve">
<g>
	<path d="M15,20c-2.757,0-5-2.243-5-5s2.243-5,5-5s5,2.243,5,5S17.757,20,15,20z M15,12c-1.654,0-3,1.346-3,3s1.346,3,3,3
		s3-1.346,3-3S16.654,12,15,12z"/>
	<path d="M15,8c-0.553,0-1-0.447-1-1V4c0-0.553,0.447-1,1-1s1,0.447,1,1v3C16,7.553,15.553,8,15,8z"/>
	<path d="M15,27c-0.553,0-1-0.447-1-1v-3c0-0.553,0.447-1,1-1s1,0.447,1,1v3C16,26.553,15.553,27,15,27z"/>
	<path d="M26,16h-3c-0.553,0-1-0.447-1-1s0.447-1,1-1h3c0.553,0,1,0.447,1,1S26.553,16,26,16z"/>
	<path d="M7,16H4c-0.553,0-1-0.447-1-1s0.447-1,1-1h3c0.553,0,1,0.447,1,1S7.553,16,7,16z"/>
	<path d="M9.344,10.344c-0.256,0-0.512-0.098-0.707-0.293L6.515,7.928c-0.391-0.391-0.391-1.023,0-1.414s1.023-0.391,1.414,0
		l2.122,2.123c0.391,0.391,0.391,1.023,0,1.414C9.855,10.246,9.6,10.344,9.344,10.344z"/>
	<path d="M22.778,23.777c-0.256,0-0.512-0.098-0.707-0.293l-2.122-2.121c-0.391-0.391-0.391-1.023,0-1.414s1.023-0.391,1.414,0
		l2.122,2.121c0.391,0.391,0.391,1.023,0,1.414C23.29,23.68,23.034,23.777,22.778,23.777z"/>
	<path d="M20.656,10.344c-0.256,0-0.512-0.098-0.707-0.293c-0.391-0.391-0.391-1.023,0-1.414l2.122-2.123
		c0.391-0.391,1.023-0.391,1.414,0s0.391,1.023,0,1.414l-2.122,2.123C21.168,10.246,20.912,10.344,20.656,10.344z"/>
	<path d="M7.222,23.777c-0.256,0-0.512-0.098-0.707-0.293c-0.391-0.391-0.391-1.023,0-1.414l2.122-2.121
		c0.391-0.391,1.023-0.391,1.414,0s0.391,1.023,0,1.414l-2.122,2.121C7.733,23.68,7.478,23.777,7.222,23.777z"/>
</g>
</svg>
