<?xml version="1.0" encoding="utf-8"?>
<!-- Generator: Adobe Illustrator 16.2.0, SVG Export Plug-In . SVG Version: 6.00 Build 0)  -->
<!DOCTYPE svg PUBLIC "-//W3C//DTD SVG 1.1//EN" "http://www.w3.org/Graphics/SVG/1.1/DTD/svg11.dtd">
<svg version="1.1" id="Layer_1" xmlns="http://www.w3.org/2000/svg" xmlns:xlink="http://www.w3.org/1999/xlink" x="0px" y="0px"
	 width="30px" height="30px" viewBox="0 0 30 30" enable-background="new 0 0 30 30" xml:space="preserve">
<g>
	<path d="M25,4H5C3.346,4,2,5.346,2,7v16c0,1.654,1.346,3,3,3h20c1.654,0,3-1.346,3-3V7C28,5.346,26.654,4,25,4z M4,23V7
		c0-0.551,0.449-1,1-1h15v18H5C4.449,24,4,23.551,4,23z M26,23c0,0.551-0.449,1-1,1h-3V6h3c0.551,0,1,0.449,1,1V23z"/>
	<circle cx="24" cy="15" r="1"/>
</g>
</svg>
