<?xml version="1.0" encoding="utf-8"?>
<!-- Generator: Adobe Illustrator 16.2.0, SVG Export Plug-In . SVG Version: 6.00 Build 0)  -->
<!DOCTYPE svg PUBLIC "-//W3C//DTD SVG 1.1//EN" "http://www.w3.org/Graphics/SVG/1.1/DTD/svg11.dtd">
<svg version="1.1" id="Layer_1" xmlns="http://www.w3.org/2000/svg" xmlns:xlink="http://www.w3.org/1999/xlink" x="0px" y="0px"
	 width="30px" height="30px" viewBox="0 0 30 30" enable-background="new 0 0 30 30" xml:space="preserve">
<g>
	<path d="M27.924,7.617C27.77,7.244,27.404,7,27,7h-4V3c0-0.404-0.243-0.769-0.617-0.924c-0.374-0.154-0.804-0.07-1.09,0.217
		l-3.43,3.429C16.622,5.252,15.327,5,14,5C7.935,5,3,9.935,3,16s4.935,11,11,11s11-4.935,11-11c0-1.328-0.252-2.622-0.723-3.864
		l3.43-3.429C27.993,8.421,28.079,7.991,27.924,7.617z M21,7.586l-4,4V9.414l1.789-1.789v0L21,5.414V7.586z M16.5,15h1.354
		C17.941,15.329,18,15.661,18,16c0,2.206-1.794,4-4,4s-4-1.794-4-4s1.794-4,4-4c0.34,0,0.672,0.059,1,0.145V13.5
		c0,0.025,0.013,0.047,0.015,0.071l-1.722,1.722c-0.391,0.391-0.391,1.023,0,1.414C13.488,16.902,13.744,17,14,17
		s0.512-0.098,0.707-0.293l1.722-1.722C16.453,14.987,16.475,15,16.5,15z M23,16c0,4.962-4.037,9-9,9s-9-4.038-9-9s4.037-9,9-9
		c0.774,0,1.535,0.111,2.277,0.309l-0.984,0.984C15.105,8.48,15,8.735,15,9v1.092C14.671,10.036,14.338,10,14,10
		c-3.309,0-6,2.691-6,6s2.691,6,6,6s6-2.691,6-6c0-0.337-0.036-0.67-0.092-1H21c0.266,0,0.52-0.105,0.707-0.293l0.984-0.984
		C22.889,14.465,23,15.225,23,16z M20.586,13h-2.172l4-4h2.172L20.586,13z"/>
</g>
</svg>
