<?xml version="1.0" encoding="utf-8"?>
<!-- Generator: Adobe Illustrator 16.2.0, SVG Export Plug-In . SVG Version: 6.00 Build 0)  -->
<!DOCTYPE svg PUBLIC "-//W3C//DTD SVG 1.1//EN" "http://www.w3.org/Graphics/SVG/1.1/DTD/svg11.dtd">
<svg version="1.1" id="Layer_1" xmlns="http://www.w3.org/2000/svg" xmlns:xlink="http://www.w3.org/1999/xlink" x="0px" y="0px"
	 width="30px" height="30px" viewBox="0 0 30 30" enable-background="new 0 0 30 30" xml:space="preserve">
<g>
	<path d="M19.44,11.032c0.098-0.302,0.189-0.624,0.265-0.954c0.528-2.308,0.197-4.427-0.909-5.815
		c-0.786-0.987-1.878-1.451-2.98-1.246c-1.851,0.347-2.185,2.112-2.48,3.669c-0.182,0.957-0.387,2.041-0.903,2.994
		c-0.793,1.465-1.957,2.524-3.651,3.32H5c-0.552,0-1,0.448-1,1v9c0,0.552,0.448,1,1,1h4c2.563,0,4.307,0.27,5.993,0.53
		C16.557,24.771,18.035,25,20,25c3.756,0,6-4.576,6-9C26,13.454,25.478,11.316,19.44,11.032z M6,15h2v7H6V15z M20,23
		c-1.812,0-3.215-0.217-4.702-0.446c-1.465-0.227-3.101-0.479-5.298-0.54v-7.391c1.881-0.961,3.26-2.269,4.192-3.991
		c0.664-1.227,0.911-2.528,1.109-3.574c0.286-1.51,0.445-1.993,0.883-2.075c0.355-0.065,0.728,0.125,1.048,0.526
		c0.713,0.896,0.909,2.437,0.523,4.122c-0.176,0.769-0.462,1.493-0.67,1.965c-0.137,0.31-0.108,0.667,0.077,0.95S17.662,13,18,13
		c6,0,6,1.324,6,3C24,19.38,22.393,23,20,23z"/>
</g>
</svg>
