<?xml version="1.0" encoding="utf-8"?>
<!-- Generator: Adobe Illustrator 16.2.0, SVG Export Plug-In . SVG Version: 6.00 Build 0)  -->
<!DOCTYPE svg PUBLIC "-//W3C//DTD SVG 1.1//EN" "http://www.w3.org/Graphics/SVG/1.1/DTD/svg11.dtd">
<svg version="1.1" id="Layer_1" xmlns="http://www.w3.org/2000/svg" xmlns:xlink="http://www.w3.org/1999/xlink" x="0px" y="0px"
	 width="30px" height="30px" viewBox="0 0 30 30" enable-background="new 0 0 30 30" xml:space="preserve">
<g>
	<path d="M26,10H12c-0.552,0-1-0.447-1-1V5c0-0.553,0.448-1,1-1h14c0.552,0,1,0.447,1,1v4C27,9.553,26.552,10,26,10z M13,8h12V6H13
		V8z"/>
	<path d="M26,26H12c-0.552,0-1-0.447-1-1v-4c0-0.553,0.448-1,1-1h14c0.552,0,1,0.447,1,1v4C27,25.553,26.552,26,26,26z M13,24h12
		v-2H13V24z"/>
	<path d="M26,18H12c-0.552,0-1-0.447-1-1v-4c0-0.553,0.448-1,1-1h14c0.552,0,1,0.447,1,1v4C27,17.553,26.552,18,26,18z M13,16h12
		v-2H13V16z"/>
	<path d="M8,10H4c-0.552,0-1-0.447-1-1V5c0-0.553,0.448-1,1-1h4c0.552,0,1,0.447,1,1v4C9,9.553,8.552,10,8,10z M5,8h2V6H5V8z"/>
	<path d="M8,26H4c-0.552,0-1-0.447-1-1v-4c0-0.553,0.448-1,1-1h4c0.552,0,1,0.447,1,1v4C9,25.553,8.552,26,8,26z M5,24h2v-2H5V24z"
		/>
	<path d="M8,18H4c-0.552,0-1-0.447-1-1v-4c0-0.553,0.448-1,1-1h4c0.552,0,1,0.447,1,1v4C9,17.553,8.552,18,8,18z M5,16h2v-2H5V16z"
		/>
</g>
</svg>
