<?xml version="1.0" encoding="utf-8"?>
<!-- Generator: Adobe Illustrator 16.2.0, SVG Export Plug-In . SVG Version: 6.00 Build 0)  -->
<!DOCTYPE svg PUBLIC "-//W3C//DTD SVG 1.1//EN" "http://www.w3.org/Graphics/SVG/1.1/DTD/svg11.dtd">
<svg version="1.1" id="Layer_1" xmlns="http://www.w3.org/2000/svg" xmlns:xlink="http://www.w3.org/1999/xlink" x="0px" y="0px"
	 width="30px" height="30px" viewBox="0 0 30 30" enable-background="new 0 0 30 30" xml:space="preserve">
<g>
	<path d="M11,24H7c-0.552,0-1-0.447-1-1V7c0-0.553,0.448-1,1-1h4c0.552,0,1,0.447,1,1v16C12,23.553,11.552,24,11,24z M8,22h2V8H8
		V22z"/>
	<path d="M23,24c-0.24,0-0.478-0.087-0.665-0.253l-9-8C13.122,15.558,13,15.285,13,15s0.122-0.558,0.335-0.747l9-8
		c0.295-0.262,0.716-0.328,1.074-0.165C23.769,6.249,24,6.606,24,7v16c0,0.394-0.231,0.751-0.59,0.912
		C23.278,23.972,23.139,24,23,24z M15.505,15L22,20.773V9.227L15.505,15z"/>
</g>
</svg>
