<?xml version="1.0" encoding="utf-8"?>
<!-- Generator: Adobe Illustrator 16.2.0, SVG Export Plug-In . SVG Version: 6.00 Build 0)  -->
<!DOCTYPE svg PUBLIC "-//W3C//DTD SVG 1.1//EN" "http://www.w3.org/Graphics/SVG/1.1/DTD/svg11.dtd">
<svg version="1.1" id="Layer_1" xmlns="http://www.w3.org/2000/svg" xmlns:xlink="http://www.w3.org/1999/xlink" x="0px" y="0px"
	 width="30px" height="30px" viewBox="0 0 30 30" enable-background="new 0 0 30 30" xml:space="preserve">
<g>
	<path d="M23,24h-4c-0.553,0-1-0.447-1-1V7c0-0.553,0.447-1,1-1h4c0.553,0,1,0.447,1,1v16C24,23.553,23.553,24,23,24z M20,22h2V8
		h-2V22z"/>
	<path d="M7,24c-0.139,0-0.278-0.028-0.41-0.088C6.231,23.751,6,23.394,6,23V7c0-0.394,0.231-0.751,0.59-0.912
		c0.358-0.163,0.779-0.097,1.074,0.165l9,8C16.878,14.442,17,14.715,17,15s-0.122,0.558-0.336,0.747l-9,8
		C7.478,23.913,7.24,24,7,24z M8,9.227v11.547L14.495,15L8,9.227z"/>
</g>
</svg>
