<?xml version="1.0" encoding="utf-8"?>
<!-- Generator: Adobe Illustrator 16.2.0, SVG Export Plug-In . SVG Version: 6.00 Build 0)  -->
<!DOCTYPE svg PUBLIC "-//W3C//DTD SVG 1.1//EN" "http://www.w3.org/Graphics/SVG/1.1/DTD/svg11.dtd">
<svg version="1.1" id="Layer_1" xmlns="http://www.w3.org/2000/svg" xmlns:xlink="http://www.w3.org/1999/xlink" x="0px" y="0px"
	 width="30px" height="30px" viewBox="0 0 30 30" enable-background="new 0 0 30 30" xml:space="preserve">
<g>
	<path d="M11,20h1c0.552,0,1-0.447,1-1s-0.448-1-1-1h-1c-0.552,0-1,0.447-1,1S10.448,20,11,20z"/>
	<path d="M18,20h1c0.552,0,1-0.447,1-1s-0.448-1-1-1h-1c-0.552,0-1,0.447-1,1S17.448,20,18,20z"/>
	<path d="M23.707,25.293l-2.799-2.799C22.148,21.813,23,20.512,23,19V9c0-2.206-1.794-4-4-4V4c0-0.553-0.448-1-1-1h-6
		c-0.552,0-1,0.447-1,1v1C8.794,5,7,6.794,7,9v10c0,1.512,0.852,2.813,2.092,3.494l-2.799,2.799c-0.391,0.391-0.391,1.023,0,1.414
		C6.488,26.902,6.744,27,7,27s0.512-0.098,0.707-0.293L11.414,23h7.173l3.707,3.707C22.488,26.902,22.744,27,23,27
		s0.512-0.098,0.707-0.293C24.098,26.316,24.098,25.684,23.707,25.293z M19,7c1.103,0,2,0.897,2,2v4h-5V8h2C18.552,8,19,7.553,19,7z
		 M13,5h4v1h-4V5z M11,7c0,0.553,0.448,1,1,1h2v5H9V9C9,7.897,9.897,7,11,7z M9,15h12v4c0,1.103-0.897,2-2,2h-8
		c-1.103,0-2-0.897-2-2V15z"/>
</g>
</svg>
