<?xml version="1.0" encoding="utf-8"?>
<!-- Generator: Adobe Illustrator 16.2.0, SVG Export Plug-In . SVG Version: 6.00 Build 0)  -->
<!DOCTYPE svg PUBLIC "-//W3C//DTD SVG 1.1//EN" "http://www.w3.org/Graphics/SVG/1.1/DTD/svg11.dtd">
<svg version="1.1" id="Layer_1" xmlns="http://www.w3.org/2000/svg" xmlns:xlink="http://www.w3.org/1999/xlink" x="0px" y="0px"
	 width="30px" height="30px" viewBox="0 0 30 30" enable-background="new 0 0 30 30" xml:space="preserve">
<g>
	<path d="M11,21h1c0.552,0,1-0.447,1-1s-0.448-1-1-1h-1c-0.552,0-1,0.447-1,1S10.448,21,11,21z"/>
	<path d="M18,21h1c0.552,0,1-0.447,1-1s-0.448-1-1-1h-1c-0.552,0-1,0.447-1,1S17.448,21,18,21z"/>
	<path d="M23.707,26.293l-2.799-2.799C22.148,22.813,23,21.512,23,20v-9c0-2.206-1.794-4-4-4h-1V4.332
		c1.642,0.428,2.103,1.115,2.105,1.115C20.281,5.798,20.634,6,21.001,6c0.15,0,0.303-0.034,0.446-0.105
		c0.494-0.247,0.694-0.848,0.447-1.342C21.764,4.291,20.46,2,15,2S8.236,4.291,8.105,4.553c-0.239,0.479-0.048,1.041,0.42,1.302
		c0.468,0.258,1.069,0.085,1.35-0.371C9.881,5.474,10.34,4.768,12,4.334V7h-1c-2.206,0-4,1.794-4,4v9
		c0,1.512,0.852,2.813,2.092,3.494l-2.799,2.799c-0.391,0.391-0.391,1.023,0,1.414C6.488,27.902,6.744,28,7,28
		s0.512-0.098,0.707-0.293L11.414,24h7.173l3.707,3.707C22.488,27.902,22.744,28,23,28s0.512-0.098,0.707-0.293
		C24.098,27.316,24.098,26.684,23.707,26.293z M14,4.034C14.313,4.015,14.641,4,15,4s0.687,0.015,1,0.034V7h-2V4.034z M11,9h8
		c1.103,0,2,0.897,2,2v2.429C20.079,13.935,17.805,15,15,15c-2.786,0-5.073-1.068-6-1.573V11C9,9.897,9.897,9,11,9z M9,15.66
		c1.353,0.613,3.483,1.34,6,1.34s4.647-0.727,6-1.34V20c0,1.103-0.897,2-2,2h-8c-1.103,0-2-0.897-2-2V15.66z"/>
</g>
</svg>
