<?xml version="1.0" encoding="utf-8"?>
<!-- Generator: Adobe Illustrator 16.2.0, SVG Export Plug-In . SVG Version: 6.00 Build 0)  -->
<!DOCTYPE svg PUBLIC "-//W3C//DTD SVG 1.1//EN" "http://www.w3.org/Graphics/SVG/1.1/DTD/svg11.dtd">
<svg version="1.1" id="Layer_1" xmlns="http://www.w3.org/2000/svg" xmlns:xlink="http://www.w3.org/1999/xlink" x="0px" y="0px"
	 width="30px" height="30px" viewBox="0 0 30 30" enable-background="new 0 0 30 30" xml:space="preserve">
<g>
	<path d="M28,5H13c-0.552,0-1,0.447-1,1v2H7C6.621,8,6.275,8.214,6.105,8.553l-1.881,3.763l-2.779,1.853C1.167,14.354,1,14.666,1,15
		v6c0,0.553,0.448,1,1,1h2.051c0.245,1.691,1.691,3,3.449,3s3.204-1.309,3.449-3h7.102c0.245,1.691,1.691,3,3.449,3
		s3.204-1.309,3.449-3H28c0.552,0,1-0.447,1-1V6C29,5.447,28.552,5,28,5z M7.5,23C6.673,23,6,22.327,6,21.5S6.673,20,7.5,20
		S9,20.673,9,21.5S8.327,23,7.5,23z M7.5,18c-1.391,0-2.585,0.822-3.149,2H3v-4.465L5.303,14H10c0.552,0,1-0.447,1-1s-0.448-1-1-1
		H6.618l1-2H12v10h-1.351C10.085,18.822,8.891,18,7.5,18z M21.5,23c-0.827,0-1.5-0.673-1.5-1.5s0.673-1.5,1.5-1.5s1.5,0.673,1.5,1.5
		S22.327,23,21.5,23z M27,20h-2.351c-0.564-1.178-1.758-2-3.149-2s-2.585,0.822-3.149,2H14V7h13V20z"/>
</g>
</svg>
