<?xml version="1.0" encoding="utf-8"?>
<!-- Generator: Adobe Illustrator 16.2.0, SVG Export Plug-In . SVG Version: 6.00 Build 0)  -->
<!DOCTYPE svg PUBLIC "-//W3C//DTD SVG 1.1//EN" "http://www.w3.org/Graphics/SVG/1.1/DTD/svg11.dtd">
<svg version="1.1" id="Layer_1" xmlns="http://www.w3.org/2000/svg" xmlns:xlink="http://www.w3.org/1999/xlink" x="0px" y="0px"
	 width="30px" height="30px" viewBox="0 0 30 30" enable-background="new 0 0 30 30" xml:space="preserve">
<g>
	<path d="M19,22H7c-0.553,0-1-0.448-1-1V11c0-0.552,0.447-1,1-1h12c0.553,0,1,0.448,1,1v10C20,21.552,19.553,22,19,22z M8,20h10v-8
		H8V20z"/>
	<path d="M26,7H11.954l1.839-2.39c0.336-0.438,0.255-1.066-0.184-1.402c-0.438-0.338-1.065-0.256-1.402,0.183L9.5,6.909L6.793,3.39
		C6.455,2.953,5.828,2.87,5.391,3.208C4.952,3.544,4.871,4.172,5.207,4.61L7.046,7H4C3.447,7,3,7.448,3,8v16c0,0.552,0.447,1,1,1h2
		v1c0,0.552,0.447,1,1,1s1-0.448,1-1v-1h14v1c0,0.552,0.447,1,1,1s1-0.448,1-1v-1h2c0.553,0,1-0.448,1-1V8C27,7.448,26.553,7,26,7z
		 M25,23H5V9h20V23z"/>
	<circle cx="22.5" cy="11.5" r="1.5"/>
	<circle cx="22.5" cy="15.5" r="1.5"/>
</g>
</svg>
