<?xml version="1.0" encoding="utf-8"?>
<!-- Generator: Adobe Illustrator 16.2.0, SVG Export Plug-In . SVG Version: 6.00 Build 0)  -->
<!DOCTYPE svg PUBLIC "-//W3C//DTD SVG 1.1//EN" "http://www.w3.org/Graphics/SVG/1.1/DTD/svg11.dtd">
<svg version="1.1" id="Layer_1" xmlns="http://www.w3.org/2000/svg" xmlns:xlink="http://www.w3.org/1999/xlink" x="0px" y="0px"
	 width="30px" height="30px" viewBox="0 0 30 30" enable-background="new 0 0 30 30" xml:space="preserve">
<g>
	<path d="M16,5.051V4c0-0.553-0.447-1-1-1s-1,0.447-1,1v1.051C7.85,5.562,3,10.721,3,17c0,0.553,0.447,1,1,1s1-0.447,1-1
		c0-0.408,0.779-1,2-1s2,0.592,2,1c0,0.553,0.443,1.027,0.995,1.027c0.507,0,0.921-0.354,0.987-0.838
		c0.009-0.049,0.015-0.1,0.017-0.151c0.149-0.265,1.187-0.83,3.001-0.991V23c0,1.103-0.897,2-2,2s-2-0.897-2-2c0-0.553-0.447-1-1-1
		s-1,0.447-1,1c0,2.206,1.794,4,4,4s4-1.794,4-4v-6.953c1.853,0.163,2.893,0.742,3,0.953c0,0.553,0.447,1,1,1s1-0.447,1-1
		c0-0.408,0.779-1,2-1s2,0.592,2,1c0,0.553,0.447,1,1,1s1-0.447,1-1C27,10.721,22.15,5.562,16,5.051z M23,14
		c-1.295,0-2.427,0.438-3.153,1.134C18.68,14.363,16.797,14,15,14s-3.68,0.363-4.847,1.134C9.427,14.438,8.295,14,7,14
		c-0.577,0-1.123,0.087-1.614,0.246C6.584,10.066,10.44,7,15,7s8.416,3.066,9.614,7.246C24.123,14.087,23.577,14,23,14z"/>
</g>
</svg>
