<?xml version="1.0" encoding="utf-8"?>
<!-- Generator: Adobe Illustrator 16.2.0, SVG Export Plug-In . SVG Version: 6.00 Build 0)  -->
<!DOCTYPE svg PUBLIC "-//W3C//DTD SVG 1.1//EN" "http://www.w3.org/Graphics/SVG/1.1/DTD/svg11.dtd">
<svg version="1.1" id="Layer_1" xmlns="http://www.w3.org/2000/svg" xmlns:xlink="http://www.w3.org/1999/xlink" x="0px" y="0px"
	 width="30px" height="30px" viewBox="0 0 30 30" enable-background="new 0 0 30 30" xml:space="preserve">
<g>
	<path d="M26,26c-0.373,0-0.722-0.208-0.895-0.553C23.372,21.979,20.657,18,15,18h-1v5c0,0.405-0.245,0.771-0.62,0.925
		c-0.374,0.154-0.806,0.065-1.091-0.222l-9-9.104C3.103,14.411,2.999,14.156,3,13.891c0.001-0.265,0.108-0.519,0.297-0.705l9-8.896
		c0.287-0.285,0.718-0.365,1.088-0.212C13.758,4.232,14,4.597,14,5v5.051C24.842,10.615,27,15.992,27,25
		c0,0.464-0.319,0.866-0.77,0.974C26.153,25.991,26.076,26,26,26z M13,16h2c4.793,0,7.814,2.405,9.824,5.109
		c-0.646-5.964-3.309-8.885-11.849-9.096C12.433,12,12,11.557,12,11.014V7.395l-6.586,6.51L12,20.566V17C12,16.447,12.448,16,13,16
		z"/>
</g>
</svg>
