<?xml version="1.0" encoding="utf-8"?>
<!-- Generator: Adobe Illustrator 16.2.0, SVG Export Plug-In . SVG Version: 6.00 Build 0)  -->
<!DOCTYPE svg PUBLIC "-//W3C//DTD SVG 1.1//EN" "http://www.w3.org/Graphics/SVG/1.1/DTD/svg11.dtd">
<svg version="1.1" id="Layer_1" xmlns="http://www.w3.org/2000/svg" xmlns:xlink="http://www.w3.org/1999/xlink" x="0px" y="0px"
	 width="30px" height="30px" viewBox="0 0 30 30" enable-background="new 0 0 30 30" xml:space="preserve">
<g>
	<path d="M9.033,26c-0.752,0-1.503-0.286-2.075-0.858l-2.101-2.101c-1.145-1.144-1.145-3.005,0-4.149l4.035-4.036
		c0.865-0.865,1.824-0.979,2.387-0.817c0.53,0.154,0.835,0.709,0.681,1.24c-0.146,0.505-0.654,0.805-1.164,0.7
		c-0.043,0.002-0.225,0.027-0.489,0.292l-4.035,4.036c-0.364,0.364-0.364,0.957,0,1.321l2.101,2.101
		c0.365,0.364,0.956,0.363,1.321,0l4.036-4.035c0.299-0.299,0.292-0.492,0.291-0.5c-0.153-0.531,0.161-1.042,0.691-1.197
		c0.525-0.151,1.095,0.194,1.248,0.724c0.163,0.562,0.048,1.523-0.816,2.387l-4.036,4.035C10.535,25.715,9.784,26,9.033,26z"/>
	<path d="M19.191,16.023c-0.175,0-0.334-0.023-0.469-0.063c-0.531-0.153-0.837-0.708-0.684-1.238
		c0.146-0.504,0.654-0.808,1.163-0.702c0.044-0.002,0.226-0.027,0.491-0.292l4.035-4.035c0.364-0.365,0.364-0.958,0-1.322
		l-2.1-2.1c-0.365-0.364-0.957-0.364-1.322,0l-4.035,4.035c-0.3,0.3-0.293,0.493-0.292,0.501c0.153,0.53-0.162,1.042-0.692,1.196
		c-0.536,0.154-1.095-0.196-1.248-0.726c-0.162-0.561-0.045-1.522,0.818-2.385l4.035-4.035c1.145-1.145,3.006-1.145,4.15,0
		l2.1,2.1c1.145,1.144,1.145,3.006,0,4.15l-4.035,4.035C20.453,15.797,19.742,16.023,19.191,16.023z"/>
	<path d="M12,11c-0.553,0-1-0.448-1-1V7c0-0.552,0.447-1,1-1s1,0.448,1,1v3C13,10.552,12.553,11,12,11z"/>
	<path d="M10,13H7c-0.553,0-1-0.448-1-1s0.447-1,1-1h3c0.553,0,1,0.448,1,1S10.553,13,10,13z"/>
	<path d="M23,19h-3c-0.553,0-1-0.448-1-1s0.447-1,1-1h3c0.553,0,1,0.448,1,1S23.553,19,23,19z"/>
	<path d="M18,24c-0.553,0-1-0.448-1-1v-3c0-0.552,0.447-1,1-1s1,0.448,1,1v3C19,23.552,18.553,24,18,24z"/>
</g>
</svg>
