<?xml version="1.0" encoding="utf-8"?>
<!-- Generator: Adobe Illustrator 16.2.0, SVG Export Plug-In . SVG Version: 6.00 Build 0)  -->
<!DOCTYPE svg PUBLIC "-//W3C//DTD SVG 1.1//EN" "http://www.w3.org/Graphics/SVG/1.1/DTD/svg11.dtd">
<svg version="1.1" id="Layer_1" xmlns="http://www.w3.org/2000/svg" xmlns:xlink="http://www.w3.org/1999/xlink" x="0px" y="0px"
	 width="30px" height="30px" viewBox="0 0 30 30" enable-background="new 0 0 30 30" xml:space="preserve">
<g>
	<path d="M15,27C8.383,27,3,21.617,3,15S8.383,3,15,3s12,5.383,12,12S21.617,27,15,27z M15,5C9.486,5,5,9.486,5,15s4.486,10,10,10
		s10-4.486,10-10S20.514,5,15,5z"/>
	<path d="M20,18c-0.256,0-0.512-0.098-0.707-0.293l-4.294-4.291l-4.292,4.291c-0.391,0.391-1.023,0.391-1.414,0
		s-0.391-1.023,0-1.414l4.999-4.998c0.391-0.391,1.023-0.391,1.414,0l5.001,4.998c0.391,0.39,0.391,1.023,0,1.414
		C20.512,17.902,20.256,18,20,18z"/>
</g>
</svg>
