<?xml version="1.0" encoding="utf-8"?>
<!-- Generator: Adobe Illustrator 16.2.0, SVG Export Plug-In . SVG Version: 6.00 Build 0)  -->
<!DOCTYPE svg PUBLIC "-//W3C//DTD SVG 1.1//EN" "http://www.w3.org/Graphics/SVG/1.1/DTD/svg11.dtd">
<svg version="1.1" id="Layer_1" xmlns="http://www.w3.org/2000/svg" xmlns:xlink="http://www.w3.org/1999/xlink" x="0px" y="0px"
	 width="30px" height="30px" viewBox="0 0 30 30" enable-background="new 0 0 30 30" xml:space="preserve">
<g>
	<path d="M23,13H7c-0.404,0-0.769-0.243-0.924-0.617s-0.069-0.804,0.217-1.09l8-8c0.391-0.391,1.023-0.391,1.414,0l8,8
		c0.286,0.286,0.372,0.716,0.217,1.09S23.404,13,23,13z M9.414,11h11.172L15,5.414L9.414,11z"/>
	<path d="M15,27c-0.256,0-0.512-0.098-0.707-0.293l-8-8c-0.286-0.286-0.372-0.716-0.217-1.09S6.596,17,7,17h16
		c0.404,0,0.769,0.243,0.924,0.617s0.069,0.804-0.217,1.09l-8,8C15.512,26.902,15.256,27,15,27z M9.414,19L15,24.586L20.586,19
		H9.414z"/>
</g>
</svg>
