<?xml version="1.0" encoding="utf-8"?>
<!-- Generator: Adobe Illustrator 16.2.0, SVG Export Plug-In . SVG Version: 6.00 Build 0)  -->
<!DOCTYPE svg PUBLIC "-//W3C//DTD SVG 1.1//EN" "http://www.w3.org/Graphics/SVG/1.1/DTD/svg11.dtd">
<svg version="1.1" id="Layer_1" xmlns="http://www.w3.org/2000/svg" xmlns:xlink="http://www.w3.org/1999/xlink" x="0px" y="0px"
	 width="30px" height="30px" viewBox="0 0 30 30" enable-background="new 0 0 30 30" xml:space="preserve">
<g>
	<path d="M10.707,11.707L14,8.414V18c0,0.553,0.447,1,1,1s1-0.447,1-1V8.414l3.293,3.293C19.488,11.902,19.744,12,20,12
		s0.512-0.098,0.707-0.293c0.391-0.391,0.391-1.023,0-1.414l-5-5c-0.391-0.391-1.023-0.391-1.414,0l-5,5
		c-0.391,0.391-0.391,1.023,0,1.414S10.316,12.098,10.707,11.707z"/>
	<path d="M25,17c-0.553,0-1,0.447-1,1v5H6v-5c0-0.553-0.447-1-1-1s-1,0.447-1,1v6c0,0.553,0.447,1,1,1h20c0.553,0,1-0.447,1-1v-6
		C26,17.447,25.553,17,25,17z"/>
</g>
</svg>
