<?xml version="1.0" encoding="utf-8"?>
<!-- Generator: Adobe Illustrator 16.2.0, SVG Export Plug-In . SVG Version: 6.00 Build 0)  -->
<!DOCTYPE svg PUBLIC "-//W3C//DTD SVG 1.1//EN" "http://www.w3.org/Graphics/SVG/1.1/DTD/svg11.dtd">
<svg version="1.1" id="Layer_1" xmlns="http://www.w3.org/2000/svg" xmlns:xlink="http://www.w3.org/1999/xlink" x="0px" y="0px"
	 width="30px" height="30px" viewBox="0 0 30 30" enable-background="new 0 0 30 30" xml:space="preserve">
<g>
	<path d="M21,10V4c0-0.552-0.447-1-1-1H10C9.447,3,9,3.448,9,4v6c-1.654,0-3,1.346-3,3v11c0,1.654,1.346,3,3,3h12
		c1.654,0,3-1.346,3-3V13C24,11.346,22.654,10,21,10z M11,5h8v5h-8V5z M22,24c0,0.551-0.448,1-1,1H9c-0.552,0-1-0.449-1-1V13
		c0-0.551,0.448-1,1-1h12c0.552,0,1,0.449,1,1V24z"/>
	<path d="M13,6c-0.553,0-1,0.448-1,1v1c0,0.552,0.447,1,1,1s1-0.448,1-1V7C14,6.448,13.553,6,13,6z"/>
	<path d="M17,6c-0.553,0-1,0.448-1,1v1c0,0.552,0.447,1,1,1s1-0.448,1-1V7C18,6.448,17.553,6,17,6z"/>
</g>
</svg>
