<?xml version="1.0" encoding="utf-8"?>
<!-- Generator: Adobe Illustrator 16.2.0, SVG Export Plug-In . SVG Version: 6.00 Build 0)  -->
<!DOCTYPE svg PUBLIC "-//W3C//DTD SVG 1.1//EN" "http://www.w3.org/Graphics/SVG/1.1/DTD/svg11.dtd">
<svg version="1.1" id="Layer_1" xmlns="http://www.w3.org/2000/svg" xmlns:xlink="http://www.w3.org/1999/xlink" x="0px" y="0px"
	 width="30px" height="30px" viewBox="0 0 30 30" enable-background="new 0 0 30 30" xml:space="preserve">
<g>
	<path d="M19.96,13.372C20.615,12.41,21,11.25,21,10V9c0-3.309-2.691-6-6-6S9,5.692,9,9v1c0,1.25,0.385,2.41,1.04,3.372
		C7.399,14.229,4,16.486,4,21v5c0,0.552,0.448,1,1,1h20c0.552,0,1-0.448,1-1v-5C26,16.486,22.601,14.229,19.96,13.372z M11,9
		c0-2.206,1.794-4,4-4s4,1.794,4,4v1c0,2.206-1.794,4-4,4s-4-1.794-4-4V9z M24,25h-2v-5c0-0.552-0.448-1-1-1s-1,0.448-1,1v5H10v-5
		c0-0.552-0.448-1-1-1s-1,0.448-1,1v5H6v-4c0-4.724,4.88-5.837,5.704-5.992C12.651,15.634,13.783,16,15,16
		c1.217,0,2.349-0.367,3.295-0.991C19.125,15.164,24,16.278,24,21V25z"/>
</g>
</svg>
