<?xml version="1.0" encoding="utf-8"?>
<!-- Generator: Adobe Illustrator 16.2.0, SVG Export Plug-In . SVG Version: 6.00 Build 0)  -->
<!DOCTYPE svg PUBLIC "-//W3C//DTD SVG 1.1//EN" "http://www.w3.org/Graphics/SVG/1.1/DTD/svg11.dtd">
<svg version="1.1" id="Layer_1" xmlns="http://www.w3.org/2000/svg" xmlns:xlink="http://www.w3.org/1999/xlink" x="0px" y="0px"
	 width="30px" height="30px" viewBox="0 0 30 30" enable-background="new 0 0 30 30" xml:space="preserve">
<g>
	<path d="M24.233,14.336C24.71,13.677,25,12.875,25,12v-1c0-2.206-1.794-4-4-4s-4,1.794-4,4v1c0,0.873,0.289,1.675,0.766,2.333
		c-0.388,0.263-0.815,0.603-1.217,1.043c-0.719-1.032-1.601-1.776-2.4-2.263C14.679,12.376,15,11.478,15,10.5v-1
		C15,7.019,12.981,5,10.5,5S6,7.019,6,9.5v1c0,0.977,0.321,1.875,0.852,2.614C5.121,14.167,3,16.43,3,20.183V24c0,0.552,0.448,1,1,1
		l6.5,0l6.5,0c0.552,0,1-0.448,1-1v-1h8c0.552,0,1-0.448,1-1v-2.746C27,16.686,25.401,15.131,24.233,14.336z M19,11
		c0-1.103,0.897-2,2-2s2,0.897,2,2v1c0,1.103-0.897,2-2,2s-2-0.897-2-2V11z M8,9.5C8,8.122,9.122,7,10.5,7S13,8.122,13,9.5v1
		c0,1.378-1.122,2.5-2.5,2.5S8,11.879,8,10.5V9.5z M16,23l-5.5,0L5,23v-2.817c0-3.907,2.799-5.367,3.5-5.672
		c0.605,0.303,1.278,0.49,2,0.49s1.395-0.187,2-0.49c0.701,0.309,3.5,1.787,3.5,5.672V23z M25,21h-7v-0.817
		c0-1.047-0.171-1.972-0.447-2.793c0.519-0.918,1.405-1.483,1.86-1.721C19.9,15.88,20.436,16,21,16c0.564,0,1.1-0.12,1.587-0.332
		C23.291,16.039,25,17.155,25,19.254V21z"/>
</g>
</svg>
