<?xml version="1.0" encoding="utf-8"?>
<!-- Generator: Adobe Illustrator 16.2.0, SVG Export Plug-In . SVG Version: 6.00 Build 0)  -->
<!DOCTYPE svg PUBLIC "-//W3C//DTD SVG 1.1//EN" "http://www.w3.org/Graphics/SVG/1.1/DTD/svg11.dtd">
<svg version="1.1" id="Layer_1" xmlns="http://www.w3.org/2000/svg" xmlns:xlink="http://www.w3.org/1999/xlink" x="0px" y="0px"
	 width="30px" height="30px" viewBox="0 0 30 30" enable-background="new 0 0 30 30" xml:space="preserve">
<g>
	<path d="M20,11c-2.206,0-4,1.794-4,4c0,0.731,0.212,1.409,0.557,2h-3.113C13.788,16.409,14,15.731,14,15c0-2.206-1.794-4-4-4
		s-4,1.794-4,4s1.794,4,4,4h10c2.206,0,4-1.794,4-4S22.206,11,20,11z M8,15c0-1.103,0.897-2,2-2s2,0.897,2,2s-0.897,2-2,2
		S8,16.103,8,15z M20,17c-1.103,0-2-0.897-2-2s0.897-2,2-2s2,0.897,2,2S21.103,17,20,17z"/>
	<path d="M25,25H5c-1.654,0-3-1.346-3-3V8c0-1.654,1.346-3,3-3h20c1.654,0,3,1.346,3,3v14C28,23.654,26.654,25,25,25z M5,7
		C4.448,7,4,7.448,4,8v14c0,0.552,0.448,1,1,1h20c0.552,0,1-0.448,1-1V8c0-0.552-0.448-1-1-1H5z"/>
</g>
</svg>
