<?xml version="1.0" encoding="utf-8"?>
<!-- Generator: Adobe Illustrator 16.2.0, SVG Export Plug-In . SVG Version: 6.00 Build 0)  -->
<!DOCTYPE svg PUBLIC "-//W3C//DTD SVG 1.1//EN" "http://www.w3.org/Graphics/SVG/1.1/DTD/svg11.dtd">
<svg version="1.1" id="Layer_1" xmlns="http://www.w3.org/2000/svg" xmlns:xlink="http://www.w3.org/1999/xlink" x="0px" y="0px"
	 width="30px" height="30px" viewBox="0 0 30 30" enable-background="new 0 0 30 30" xml:space="preserve">
<g>
	<path d="M14,26c-0.291,0-0.574-0.127-0.768-0.359L8.532,20H5c-0.552,0-1-0.447-1-1v-8c0-0.553,0.448-1,1-1h3.532l4.7-5.641
		c0.27-0.323,0.713-0.442,1.108-0.3C14.736,4.203,15,4.579,15,5v20c0,0.421-0.264,0.797-0.66,0.94C14.229,25.98,14.114,26,14,26z
		 M6,18h3c0.297,0,0.578,0.132,0.768,0.359L13,22.238V7.762l-3.232,3.879C9.578,11.868,9.297,12,9,12H6V18z"/>
	<path d="M19.376,24.981c-0.371,0-0.726-0.206-0.899-0.562c-0.243-0.496-0.037-1.095,0.46-1.337C22.06,21.559,24,18.461,24,15
		s-1.94-6.559-5.063-8.083c-0.497-0.242-0.703-0.841-0.46-1.337c0.241-0.497,0.838-0.705,1.337-0.46C23.629,6.982,26,10.769,26,15
		s-2.371,8.018-6.187,9.88C19.672,24.949,19.523,24.981,19.376,24.981z"/>
	<path d="M17.479,21.46c-0.38,0-0.743-0.218-0.911-0.586c-0.229-0.503-0.007-1.096,0.496-1.324C18.848,18.738,20,16.952,20,15
		s-1.152-3.738-2.936-4.55c-0.503-0.229-0.725-0.821-0.496-1.324C16.797,8.624,17.39,8.4,17.893,8.63C20.388,9.766,22,12.266,22,15
		s-1.612,5.234-4.107,6.37C17.758,21.432,17.618,21.46,17.479,21.46z"/>
</g>
</svg>
