<?xml version="1.0" encoding="utf-8"?>
<!-- Generator: Adobe Illustrator 16.2.0, SVG Export Plug-In . SVG Version: 6.00 Build 0)  -->
<!DOCTYPE svg PUBLIC "-//W3C//DTD SVG 1.1//EN" "http://www.w3.org/Graphics/SVG/1.1/DTD/svg11.dtd">
<svg version="1.1" id="Layer_1" xmlns="http://www.w3.org/2000/svg" xmlns:xlink="http://www.w3.org/1999/xlink" x="0px" y="0px"
	 width="30px" height="30px" viewBox="0 0 30 30" enable-background="new 0 0 30 30" xml:space="preserve">
<g>
	<path d="M14,26c-0.291,0-0.574-0.127-0.768-0.359L8.532,20H5c-0.552,0-1-0.447-1-1v-8c0-0.553,0.448-1,1-1h3.532l4.7-5.641
		c0.27-0.323,0.713-0.442,1.108-0.3C14.736,4.203,15,4.579,15,5v20c0,0.421-0.264,0.797-0.66,0.94C14.229,25.98,14.114,26,14,26z
		 M6,18h3c0.297,0,0.578,0.132,0.768,0.359L13,22.238V7.762l-3.232,3.879C9.578,11.868,9.297,12,9,12H6V18z"/>
	<path d="M23.414,15l3.293-3.293c0.391-0.391,0.391-1.023,0-1.414s-1.023-0.391-1.414,0L22,13.586l-3.293-3.293
		c-0.391-0.391-1.023-0.391-1.414,0s-0.391,1.023,0,1.414L20.586,15l-3.293,3.293c-0.391,0.391-0.391,1.023,0,1.414
		C17.488,19.902,17.744,20,18,20s0.512-0.098,0.707-0.293L22,16.414l3.293,3.293C25.488,19.902,25.744,20,26,20
		s0.512-0.098,0.707-0.293c0.391-0.391,0.391-1.023,0-1.414L23.414,15z"/>
</g>
</svg>
