<?xml version="1.0" encoding="utf-8"?>
<!-- Generator: Adobe Illustrator 16.2.0, SVG Export Plug-In . SVG Version: 6.00 Build 0)  -->
<!DOCTYPE svg PUBLIC "-//W3C//DTD SVG 1.1//EN" "http://www.w3.org/Graphics/SVG/1.1/DTD/svg11.dtd">
<svg version="1.1" id="Layer_1" xmlns="http://www.w3.org/2000/svg" xmlns:xlink="http://www.w3.org/1999/xlink" x="0px" y="0px"
	 width="30px" height="30px" viewBox="0 0 30 30" enable-background="new 0 0 30 30" xml:space="preserve">
<g>
	<path d="M26,5H5C4.448,5,4,5.448,4,6v5c-0.552,0-1,0.448-1,1v6c0,0.552,0.448,1,1,1v5c0,0.552,0.448,1,1,1h21c0.552,0,1-0.448,1-1
		V6C27,5.448,26.552,5,26,5z M5,17v-4h10c1.103,0,2,0.897,2,2s-0.897,2-2,2H5z M25,23H6v-4h9c2.206,0,4-1.794,4-4s-1.794-4-4-4H6V7
		h19V23z"/>
	<circle cx="15" cy="15" r="1"/>
</g>
</svg>
