<?xml version="1.0" encoding="utf-8"?>
<!-- Generator: Adobe Illustrator 16.2.0, SVG Export Plug-In . SVG Version: 6.00 Build 0)  -->
<!DOCTYPE svg PUBLIC "-//W3C//DTD SVG 1.1//EN" "http://www.w3.org/Graphics/SVG/1.1/DTD/svg11.dtd">
<svg version="1.1" id="Layer_1" xmlns="http://www.w3.org/2000/svg" xmlns:xlink="http://www.w3.org/1999/xlink" x="0px" y="0px"
	 width="30px" height="30px" viewBox="0 0 30 30" enable-background="new 0 0 30 30" xml:space="preserve">
<g>
	<path d="M15,19c2.757,0,5-2.243,5-5s-2.243-5-5-5s-5,2.243-5,5S12.243,19,15,19z M15,11c1.654,0,3,1.346,3,3s-1.346,3-3,3
		s-3-1.346-3-3S13.346,11,15,11z"/>
	<path d="M21.761,20.347C23.747,18.518,25,15.906,25,13c0-5.514-4.486-10-10-10S5,7.486,5,13c0,2.906,1.253,5.518,3.239,7.347
		l-1.946,1.946c-0.337,0.337-0.39,0.865-0.125,1.262C6.262,23.695,8.539,27,15,27s8.738-3.305,8.832-3.445
		c0.265-0.396,0.212-0.925-0.125-1.262L21.761,20.347z M7,13c0-4.411,3.589-8,8-8s8,3.589,8,8s-3.589,8-8,8S7,17.411,7,13z M15,25
		c-3.743,0-5.736-1.22-6.611-1.975l1.466-1.467C11.361,22.467,13.117,23,15,23s3.639-0.533,5.145-1.441l1.465,1.466
		C20.731,23.782,18.739,25,15,25z"/>
	<circle cx="15" cy="7" r="1"/>
</g>
</svg>
