<?xml version="1.0" encoding="utf-8"?>
<!-- Generator: Adobe Illustrator 16.2.0, SVG Export Plug-In . SVG Version: 6.00 Build 0)  -->
<!DOCTYPE svg PUBLIC "-//W3C//DTD SVG 1.1//EN" "http://www.w3.org/Graphics/SVG/1.1/DTD/svg11.dtd">
<svg version="1.1" id="Layer_1" xmlns="http://www.w3.org/2000/svg" xmlns:xlink="http://www.w3.org/1999/xlink" x="0px" y="0px"
	 width="30px" height="30px" viewBox="0 0 30 30" enable-background="new 0 0 30 30" xml:space="preserve">
<g>
	<path d="M26.707,3.293c-0.391-0.391-1.023-0.391-1.414,0l-2.946,2.946C20.518,4.254,17.906,3,15,3C9.486,3,5,7.486,5,13
		c0,2.906,1.253,5.518,3.239,7.347l-1.946,1.946l-3,3c-0.391,0.391-0.391,1.023,0,1.414C3.488,26.902,3.744,27,4,27
		s0.512-0.098,0.707-0.293l2.272-2.271C8.125,25.457,10.584,27,15,27c6.461,0,8.738-3.305,8.832-3.445
		c0.265-0.396,0.212-0.925-0.125-1.262l-1.946-1.946C23.747,18.518,25,15.906,25,13c0-1.883-0.533-3.64-1.441-5.145l3.148-3.148
		C27.098,4.316,27.098,3.684,26.707,3.293z M7,13c0-4.411,3.589-8,8-8c2.354,0,4.468,1.028,5.933,2.652l-2.626,2.627
		C17.423,9.493,16.273,9,15,9c-2.757,0-5,2.243-5,5c0,1.272,0.493,2.424,1.279,3.307l-1.626,1.627C8.028,17.468,7,15.354,7,13z
		 M18,14c0,1.654-1.346,3-3,3c-0.182,0-0.359-0.022-0.532-0.054l3.479-3.479C17.978,13.642,18,13.817,18,14z M12,14
		c0-1.654,1.346-3,3-3c0.722,0,1.375,0.267,1.894,0.692l-4.201,4.201C12.267,15.375,12,14.722,12,14z M15,25
		c-3.743,0-5.736-1.22-6.611-1.975l1.466-1.467C11.361,22.467,13.117,23,15,23s3.639-0.533,5.145-1.441l1.465,1.466
		C20.731,23.782,18.739,25,15,25z M23,13c0,4.411-3.589,8-8,8c-1.328,0-2.578-0.33-3.681-0.904l1.576-1.576
		C13.537,18.819,14.246,19,15,19c2.757,0,5-2.243,5-5c0-0.755-0.18-1.463-0.481-2.105l2.576-2.576C22.67,10.422,23,11.672,23,13z"/>
	<circle cx="15" cy="7" r="1"/>
</g>
</svg>
