<?xml version="1.0" encoding="utf-8"?>
<!-- Generator: Adobe Illustrator 16.2.0, SVG Export Plug-In . SVG Version: 6.00 Build 0)  -->
<!DOCTYPE svg PUBLIC "-//W3C//DTD SVG 1.1//EN" "http://www.w3.org/Graphics/SVG/1.1/DTD/svg11.dtd">
<svg version="1.1" id="Layer_1" xmlns="http://www.w3.org/2000/svg" xmlns:xlink="http://www.w3.org/1999/xlink" x="0px" y="0px"
	 width="30px" height="30px" viewBox="0 0 30 30" enable-background="new 0 0 30 30" xml:space="preserve">
<g>
	<path d="M25,3c-0.553,0-1,0.447-1,1v1.5C24,5.672,23.61,6,23,6H7C6.39,6,6,5.672,6,5.5V4c0-0.553-0.448-1-1-1S4,3.447,4,4v1.5
		C4,6.879,5.346,8,7,8h2v3.311C7.164,12.96,6,15.344,6,18c0,2.09,0.718,4.086,2.036,5.692l-0.93,1.86
		c-0.155,0.31-0.138,0.678,0.044,0.973S7.653,27,8,27h14c0.347,0,0.668-0.18,0.851-0.475s0.198-0.663,0.044-0.973l-0.93-1.86
		C23.281,22.086,24,20.09,24,18c0-2.656-1.164-5.04-3-6.689V8h2c1.654,0,3-1.121,3-2.5V4C26,3.447,25.553,3,25,3z M22,18
		c0,1.811-0.693,3.53-1.953,4.843c-0.293,0.305-0.363,0.762-0.174,1.14L20.382,25H9.618l0.509-1.018
		c0.189-0.378,0.12-0.835-0.173-1.14C8.694,21.53,8,19.811,8,18c0-3.859,3.14-7,7-7C18.859,11,22,14.141,22,18z M19,9.949
		C17.793,9.348,16.438,9,15,9c-1.438,0-2.793,0.348-4,0.949V8h8V9.949z"/>
	<path d="M16,16.278V13c0-0.553-0.448-1-1-1s-1,0.447-1,1v3.278c-0.595,0.347-1,0.985-1,1.722c0,1.103,0.897,2,2,2
		c1.104,0,2-0.897,2-2C17,17.264,16.595,16.625,16,16.278z"/>
</g>
</svg>
