<?xml version="1.0" encoding="utf-8"?>
<!-- Generator: Adobe Illustrator 16.2.0, SVG Export Plug-In . SVG Version: 6.00 Build 0)  -->
<!DOCTYPE svg PUBLIC "-//W3C//DTD SVG 1.1//EN" "http://www.w3.org/Graphics/SVG/1.1/DTD/svg11.dtd">
<svg version="1.1" id="Layer_1" xmlns="http://www.w3.org/2000/svg" xmlns:xlink="http://www.w3.org/1999/xlink" x="0px" y="0px"
	 width="30px" height="30px" viewBox="0 0 30 30" enable-background="new 0 0 30 30" xml:space="preserve">
<g>
	<path d="M22,10.406V6c0-1.654-1.346-3-3-3h-8C9.346,3,8,4.346,8,6v4.406c-2.441,1.928-4,4.84-4,8.094
		c0,3.269,1.562,6.296,4.283,8.305C8.455,26.932,8.663,27,8.877,27h12.246c0.214,0,0.422-0.068,0.594-0.195
		C24.438,24.796,26,21.769,26,18.5C26,15.246,24.441,12.334,22,10.406z M10,6c0-0.552,0.448-1,1-1h8c0.552,0,1,0.448,1,1v3.159
		C18.498,8.424,16.801,8,15,8s-3.498,0.424-5,1.159V6z M20.784,25H9.216C7.168,23.376,6,21.024,6,18.5c0-4.687,4.037-8.5,9-8.5
		s9,3.813,9,8.5C24,21.024,22.832,23.376,20.784,25z"/>
	<path d="M14,12c-3.309,0-6,2.691-6,6c0,0.553,0.447,1,1,1s1-0.447,1-1c0-2.206,1.794-4,4-4c0.553,0,1-0.447,1-1S14.553,12,14,12z"
		/>
</g>
</svg>
