<?xml version="1.0" encoding="utf-8"?>
<!-- Generator: Adobe Illustrator 16.2.0, SVG Export Plug-In . SVG Version: 6.00 Build 0)  -->
<!DOCTYPE svg PUBLIC "-//W3C//DTD SVG 1.1//EN" "http://www.w3.org/Graphics/SVG/1.1/DTD/svg11.dtd">
<svg version="1.1" id="Layer_1" xmlns="http://www.w3.org/2000/svg" xmlns:xlink="http://www.w3.org/1999/xlink" x="0px" y="0px"
	 width="30px" height="30px" viewBox="0 0 30 30" enable-background="new 0 0 30 30" xml:space="preserve">
<g>
	<path d="M23.948,23.684l-2-6C21.813,17.275,21.431,17,21,17h-6v-6.142c1.721-0.447,3-2,3-3.858c0-2.206-1.794-4-4-4s-4,1.794-4,4
		c0,1.858,1.279,3.411,3,3.858V13c-3.859,0-7,3.141-7,7s3.141,7,7,7s7-3.141,7-7v-1h0.279l1.772,5.316
		C22.191,24.735,22.581,25,23,25c0.104,0,0.211-0.017,0.316-0.052C23.84,24.774,24.123,24.208,23.948,23.684z M12,7
		c0-1.103,0.897-2,2-2s2,0.897,2,2s-0.897,2-2,2S12,8.103,12,7z M18,20c0,2.757-2.243,5-5,5s-5-2.243-5-5s2.243-5,5-5v3
		c0,0.553,0.447,1,1,1h4V20z"/>
	<path d="M16,14c0,0.553,0.447,1,1,1h4c0.553,0,1-0.447,1-1s-0.447-1-1-1h-4C16.447,13,16,13.447,16,14z"/>
</g>
</svg>
