<?xml version="1.0" encoding="utf-8"?>
<!-- Generator: Adobe Illustrator 16.2.0, SVG Export Plug-In . SVG Version: 6.00 Build 0)  -->
<!DOCTYPE svg PUBLIC "-//W3C//DTD SVG 1.1//EN" "http://www.w3.org/Graphics/SVG/1.1/DTD/svg11.dtd">
<svg version="1.1" id="Layer_1" xmlns="http://www.w3.org/2000/svg" xmlns:xlink="http://www.w3.org/1999/xlink" x="0px" y="0px"
	 width="30px" height="30px" viewBox="0 0 30 30" enable-background="new 0 0 30 30" xml:space="preserve">
<g>
	<circle cx="15.022" cy="23" r="2"/>
	<path d="M19.973,20.049c-0.256,0-0.512-0.098-0.707-0.293C18.132,18.624,16.625,18,15.022,18s-3.11,0.624-4.243,1.756
		c-0.391,0.391-1.024,0.391-1.415,0c-0.39-0.391-0.39-1.024,0-1.414C10.876,16.832,12.886,16,15.022,16s4.146,0.832,5.657,2.342
		c0.391,0.39,0.391,1.023,0,1.414C20.485,19.951,20.229,20.049,19.973,20.049z"/>
	<path d="M23.509,16.514c-0.256,0-0.512-0.098-0.707-0.293C20.726,14.144,17.963,13,15.022,13s-5.703,1.144-7.779,3.221
		c-0.39,0.391-1.023,0.391-1.414,0s-0.391-1.023,0-1.414C8.283,12.352,11.547,11,15.022,11s6.74,1.352,9.193,3.807
		c0.391,0.391,0.391,1.023,0,1.414C24.021,16.416,23.765,16.514,23.509,16.514z"/>
	<path d="M27.045,12.979c-0.256,0-0.512-0.098-0.707-0.293C23.316,9.664,19.298,8,15.022,8S6.729,9.664,3.707,12.686
		c-0.391,0.391-1.023,0.391-1.414,0s-0.391-1.023,0-1.414C5.692,7.872,10.213,6,15.022,6s9.33,1.872,12.729,5.271
		c0.391,0.391,0.391,1.023,0,1.414C27.557,12.881,27.301,12.979,27.045,12.979z"/>
</g>
</svg>
