<?xml version="1.0" encoding="utf-8"?>
<!-- Generator: Adobe Illustrator 16.2.0, SVG Export Plug-In . SVG Version: 6.00 Build 0)  -->
<!DOCTYPE svg PUBLIC "-//W3C//DTD SVG 1.1//EN" "http://www.w3.org/Graphics/SVG/1.1/DTD/svg11.dtd">
<svg version="1.1" id="Layer_1" xmlns="http://www.w3.org/2000/svg" xmlns:xlink="http://www.w3.org/1999/xlink" x="0px" y="0px"
	 width="30px" height="30px" viewBox="0 0 30 30" enable-background="new 0 0 30 30" xml:space="preserve">
<g>
	<path d="M22.936,13.924C26.208,13.435,28,10.315,28,5c0-0.552-0.447-1-1-1H3C2.447,4,2,4.448,2,5c0,5.315,1.792,8.435,5.064,8.924
		c0.311,2.695,1.995,4.653,5.047,5.82c0.005,0.212-0.03,0.466-0.176,0.669C11.663,20.792,10.976,21,10,21c-0.553,0-1,0.448-1,1v3
		c0,0.552,0.447,1,1,1h10c0.553,0,1-0.448,1-1v-3c0-0.552-0.447-1-1-1c-0.969,0-1.654-0.206-1.93-0.58
		c-0.15-0.203-0.185-0.461-0.181-0.677C20.94,18.576,22.625,16.618,22.936,13.924z M23,11.857V6h2.978
		C25.819,9.399,24.815,11.353,23,11.857z M4.022,6H7v5.857C5.185,11.353,4.181,9.399,4.022,6z M16.684,18.051
		c-0.299,0.1-0.533,0.334-0.632,0.632c-0.056,0.165-0.512,1.647,0.391,2.899c0.534,0.742,1.393,1.196,2.558,1.354V24h-8v-1.063
		c1.165-0.158,2.023-0.612,2.558-1.354c0.902-1.251,0.446-2.734,0.391-2.899c-0.099-0.298-0.333-0.533-0.632-0.632
		C10.371,17.07,9,15.465,9,13V6h12v7C21,15.465,19.629,17.07,16.684,18.051z"/>
</g>
</svg>
