<?xml version="1.0" encoding="utf-8"?>
<!-- Generator: Adobe Illustrator 16.2.0, SVG Export Plug-In . SVG Version: 6.00 Build 0)  -->
<!DOCTYPE svg PUBLIC "-//W3C//DTD SVG 1.1//EN" "http://www.w3.org/Graphics/SVG/1.1/DTD/svg11.dtd">
<svg version="1.1" id="Layer_1" xmlns="http://www.w3.org/2000/svg" xmlns:xlink="http://www.w3.org/1999/xlink" x="0px" y="0px"
	 width="30px" height="30px" viewBox="0 0 30 30" enable-background="new 0 0 30 30" xml:space="preserve">
<g>
	<path d="M7.557,27c-1.217,0-2.361-0.474-3.222-1.335c-1.776-1.777-1.776-4.667,0-6.444L11,12.584V8
		c0-0.265,0.105-0.52,0.293-0.707l4-4C15.48,3.105,15.734,3,16,3h6c0.404,0,0.77,0.244,0.924,0.617
		c0.155,0.374,0.069,0.804-0.217,1.09L18.414,9L21,11.586l4.293-4.293c0.286-0.286,0.715-0.372,1.09-0.217
		C26.757,7.231,27,7.596,27,8v6c0,0.265-0.105,0.52-0.293,0.707l-4,4C22.52,18.895,22.266,19,22,19h-4.585l-6.634,6.664
		C9.919,26.526,8.774,27,7.557,27z M13,8.414V13c0,0.266-0.106,0.521-0.295,0.708l-6.958,6.928
		c-0.995,0.996-0.995,2.618,0.002,3.615c0.968,0.966,2.65,0.965,3.616,0l6.926-6.957C16.479,17.106,16.734,17,17,17h4.586
		L25,13.586v-3.172l-3.293,3.293c-0.391,0.391-1.023,0.391-1.414,0l-4-4c-0.391-0.391-0.391-1.023,0-1.414L19.586,5h-3.172
		L13,8.414z"/>
	<path d="M9,22c-0.256,0-0.512-0.098-0.707-0.293c-0.391-0.391-0.391-1.023,0-1.414l5-5c0.391-0.391,1.023-0.391,1.414,0
		s0.391,1.023,0,1.414l-5,5C9.512,21.902,9.256,22,9,22z"/>
</g>
</svg>
