<?xml version="1.0" encoding="utf-8"?>
<!-- Generator: Adobe Illustrator 16.2.0, SVG Export Plug-In . SVG Version: 6.00 Build 0)  -->
<!DOCTYPE svg PUBLIC "-//W3C//DTD SVG 1.1//EN" "http://www.w3.org/Graphics/SVG/1.1/DTD/svg11.dtd">
<svg version="1.1" id="Layer_1" xmlns="http://www.w3.org/2000/svg" xmlns:xlink="http://www.w3.org/1999/xlink" x="0px" y="0px"
	 width="30px" height="30px" viewBox="0 0 30 30" enable-background="new 0 0 30 30" xml:space="preserve">
<g>
	<path d="M15.001,11L15.001,11c-0.828,0-1.502-0.673-1.502-1.5s0.673-1.5,1.5-1.5c0.83,0.006,1.5,0.68,1.5,1.502
		C16.499,10.328,15.827,11,15.001,11z"/>
	<path d="M14.999,22c-0.002,0-0.005,0-0.007,0c-0.823-0.006-1.493-0.68-1.493-1.502c0-0.826,0.672-1.498,1.498-1.498
		c0.828,0,1.502,0.673,1.502,1.5S15.826,22,14.999,22z"/>
	<path d="M15,3C8.383,3,3,8.383,3,15s5.383,12,12,12s12-5.383,12-12S21.617,3,15,3z M5,15C5,9.486,9.486,5,15,5
		c0.268,0,0.53,0.02,0.793,0.04c1.947,0.354,3.515,1.993,3.696,4.059c0.105,1.193-0.262,2.356-1.032,3.275
		c-0.771,0.919-1.854,1.481-3.049,1.586l-0.993,0.088c-1.726,0.15-3.29,0.964-4.404,2.292s-1.646,3.01-1.494,4.735
		c0.059,0.664,0.227,1.299,0.474,1.898C6.572,21.146,5,18.257,5,15z M15,25c-0.274,0-0.544-0.02-0.813-0.041
		c-0.762-0.156-1.482-0.499-2.092-1.01c-0.919-0.771-1.482-1.854-1.587-3.048c-0.104-1.193,0.263-2.356,1.034-3.275
		c0.771-0.919,1.853-1.482,3.047-1.586l0.993-0.088c1.727-0.15,3.291-0.964,4.405-2.293c1.115-1.328,1.646-3.01,1.493-4.735
		c-0.06-0.675-0.232-1.31-0.479-1.903C23.424,8.848,25,11.739,25,15C25,20.514,20.514,25,15,25z"/>
</g>
</svg>
