<svg xmlns="http://www.w3.org/2000/svg" width="164" height="30" viewBox="0 0 164 30">
    <g fill="none" fill-rule="evenodd">
        <path fill="#32B8BE" d="M6.545 11.81h6.517c.813-.055 1.63-.055 2.443 0a.67.67 0 0 1 .582.495c.109.48.109.976 0 1.455 0 .785-.407 1.978-.669 3.23-.262 1.25-.523 2.56-.698 3.46a12.16 12.16 0 0 1-.436 1.717 1.57 1.57 0 0 1-.437.67 1.542 1.542 0 0 1-.989.32H5.615c-.96 0-1.164 0-1.368-.262a2.095 2.095 0 0 1-.727-.931 13.178 13.178 0 0 1-.67-2.386c-.232-1.105-.494-2.53-.755-3.665-.262-1.135-.495-2.037-.611-2.677-.117-.64 0-1.018.145-1.28a2.21 2.21 0 0 1 1.396-.349c.67.175 1.6.204 3.52.204z"/>
        <path fill="#32B8BE" d="M16.815 12.655a.698.698 0 0 1 0 .465.756.756 0 0 1-.495.29c-.201.047-.41.047-.61 0a.436.436 0 0 1-.175-.726.756.756 0 0 1 .32 0h.203c.172-.715.26-1.447.262-2.182a8.727 8.727 0 0 0-4.596-7.826 7.01 7.01 0 0 0-6.197 0 8.727 8.727 0 0 0-4.596 7.826 9.455 9.455 0 0 0 .204 1.978h.261a.756.756 0 0 1 .32 0 .407.407 0 0 1 0 .35.407.407 0 0 1-.29.377c-.202.046-.41.046-.611 0a.756.756 0 0 1-.495-.29.698.698 0 0 1 0-.466 10.385 10.385 0 0 1-.233-2.153 9.513 9.513 0 0 1 5.091-8.727 7.825 7.825 0 0 1 6.895 0 9.513 9.513 0 0 1 5.09 8.727 10.385 10.385 0 0 1-.348 2.357z"/>
        <path fill="#32B8BE" d="M8.553 1.193a8.727 8.727 0 0 1 8.32 9.192c-.002.764-.09 1.525-.262 2.27a.465.465 0 0 1 0 .29.524.524 0 0 1-.35.204 1.164 1.164 0 0 1-.494 0 .175.175 0 0 1 0-.174.175.175 0 0 1 0-.175H16.233c.193-.77.29-1.562.29-2.356a7.942 7.942 0 1 0-15.825 0 9.716 9.716 0 0 0 .233 2.152h.465a.175.175 0 0 1 0 .175.175.175 0 0 1 0 .174 1.164 1.164 0 0 1-.494 0 .524.524 0 0 1-.35-.203.465.465 0 0 1 0-.291 10.124 10.124 0 0 1-.232-2.153 8.727 8.727 0 0 1 8.233-9.105z"/>
        <path fill="#32B8BE" d="M3.985 10.356a1.222 1.222 0 0 1 1.251 1.193v2.502l-.436-.175v-2.298a.756.756 0 1 0-1.513.058v1.31l-.465-.379v-.902a1.222 1.222 0 0 1 1.163-1.309zM13.353 10.007a1.222 1.222 0 0 1 1.25 1.193v1.193l-.29.29v-1.6a.756.756 0 1 0-1.513.059v2.647l-.436.175v-2.91c.067-.526.466-.95.989-1.047z"/>
        <path fill="#32B8BE" d="M4.887 13.993v-3.578l7.797-.291v3.898l-.437.174V10.618l-6.923.262v3.287l-.437-.174z"/>
        <path fill="#32B8BE" d="M10.938 7.33a3.2 3.2 0 0 1 1.63 2.62v.494l-7.797.29v-.494a3.2 3.2 0 0 1 1.454-2.705l-.29-.408a.61.61 0 0 1 0-.814.553.553 0 0 1 .785 0l.436.582a4.567 4.567 0 0 1 2.619 0l.378-.611a.553.553 0 0 1 .785-.175.61.61 0 0 1 .175.815l-.262.407h.087zm0-.843l-.553.902a4.13 4.13 0 0 0-2.909 0l-.61-.844.581.815A2.91 2.91 0 0 0 5.79 9.92l6.924-.262a2.91 2.91 0 0 0-1.833-2.443l.524-.844-.466.116z"/>
        <circle cx="7.125" cy="8.812" r="1" fill="#32B8BE" fill-rule="nonzero" transform="rotate(-2 7.247 8.933)"/>
        <circle cx="9.998" cy="8.71" r="1" fill="#32B8BE" fill-rule="nonzero" transform="rotate(-2.02 10.12 8.832)"/>
        <path fill="#FFF" d="M13.76 12.655H7.069c-.029 0 0 0 0 .145h.32a6.4 6.4 0 0 1 .902.145c.342.077.667.215.96.408.257.184.459.436.582.727.112.298.171.613.174.93.04.31.04.623 0 .932-.058.346-.058.7 0 1.047.052.38.264.718.582.931.327.176.72.176 1.047 0 .344-.181.597-.497.699-.873a3.084 3.084 0 0 0 0-1.192 5.818 5.818 0 0 1 0-1.31c.022-.36.154-.705.378-.989a1.89 1.89 0 0 1 .902-.552c.43-.131.867-.238 1.309-.32.248-.03.492-.09.727-.175h-.204l-1.687.146z"/>
        <path fill="#616A73" d="M32.61 15.098h-2.355a4.975 4.975 0 0 0-2.91.698 2.444 2.444 0 0 0-.989 2.124c-.022.499.1.993.35 1.425.21.33.5.6.843.786.341.19.717.308 1.106.349H31.273c.451-.043.899-.12 1.338-.233v-5.149zm0-2.909a2.91 2.91 0 0 0-.9-2.502 4.305 4.305 0 0 0-2.648-.698 11.23 11.23 0 0 0-2.007.175c-.61.108-1.212.254-1.804.436a4.742 4.742 0 0 1-.582-2.415 14.05 14.05 0 0 1 2.298-.523 16.61 16.61 0 0 1 2.415-.175 6.836 6.836 0 0 1 4.625 1.397 5.585 5.585 0 0 1 1.6 4.421v9.775l-2.589.495c-1.028.174-2.07.262-3.113.261a12.218 12.218 0 0 1-2.705-.261 5.527 5.527 0 0 1-2.036-.873 4.102 4.102 0 0 1-1.31-1.542 5.207 5.207 0 0 1-.465-2.298 4.655 4.655 0 0 1 1.978-3.957 6.487 6.487 0 0 1 2.095-.989 9.6 9.6 0 0 1 2.502-.32H32.61v-.407zM40.087 6.807h2.677c.013.126.013.253 0 .378V9.018c.212-.333.455-.645.727-.93.301-.317.644-.59 1.018-.815.418-.254.868-.45 1.338-.582a6.05 6.05 0 0 1 1.658-.204 6.953 6.953 0 0 1 2.56.466 5.09 5.09 0 0 1 2.008 1.425 6.807 6.807 0 0 1 1.309 2.444c.334 1.133.49 2.31.465 3.49.131 2.301-.653 4.56-2.182 6.284a8.175 8.175 0 0 1-6.167 2.27c-.455.029-.912.029-1.367 0a8 8 0 0 1-1.222-.233v7.156H39.884V6.982l.203-.175zm2.91 13.062c.386.139.785.236 1.192.291.533.039 1.067.039 1.6 0a5.585 5.585 0 0 0 2.153-.35 3.985 3.985 0 0 0 1.57-1.075 5.265 5.265 0 0 0 1.048-1.833c.272-.856.4-1.75.378-2.647a7.215 7.215 0 0 0-.902-3.87 3.2 3.2 0 0 0-2.909-1.425 3.985 3.985 0 0 0-1.454.262c-.47.181-.896.459-1.251.814-.383.402-.68.877-.873 1.397a5.353 5.353 0 0 0-.349 2.007l-.204 6.43zM57.978.116H61.004v22.342H57.978V.116zm3.84 14.226l4.975-7.535h3.316l-4.945 7.186 5.818 8.32H67.636l-5.818-7.971z"/>
        <path fill="#32B8BE" d="M73.745.116h3.026v8.728a4.625 4.625 0 0 1 1.716-1.571 5.498 5.498 0 0 1 2.91-.67 7.156 7.156 0 0 1 2.588.466 5.178 5.178 0 0 1 2.037 1.426 6.662 6.662 0 0 1 1.338 2.443c.331 1.133.488 2.31.465 3.491a8.495 8.495 0 0 1-2.269 6.284 8.727 8.727 0 0 1-6.545 2.269 15.302 15.302 0 0 1-2.764-.262 16.67 16.67 0 0 1-2.385-.582V.291l-.117-.175zm2.91 19.811c.378.126.768.214 1.163.262h1.31a6.05 6.05 0 0 0 2.094-.349 4.422 4.422 0 0 0 1.658-1.076 5.09 5.09 0 0 0 1.105-1.833c.292-.851.43-1.748.408-2.647a7.36 7.36 0 0 0-.873-3.928 3.2 3.2 0 0 0-2.91-1.396c-.474.002-.946.08-1.395.233-.471.155-.906.402-1.28.727a3.55 3.55 0 0 0-.931 1.338 5.265 5.265 0 0 0-.35 2.037v6.632zM91.578 6.807H94.575v8.553a8.99 8.99 0 0 0 .261 2.415c.138.565.419 1.086.815 1.512.37.368.832.63 1.338.757.6.147 1.216.215 1.833.203a9.164 9.164 0 0 0 2.647-.349V6.778H104.465v15.127c-.717.194-1.56.388-2.53.582-1.009.18-2.031.268-3.055.262-.976.01-1.95-.077-2.91-.262a5.382 5.382 0 0 1-2.326-1.047 5.265 5.265 0 0 1-1.6-2.21 10.27 10.27 0 0 1-.582-3.783l.116-8.64zM119.71 19.81c.187.341.334.702.435 1.077.12.427.188.866.204 1.31a11.287 11.287 0 0 1-4.102.698 7.505 7.505 0 0 1-5.818-2.211 8.727 8.727 0 0 1-1.978-5.819c-.008-1.095.16-2.185.494-3.229a7.33 7.33 0 0 1 1.455-2.589 6.836 6.836 0 0 1 2.385-1.745 8.087 8.087 0 0 1 3.317-.64c.759-.01 1.517.039 2.269.145.636.1 1.26.265 1.862.495.038.396.038.796 0 1.193a5.236 5.236 0 0 1-.378 1.192 10.444 10.444 0 0 0-3.404-.523 4.102 4.102 0 0 0-3.52 1.541 6.72 6.72 0 0 0-1.164 4.102 5.964 5.964 0 0 0 1.31 4.277 4.77 4.77 0 0 0 3.607 1.367c.561.043 1.125.043 1.687 0a7.68 7.68 0 0 0 1.338-.64zM123.724.116H126.749v22.342H123.724V.116zm3.84 14.226l4.974-7.535H135.855l-4.946 7.186 5.818 8.32H133.382l-5.818-7.971zM141.178 15.36a5.09 5.09 0 0 0 1.338 3.753 5.265 5.265 0 0 0 3.724 1.192 11.23 11.23 0 0 0 4.13-.756c.184.35.321.72.408 1.106.097.42.155.849.175 1.28-.71.295-1.453.51-2.211.64a15.39 15.39 0 0 1-2.677.203 10.095 10.095 0 0 1-3.665-.582 6.43 6.43 0 0 1-3.956-4.247 10.938 10.938 0 0 1-.466-3.258c-.01-1.101.138-2.198.437-3.258a7.302 7.302 0 0 1 1.367-2.618 6.545 6.545 0 0 1 2.298-1.775 7.593 7.593 0 0 1 3.287-.67c.999-.029 1.991.16 2.91.554a5.818 5.818 0 0 1 2.036 1.512 6.516 6.516 0 0 1 1.25 2.299c.299.94.446 1.922.437 2.909v1.716h-10.822zm7.738-2.24c0-.551-.078-1.1-.232-1.63a4.102 4.102 0 0 0-.67-1.366 3.258 3.258 0 0 0-1.134-.931 3.55 3.55 0 0 0-1.63-.35 3.578 3.578 0 0 0-2.908 1.135 5.498 5.498 0 0 0-1.193 3.142h7.767zM156.45 9.222h-2.385v-.437l5.237-5.818h.233v3.87h3.956c.045.386.045.776 0 1.163.01.213.01.427 0 .64.01.204.01.407 0 .61h-4.044v7.128a15.447 15.447 0 0 0 0 2.037c.042.41.171.806.378 1.163.158.264.406.46.699.553a3.81 3.81 0 0 0 1.105 0h.99l.814-.175c.143.404.231.824.262 1.251v1.135a9.89 9.89 0 0 1-1.28.233h-1.426a5.09 5.09 0 0 1-3.433-1.077 4.45 4.45 0 0 1-1.221-3.52l.116-8.756z"/>
    </g>
</svg>
