<svg xmlns="http://www.w3.org/2000/svg" width="24" height="24" viewBox="0 0 24 24">
    <g fill="none" fill-rule="nonzero">
        <path fill="#FFCC4D" d="M23.953 11.977c0 6.614-5.362 11.976-11.976 11.976C5.362 23.953 0 18.591 0 11.977 0 5.362 5.362 0 11.977 0c6.614 0 11.976 5.362 11.976 11.977"/>
        <path fill="#664500" d="M6.996 15.717c.03.119.777 2.913 4.98 2.913 4.204 0 4.952-2.794 4.98-2.913a.332.332 0 0 0-.157-.369.335.335 0 0 0-.398.051c-.013.013-1.3 1.235-4.424 1.235-3.124 0-4.412-1.222-4.424-1.235a.336.336 0 0 0-.398-.053.333.333 0 0 0-.159.37M9.648 8.982c0 1.287-.745 2.33-1.664 2.33-.918 0-1.663-1.043-1.663-2.33 0-1.286.745-2.328 1.663-2.328.92 0 1.664 1.042 1.664 2.328M18.334 8.982c0 1.287-.745 2.33-1.663 2.33-.92 0-1.664-1.043-1.664-2.33 0-1.286.745-2.328 1.664-2.328.918 0 1.663 1.042 1.663 2.328"/>
    </g>
</svg>
