<svg xmlns="http://www.w3.org/2000/svg" width="20" height="20" viewBox="0 0 20 20">
    <path fill="#1FBDC4" fill-rule="nonzero" d="M19.961 7.438c0-.297-.224-.481-.672-.553l-6.022-.878L10.568.535c-.151-.329-.347-.493-.587-.493s-.436.164-.588.493l-2.7 5.472-6.021.878C.224 6.957 0 7.14 0 7.438c0 .169.1.36.3.577l4.367 4.258-1.032 6.013a1.958 1.958 0 0 0-.024.24c0 .17.042.311.126.428.084.116.21.174.378.174.144 0 .304-.048.48-.144l5.386-2.839 5.386 2.839a.97.97 0 0 0 .48.144c.16 0 .282-.058.366-.174a.711.711 0 0 0 .125-.427c0-.104-.004-.185-.012-.24l-1.031-6.014 4.354-4.258c.208-.208.312-.4.312-.577z"/>
</svg>
