<svg xmlns="http://www.w3.org/2000/svg" width="20" height="20" viewBox="0 0 20 20">
    <path fill="#00D578" fill-rule="nonzero" d="M9.983 0C4.478 0 0 4.478 0 9.983c0 5.504 4.478 9.982 9.983 9.982 5.504 0 9.982-4.478 9.982-9.982C19.965 4.478 15.487 0 9.983 0zm5.732 8.296l-6.272 6.272a1.402 1.402 0 0 1-.998.413c-.377 0-.732-.146-.998-.413L4.25 11.372a1.402 1.402 0 0 1-.413-.999c0-.377.147-.731.413-.998.267-.267.621-.413.999-.413.377 0 .731.146.998.413l2.198 2.198L13.718 6.3c.267-.267.621-.414.998-.414s.732.147.999.414c.55.55.55 1.446 0 1.996z"/>
</svg>
