<svg xmlns="http://www.w3.org/2000/svg" width="20" height="13" viewBox="0 0 20 13">
    <g fill="#616A73" fill-rule="nonzero">
        <path d="M7.13 7.841h3.175a4.04 4.04 0 0 1-3.834 2.692 4.045 4.045 0 0 1-4-3.873A4.038 4.038 0 0 1 6.5 2.467c1.041 0 1.992.397 2.708 1.047.17.154.428.155.595-.002l1.166-1.098a.436.436 0 0 0 .001-.633A6.478 6.478 0 0 0 6.631 0C3.046-.069.025 2.87 0 6.454a6.5 6.5 0 0 0 12.99.412c.006-.043.009-1.492.009-1.492H7.13a.436.436 0 0 0-.436.435v1.596c0 .241.195.436.436.436zM18.045 4.955v-1.57A.384.384 0 0 0 17.661 3h-1.322a.384.384 0 0 0-.384.384v1.57h-1.57A.384.384 0 0 0 14 5.34v1.322c0 .212.172.384.384.384h1.57v1.57c0 .213.173.385.385.385h1.322a.384.384 0 0 0 .384-.384v-1.57h1.57A.384.384 0 0 0 20 6.66V5.339a.384.384 0 0 0-.384-.384h-1.57z"/>
    </g>
</svg>
