<svg xmlns="http://www.w3.org/2000/svg" width="18" height="15" viewBox="0 0 18 15">
    <path fill="#616A73" fill-rule="nonzero" d="M16.89 1.666c-.271.123-.55.226-.833.31.336-.389.593-.845.75-1.346a.287.287 0 0 0-.092-.308A.273.273 0 0 0 16.4.3a6.48 6.48 0 0 1-1.938.782A3.678 3.678 0 0 0 11.874.005c-2.039 0-3.698 1.693-3.698 3.773 0 .164.01.327.03.488A9.412 9.412 0 0 1 1.71.749a.275.275 0 0 0-.455.036 3.83 3.83 0 0 0-.501 1.897c0 .909.318 1.772.88 2.446a3.101 3.101 0 0 1-.495-.226.273.273 0 0 0-.273.002.284.284 0 0 0-.14.24v.05c0 1.357.716 2.578 1.81 3.244a3.128 3.128 0 0 1-.281-.041.275.275 0 0 0-.26.09.288.288 0 0 0-.057.275 3.725 3.725 0 0 0 2.709 2.528 6.445 6.445 0 0 1-3.497 1.019c-.262 0-.525-.016-.783-.047a.278.278 0 0 0-.294.186.286.286 0 0 0 .111.334 9.827 9.827 0 0 0 5.392 1.613c3.765 0 6.12-1.812 7.433-3.331 1.637-1.895 2.575-4.403 2.575-6.881 0-.104-.001-.208-.004-.312a7.275 7.275 0 0 0 1.654-1.788.288.288 0 0 0-.018-.34.274.274 0 0 0-.325-.077z"/>
</svg>
