<?xml version="1.0" standalone="no"?>
<!DOCTYPE svg PUBLIC "-//W3C//DTD SVG 1.1//EN" "http://www.w3.org/Graphics/SVG/1.1/DTD/svg11.dtd" >
<svg xmlns="http://www.w3.org/2000/svg">
<metadata>Generated by IcoMoon</metadata>
<defs>
<font id="icomoon" horiz-adv-x="1024">
<font-face units-per-em="1024" ascent="960" descent="-64" />
<missing-glyph horiz-adv-x="1024" />
<glyph unicode="&#x20;" horiz-adv-x="512" d="" />
<glyph unicode="&#xe900;" glyph-name="check" d="M358.4 292.341l487.715 532.052c38.215 41.689 102.99 44.506 144.678 6.29s44.506-102.99 6.29-144.678l-563.2-614.399c-40.585-44.274-110.384-44.274-150.969 0l-256 279.273c-38.215 41.689-35.398 106.464 6.29 144.678s106.464 35.398 144.678-6.29l180.515-196.925z" />
<glyph unicode="&#xe901;" glyph-name="close" d="M899.137 938.577c28.564 28.564 74.876 28.564 103.44 0s28.564-74.876 0-103.44l-877.714-877.714c-28.564-28.564-74.876-28.564-103.44 0s-28.564 74.876 0 103.44l877.714 877.714zM21.423 835.137c-28.564 28.564-28.564 74.876 0 103.44s74.876 28.564 103.44 0l877.714-877.714c28.564-28.564 28.564-74.876 0-103.44s-74.876-28.564-103.44 0l-877.714 877.714z" />
<glyph unicode="&#xe902;" glyph-name="apps" d="M102.4 857.6v-256h256v256h-256zM51.2 960h358.4c28.277 0 51.2-22.923 51.2-51.2v-358.4c0-28.277-22.923-51.2-51.2-51.2h-358.4c-28.277 0-51.2 22.923-51.2 51.2v358.4c0 28.277 22.923 51.2 51.2 51.2zM665.6 857.6v-256h256v256h-256zM614.4 960h358.4c28.277 0 51.2-22.923 51.2-51.2v-358.4c0-28.277-22.923-51.2-51.2-51.2h-358.4c-28.277 0-51.2 22.923-51.2 51.2v358.4c0 28.277 22.923 51.2 51.2 51.2zM665.6 294.4v-256h256v256h-256zM614.4 396.8h358.4c28.277 0 51.2-22.923 51.2-51.2v-358.4c0-28.277-22.923-51.2-51.2-51.2h-358.4c-28.277 0-51.2 22.923-51.2 51.2v358.4c0 28.277 22.923 51.2 51.2 51.2zM102.4 294.4v-256h256v256h-256zM51.2 396.8h358.4c28.277 0 51.2-22.923 51.2-51.2v-358.4c0-28.277-22.923-51.2-51.2-51.2h-358.4c-28.277 0-51.2 22.923-51.2 51.2v358.4c0 28.277 22.923 51.2 51.2 51.2z" />
<glyph unicode="&#xe903;" glyph-name="download" d="M910.222 296.296c0 31.419 25.47 56.889 56.889 56.889s56.889-25.47 56.889-56.889v-202.272c0-87.275-70.75-158.025-158.025-158.025h-707.951c-87.275 0-158.025 70.75-158.025 158.025v202.272c0 31.419 25.47 56.889 56.889 56.889s56.889-25.47 56.889-56.889v-202.272c0-24.437 19.81-44.247 44.247-44.247h707.951c24.437 0 44.247 19.81 44.247 44.247v202.272zM512 376.749l212.613 212.613c22.216 22.216 58.237 22.216 80.453 0s22.216-58.237 0-80.453l-252.84-252.84c-22.216-22.216-58.237-22.216-80.453 0l-252.84 252.84c-22.216 22.216-22.216 58.237 0 80.453s58.237 22.216 80.453 0l212.613-212.613zM568.889 296.296c0-31.419-25.47-56.889-56.889-56.889s-56.889 25.47-56.889 56.889v606.815c0 31.419 25.47 56.889 56.889 56.889s56.889-25.47 56.889-56.889v-606.815z" />
<glyph unicode="&#xe904;" glyph-name="gamepad" d="M756.999 644.695h-234.815v42.426c0 9.031 7.351 16.382 16.382 16.382h165.505c56.499 0 102.495 45.997 102.495 102.495v77.712c0 23.734-19.322 43.056-43.056 43.056s-43.056-19.322-43.056-43.056v-77.712c0-9.031-7.351-16.382-16.382-16.382h-165.505c-56.499 0-102.495-45.997-102.495-102.495v-42.426h-168.865c-147.652 0-268.42-138.621-268.42-306.436v-62.59c0-169.916 120.768-306.436 268.42-306.436h487.484c149.753 0 270.521 136.31 270.521 306.436v62.59c0.21 169.916-120.558 306.436-268.21 306.436zM940.357 273.359c0-120.768-82.753-219.063-183.358-219.063h-489.794c-100.606 0-183.358 98.295-183.358 219.063v62.59c0 120.768 82.753 219.063 183.358 219.063h489.794c100.606 0 183.358-98.295 183.358-219.063v-62.59zM721.294 461.127c-22.263 0-42.426-17.853-42.426-42.426 0-22.263 17.853-42.426 42.426-42.426 22.263 0 42.426 20.163 42.426 42.426 0 22.473-20.163 42.426-42.426 42.426zM721.294 230.931c-22.263 0-42.426-20.163-42.426-42.426s17.853-42.426 42.426-42.426c22.263 0 42.426 20.163 42.426 42.426s-20.163 42.426-42.426 42.426zM835.341 347.079c-22.263 0-42.426-20.163-42.426-42.426s17.853-42.426 42.426-42.426c24.575 0 42.426 20.163 42.426 42.426 0 22.473-20.163 42.426-42.426 42.426zM604.936 347.079c-22.263 0-42.426-17.853-42.426-42.426 0-22.263 17.853-42.426 42.426-42.426s42.426 17.853 42.426 42.426c0 22.473-17.853 42.426-42.426 42.426zM428.299 347.079h-85.064v82.753c0 22.263-20.163 42.426-42.426 42.426s-42.426-17.853-42.426-42.426v-82.753h-82.753c-22.263 0-42.426-17.853-42.426-42.426 0-22.263 17.853-42.426 42.426-42.426h82.753v-85.064c0-22.263 17.853-42.426 42.426-42.426s44.737 20.163 42.426 42.426v85.064h85.064c22.263 0 42.426 17.853 42.426 42.426 0 22.473-17.853 42.426-42.426 42.426z" />
<glyph unicode="&#xe905;" glyph-name="home" d="M139.637 564.872v-489.235c0-25.706 20.839-46.545 46.545-46.545h651.636c25.706 0 46.545 20.839 46.545 46.545v489.235l-372.364 289.616-372.364-289.616zM64.515 624.377l418.909 325.818c16.808 13.073 40.344 13.073 57.152 0l418.909-325.818c11.338-8.818 17.969-22.377 17.969-36.741v-512c0-77.119-62.517-139.636-139.636-139.636h-651.636c-77.119 0-139.636 62.517-139.636 139.636v512c0 14.363 6.631 27.922 17.969 36.741zM418.91 401.455v-418.909c0-25.706-20.839-46.545-46.545-46.545s-46.545 20.839-46.545 46.545v465.455c0 25.706 20.839 46.545 46.545 46.545h279.273c25.706 0 46.545-20.839 46.545-46.545v-465.455c0-25.706-20.839-46.545-46.545-46.545s-46.545 20.839-46.545 46.545v418.909h-186.182z" />
<glyph unicode="&#xe906;" glyph-name="user" d="M972.8-12.8c0-28.277-22.923-51.2-51.2-51.2s-51.2 22.923-51.2 51.2v102.4c0 84.831-68.769 153.6-153.6 153.6h-409.6c-84.831 0-153.6-68.769-153.6-153.6v-102.4c0-28.277-22.923-51.2-51.2-51.2s-51.2 22.923-51.2 51.2v102.4c0 141.385 114.615 256 256 256h409.6c141.385 0 256-114.615 256-256v-102.4zM512 448c-141.385 0-256 114.615-256 256s114.615 256 256 256c141.385 0 256-114.615 256-256s-114.615-256-256-256zM512 550.4c84.831 0 153.6 68.769 153.6 153.6s-68.769 153.6-153.6 153.6c-84.831 0-153.6-68.769-153.6-153.6s68.769-153.6 153.6-153.6z" />
<glyph unicode="&#xe907;" glyph-name="arrow-down" d="M446.985 894.984c0 35.907 29.109 65.015 65.015 65.015s65.015-29.109 65.015-65.015v-893.97c0-35.907-29.109-65.015-65.015-65.015s-65.015 29.109-65.015 65.015v893.97zM913.011 493.974c25.39 25.39 66.556 25.39 91.946 0s25.39-66.556 0-91.946l-446.984-446.984c-25.39-25.39-66.556-25.39-91.946 0l-446.984 446.984c-25.39 25.39-25.39 66.556 0 91.946s66.556 25.39 91.946 0l401.011-401.011 401.011 401.011z" />
<glyph unicode="&#xe908;" glyph-name="arrow-up" d="M577.015 1.016c0-35.907-29.109-65.015-65.015-65.015s-65.015 29.109-65.015 65.015v893.968c0 35.907 29.109 65.015 65.015 65.015s65.015-29.109 65.015-65.015v-893.968zM512 803.038l-401.011-401.011c-25.39-25.39-66.556-25.39-91.946 0s-25.39 66.556 0 91.946l446.984 446.984c25.39 25.39 66.556 25.39 91.946 0l446.984-446.984c25.39-25.39 25.39-66.556 0-91.946s-66.556-25.39-91.946 0l-401.011 401.011z" />
<glyph unicode="&#xe909;" glyph-name="chevron-down" d="M512 332.009l387.139 387.139c28.566 28.566 74.876 28.566 103.438 0s28.566-74.876 0-103.438l-438.857-438.857c-28.566-28.566-74.876-28.566-103.438 0l-438.857 438.857c-28.566 28.566-28.566 74.876 0 103.438s74.876 28.566 103.438 0l387.139-387.139z" />
<glyph unicode="&#xe90a;" glyph-name="clock" d="M512-64c-282.77 0-512 229.23-512 512s229.23 512 512 512c282.77 0 512-229.23 512-512s-229.23-512-512-512zM512 29.091c231.357 0 418.909 187.552 418.909 418.909s-187.552 418.909-418.909 418.909c-231.357 0-418.909-187.552-418.909-418.909s187.552-418.909 418.909-418.909zM558.545 476.767l160.452-80.226c22.992-11.496 32.312-39.455 20.816-62.447s-39.455-32.312-62.447-20.816l-186.182 93.091c-15.769 7.884-25.73 24.001-25.73 41.632v279.273c0 25.706 20.839 46.545 46.545 46.545s46.545-20.839 46.545-46.545v-250.506z" />
<glyph unicode="&#xe90b;" glyph-name="usd" d="M469.334 917.333c0 23.564 19.103 42.667 42.667 42.667s42.667-19.103 42.667-42.667v-938.666c0-23.564-19.103-42.667-42.667-42.667s-42.667 19.103-42.667 42.667v938.666zM725.334 789.333c23.564 0 42.667-19.103 42.667-42.667s-19.103-42.667-42.667-42.667h-320c-58.91 0-106.667-47.756-106.667-106.667s47.756-106.667 106.667-106.667h213.333c106.039 0 192-85.961 192-192s-85.961-192-192-192h-362.667c-23.564 0-42.667 19.103-42.667 42.667s19.103 42.667 42.667 42.667h362.667c58.91 0 106.667 47.756 106.667 106.667s-47.756 106.667-106.667 106.667h-213.333c-106.039 0-192 85.961-192 192s85.961 192 192 192h320z" />
<glyph unicode="&#xe90c;" glyph-name="edit" d="M716.8 836.392l-614.4-614.4v-183.592h183.592l614.4 614.4-183.592 183.592zM753.004 945.004l256-256c19.995-19.995 19.995-52.413 0-72.408l-665.6-665.6c-9.602-9.602-22.625-14.996-36.204-14.996h-256c-28.277 0-51.2 22.923-51.2 51.2v256c0 13.579 5.394 26.602 14.996 36.204l665.6 665.6c19.995 19.995 52.413 19.995 72.408 0z" />
<glyph unicode="&#xe90d;" glyph-name="emoji" d="M1022.004 448.998c0-282.214-228.788-511.002-511.002-511.002s-511.002 228.788-511.002 511.002c0 282.214 228.788 511.002 511.002 511.002s511.002-228.788 511.002-511.002zM298.509 289.422c1.278-5.083 33.158-124.315 212.492-124.315 179.362 0 211.242 119.235 212.492 124.315 1.562 6.16-1.22 12.548-6.729 15.727-5.537 3.151-12.463 2.213-17.004-2.186-0.539-0.539-55.472-52.69-188.759-52.69-133.257 0-188.22 52.151-188.729 52.69-2.725 2.67-6.36 4.087-9.993 4.087-2.385 0-4.798-0.596-6.984-1.816-5.564-3.176-8.346-9.621-6.787-15.812zM411.641 576.749c0-54.905-31.768-99.361-70.971-99.361s-70.971 44.458-70.971 99.361c0 54.875 31.768 99.361 70.971 99.361s70.971-44.486 70.971-99.361zM782.25 576.749c0-54.905-31.768-99.361-70.971-99.361s-70.971 44.458-70.971 99.361c0 54.875 31.768 99.361 70.971 99.361s70.971-44.486 70.971-99.361z" />
<glyph unicode="&#xe90e;" glyph-name="newspaper2" d="M989.288 926.383h-769.446c-19.172 0-34.712-15.671-34.712-35.004v-175.018h-150.418c-19.172 0-34.712-15.671-34.712-35.004v-583.394c0-70.766 57.102-128.346 127.276-128.346h746.306c82.938 0 150.418 68.047 150.418 151.682v770.079c0 19.333-15.54 35.004-34.712 35.004zM185.13 97.965c0-32.168-25.954-58.34-57.854-58.34s-57.854 26.17-57.854 58.34v548.388h115.706v-548.388h0.002zM954.576 121.299c0-45.027-36.344-81.675-80.994-81.675h-632.96c8.91 17.514 13.932 37.349 13.932 58.34v758.41h700.022v-735.076zM841.184 778.2h-474.396c-19.172 0-34.712-15.671-34.712-35.004v-233.357c0-19.333 15.54-35.004 34.712-35.004h474.396c19.172 0 34.712 15.671 34.712 35.004v233.357c0 19.335-15.54 35.004-34.712 35.004zM806.472 544.843h-404.972v163.349h404.972v-163.349zM586.63 358.157h-214.056c-19.172 0-34.712-15.671-34.712-35.004s15.54-35.004 34.712-35.004h214.056c19.172 0 34.712 15.671 34.712 35.004s-15.538 35.004-34.712 35.004zM818.042 206.475h-445.468c-19.172 0-34.712-15.671-34.712-35.004s15.54-35.004 34.712-35.004h445.468c19.172 0 34.712 15.671 34.712 35.004s-15.538 35.004-34.712 35.004z" />
<glyph unicode="&#xe90f;" glyph-name="settings" d="M511.999 277.333c-94.256 0-170.667 76.411-170.667 170.667s76.411 170.667 170.667 170.667c94.256 0 170.667-76.411 170.667-170.667s-76.411-170.667-170.667-170.667zM511.999 362.667c47.128 0 85.333 38.205 85.333 85.333s-38.205 85.333-85.333 85.333c-47.128 0-85.333-38.205-85.333-85.333s38.205-85.333 85.333-85.333zM892.16 405.333h3.84c23.564 0 42.667 19.103 42.667 42.667s-19.103 42.667-42.667 42.667h-7.424c-45.066 0.179-85.721 27.103-103.474 68.526-1.545 3.605-2.582 7.398-3.090 11.271-14.135 40.323-4.327 85.554 26.215 116.774l2.577 2.577c8.012 8.003 12.513 18.863 12.513 30.187s-4.501 22.184-12.547 30.22c-8.003 8.012-18.863 12.513-30.187 12.513s-22.184-4.501-30.203-12.531l-2.895-2.891c-33.042-32.321-82.43-41.276-124.297-22.796-41.421 17.753-68.345 58.408-68.526 103.644v3.84c0 23.564-19.103 42.667-42.667 42.667s-42.667-19.103-42.667-42.667v-7.424c-0.179-45.066-27.103-85.721-68.526-103.474-3.605-1.545-7.398-2.582-11.271-3.090-40.323-14.135-85.554-4.327-116.774 26.215l-2.577 2.577c-8.003 8.012-18.863 12.513-30.187 12.513s-22.184-4.501-30.22-12.547c-8.012-8.003-12.513-18.863-12.513-30.187s4.501-22.184 12.531-30.203l2.891-2.895c32.321-33.042 41.276-82.43 23.624-122.217-16.026-43.573-57.059-72.922-104.471-74.019h-3.84c-23.564 0-42.667-19.103-42.667-42.667s19.103-42.667 42.667-42.667h7.424c45.066-0.179 85.721-27.103 103.291-68.106 18.663-42.286 9.708-91.674-22.944-125.051l-2.577-2.577c-8.012-8.003-12.513-18.863-12.513-30.187s4.501-22.184 12.547-30.22c8.003-8.012 18.863-12.513 30.187-12.513s22.184 4.501 30.203 12.531l2.895 2.891c33.042 32.321 82.43 41.276 122.217 23.624 43.573-16.026 72.922-57.059 74.019-104.471v-3.84c0-23.564 19.103-42.667 42.667-42.667s42.667 19.103 42.667 42.667v7.424c0.179 45.066 27.103 85.721 68.106 103.291 42.286 18.663 91.674 9.708 125.051-22.944l2.577-2.577c8.003-8.012 18.863-12.513 30.187-12.513s22.184 4.501 30.22 12.547c8.012 8.003 12.513 18.863 12.513 30.187s-4.501 22.184-12.531 30.203l-2.891 2.895c-32.268 32.988-41.246 82.267-22.705 124.507 17.8 41.303 58.395 68.136 103.553 68.315zM788.698 337.227l-0.183-0.42c0.030 0.070 0.060 0.14 0.091 0.21s0.061 0.139 0.092 0.209zM888.746 576h7.254c70.692 0 128-57.308 128-128s-57.308-128-128-128h-3.67c-11.054-0.044-21.026-6.648-25.38-16.808-4.76-10.792-2.564-22.906 5.034-30.676l2.543-2.543c24.035-24.009 37.541-56.588 37.541-90.56s-13.505-66.552-37.508-90.526c-24.009-24.035-56.588-37.541-90.56-37.541s-66.552 13.505-90.543 37.524l-2.225 2.23c-8.105 7.928-20.219 10.124-31.011 5.365-10.16-4.354-16.764-14.326-16.807-25.21v-7.254c0-70.692-57.308-128-128-128s-128 57.308-128 128c-0.255 14.227-7.453 24.292-20.641 29.233-10.372 4.578-22.486 2.381-30.256-5.216l-2.543-2.543c-24.009-24.035-56.588-37.541-90.56-37.541s-66.552 13.505-90.526 37.508c-24.035 24.009-37.541 56.588-37.541 90.56s13.505 66.552 37.524 90.543l2.23 2.225c7.928 8.105 10.124 20.219 5.365 31.011-4.354 10.16-14.326 16.764-25.21 16.807h-7.254c-70.692 0-128 57.308-128 128s57.308 128 128 128c14.227 0.255 24.292 7.453 29.233 20.641 4.578 10.372 2.381 22.486-5.216 30.256l-2.543 2.543c-24.035 24.009-37.541 56.588-37.541 90.56s13.505 66.552 37.508 90.526c24.009 24.035 56.588 37.541 90.56 37.541s66.552-13.505 90.543-37.524l2.225-2.23c8.105-7.928 20.219-10.124 30.591-5.547 2.734 1.207 5.579 2.119 8.488 2.728 7.477 5.072 12.116 13.549 12.152 22.665v7.254c0 70.692 57.308 128 128 128s128-57.308 128-128v-3.67c0.044-11.054 6.648-21.026 17.228-25.563 10.372-4.578 22.486-2.381 30.256 5.216l2.543 2.543c24.009 24.035 56.588 37.541 90.56 37.541s66.552-13.505 90.526-37.508c24.035-24.009 37.541-56.588 37.541-90.56s-13.505-66.552-37.524-90.543l-2.23-2.225c-7.928-8.105-10.124-20.219-5.547-30.591 1.207-2.734 2.119-5.579 2.728-8.488 5.072-7.477 13.549-12.116 22.665-12.152z" />
<glyph unicode="&#xe910;" glyph-name="eye" d="M135.062 427.147c23.305-36.084 50.844-72.202 82.28-105.733 87.18-92.991 186.003-147.515 294.659-147.515s207.48 54.523 294.659 147.515c31.435 33.531 58.975 69.648 82.28 105.733 4.935 7.641 9.277 14.632 13.015 20.854-3.739 6.221-8.080 13.212-13.015 20.854-23.305 36.084-50.844 72.202-82.28 105.733-87.18 92.991-186.003 147.515-294.659 147.515s-207.48-54.523-294.659-147.515c-31.435-33.531-58.975-69.648-82.28-105.733-4.935-7.641-9.277-14.632-13.015-20.854 3.739-6.221 8.080-13.212 13.015-20.854zM6.006 473.442c6.057 12.115 17.248 32.009 33.478 57.139 26.797 41.492 58.408 82.949 94.852 121.822 106.76 113.878 232.906 183.475 377.664 183.475s270.904-69.598 377.664-183.475c36.444-38.873 68.056-80.331 94.852-121.822 16.23-25.13 27.421-45.025 33.478-57.139 8.008-16.016 8.008-34.867 0-50.883-6.057-12.115-17.248-32.009-33.478-57.139-26.797-41.492-58.408-82.949-94.852-121.822-106.76-113.878-232.906-183.475-377.664-183.475s-270.904 69.598-377.664 183.475c-36.444 38.873-68.056 80.331-94.852 121.822-16.23 25.13-27.421 45.025-33.478 57.139-8.008 16.016-8.008 34.867 0 50.883zM512 266.99c-99.969 0-181.010 81.041-181.010 181.010s81.041 181.010 181.010 181.010c99.969 0 181.010-81.041 181.010-181.010s-81.041-181.010-181.010-181.010zM512 380.768c37.131 0 67.233 30.101 67.233 67.233s-30.101 67.233-67.233 67.233c-37.131 0-67.233-30.101-67.233-67.233s30.101-67.233 67.233-67.233z" />
<glyph unicode="&#xe911;" glyph-name="google-plus-logo" d="M471.040 606.72c0 51.2-30.72 153.6-107.52 153.6-30.72 0-66.56-20.48-66.56-87.040 0-61.44 30.72-148.48 102.4-148.48 0 0 71.68 5.12 71.68 81.92zM440.32 355.84c-5.12 0-10.24 0-15.36 0-15.36 0-61.44-5.12-92.16-15.358-35.84-10.242-76.8-35.842-76.8-87.042 0-56.32 51.2-112.64 153.6-112.64 76.8 0 122.88 51.2 122.88 102.4 0 35.84-25.6 61.44-92.16 112.64zM921.6 960h-819.2c-56.32 0-102.4-46.080-102.4-102.4v-819.2c0-56.32 46.080-102.4 102.4-102.4h819.2c56.32 0 102.4 46.080 102.4 102.4v819.2c0 56.32-46.080 102.4-102.4 102.4zM363.52 79.36c-143.36 0-209.92 81.92-209.92 153.6 0 25.6 5.12 81.92 76.8 122.878 40.96 25.6 92.16 40.96 158.72 46.080-10.24 10.242-15.36 25.6-15.36 51.2 0 10.24 0 15.36 5.12 25.6h-20.48c-102.4 0-163.84 76.8-163.84 153.6 0 87.040 66.56 184.32 209.92 184.32h215.040l-56.32-56.318h-35.84c20.478-20.48 46.078-56.32 46.078-112.64 0-71.68-35.84-107.52-81.92-138.24-10.24-5.12-20.48-20.48-20.48-35.84s10.24-25.6 20.48-30.72c5.12-5.12 15.36-10.242 25.6-15.36 40.96-30.72 97.28-66.558 97.28-148.48 0.002-92.16-66.558-199.68-250.878-199.68zM870.4 448h-102.4v-102.4h-51.2v102.4h-102.4v51.2h102.4v102.4h51.2v-102.4h102.4v-51.2z" />
<glyph unicode="&#xe912;" glyph-name="heart" d="M1024.001 606.86c0-76.113-30.756-149.057-85.41-202.742l-395.397-388.568c-17.322-17.023-45.090-17.023-62.412 0l-395.397 388.568c-113.847 111.881-113.847 293.603 0 405.484 113.416 111.457 296.982 111.457 410.397 0l16.205-15.926 16.198 15.918c54.485 53.57 128.292 83.623 205.206 83.623 76.91 0 150.714-30.051 205.198-83.616 54.657-53.691 85.41-126.632 85.41-202.742zM511.988 109.727l364.197 357.908c37.658 36.99 58.771 87.063 58.771 139.225s-21.112 102.235-58.771 139.225c-37.806 37.17-89.178 58.089-142.794 58.089s-104.988-20.918-142.786-58.082l-47.412-46.593c-17.322-17.023-45.090-17.023-62.412 0l-47.412 46.593c-78.771 77.411-206.801 77.411-285.572 0-78.339-76.986-78.339-201.479 0-278.465l364.191-357.901z" />
<glyph unicode="&#xe913;" glyph-name="heart-red" d="M1023.999 609.586c0-77.1-30.637-151.039-85.16-205.537l-395.236-395.236c-17.461-17.461-45.769-17.461-63.23 0l-395.236 395.236c-113.515 113.515-113.515 297.559 0 411.073s297.559 113.515 411.073 0l15.778-15.778 15.771 15.771c54.505 54.53 128.445 85.168 205.544 85.168 77.096 0 151.033-30.634 205.537-85.16 54.526-54.505 85.16-128.441 85.16-205.537zM511.987 103.656l-363.622 363.622c-78.594 78.594-78.594 206.020 0 284.615s206.020 78.594 284.615 0l47.393-47.393c17.461-17.461 45.769-17.461 63.23 0l47.393 47.393c37.742 37.759 88.931 58.97 142.307 58.97s104.566-21.21 142.315-58.977c37.752-37.734 58.962-88.923 58.962-142.3s-21.21-104.566-58.962-142.3l-363.629-363.629z" />
<glyph unicode="&#xe914;" glyph-name="help-circle" d="M420.461 572.191c-8.53-24.25-35.104-36.993-59.354-28.462s-36.993 35.104-28.462 59.354c30.127 85.641 117.629 137.067 207.107 121.719s154.841-92.994 154.706-183.71c0-59.565-35.29-106.619-90.545-143.455-30.204-20.136-59.878-33.325-80.918-40.338-24.387-8.129-50.747 5.051-58.876 29.438s5.051 50.747 29.438 58.876c3.019 1.006 9.278 3.391 17.633 7.104 14.108 6.27 28.199 13.785 41.085 22.376 32.018 21.345 49.092 44.11 49.092 66.068 0.068 45.393-32.614 84.216-77.353 91.89s-88.49-18.039-103.554-60.859zM512-64c-282.77 0-512 229.23-512 512s229.23 512 512 512c282.77 0 512-229.23 512-512s-229.23-512-512-512zM512 29.091c231.357 0 418.909 187.552 418.909 418.909s-187.552 418.909-418.909 418.909c-231.357 0-418.909-187.552-418.909-418.909s187.552-418.909 418.909-418.909zM558.545 215.273c0-25.706-20.839-46.545-46.545-46.545s-46.545 20.839-46.545 46.545c0 25.706 20.839 46.545 46.545 46.545s46.545-20.839 46.545-46.545z" />
<glyph unicode="&#xe915;" glyph-name="image" d="M153.6 857.6c-28.277 0-51.2-22.923-51.2-51.2v-716.8c0-28.277 22.923-51.2 51.2-51.2h716.8c28.277 0 51.2 22.923 51.2 51.2v716.8c0 28.277-22.923 51.2-51.2 51.2h-716.8zM153.6 960h716.8c84.831 0 153.6-68.769 153.6-153.6v-716.8c0-84.831-68.769-153.6-153.6-153.6h-716.8c-84.831 0-153.6 68.769-153.6 153.6v716.8c0 84.831 68.769 153.6 153.6 153.6zM332.8 499.2c-70.692 0-128 57.308-128 128s57.308 128 128 128c70.692 0 128-57.308 128-128s-57.308-128-128-128zM332.8 601.6c14.138 0 25.6 11.462 25.6 25.6s-11.462 25.6-25.6 25.6c-14.138 0-25.6-11.462-25.6-25.6s11.462-25.6 25.6-25.6zM189.804-49.004c-19.995-19.995-52.413-19.995-72.408 0s-19.995 52.413 0 72.408l563.2 563.2c19.995 19.995 52.413 19.995 72.408 0l256-256c19.995-19.995 19.995-52.413 0-72.408s-52.413-19.995-72.408 0l-219.796 219.796-526.996-526.996z" />
<glyph unicode="&#xe916;" glyph-name="lock" d="M186.182 448c-25.706 0-46.545-20.839-46.545-46.545v-325.818c0-25.706 20.839-46.545 46.545-46.545h651.641c25.706 0 46.545 20.839 46.545 46.545v325.818c0 25.706-20.839 46.545-46.545 46.545h-651.641zM186.182 541.091h651.641c77.119 0 139.636-62.517 139.636-139.636v-325.818c0-77.119-62.517-139.636-139.636-139.636h-651.641c-77.119 0-139.636 62.517-139.636 139.636v325.818c0 77.119 62.517 139.636 139.636 139.636zM325.819 494.545c0-25.706-20.839-46.545-46.545-46.545s-46.545 20.839-46.545 46.545v186.182c0 154.238 125.035 279.273 279.273 279.273s279.273-125.035 279.273-279.273v-186.182c0-25.706-20.839-46.545-46.545-46.545s-46.545 20.839-46.545 46.545v186.182c0 102.825-83.356 186.182-186.182 186.182s-186.182-83.356-186.182-186.182v-186.182z" />
<glyph unicode="&#xe917;" glyph-name="mail" d="M139.64 773.815c-25.494 0-46.545-21.052-46.545-46.545v-558.541c0-25.494 21.052-46.545 46.545-46.545h744.721c25.494 0 46.545 21.052 46.545 46.545v558.541c0 25.494-21.052 46.545-46.545 46.545h-744.721zM139.64 866.906h744.721c76.906 0 139.635-62.729 139.635-139.635v-558.541c0-76.906-62.729-139.635-139.635-139.635h-744.721c-76.906 0-139.635 62.729-139.635 139.635v558.541c0 76.906 62.729 139.635 139.635 139.635zM512 458.271l438.759 307.131c21.059 14.742 50.081 9.62 64.823-11.44s9.62-50.081-11.44-64.823l-465.451-325.815c-16.026-11.219-37.357-11.219-53.383 0l-465.451 325.815c-21.059 14.742-26.181 43.763-11.44 64.823s43.763 26.181 64.823 11.44l438.759-307.131z" />
<glyph unicode="&#xe918;" glyph-name="message" d="M105.067 115.324l114.56 114.56c9.847 9.847 23.203 15.379 37.128 15.379h612.586c27.388 0 49.591 22.203 49.591 49.591v510.489c0 27.388-22.203 49.591-49.591 49.591h-714.684c-27.388 0-49.591-22.203-49.591-49.591v-690.018zM278.505 140.248l-188.816-188.816c-33.078-33.078-89.636-9.65-89.636 37.128v816.782c0 85.386 69.22 154.606 154.606 154.606h714.684c85.386 0 154.606-69.22 154.606-154.606v-510.489c0-85.386-69.22-154.606-154.606-154.606h-590.838z" />
<glyph unicode="&#xe919;" glyph-name="phone" d="M932.304 218.233c0.603 24.864-16.668 45.247-39.731 48.502-48.327 6.374-95.779 18.194-141.554 35.276-17.066 6.415-36.306 2.312-49.084-10.323l-59.31-59.31c-14.865-14.865-37.831-17.966-56.106-7.574-124.224 70.635-227.080 173.492-297.715 297.715-10.391 18.275-7.291 41.241 7.574 56.106l59.125 59.124c12.82 12.964 16.923 32.203 10.468 49.374-17.042 45.67-28.863 93.121-35.178 141.019-3.281 23.211-23.26 40.393-47.161 40.16h-140.058c-13.109-0.012-25.609-5.533-34.447-15.216s-13.2-22.632-12.091-34.959c14.554-137.057 61.189-268.758 136.347-384.778 68.024-107.050 158.784-197.81 266.197-266.067 115.152-74.676 246.216-121.301 381.818-136.043 13.096-1.184 26.085 3.209 35.775 12.098s15.182 21.452 15.129 34.791v140.101zM1025.705 217.712v-139.39c0.161-39.449-16.318-77.137-45.388-103.806s-68.034-39.846-108.164-36.212c-150.966 16.403-295.98 67.991-423.027 150.382-118.623 75.378-219.195 175.949-294.351 294.228-82.913 127.988-134.511 273.707-150.686 426.081-3.54 39.167 9.546 78.019 36.060 107.064s64.014 45.609 103.385 45.647l139.641-0.002c70.321 0.692 130.259-50.855 140.16-120.916 5.453-41.343 15.566-81.938 30.105-120.902 19.245-51.198 6.936-108.915-31.707-147.992l-33.488-33.488c54.913-86.146 128.013-159.246 214.159-214.159l33.674 33.673c38.892 38.459 96.609 50.769 147.701 31.563 39.071-14.579 79.664-24.692 121.425-30.201 70.23-9.908 121.943-70.723 120.502-141.567z" />
<glyph unicode="&#xe91a;" glyph-name="plus" d="M426.667 874.667c0 47.128 38.205 85.333 85.333 85.333s85.333-38.205 85.333-85.333v-853.334c0-47.128-38.205-85.333-85.333-85.333s-85.333 38.205-85.333 85.333v853.334zM85.333 362.667c-47.128 0-85.333 38.205-85.333 85.333s38.205 85.333 85.333 85.333h853.334c47.128 0 85.333-38.205 85.333-85.333s-38.205-85.333-85.333-85.333h-853.334z" />
<glyph unicode="&#xe91b;" glyph-name="refresh" d="M113.778 590.222h170.666c31.419 0 56.889-25.47 56.889-56.889s-25.47-56.889-56.889-56.889h-227.555c-31.419 0-56.889 25.47-56.889 56.889v227.555c0 31.419 25.47 56.889 56.889 56.889s56.889-25.47 56.889-56.889v-170.666zM910.222 305.778h-170.666c-31.419 0-56.889 25.47-56.889 56.889s25.47 56.889 56.889 56.889h227.555c31.419 0 56.889-25.47 56.889-56.889v-227.555c0-31.419-25.47-56.889-56.889-56.889s-56.889 25.47-56.889 56.889v170.666zM916.852 590.381c10.544-29.597-4.902-62.137-34.498-72.682s-62.137 4.902-72.682 34.498c-36.089 101.302-122.054 177.196-227.743 200.95-105.756 23.768-216.381-8.016-294.25-85.362l-191.974-179.181c-22.968-21.438-58.967-20.197-80.405 2.772s-20.197 58.967 2.772 80.405l190.69 177.943c104.181 103.536 254.47 146.715 398.117 114.431 143.713-32.299 260.76-135.634 309.973-273.775zM928.293 407.396c22.968 21.438 58.967 20.197 80.405-2.772s20.197-58.967-2.772-80.405l-190.69-177.943c-104.181-103.536-254.47-146.715-398.117-114.431-143.713 32.299-260.76 135.634-309.973 273.775-10.544 29.597 4.902 62.137 34.498 72.682s62.137-4.902 72.682-34.498c36.089-101.302 122.054-177.196 227.743-200.95 105.756-23.768 216.381 8.016 294.25 85.362l191.974 179.181z" />
<glyph unicode="&#xe91c;" glyph-name="search" d="M460.8 38.4c-254.493 0-460.8 206.307-460.8 460.8s206.307 460.8 460.8 460.8c254.493 0 460.8-206.307 460.8-460.8s-206.307-460.8-460.8-460.8zM460.8 140.8c197.939 0 358.4 160.461 358.4 358.4s-160.461 358.4-358.4 358.4c-197.939 0-358.4-160.461-358.4-358.4s160.461-358.4 358.4-358.4zM1009.004 23.404c19.995-19.995 19.995-52.413 0-72.408s-52.413-19.995-72.408 0l-222.72 222.72c-19.995 19.995-19.995 52.413 0 72.408s52.413 19.995 72.408 0l222.72-222.72z" />
<glyph unicode="&#xe91d;" glyph-name="send" d="M944.542 946.367c18.177 18.177 47.648 18.177 65.825 0s18.177-47.648 0-65.825l-512-512c-18.177-18.177-47.648-18.177-65.825 0s-18.177 47.648 0 65.825l512 512zM172.734 582.488l311.625-138.5c10.53-4.68 18.95-13.1 23.63-23.63l138.5-311.625 255.099 728.853-728.853-255.099zM430.192 366.192l-402.55 178.911c-38.522 17.121-36.261 72.54 3.528 86.466l930.909 325.818c36.809 12.883 72.192-22.5 59.309-59.309l-325.818-930.909c-13.926-39.789-69.345-42.050-86.466-3.528l-178.911 402.55z" />
<glyph unicode="&#xe91e;" glyph-name="server" d="M460.8 192h51.2v-204.8h-51.2v204.8zM837.297-12.8h-701.793c-18.285 0-33.103-11.46-33.103-25.6s14.821-25.6 33.103-25.6h701.793c18.285 0 33.103 11.46 33.103 25.6s-14.819 25.6-33.103 25.6zM939.245 960h-854.491c-18.533 0-33.553-14.198-33.553-31.717v-294.967c0-17.519 15.020-31.717 33.553-31.717h854.493c18.533 0 33.553 14.198 33.553 31.717v294.967c-0.002 17.519-15.022 31.717-33.555 31.717zM905.693 665.033h-787.387v231.533h787.387v-231.533zM837.368 806.4h-343.536c-18.246 0-33.032-11.46-33.032-25.6s14.787-25.6 33.032-25.6h343.536c18.246 0 33.032 11.46 33.032 25.6s-14.787 25.6-33.032 25.6zM256 857.6c-56.459 0-102.4-45.939-102.4-102.4s45.939-102.4 102.4-102.4c56.459 0 102.4 45.939 102.4 102.4s-45.931 102.4-102.4 102.4zM256 722.62c-17.966 0-32.582 14.615-32.582 32.582s14.615 32.582 32.582 32.582c17.966 0 32.582-14.615 32.582-32.582s-14.617-32.582-32.582-32.582zM939.245 550.4h-854.491c-18.533 0-33.553-14.198-33.553-31.717v-294.967c0-17.519 15.020-31.717 33.553-31.717h854.493c18.533 0 33.553 14.188 33.553 31.717v294.967c-0.002 17.517-15.022 31.717-33.555 31.717zM905.693 255.433h-787.387v231.533h787.387v-231.533zM837.368 345.6h-343.536c-18.246 0-33.032-11.46-33.032-25.6s14.787-25.6 33.032-25.6h343.536c18.246 0 33.032 11.46 33.032 25.6s-14.787 25.6-33.032 25.6zM256 448c-56.459 0-102.4-45.929-102.4-102.4s45.939-102.4 102.4-102.4c56.459 0 102.4 45.929 102.4 102.4s-45.931 102.4-102.4 102.4zM256 313.020c-17.966 0-32.582 14.615-32.582 32.582s14.615 32.582 32.582 32.582c17.966 0 32.582-14.615 32.582-32.582-0.002-17.968-14.617-32.582-32.582-32.582zM460.8 601.6h51.2v-102.4h-51.2v102.4z" />
<glyph unicode="&#xe91f;" glyph-name="smartphone" d="M285.091 866.909c-25.706 0-46.545-20.839-46.545-46.545v-744.728c0-25.706 20.839-46.545 46.545-46.545h453.818c25.706 0 46.545 20.839 46.545 46.545v744.728c0 25.706-20.839 46.545-46.545 46.545h-453.818zM285.091 960h453.818c77.119 0 139.636-62.517 139.636-139.636v-744.728c0-77.119-62.517-139.636-139.636-139.636h-453.818c-77.119 0-139.636 62.517-139.636 139.636v744.728c0 77.119 62.517 139.636 139.636 139.636zM570.183 168.727c0-32.133-26.049-58.182-58.182-58.182s-58.182 26.049-58.182 58.182c0 32.133 26.049 58.182 58.182 58.182s58.182-26.049 58.182-58.182z" />
<glyph unicode="&#xe920;" glyph-name="star-filled" d="M1023.998 558.134c0 15.22-11.484 24.678-34.47 28.384l-308.912 45.031-138.46 280.723c-7.79 16.864-17.85 25.292-30.155 25.292-12.303 0-22.356-8.427-30.153-25.292l-138.466-280.723-308.927-45.031c-22.969-3.706-34.457-13.165-34.457-28.384 0-8.642 5.13-18.513 15.388-29.619l224.003-218.405-52.923-308.477c-0.822-5.761-1.228-9.886-1.228-12.344 0-8.638 2.151-15.935 6.458-21.904 4.304-5.978 10.762-8.95 19.382-8.95 7.389 0 15.59 2.457 24.615 7.397l276.303 145.62 276.322-145.62c8.631-4.94 16.834-7.397 24.607-7.397 8.232 0 14.474 2.974 18.78 8.95 4.293 5.96 6.447 13.266 6.447 21.904 0 5.339-0.207 9.452-0.618 12.344l-52.927 308.477 223.384 218.405c10.683 10.695 16.008 20.57 16.008 29.619z" />
<glyph unicode="&#xe921;" glyph-name="users" d="M768 64c0-23.564-19.102-42.667-42.667-42.667s-42.667 19.102-42.667 42.667v85.333c0 70.692-57.307 128-128 128h-341.333c-70.692 0-128-57.307-128-128v-85.333c0-23.564-19.102-42.667-42.667-42.667s-42.667 19.102-42.667 42.667v85.333c0 117.821 95.512 213.333 213.333 213.333h341.333c117.821 0 213.333-95.512 213.333-213.333v-85.333zM384 448c-117.821 0-213.333 95.512-213.333 213.333s95.512 213.333 213.333 213.333c117.821 0 213.333-95.512 213.333-213.333s-95.512-213.333-213.333-213.333zM384 533.333c70.692 0 128 57.307 128 128s-57.307 128-128 128c-70.692 0-128-57.307-128-128s57.307-128 128-128zM1024 64c0-23.564-19.102-42.667-42.667-42.667s-42.667 19.102-42.667 42.667v85.302c-0.043 58.332-39.52 109.257-96 123.84-22.816 5.891-36.536 29.162-30.645 51.978s29.162 36.536 51.978 30.645c94.133-24.305 159.927-109.18 160-206.432v-85.333zM672.083 785.12c-22.827 5.845-36.595 29.088-30.75 51.917s29.088 36.595 51.917 30.75c94.396-24.169 160.418-109.226 160.418-206.667s-66.022-182.497-160.418-206.667c-22.827-5.845-46.072 7.922-51.917 30.75s7.922 46.072 30.75 51.917c56.637 14.502 96.251 65.536 96.251 124s-39.613 109.498-96.251 124z" />
<glyph unicode="&#xe922;" glyph-name="verified" d="M511.109 960c-281.824 0-511.109-229.28-511.109-511.109s229.285-511.115 511.109-511.115c281.824 0 511.109 229.285 511.109 511.115s-229.28 511.109-511.109 511.109zM804.597 535.221l-321.104-321.104c-13.653-13.653-31.803-21.168-51.109-21.168s-37.456 7.515-51.109 21.168l-163.653 163.653c-13.653 13.653-21.173 31.803-21.173 51.109 0 19.312 7.52 37.461 21.173 51.115 13.648 13.653 31.797 21.173 51.109 21.173 19.307 0 37.461-7.52 51.109-21.179l112.539-112.533 269.989 269.989c13.653 13.653 31.803 21.168 51.109 21.168s37.456-7.515 51.109-21.168c28.192-28.192 28.192-74.043 0.011-102.224z" />
<glyph unicode="&#xe923;" glyph-name="wifi" d="M230.798 389.768c-18.763-15.628-46.642-13.087-62.27 5.676s-13.087 46.642 5.676 62.27c196.725 163.857 482.403 163.857 679.129 0 18.763-15.628 21.304-43.507 5.676-62.27s-43.507-21.304-62.27-5.676c-163.938 136.548-402.003 136.548-565.94 0zM73.451 547.533c-18.318-16.147-46.258-14.387-62.405 3.932s-14.387 46.258 3.932 62.405c284.048 250.38 709.995 250.38 994.043 0 18.318-16.147 20.078-44.086 3.932-62.405s-44.086-20.078-62.405-3.932c-250.631 220.924-626.466 220.924-877.097 0zM384.185 230.295c-19.907-14.142-47.509-9.47-61.651 10.437s-9.47 47.509 10.437 61.651c107.335 76.257 251.167 76.257 358.502 0 19.907-14.142 24.579-41.744 10.437-61.651s-41.744-24.579-61.651-10.437c-76.668 54.469-179.405 54.469-256.074 0zM556.214 138.56c0-24.419-19.795-44.214-44.214-44.214s-44.214 19.795-44.214 44.214c0 24.419 19.795 44.214 44.214 44.214s44.214-19.795 44.214-44.214z" />
<glyph unicode="&#xe924;" glyph-name="arcade" d="M745.823 352.112c1.92 20.468 2.913 41.331 2.913 62.441 0 106.186-24.496 238.716-63.929 345.872-60.7 164.951-127.476 199.574-172.807 199.574s-112.107-34.623-172.807-199.574c-39.433-107.156-63.929-239.686-63.929-345.872 0-21.112 0.995-41.972 2.913-62.441-84.251-14.526-149.219-101.818-149.219-207.012 0-54.434 17.243-105.949 48.553-145.058 32.378-40.443 76.002-63.185 122.836-64.040 0.143-0.002 0.283-0.002 0.426-0.002 7.029 0 13.695 3.168 18.144 8.643 4.54 5.583 6.275 12.95 4.704 19.982-5.247 23.482-4.444 59.585 15.091 84.062 12.042 15.085 29.776 23.604 52.786 25.412 29.353-28.649 62.304-46.331 97.089-51.813v-62.8c0-12.971 10.485-23.486 23.415-23.486s23.415 10.515 23.415 23.486v62.798c34.785 5.479 67.736 23.164 97.089 51.813 23.010-1.808 40.744-10.327 52.786-25.412 19.537-24.477 20.34-60.58 15.091-84.060-1.571-7.032 0.162-14.399 4.704-19.982 4.449-5.475 11.115-8.643 18.144-8.643 0.143 0 0.283 0 0.426 0.002 46.834 0.853 90.458 23.594 122.836 64.038 31.308 39.107 48.55 90.622 48.55 145.058 0 105.197-64.966 192.489-149.217 207.015zM512 913.027c39.973 0 85.784-57.793 123.746-155.361-32.949-32.228-77.516-50.542-123.746-50.542s-90.795 18.317-123.746 50.545c37.962 97.567 83.775 155.359 123.746 155.359zM302.156 78.041c-21.464-26.892-28.66-60.787-28.091-90.812-56.148 16.87-98.278 81.603-98.278 157.87 0 81.316 47.195 148.828 108.496 160.406 10.415-61.463 29.641-117.936 56.598-164.772 5.186-9.012 10.6-17.53 16.203-25.588-26.782-8.349-44.155-23.606-54.928-37.104zM535.415 70.138v212.518c0 12.971-10.485 23.486-23.415 23.486s-23.415-10.515-23.415-23.486v-212.518c-39.688 9.242-77.074 41.829-107.148 94.081-38.269 66.49-59.344 155.392-59.344 250.333 0 90.025 18.587 200.124 49.278 295.431 39.571-31.96 89.289-49.833 140.628-49.833s101.060 17.873 140.628 49.835c30.692-95.307 49.278-205.406 49.278-295.431 0-94.941-21.076-183.846-59.344-250.333-30.074-52.255-67.46-84.842-107.148-94.084zM749.937-12.77c0.569 30.025-6.626 63.918-28.091 90.812-10.773 13.498-28.144 28.754-54.928 37.104 5.603 8.058 11.017 16.577 16.203 25.588 26.957 46.836 46.183 103.309 56.598 164.772 61.3-11.579 108.494-79.092 108.494-160.406-0.002-76.267-42.128-141-98.276-157.87zM512 588.517c-58.293 0-105.715-47.569-105.715-106.038 0-58.471 47.424-106.038 105.715-106.038s105.715 47.569 105.715 106.038c0.002 58.469-47.422 106.038-105.715 106.038zM512 423.411c-32.469 0-58.885 26.497-58.885 59.066s26.416 59.066 58.885 59.066c32.469 0 58.885-26.497 58.885-59.066 0.002-32.568-26.414-59.066-58.885-59.066z" />
<glyph unicode="&#xe925;" glyph-name="book" d="M857.197 960h-587.298c-69.263 0-125.611-56.964-125.611-126.98v-770.040c0-70.018 56.35-126.98 125.615-126.98h587.296c12.433 0 22.513 10.188 22.513 22.758 0 0.482-0.044 0.954-0.071 1.43 0.030 0.476 0.071 0.946 0.071 1.43v975.624c-0.002 12.57-10.084 22.758-22.515 22.758zM247.387-15.228c-33.512 9.878-58.073 41.186-58.073 78.206v672.734c16.354-13.862 36.24-23.578 58.073-27.59v-723.35zM269.899 751.558c-44.435 0-80.586 36.546-80.586 81.462s36.153 81.462 80.586 81.462h491.039c-18.303-22.066-29.353-50.48-29.353-81.462s11.050-59.396 29.353-81.462h-491.039zM688.35 706.040v-133.524l-26.884 20.236c-7.983 6.010-18.922 6.008-26.906-0.010l-27.153-20.468v133.766h80.942zM834.684-18.482h-542.272v724.524l269.97-0.002v-179.126c0-8.61 4.806-16.482 12.419-20.342 3.193-1.62 6.65-2.416 10.092-2.416 4.764 0 9.499 1.528 13.464 4.516l49.676 37.448 49.387-37.176c6.83-5.142 15.945-5.946 23.55-2.084 7.609 3.862 12.411 11.732 12.411 20.338v178.844h101.303v-724.524zM834.684 754.814c-33.512 9.876-58.075 41.186-58.075 78.208s24.563 68.328 58.073 78.204v-156.412h0.002zM673.984 415.088h-220.875c-12.435 0-22.513-10.188-22.513-22.758 0-12.572 10.082-22.758 22.513-22.758h220.875c12.433 0 22.513 10.188 22.513 22.758s-10.082 22.758-22.513 22.758zM736.9 272.47h-346.707c-12.435 0-22.513-10.188-22.513-22.758s10.078-22.758 22.513-22.758h346.707c12.433 0 22.513 10.188 22.513 22.758s-10.078 22.758-22.513 22.758z" />
<glyph unicode="&#xe926;" glyph-name="cards" d="M858.068 960h-518.702c-46.609 0-84.617-38.307-84.617-85.283v-62.097h-88.818c-46.609 0-84.617-38.307-84.617-85.283v-706.054c0-46.976 38.008-85.283 84.617-85.283h518.902c46.609 0 84.617 38.307 84.617 85.283v62.097h88.617c46.609 0 84.617 38.307 84.617 85.283v706.054c0.2 46.976-37.807 85.283-84.617 85.283zM713.040 21.081c0-15.726-12.602-28.428-28.206-28.428h-518.902c-15.603 0-28.206 12.702-28.206 28.428v706.054c0 15.726 12.602 28.428 28.206 28.428h518.902c15.603 0 28.206-12.702 28.206-28.428v-706.054zM886.274 168.663c0-15.726-12.602-28.428-28.206-28.428h-88.617v586.9c0 46.976-38.008 85.283-84.617 85.283h-373.674v62.299c0 15.726 12.602 28.428 28.206 28.428h518.702c15.603 0 28.206-12.702 28.206-28.428v-706.054zM574.412 388.826l-124.825 208.268c-5.201 8.468-14.203 13.71-24.205 13.71-9.802 0-19.004-5.242-24.205-13.71l-124.825-208.268c-5.401-9.073-5.401-20.363 0-29.436l124.825-208.268c5.201-8.468 14.203-13.71 24.205-13.71 9.802 0 19.004 5.242 24.205 13.71l124.825 208.268c5.401 9.073 5.401 20.363 0 29.436zM425.383 220.881l-91.818 153.227 91.818 153.227 91.818-153.227-91.818-153.227zM225.143 707.175c-15.603 0-28.206-12.702-28.206-28.428v-41.936c0-15.726 12.602-28.428 28.206-28.428s28.206 12.702 28.206 28.428v41.936c0 15.726-12.602 28.428-28.206 28.428zM625.422 140.033c-15.603 0-28.206-12.702-28.206-28.428v-41.936c0-15.726 12.602-28.428 28.206-28.428s28.206 12.702 28.206 28.428v41.936c0 15.726-12.602 28.428-28.206 28.428z" />
<glyph unicode="&#xe927;" glyph-name="coffee-cup" d="M285.857 823.675c0 6.587 1.3 8.309 8.202 16.356 9.238 10.77 23.202 27.044 23.202 56.854 0 17.198-13.974 31.141-31.21 31.141s-31.21-13.943-31.21-31.141c0-6.586-1.3-8.307-8.202-16.354-9.238-10.77-23.202-27.044-23.202-56.856s13.96-46.088 23.198-56.858c6.906-8.046 8.204-9.773 8.204-16.362s-1.3-8.314-8.204-16.362c-3.496-4.077-7.848-9.152-11.752-15.44-9.074-14.622-4.552-33.817 10.102-42.871 5.118-3.161 10.794-4.669 16.402-4.669 10.448 0 20.658 5.235 26.564 14.747 1.378 2.219 3.568 4.776 6.106 7.733 9.238 10.77 23.198 27.046 23.198 56.858s-13.962 46.088-23.198 56.858c-6.902 8.052-8.2 9.777-8.2 16.366zM422.758 823.675c0 6.587 1.3 8.309 8.202 16.356 9.238 10.77 23.202 27.044 23.202 56.854 0 17.198-13.974 31.141-31.21 31.141s-31.21-13.943-31.21-31.141c0-6.586-1.3-8.307-8.202-16.354-9.238-10.77-23.202-27.044-23.202-56.856s13.962-46.088 23.199-56.858c6.904-8.046 8.204-9.773 8.204-16.362s-1.3-8.314-8.204-16.362c-3.496-4.077-7.848-9.152-11.752-15.44-9.074-14.622-4.552-33.817 10.102-42.871 5.118-3.161 10.794-4.669 16.402-4.669 10.448 0 20.658 5.235 26.564 14.747 1.378 2.219 3.568 4.776 6.106 7.733 9.238 10.77 23.199 27.046 23.199 56.858s-13.962 46.088-23.199 56.858c-6.904 8.052-8.202 9.777-8.202 16.366zM559.66 823.675c0 6.587 1.3 8.309 8.202 16.356 9.238 10.77 23.202 27.044 23.202 56.854 0 17.198-13.974 31.141-31.21 31.141s-31.21-13.943-31.21-31.141c0-6.586-1.3-8.307-8.202-16.354-9.238-10.77-23.202-27.044-23.202-56.856s13.962-46.088 23.198-56.858c6.904-8.046 8.202-9.773 8.202-16.362s-1.3-8.311-8.202-16.362c-3.498-4.077-7.848-9.152-11.752-15.442-9.074-14.622-4.55-33.817 10.104-42.869 5.116-3.161 10.792-4.669 16.4-4.669 10.448 0 20.658 5.237 26.564 14.749 1.378 2.217 3.568 4.774 6.106 7.731 9.238 10.77 23.198 27.046 23.198 56.858s-13.96 46.088-23.198 56.858c-6.902 8.052-8.2 9.777-8.2 16.366zM958.69 502.251c-43.028 20.638-96.874 16.703-148.515-9.134-2.312 21.239-5.504 42.283-9.666 62.987-2.926 14.547-15.73 25.012-30.599 25.012h-725.317c-14.868 0-27.672-10.467-30.599-25.012-9.286-46.162-13.994-93.952-13.994-142.048 0-87.241 14.928-170.544 44.372-247.594 28.362-74.22 69.858-139.727 120.002-189.437 5.846-5.798 13.752-9.050 21.996-9.050h441.766c8.242 0 16.15 3.253 21.996 9.050 32.542 32.256 61.406 71.196 85.437 114.821 105.59 15.683 173.611 73.347 212.625 120.25 46.758 56.216 75.806 126.589 75.806 183.667-0.004 47.066-24.416 86.872-65.308 106.486zM614.967 30.258h-415.436c-86.057 91.14-137.115 233.477-137.115 383.798 0 35.342 2.774 70.478 8.259 104.778h673.145c5.486-34.3 8.259-69.434 8.259-104.778 0.002-150.323-51.056-292.66-137.113-383.798zM768.841 163.202c0.424 1.091 0.874 2.165 1.292 3.26 29.442 77.049 44.37 160.353 44.37 247.594 0 3.097-0.074 6.188-0.114 9.283 49.356 34.294 93.39 34.23 117.257 22.778 19.58-9.391 29.93-26.805 29.93-50.353 0-69.017-64.396-192.326-192.735-232.563z" />
<glyph unicode="&#xe928;" glyph-name="dice" d="M238.382 385.059c0-24.194-19.613-43.807-43.807-43.807s-43.807 19.613-43.807 43.807c0 24.194 19.613 43.807 43.807 43.807s43.807-19.613 43.807-43.807zM238.382 261.686c0-24.194-19.613-43.807-43.807-43.807s-43.807 19.613-43.807 43.807c0 24.194 19.613 43.807 43.807 43.807s43.807-19.613 43.807-43.807zM238.382 138.297c0-24.194-19.613-43.807-43.807-43.807s-43.807 19.613-43.807 43.807c0 24.194 19.613 43.807 43.807 43.807s43.807-19.613 43.807-43.807zM418.563 138.297c0-24.194-19.613-43.807-43.807-43.807s-43.807 19.613-43.807 43.807c0 24.194 19.613 43.807 43.807 43.807s43.807-19.613 43.807-43.807zM644.014 766.045c0-24.194-19.613-43.807-43.807-43.807s-43.807 19.613-43.807 43.807c0 24.194 19.613 43.807 43.807 43.807s43.807-19.613 43.807-43.807zM533.157 655.65c0-24.194-19.613-43.807-43.807-43.807s-43.807 19.613-43.807 43.807c0 24.194 19.613 43.807 43.807 43.807s43.807-19.613 43.807-43.807zM422.296 545.274c0-24.194-19.613-43.807-43.807-43.807s-43.807 19.613-43.807 43.807c0 24.194 19.613 43.807 43.807 43.807s43.807-19.613 43.807-43.807zM422.296 766.045c0-24.194-19.613-43.807-43.807-43.807s-43.807 19.613-43.807 43.807c0 24.194 19.613 43.807 43.807 43.807s43.807-19.613 43.807-43.807zM995.738 381.986l-221.723 220.752v230.722c0 53.061-43.358 96.229-96.652 96.229h-376.036c-53.294 0-96.652-43.168-96.652-96.229v-297.754h-108.022c-53.294 0-96.652-43.166-96.652-96.225v-355.606c0-53.059 43.358-96.227 96.652-96.227h376.036c37.974 0 70.89 21.926 86.684 53.722l47.126-46.92c18.84-18.758 43.592-28.14 68.34-28.14 24.75 0 49.502 9.383 68.342 28.14l252.558 251.45c37.682 37.521 37.682 98.569-0.002 136.086zM264.555 833.46c0.002 20.187 16.498 36.607 36.772 36.607h376.036c20.276 0 36.77-16.424 36.77-36.609v-174.065c-15.532 10.084-33.662 15.51-52.638 15.51-25.816 0-50.086-10.010-68.34-28.186l-206.379-205.471h-85.45c-20.276 0-36.77 16.424-36.77 36.609v355.606h-0.002zM509.461 83.875c-0.002-20.187-16.496-36.609-36.772-36.609h-376.036c-20.276 0-36.77 16.424-36.77 36.607v355.608c0 20.185 16.496 36.607 36.77 36.607h108.070c0.954-52.247 43.908-94.461 96.606-94.461h27.884c-10.99-15.895-16.922-34.69-16.922-54.401 0-24.232 8.942-47.091 25.262-64.858-0.004-0.233-0.036-0.46-0.036-0.691 0-20.482 16.674-37.083 37.246-37.083 0.186 0 0.366 0.024 0.55 0.028l134.148-133.56v-7.189zM953.397 288.054l-252.558-251.45c-14.342-14.273-37.664-14.273-52 0l-265.899 264.735c-6.944 6.914-10.77 16.107-10.77 25.886s3.824 18.972 10.77 25.886l252.557 251.452c6.944 6.914 16.178 10.723 25.998 10.723 9.822 0 19.056-3.807 26-10.723l265.901-264.735c14.338-14.273 14.336-37.499 0.002-51.774zM700.263 447.56c0-24.194-19.613-43.807-43.807-43.807s-43.807 19.613-43.807 43.807c0 24.194 19.613 43.807 43.807 43.807s43.807-19.613 43.807-43.807zM839.507 308.925c0-24.194-19.613-43.807-43.807-43.807s-43.807 19.613-43.807 43.807c0 24.194 19.613 43.807 43.807 43.807s43.807-19.613 43.807-43.807zM584.455 332.237c0-24.194-19.613-43.807-43.807-43.807s-43.807 19.613-43.807 43.807c0 24.194 19.613 43.807 43.807 43.807s43.807-19.613 43.807-43.807zM723.696 193.621c0-24.194-19.613-43.807-43.807-43.807s-43.807 19.613-43.807 43.807c0 24.194 19.613 43.807 43.807 43.807s43.807-19.613 43.807-43.807z" />
<glyph unicode="&#xe929;" glyph-name="edit2" d="M957.671 893.665c-88.146 88.364-231.493 88.364-319.637 0l-586.039-585.82c-4.582-4.582-7.419-10.473-8.291-16.8l-43.419-321.601c-1.309-9.164 1.964-18.327 8.291-24.655 5.455-5.455 13.091-8.727 20.728-8.727 1.309 0 2.618 0 3.928 0.218l193.747 26.182c16.146 2.182 27.491 17.018 25.309 33.164s-17.018 27.491-33.164 25.309l-155.346-20.946 30.327 224.292 236.074-236.074c5.455-5.455 13.091-8.727 20.728-8.727s15.273 3.054 20.728 8.727l586.039 585.82c42.764 42.764 66.327 99.492 66.327 159.928s-23.564 117.164-66.327 159.71zM649.38 821.665l98.4-98.4-534.766-534.766-98.4 98.4 534.766 534.766zM351.123 50.609l-96.219 96.219 534.766 534.766 96.219-96.219-534.766-534.766zM926.907 627.483l-235.419 235.419c29.892 24.655 67.201 38.182 106.474 38.182 44.728 0 86.618-17.455 118.255-48.873s48.873-73.528 48.873-118.255c0-39.491-13.527-76.582-38.182-106.474z" />
<glyph unicode="&#xe92a;" glyph-name="family" d="M568.047 204.364c12.053 0 21.823-9.729 21.823-21.732v-94.92c0-12.003-9.769-21.732-21.823-21.732s-21.823 9.729-21.823 21.732v94.92c0 12.001 9.772 21.732 21.823 21.732zM682.327 202.053c0-12.003 9.769-21.732 21.823-21.732s21.823 9.729 21.823 21.732c0 86.717-70.846 157.266-157.927 157.266-87.079 0-157.92-70.549-157.92-157.266 0-12.003 9.769-21.732 21.823-21.732s21.823 9.729 21.823 21.732c0 62.752 51.264 113.802 114.275 113.802 63.017 0.002 114.282-51.051 114.282-113.802zM679.994 772.467c0 29.227 5.791 56.908 16.115 81.593 0.434 1.359 0.994 2.654 1.666 3.865 26.835 60.554 81.249 102.074 143.866 102.074 62.639 0 117.073-41.546 143.903-102.127 0.649-1.181 1.191-2.434 1.618-3.755 10.339-24.696 16.142-52.405 16.142-81.651 0-103.405-72.52-187.531-161.661-187.531-89.129 0-161.647 84.126-161.647 187.531zM749.898 862.977c29.488-5.037 60.231-7.582 91.751-7.582 31.517 0 62.263 2.546 91.749 7.582-21.653 32.651-54.742 53.559-91.756 53.559-37.007 0-70.093-20.908-91.744-53.559zM723.641 772.467c0-79.437 52.935-144.067 118.002-144.067 65.073 0 118.016 64.628 118.016 144.067 0 17.494-2.568 34.264-7.265 49.79-35.453-6.855-72.612-10.322-110.744-10.322-38.13 0-75.294 3.47-110.746 10.32-4.694-15.522-7.262-32.298-7.262-49.788zM422.722 116.491c-9.282 7.648-23.043 6.358-30.727-2.89-7.682-9.248-6.382-22.947 2.902-30.598l49.831-41.054c4.071-3.354 8.998-4.986 13.899-4.986 6.278 0 12.512 2.685 16.825 7.879 7.682 9.248 6.382 22.947-2.902 30.598l-49.829 41.051zM172.537 149.108v210.163c0 79.439 60.951 144.067 135.869 144.067 20.65 0 40.52-4.861 59.058-14.447 10.708-5.532 23.875-1.374 29.425 9.275 5.555 10.651 1.385 23.769-9.311 29.299-24.815 12.829-51.453 19.337-79.17 19.337-98.983 0-179.515-84.126-179.515-187.531v-210.163c0-53.23 21.964-104.223 60.258-139.9 4.207-3.921 9.561-5.863 14.902-5.863 5.83 0 11.643 2.313 15.941 6.887 8.235 8.763 7.774 22.517-1.028 30.717-29.502 27.489-46.427 66.912-46.427 108.159zM877.283-20.536h-190.264c0.022 0.403 0.034 0.807 0.034 1.215 0 12.003-9.769 21.732-21.823 21.732h-194.359c-12.053 0-21.823-9.729-21.823-21.732 0-0.406 0.012-0.812 0.034-1.215h-190.266c-12.053 0-21.823-9.729-21.823-21.732s9.769-21.732 21.823-21.732h618.468c12.053 0 21.823 9.729 21.823 21.732s-9.772 21.732-21.823 21.732zM827.697 546.802c-27.73 0-54.368-6.507-79.179-19.341-10.695-5.532-14.864-18.653-9.306-29.301 5.555-10.651 18.732-14.797 29.425-9.267 18.535 9.586 38.406 14.447 59.060 14.447 74.918 0 135.869-64.628 135.869-144.067v-210.163c0-41.249-16.923-80.671-46.432-108.156-8.802-8.2-9.26-21.952-1.028-30.717 4.294-4.576 10.111-6.887 15.941-6.887 5.34 0 10.695 1.941 14.902 5.861 38.297 35.674 60.263 86.667 60.263 139.9v210.163c0.002 103.405-80.528 187.531-179.515 187.531zM443.498 537.452c0 81.431 55.874 147.68 124.551 147.68s124.548-66.25 124.548-147.68c0-81.429-55.871-147.68-124.548-147.68s-124.551 66.25-124.551 147.68zM487.143 537.452c0-57.466 36.294-104.216 80.904-104.216s80.902 46.75 80.902 104.216-36.294 104.216-80.902 104.216c-44.611 0.002-80.904-46.75-80.904-104.216zM31.598 681.2c-12.337 19.010-21.82 46.848-7.946 62.745 7.495 8.582 19.28 10.922 30.035 5.959 13.918-6.428 22.242-4.614 27.286-2.69 24.599 9.373 43.515 53.223 58.715 88.461 7.221 16.738 14.039 32.55 21.33 44.592 30.222 49.927 79.705 79.734 132.363 79.734 61.084 0 114.372-39.516 141.856-97.665 0.754-1.27 1.377-2.625 1.86-4.050 11.467-25.731 17.941-54.911 17.941-85.819 0-103.405-72.517-187.531-161.656-187.531-42.203 0-82.764 19.219-112.797 53.091-0.759-0.24-1.52-0.473-2.291-0.706-91.833-27.522-135.5 26.629-146.696 43.879zM271.179 735.576c-10.589-26.641-22.182-55.805-49.96-77.020 20.582-19.573 45.646-30.154 72.163-30.154 65.071 0 118.011 64.628 118.011 144.067 0 19.923-3.329 38.912-9.345 56.189-97.044-7.975-112.78-47.576-130.869-93.082zM165.721 678.945c40.872 12.248 51.468 38.892 64.877 72.63 18.552 46.673 41.221 103.721 149.598 118.385-21.583 28.618-52.511 46.576-86.814 46.576-37.223 0-72.731-21.947-94.986-58.709-5.746-9.495-11.995-23.975-18.61-39.308-18.44-42.754-41.393-95.96-83.215-111.899-8.543-3.255-17.316-4.822-26.398-4.663 3.69-5.121 8.599-10.436 14.992-15.15 20.474-15.099 47.571-17.745 80.555-7.862zM677.476 36.965c4.901 0 9.83 1.635 13.899 4.986l49.829 41.054c9.284 7.652 10.584 21.35 2.902 30.598-7.684 9.246-21.434 10.542-30.727 2.89l-49.829-41.051c-9.287-7.652-10.584-21.35-2.902-30.598 4.318-5.194 10.548-7.879 16.827-7.879z" />
<glyph unicode="&#xe92b;" glyph-name="idea" d="M278.654 723.772l-84.852 84.852c-11.716 11.716-30.712 11.716-42.426 0-11.716-11.716-11.716-30.71 0-42.426l84.852-84.852c11.714-11.716 30.712-11.716 42.426 0 11.716 11.716 11.716 30.71 0 42.426zM152 478h-122c-16.568 0-30-13.432-30-30s13.432-30 30-30h122c16.568 0 30 13.432 30 30s-13.432 30-30 30zM994 478h-122c-16.568 0-30-13.432-30-30s13.432-30 30-30h122c16.568 0 30 13.432 30 30s-13.432 30-30 30zM872.624 808.624c-11.714 11.716-30.71 11.716-42.426 0l-84.852-84.852c-11.716-11.716-11.716-30.71 0-42.426 11.714-11.716 30.712-11.716 42.426 0l84.852 84.852c11.716 11.716 11.716 30.71 0 42.426zM512 960c-16.568 0-30-13.432-30-30v-122c0-16.568 13.432-30 30-30s30 13.432 30 30v122c0 16.568-13.432 30-30 30zM447.414 710.472c-96.046-22.402-173.36-98.574-196.968-194.056-23.684-95.796 3.424-193.442 72.516-261.198 23.35-22.898 39.038-66.79 39.038-109.218v-60c0-49.626 40.374-90 90-90h30v-30c0-16.568 13.432-30 30-30s30 13.432 30 30v30h30c49.626 0 90 40.374 90 90v60c0 41.914 16.528 86.638 41.128 111.292 50.862 50.97 78.872 118.7 78.872 190.708 0 172.184-159.576 303.29-334.586 262.472zM602 86c0-16.542-13.458-30-30-30h-120c-16.542 0-30 13.458-30 30v30h180v-30zM660.656 299.672c-29.982-30.046-50.552-75.628-56.72-123.672h-183.868c-5.222 41.518-21.538 89.148-55.096 122.056-53.778 52.74-74.818 128.986-56.28 203.96 18.248 73.804 78.048 132.694 152.35 150.024 137.148 31.992 260.958-70.31 260.958-204.040 0-56.006-21.786-108.684-61.344-148.328z" />
<glyph unicode="&#xe92c;" glyph-name="joystick" d="M862.841 236.308h-87.772v63.173c0 13.595-10.994 24.615-24.55 24.615h-170.197v284.894c66.435 27.134 113.405 92.551 113.405 168.8 0 100.47-81.524 182.21-181.728 182.21s-181.728-81.74-181.728-182.21c0-76.246 46.97-141.666 113.405-168.8v-284.894h-170.197c-13.557 0-24.55-11.020-24.55-24.615v-63.173h-87.772c-62.394 0-113.157-50.897-113.157-113.457v-162.235c0-13.595 10.994-24.615 24.55-24.615h878.9c13.557 0 24.55 11.020 24.55 24.615v162.235c0 62.56-50.763 113.457-113.157 113.457zM379.37 777.79c0 73.324 59.495 132.98 132.628 132.98s132.628-59.655 132.628-132.98c0-73.324-59.495-132.982-132.628-132.982s-132.628 59.655-132.628 132.982zM492.775 596.606c6.319-0.67 12.729-1.029 19.223-1.029s12.904 0.359 19.223 1.029v-272.51h-38.446v272.51zM298.028 274.865h427.943v-38.558h-427.943v38.558zM161.155 187.077h701.687c35.32 0 64.057-28.812 64.057-64.226v-34.235h-829.8v34.235c0 35.414 28.736 64.226 64.057 64.226zM97.099-14.769v54.154h829.8v-54.154h-829.8z" />
<glyph unicode="&#xe92d;" glyph-name="logic-game" d="M807.945 112.411h-40.909v85.006c0 12.554-10.358 22.731-23.131 22.731h-57.76l-39.146 448.906h28.261c12.772 0 23.131 10.176 23.131 22.731v65.914h29.727c12.772 0 23.131 10.176 23.131 22.731v156.841c0 12.554-10.358 22.731-23.131 22.731h-85.299c-12.772 0-23.131-10.176-23.131-22.731v-47.214h-21.257v47.214c0 12.554-10.358 22.731-23.131 22.731h-126.58c-12.772 0-23.131-10.176-23.131-22.731v-47.214h-21.255v47.214c0 12.554-10.358 22.731-23.131 22.731h-85.32c-12.772 0-23.131-10.176-23.131-22.731v-156.841c0-12.554 10.358-22.731 23.131-22.731h29.727v-65.914c0-12.554 10.358-22.731 23.131-22.731h28.261l-39.146-448.906h-57.762c-12.772 0-23.131-10.176-23.131-22.731v-85.006h-40.909c-12.772 0-23.131-10.176-23.131-22.731v-130.949c0-12.554 10.358-22.731 23.131-22.731h591.892c12.772 0 23.131 10.176 23.131 22.731v130.949c-0.002 12.554-10.358 22.731-23.133 22.731zM319.013 914.54h39.059v-47.214c0-12.554 10.358-22.731 23.131-22.731h67.516c12.772 0 23.131 10.176 23.131 22.731v47.214h80.319v-47.214c0-12.554 10.358-22.731 23.131-22.731h67.519c12.772 0 23.131 10.176 23.131 22.731v47.214h39.038v-111.38h-385.973v111.38zM371.871 757.698h280.258v-43.184h-280.258v43.184zM423.434 669.053h177.132l39.149-448.906h-255.428l39.146 448.906zM303.223 174.686h417.554v-62.275h-417.554v62.275zM784.814-18.539h-545.631v85.488h545.631v-85.488z" />
<glyph unicode="&#xe92e;" glyph-name="multiplayer" d="M302.333 607.642h-38.113v38.44c0 7.97-4.999 15.068-12.461 17.694-11.626 4.089-23.833 6.164-36.284 6.164s-24.657-2.075-36.284-6.164c-7.462-2.625-12.461-9.724-12.461-17.694v-38.44h-38.109c-7.901 0-14.937-5.042-17.541-12.566-4.057-11.724-6.114-24.038-6.114-36.598s2.057-24.874 6.114-36.598c2.603-7.524 9.641-12.564 17.541-12.564h38.113v-38.44c0-7.97 4.999-15.066 12.459-17.692 11.623-4.091 23.833-6.166 36.286-6.166s24.662 2.075 36.286 6.166c7.46 2.625 12.459 9.722 12.459 17.692v38.44h38.113c7.901 0 14.94 5.042 17.543 12.566 4.055 11.724 6.112 24.036 6.112 36.596 0 12.557-2.057 24.869-6.112 36.596-2.608 7.526-9.644 12.568-17.547 12.568zM287.925 546.795h-42.281c-10.26 0-18.579-8.39-18.579-18.739v-42.645c-7.609-1.219-15.563-1.217-23.171 0v42.645c0 10.348-8.319 18.739-18.579 18.739h-42.281c-0.603 3.838-0.907 7.74-0.907 11.684s0.304 7.848 0.907 11.687h42.281c10.26 0 18.579 8.39 18.579 18.739v42.643c7.611 1.219 15.563 1.219 23.171 0v-42.643c0-10.348 8.319-18.739 18.579-18.739h42.278c0.603-3.838 0.907-7.74 0.907-11.687 0-3.944-0.304-7.848-0.905-11.684zM555.896 597.397c0.020 0 0.042 0 0.061 0 17.477 0.020 31.603 14.332 31.562 31.96-0.044 17.607-14.21 31.853-31.686 31.831-17.458-0.042-31.603-14.354-31.56-31.96 0.040-17.605 14.186-31.831 31.623-31.831zM904.14 574.526c-32.896 35.798-86.584 39.915-124.886 9.568-10.467-8.293-22.679-15.392-36.139-21.219-14.787 86.162-53.596 165.221-113.191 230.035-32.893 35.802-86.579 39.924-124.895 9.577-31.693-25.125-79.124-39.536-130.128-39.536-51.017 0-98.454 14.411-130.15 39.539-38.281 30.343-91.969 26.225-124.891-9.577-77.294-84.114-119.861-193.618-119.861-308.34 0-42.986 5.971-85.558 17.753-126.536 8.612-29.947 31.479-53.264 61.165-62.373 8.839-2.712 17.869-4.041 26.821-4.041 21.154 0 41.866 7.418 58.539 21.517 36.333 30.749 78.656 53.039 123.936 65.543-9.215-36.421-13.993-74.172-13.993-112.513 0-43.008 5.969-85.578 17.742-126.525 8.612-29.951 31.479-53.271 61.174-62.377 8.834-2.71 17.858-4.036 26.806-4.036 21.155 0 41.872 7.423 58.539 21.525 58.864 49.811 133.669 77.243 210.631 77.243s151.766-27.431 210.629-77.243c23.717-20.070 55.623-26.606 85.344-17.491 29.695 9.109 52.563 32.426 61.174 62.377 11.772 40.945 17.742 83.514 17.742 126.525 0.002 114.742-42.565 224.25-119.859 308.359zM136.184 346.92c-12.544-10.606-28.779-13.915-44.541-9.076-15.731 4.825-27.361 16.664-31.907 32.47-10.632 36.985-16.022 75.428-16.022 114.257 0 103.572 38.429 202.431 108.205 278.364 17.3 18.818 45.597 20.919 65.821 4.888 39.249-31.117 96.533-48.963 157.163-48.963 60.615 0 117.892 17.846 157.133 48.956 20.251 16.036 48.541 13.935 65.83-4.88 55.076-59.902 90.47-133.264 103.079-213.172-14.797-3.040-30.362-4.777-46.331-5.104 2.081 4.27 3.274 9.061 3.257 14.144-0.044 17.605-14.253 31.853-31.73 31.789-17.455-0.042-31.56-14.373-31.516-32.001 0.011-2.963 0.452-5.818 1.211-8.538-29.923 6.34-56.613 17.991-76.868 34.038-38.299 30.345-91.987 26.232-124.886-9.568-39.691-43.189-70.197-93.089-90.511-146.941-61.463-12.068-119.101-39.799-167.386-80.664zM964.274 151.925c-4.546-15.813-16.174-27.649-31.91-32.475-15.757-4.834-31.99-1.526-44.526 9.085-66.724 56.46-151.506 87.555-238.728 87.555s-172.002-31.095-238.726-87.555c-12.535-10.608-28.76-13.918-44.53-9.085-15.731 4.825-27.363 16.662-31.907 32.475-10.625 36.955-16.013 75.393-16.013 114.246 0 103.589 38.429 202.453 108.207 278.382 9.505 10.344 22.338 15.63 35.33 15.63 10.636 0 21.381-3.545 30.489-10.762 39.26-31.106 96.539-48.947 157.147-48.947s117.89 17.842 157.147 48.947c20.236 16.033 48.53 13.946 65.819-4.867 69.777-75.931 108.207-174.796 108.207-278.382 0.004-38.855-5.383-77.291-16.008-114.246zM576.545 389.25h-38.113v38.438c0 7.97-4.999 15.068-12.459 17.694-11.623 4.089-23.831 6.164-36.284 6.164-12.45 0-24.657-2.075-36.284-6.164-7.462-2.625-12.461-9.724-12.461-17.694v-38.44h-38.111c-7.901 0-14.937-5.042-17.541-12.566-4.057-11.724-6.114-24.038-6.114-36.598s2.057-24.874 6.114-36.598c2.603-7.524 9.639-12.566 17.541-12.566h38.111v-38.438c0-7.97 4.999-15.066 12.459-17.692 11.626-4.091 23.836-6.166 36.286-6.166 12.452 0 24.662 2.075 36.286 6.166 7.46 2.625 12.457 9.724 12.457 17.692v38.438h38.113c7.899 0 14.937 5.040 17.541 12.564 4.055 11.722 6.114 24.036 6.114 36.6s-2.057 24.878-6.114 36.6c-2.603 7.526-9.641 12.566-17.541 12.566zM562.134 328.4h-42.281c-10.26 0-18.579-8.39-18.579-18.739v-42.643c-7.609-1.219-15.563-1.217-23.171 0v42.643c0 10.348-8.319 18.739-18.579 18.739h-42.278c-0.603 3.838-0.907 7.74-0.907 11.687s0.304 7.848 0.907 11.687h42.278c10.26 0 18.579 8.39 18.579 18.739v42.643c7.611 1.219 15.563 1.217 23.171 0v-42.645c0-10.348 8.319-18.739 18.579-18.739h42.281c0.603-3.838 0.907-7.74 0.907-11.687s-0.304-7.846-0.907-11.684zM900.464 308.403c0.022 0 0.063 0 0.085 0 17.477 0.064 31.581 14.376 31.54 32.004-0.063 17.605-14.251 31.853-31.728 31.789-17.458-0.042-31.581-14.373-31.518-31.982 0.040-17.585 14.186-31.811 31.621-31.811zM760.013 371.918c-17.458-0.022-31.603-14.31-31.579-31.937 0.022-17.605 14.188-31.875 31.664-31.853 17.458 0.022 31.603 14.31 31.581 31.917-0.024 17.625-14.19 31.893-31.667 31.873zM830.429 301.171c-0.19 0-0.358 0-0.548 0-17.287-0.211-31.245-14.396-31.245-31.895 0-17.605 14.166-31.895 31.623-31.895 0.042 0 0.085 0 0.105 0 0.063 0 0.127 0 0.19 0 0.044 0 0.085 0 0.127 0 17.455 0.064 31.56 14.418 31.496 32.023-0.083 17.627-14.293 31.853-31.748 31.767zM830.112 378.999c0.020 0 0.044 0 0.063 0 17.477 0.042 31.603 14.351 31.56 31.96-0.042 17.627-14.231 31.875-31.686 31.831-17.475-0.042-31.601-14.354-31.56-31.96 0.020-17.585 14.19-31.831 31.623-31.831z" />
<glyph unicode="&#xe92f;" glyph-name="music" d="M942.442 932.776c-0.061 3.607-0.824 7.265-2.37 10.772-6.164 13.988-22.375 20.276-36.22 14.048l-543.936-244.898c-10.075-4.536-16.087-14.458-16.241-24.916-0.023-1.67-0.028-454.812-0.028-454.812-21.979 15.365-48.852 23.679-77.695 23.679-45.982 0-92.82-20.687-128.503-56.755-66.665-67.398-74.945-168.692-18.452-225.799 24.305-24.569 57.994-38.095 94.865-38.095 45.984 0 92.819 20.684 128.501 56.752 31.582 31.923 51.239 72.415 55.354 114.005 0.641 6.477 0.907 12.85 0.793 19.128 0.013 0.387 0 316.513 0 316.513l489.079 219.692v-329.427c-21.977 15.365-48.847 23.679-77.692 23.679-45.982 0-92.82-20.687-128.506-56.758-66.67-67.398-74.946-168.692-18.45-225.797 24.305-24.569 57.991-38.097 94.861-38.097 45.982 0 92.82 20.684 128.501 56.752 37.223 37.634 56.431 85.829 56.143 131 0.119 1.083 0.026 707.577-0.003 709.334zM343.127 112.278c-2.857-28.891-16.906-57.414-39.557-80.312-25.471-25.747-58.169-40.51-89.712-40.51-15.716 0-38.206 3.791-56.074 21.854-35.101 35.484-26.824 101.599 18.455 147.371 25.47 25.747 58.168 40.515 89.71 40.515 15.719 0 38.206-3.795 56.076-21.855 16.26-16.438 23.757-40.252 21.102-67.062zM398.506 503.085v166.281l489.079 220.197v-166.788l-489.079-219.69zM847.506 131.657c-25.47-25.746-58.164-40.508-89.71-40.508-15.714 0-38.206 3.795-56.076 21.855-35.101 35.484-26.82 101.595 18.455 147.369 25.475 25.749 58.169 40.515 89.715 40.515 15.719 0 38.201-3.791 56.071-21.855 35.108-35.484 26.827-101.595-18.455-147.376z" />
<glyph unicode="&#xe930;" glyph-name="phantom" d="M512.002 960c-228.753 0-414.858-189.238-414.858-421.845v-577.771c0-13.464 10.735-24.384 23.98-24.384 40.925 0 62.618 17.481 80.046 31.53 15.112 12.179 26.032 20.979 50.256 20.979s35.145-8.8 50.256-20.979c17.428-14.048 39.12-31.528 80.046-31.528 40.923 0 62.611 17.483 80.039 31.53 15.11 12.179 26.028 20.979 50.246 20.979 24.222 0 35.14-8.8 50.249-20.979 17.428-14.048 39.118-31.53 80.042-31.53 40.921 0 62.611 17.483 80.037 31.53 15.11 12.179 26.028 20.979 50.246 20.979s35.135-8.8 50.246-20.979c17.426-14.048 39.115-31.53 80.037-31.53 13.241 0 23.98 10.916 23.98 24.382l0.005 577.771c0.002 232.607-186.1 421.845-414.853 421.845zM878.896-11.285c-9.738 3.708-17.258 9.77-26.267 17.032-17.426 14.048-39.115 31.53-80.037 31.53s-62.611-17.483-80.037-31.53c-15.11-12.179-26.028-20.979-50.246-20.979-24.222 0-35.14 8.8-50.249 20.979-17.428 14.048-39.118 31.53-80.042 31.53s-62.611-17.483-80.039-31.53c-15.11-12.179-26.028-20.979-50.246-20.979-24.225 0-35.145 8.8-50.256 20.979-17.428 14.048-39.12 31.53-80.046 31.53s-62.618-17.481-80.046-31.528c-9.014-7.264-16.537-13.328-26.277-17.037v549.442c-0.005 205.714 164.584 373.078 366.893 373.078s366.896-167.364 366.896-373.078l-0.002-549.44zM320.014 660.709c-69.812 0-126.607-57.752-126.607-128.738s56.795-128.738 126.607-128.738c69.812 0 126.605 57.752 126.605 128.738s-56.793 128.738-126.605 128.738zM320.014 451.997c-43.367 0-78.648 35.876-78.648 79.971s35.281 79.971 78.648 79.971c43.365 0 78.645-35.876 78.645-79.971s-35.279-79.971-78.645-79.971zM577.38 531.968c0-70.988 56.795-128.738 126.605-128.738 69.812 0 126.607 57.752 126.607 128.738s-56.795 128.738-126.607 128.738c-69.81 0.002-126.605-57.75-126.605-128.738zM782.633 531.968c0-44.096-35.281-79.971-78.648-79.971-43.365 0-78.645 35.876-78.645 79.971s35.281 79.971 78.645 79.971c43.37 0.002 78.648-35.873 78.648-79.971z" />
<glyph unicode="&#xe931;" glyph-name="puzzle" d="M996.279 306.974h-46.9c-9.396 0-18.11-4.926-22.966-12.983-13.089-21.718-35.733-34.172-62.123-34.172-40.684 0-73.781 33.11-73.781 73.811-0.006 40.803 33.091 74.001 73.775 74.001 24.433 0 48.476-13.368 62.744-34.888 4.974-7.501 13.362-12.007 22.347-12.007h46.9c14.818 0 27.718 12.037 27.718 26.882v314.516c0 14.845-12.9 26.882-27.718 26.882h-288.871v4.647c29.511 24.68 46.447 61.277 46.447 98.641 0 70.406-57.403 127.688-127.691 127.688-70.243 0-127.060-57.283-127.060-127.688 0-39.615 17.818-75.681 47.33-99.258v-4.032h-287.961c-14.818 0-25.941-12.037-25.941-26.882v-287.634h-6.642c-24.608 29.231-61.132 46.893-98.447 46.893-70.269 0.002-127.439-57.311-127.439-127.76 0-70.346 57.172-127.575 127.439-127.575 39.526 0 75.519 17.372 99.067 47.155h6.024v-290.321c0-14.845 11.124-26.882 25.941-26.882h313.903c14.818 0 27.718 12.037 27.718 26.882v46.053c0 9.414-5.358 18.143-13.402 23.011-21.632 13.091-34.257 35.779-34.257 62.247 0 40.761 32.966 73.925 73.625 73.925 40.7 0 73.757-33.164 73.757-73.925 0-24.445-12.962-48.534-34.492-62.868-7.486-4.984-11.565-13.384-11.565-22.389v-46.053c0-14.845 11.124-26.882 25.941-26.882h316.585c14.818 0 27.718 12.037 27.718 26.882v317.203c-0.004 14.843-12.904 26.88-27.722 26.88zM970.338-10.233l-262.933 0.004v5.785c29.511 24.68 46.447 61.277 46.447 98.641 0 70.406-57.403 127.688-127.691 127.688-70.245 0-127.060-57.283-127.060-127.688 0-39.615 17.818-75.681 47.33-99.258v-5.172h-260.245v290.323c0 14.845-12.9 26.882-27.718 26.882h-45.941c-9.396 0-18.11-4.926-22.966-12.983-13.089-21.718-35.733-34.172-62.123-34.172-40.684 0-73.781 33.11-73.781 73.811 0 40.803 33.095 73.999 73.781 73.999 24.433 0 48.476-13.368 62.744-34.888 4.974-7.501 13.362-12.007 22.347-12.007h45.941c14.818 0 27.718 12.037 27.718 26.882v287.634h286.185c14.818 0 27.718 12.037 27.718 26.882v44.919c0 9.414-5.358 18.143-13.402 23.011-21.632 13.091-34.257 35.779-34.257 62.247 0 40.763 32.966 73.925 73.625 73.925 40.7 0 73.755-33.16 73.755-73.925 0-24.445-12.962-48.534-34.492-62.868-7.486-4.984-11.565-13.384-11.565-22.389v-44.913c0-14.845 11.124-26.882 25.941-26.882h290.642v-260.751h-7.6c-24.608 29.231-61.132 46.893-98.447 46.893-70.269 0-127.439-57.315-127.439-127.764-0.008-70.346 57.16-127.575 127.431-127.575 39.526 0 75.519 17.372 99.067 47.155h6.98l0.008-263.445z" />
<glyph unicode="&#xe932;" glyph-name="racing-game" d="M874.040 810.040c-96.705 96.703-225.278 149.96-362.037 149.96s-265.335-53.258-362.042-149.96c-96.703-96.705-149.96-225.281-149.96-362.040s53.258-265.335 149.96-362.040c96.707-96.705 225.281-149.96 362.040-149.96s265.335 53.258 362.037 149.96c96.703 96.703 149.96 225.278 149.96 362.040s-53.256 265.335-149.957 362.040zM512.003-17.457c-256.655 0-465.46 208.803-465.46 465.458s208.805 465.458 465.46 465.458c256.655 0 465.458-208.805 465.458-465.458s-208.803-465.458-465.458-465.458zM512.003 530.244c-45.348 0-82.244-36.894-82.244-82.244s36.894-82.244 82.244-82.244c45.35 0 82.244 36.894 82.244 82.244s-36.896 82.244-82.244 82.244zM512.003 412.298c-19.687 0-35.702 16.015-35.702 35.702s16.015 35.702 35.702 35.702c19.687 0 35.702-16.015 35.702-35.702s-16.015-35.702-35.702-35.702zM512.003 844.851c-218.823 0-396.85-178.027-396.85-396.85s178.027-396.85 396.85-396.85c218.823 0 396.85 178.027 396.85 396.85s-178.027 396.85-396.85 396.85zM661.763 488.066h198.245c1.503-13.153 2.304-26.517 2.304-40.066 0-2.802-0.042-5.594-0.107-8.38l-199.222-26.72c2.623 11.287 4.056 23.026 4.056 35.1 0.002 13.853-1.852 27.278-5.276 40.066zM512.003 798.309c163.278 0 300.816-112.292 339.464-263.701h-210.932c-27.888 41.254-75.097 68.431-128.532 68.431s-100.646-27.173-128.532-68.431h-210.935c38.649 151.41 176.189 263.701 339.466 263.701zM512.003 339.504c-59.825 0-108.496 48.672-108.496 108.496s48.672 108.496 108.496 108.496c59.825 0 108.496-48.672 108.496-108.496s-48.672-108.496-108.496-108.496zM161.692 448.001c0 13.549 0.801 26.913 2.304 40.066h198.245c-3.426-12.787-5.278-26.212-5.278-40.066 0-12.075 1.433-23.815 4.056-35.102l-199.222 26.722c-0.063 2.785-0.104 5.578-0.104 8.38zM166.176 392.074l216.212-29c11.547-17.562 26.547-32.649 44.049-44.278l17.488-214.444c-142.681 28.216-254.483 143.342-277.75 287.722zM491.115 98.331l-16.244 199.157c11.903-2.936 24.332-4.526 37.128-4.526 12.804 0 25.237 1.589 37.145 4.529l-16.241-199.159c-6.918-0.41-13.883-0.64-20.902-0.64-7.013 0-13.975 0.231-20.888 0.64zM580.091 104.357l17.49 214.451c17.495 11.628 32.491 26.712 44.035 44.268l216.212 29c-23.266-144.375-135.062-259.498-277.738-287.719z" />
<glyph unicode="&#xe933;" glyph-name="rpg-game" d="M998.486 104.385l-114.429 112.457 55.458 54.503c8.846 8.694 8.846 22.791 0 31.488-8.846 8.692-23.191 8.692-32.039 0l-21.507-21.137-95.979 94.326c14.865 52.099 22.413 105.952 22.413 160.297l-0.002 342.168c0 10.636-7.655 19.786-18.27 21.843-257.411 49.875-518.45 49.875-775.861 0-10.615-2.057-18.27-11.209-18.27-21.845v-342.168c0-122.683 37.879-240.624 109.545-341.078 71.665-100.451 171.577-175.653 288.936-217.473 2.495-0.889 5.109-1.333 7.723-1.333s5.228 0.446 7.725 1.333c91.503 32.618 173.804 86.656 239.436 156.958l41.533-40.818-21.507-21.137c-8.846-8.694-8.846-22.791 0-31.488 4.424-4.348 10.221-6.521 16.019-6.521s11.597 2.175 16.019 6.521l55.458 54.503 114.429-112.457c16.451-16.165 38.323-25.068 61.588-25.068s45.135 8.903 61.587 25.068c16.451 16.168 25.51 37.663 25.51 60.526-0.002 22.867-9.061 44.362-25.512 60.531zM815.411 212.348l-8.957-8.803-437.422 429.891 102.924-7.825 381.978-375.401-38.523-37.861zM687.814 536.318c0-18.94-1.182-37.819-3.45-56.484l-186.29 183.082c-3.821 3.756-8.882 6.044-14.272 6.455l-172.372 13.104c-6.606 0.51-13.087-1.855-17.765-6.455-4.678-4.597-7.077-10.976-6.567-17.459l13.334-169.404c0.417-5.296 2.745-10.27 6.567-14.026l258.166-253.722c-44.485-48.976-97.82-87.482-158.955-114.628-78.042 34.723-145.194 89.453-194.649 158.748-56.893 79.766-86.965 173.404-86.965 270.789v245.952c186.954 35.149 376.262 35.149 563.215 0v-245.952h0.002zM406.201 22.444c-105.227 39.197-194.842 107.649-259.559 198.361-66.294 92.921-101.335 202.024-101.335 315.512v323.778c239.594 44.148 482.197 44.148 721.791 0v-323.778c0-41.775-4.828-83.234-14.342-123.703l-28.653 28.159c5.973 31.267 9.014 63.345 9.014 95.544l-0.002 264.246c0 10.582-7.579 19.701-18.13 21.813-204.891 41.049-412.675 41.049-617.571 0-10.549-2.111-18.127-11.232-18.127-21.813v-264.246c0-106.58 32.909-209.054 95.175-296.355 56.175-78.71 133.224-140.254 222.819-177.972 2.848-1.2 5.884-1.799 8.921-1.799s6.071 0.599 8.919 1.799c70.249 29.571 131.385 72.564 182.122 127.891l24.054-23.639c-59.080-63.734-132.93-113.15-215.097-143.798zM344.955 500.796l-7.96 101.152 437.422-429.889-47.482-46.662-381.98 375.399zM852.021 185.358l14.354-14.106-34.762-81.995-38.688 38.022 59.097 58.079zM866.259 55.207l34.762 81.995 25.322-24.886-34.762-81.995-25.322 24.886zM966.449 14.822c-7.89-7.756-18.385-12.029-29.547-12.029-2.585 0-5.124 0.253-7.614 0.701l31.702 74.772 5.46-5.365c7.892-7.756 12.24-18.069 12.24-29.038s-4.347-21.284-12.24-29.041z" />
<glyph unicode="&#xe934;" glyph-name="sport" d="M845.819 407.512c12.535 40.697 18.89 83.020 18.89 126.186 0 113.956-44.113 221.032-124.211 301.504-80.101 80.477-186.687 124.796-300.124 124.796-113.425 0-220.006-44.319-300.104-124.796-80.096-80.472-124.206-187.551-124.206-301.504s44.11-221.030 124.206-301.504c80.099-80.477 186.677-124.796 300.104-124.796 31.294 0 62.307 3.451 92.533 10.194 7.021-27.129 18.796-53.096 35.12-76.849 36.627-53.287 91.716-89.053 155.118-100.714 14.665-2.697 29.366-4.030 43.963-4.030 48.508 0 95.839 14.723 136.609 43.007 53.040 36.796 88.642 92.139 100.25 155.834 21.704 119.105-47.624 234.161-158.149 272.671zM924.299 287.899c15.768-22.942 26.156-48.493 30.937-75.133-15.445-12.899-39.943-23.987-61.771-23.333-65.186 1.924-109.69 42.345-132.275 120.138-7.093 24.437-18.155 43.773-30.987 58.056 11.817 2.29 23.857 3.456 35.991 3.456 11.59 0 23.268-1.058 34.914-3.199 50.354-9.264 94.104-37.67 123.19-79.986zM600.66 354.548l-40.012 55.338 49.482 152.995 127.507 41.614 77.129-56.959c0.164-4.601 0.275-9.209 0.275-13.838 0-39.312-5.965-77.813-17.712-114.744-59.212 7.71-118.352-6.631-167.846-40.966-10.287-7.136-19.895-14.985-28.821-23.44zM365.179 432.058l-46.479 143.713 121.688 88.82 121.686-88.82-46.479-143.713h-150.415zM784.911 682.161c9.102-21.34 16.227-43.523 21.244-66.333l-34.66 25.596 13.416 40.736zM752.424 742.378l-29.738-90.292-124.839-40.744-132.63 96.81v134.065l74.724 54.536c62.001-17.026 118.805-49.985 165.435-96.835 17.715-17.797 33.436-37.069 47.048-57.541zM471.897 908.772l-31.509-22.997-31.519 23c10.424 0.863 20.929 1.327 31.506 1.327 10.582-0.002 21.093-0.467 31.521-1.33zM175.394 799.921c46.628 46.847 103.427 79.806 165.42 96.833l74.732-54.526v-134.083l-132.627-96.805-125.544 40.971-29.45 89.412c13.711 20.716 29.569 40.212 47.47 58.199zM108.092 643.091l-32.781-24.211c4.903 21.437 11.663 42.311 20.189 62.438l12.592-38.226zM66.103 550.141l74.637 55.13 129.901-42.393 49.479-152.992-78.472-108.506-95.42-0.985c-52.169 66.158-80.496 147.517-80.496 233.305 0 5.502 0.136 10.981 0.371 16.442zM237.111 251.429l14.424-43.052c-20.695 12.16-40.317 26.395-58.611 42.596l44.187 0.457zM440.373 157.299c-43.866 0-86.568 7.508-126.658 21.911l-31.353 93.576 79.098 109.369h157.84l48.165-66.615c-18.917-27.719-32.038-59.341-38.241-93.392-3.351-18.391-4.572-36.841-3.752-55.068-27.743-6.457-56.274-9.783-85.101-9.783zM732.091-10.886c-4.125 0.758-8.189 1.691-12.221 2.705 16.366 5.264 31.561 11.697 45.997 17.822 29.504 12.513 54.98 23.328 82.965 21.861 12.196-0.636 24.212-2.161 35.994-4.491-3.040-2.387-6.132-4.721-9.333-6.941-42.121-29.225-93.050-40.215-143.402-30.956zM923.963 68.518c-23.347 7.183-47.664 11.519-72.554 12.817-39.366 2.058-72.66-12.066-104.86-25.722-32.872-13.94-64.030-27.134-102.719-24.991-13.148 11.053-24.924 23.917-34.931 38.476-29.087 42.318-40.030 93.481-30.811 144.068 9.216 50.587 37.491 94.539 79.614 123.761 5.519 3.827 11.196 7.318 16.995 10.514 9.716-2.623 28.866-17.605 38.81-51.845 14.916-51.378 38.827-90.859 71.074-117.344 29.775-24.454 65.918-37.478 107.418-38.703 1.13-0.035 2.26-0.050 3.388-0.050 21.791 0 43.037 6.19 61.375 15.307-0.457-3.66-0.986-7.323-1.654-10.981-5.012-27.508-15.698-53.029-31.146-75.31z" />
<glyph unicode="&#xe935;" glyph-name="theater" d="M1022.411 839.341c-1.052 20.057-12.13 38.070-29.636 48.182-17.49 10.104-38.736 10.777-56.836 1.81-79.782-39.513-165.45-59.553-254.626-59.553-89.19 0-174.866 20.035-254.644 59.548-18.102 8.97-39.352 8.294-56.842-1.808-17.506-10.112-28.584-28.125-29.634-48.154-1.054-19.684-1.59-39.757-1.59-59.661 0-37.958 1.924-75.736 5.668-112.678-0.53-0.002-1.056-0.022-1.584-0.022-89.202 0-174.876 20.033-254.642 59.548-18.094 8.96-39.334 8.284-56.818-1.814-17.506-10.108-28.592-28.111-29.654-48.164-1.044-19.665-1.574-39.736-1.574-59.653 0-162.166 34.154-314.994 96.172-430.334 64.562-120.074 152.11-186.199 246.514-186.199 94.12 0 181.416 65.741 245.918 185.117 29.966-14.818 61.048-22.334 92.71-22.334 94.402 0 181.946 66.126 246.51 186.196 62.020 115.343 96.176 268.174 96.176 430.344 0 19.922-0.534 39.995-1.588 59.63zM603.092 351.602c-12.22-43.984-27.55-85.154-45.808-122.511-0.038-0.074-0.074-0.149-0.11-0.224-3.316-6.778-6.724-13.438-10.228-19.96-55.848-103.861-128.388-161.058-204.26-161.058s-148.41 57.197-204.256 161.060c-58.388 108.593-90.544 253.495-90.544 408.014 0 19.092 0.508 38.324 1.504 57.172 0.306 5.782 4.254 8.667 5.938 9.642 1.288 0.744 3.4 1.653 6.010 1.653 1.604 0 3.398-0.347 5.3-1.289 86.472-42.836 179.348-64.554 276.050-64.554 9.592 0 19.132 0.276 28.644 0.702 0.16 0.002 0.324 0.014 0.484 0.020 86.23 3.935 169.172 25.316 246.923 63.832 4.996 2.478 9.234 0.833 11.312-0.365 1.684-0.973 5.632-3.86 5.938-9.642 0.998-18.838 1.504-38.072 1.504-57.172 0-92.349-11.494-181.258-33.204-261.040-0.544-1.397-0.936-2.832-1.196-4.281zM885.564 371.687c-55.846-103.859-128.384-161.056-204.252-161.056-24.232 0-48.272 5.901-71.706 17.532 15.088 33.63 28.058 69.789 38.788 107.918 8.536 8.905 20.288 13.941 32.892 13.941 14.542 0 28.304-6.938 36.814-18.562 4.684-6.397 11.99-9.798 19.398-9.798 4.874 0 9.792 1.471 14.040 4.526 10.704 7.696 13.084 22.535 5.32 33.142-17.488 23.888-45.736 38.154-75.572 38.154-6.214 0-12.318-0.63-18.266-1.792 14.666 69.654 22.348 144.389 22.348 221.231 0 19.924-0.53 39.997-1.57 59.661-1.060 20.047-12.148 38.052-29.654 48.16-17.488 10.1-38.73 10.772-56.822 1.814-64.896-32.147-133.704-51.398-205.142-57.459-3.764 36.216-5.698 73.315-5.698 110.612 0 19.068 0.512 38.294 1.522 57.172 0.292 5.576 3.838 8.431 5.926 9.64 2.078 1.201 6.314 2.843 11.322 0.359 86.49-42.837 179.368-64.556 276.054-64.556 96.67 0 189.542 21.718 276.034 64.558 5.002 2.48 9.24 0.838 11.318-0.361 2.088-1.208 5.634-4.062 5.928-9.668 1.010-18.828 1.522-38.052 1.522-57.14 0.006-154.524-32.152-299.433-90.544-408.027zM874.928 664.413c-12.252 4.95-26.22-0.888-31.206-13.024-5.988-14.57-20.12-23.982-36.004-23.982-15.874 0-30 9.414-35.99 23.984-4.99 12.135-18.962 17.962-31.206 13.022-12.246-4.946-18.13-18.792-13.14-30.93 13.37-32.522 44.902-53.538 80.334-53.538 35.444 0 66.984 21.012 80.35 53.538 4.99 12.138-0.894 25.986-13.138 30.93zM282.076 501.631c-12.242 4.952-26.216-0.882-31.206-13.022-5.988-14.574-20.122-23.984-36.004-23.984-15.874 0-30 9.414-35.988 23.982-4.99 12.138-18.96 17.975-31.206 13.024-12.244-4.944-18.13-18.792-13.14-30.928 13.366-32.526 44.902-53.538 80.336-53.538 35.44 0 66.978 21.012 80.348 53.536 4.988 12.138-0.894 25.984-13.14 30.93zM536.312 501.631c-12.248 4.952-26.216-0.886-31.206-13.024-5.988-14.57-20.122-23.982-36.004-23.982-15.874 0-30 9.414-35.99 23.984-4.988 12.135-18.964 17.964-31.206 13.022-12.246-4.946-18.13-18.792-13.14-30.93 13.37-32.522 44.902-53.538 80.334-53.538 35.444 0 66.984 21.012 80.35 53.538 4.99 12.138-0.892 25.986-13.138 30.93zM412.914 230.178c-10.708 7.693-25.678 5.329-33.438-5.283-8.628-11.795-22.046-18.556-36.814-18.556-14.53 0-28.278 6.938-36.78 18.556-7.76 10.611-22.73 12.976-33.438 5.283-10.704-7.693-13.092-22.529-5.33-33.142 17.478-23.891 45.72-38.16 75.548-38.16 29.846 0 58.1 14.267 75.578 38.16 7.764 10.613 5.378 25.447-5.326 33.142z" />
<glyph unicode="&#xe936;" glyph-name="chevrons-left" d="M178.173 448l316.823-316.823c28.822-28.822 28.822-75.55 0-104.371s-75.55-28.822-104.371 0l-369.009 369.009c-28.822 28.822-28.822 75.55 0 104.371l369.009 369.009c28.822 28.822 75.55 28.822 104.371 0s28.822-75.55 0-104.371l-316.823-316.823zM1002.384 131.177c28.822-28.822 28.822-75.55 0-104.371s-75.55-28.822-104.371 0l-369.009 369.009c-28.822 28.822-28.822 75.55 0 104.371l369.009 369.009c28.822 28.822 75.55 28.822 104.371 0s28.822-75.55 0-104.371l-316.823-316.823 316.823-316.823z" />
<glyph unicode="&#xe937;" glyph-name="chevrons-right" d="M845.827 448l-316.823 316.823c-28.822 28.822-28.822 75.55 0 104.371s75.55 28.822 104.371 0l369.009-369.009c28.822-28.822 28.822-75.55 0-104.371l-369.009-369.009c-28.822-28.822-75.55-28.822-104.371 0s-28.822 75.55 0 104.371l316.823 316.823zM338.44 448l-316.823 316.823c-28.822 28.822-28.822 75.55 0 104.371s75.55 28.822 104.371 0l369.009-369.009c28.822-28.822 28.822-75.55 0-104.371l-369.009-369.009c-28.822-28.822-75.55-28.822-104.371 0s-28.822 75.55 0 104.371l316.823 316.823z" />
<glyph unicode="&#xe938;" glyph-name="more-horizontal" d="M512 334.222c-62.838 0-113.778 50.94-113.778 113.778s50.94 113.778 113.778 113.778c62.838 0 113.778-50.94 113.778-113.778s-50.94-113.778-113.778-113.778zM910.222 334.222c-62.838 0-113.778 50.94-113.778 113.778s50.94 113.778 113.778 113.778c62.838 0 113.778-50.94 113.778-113.778s-50.94-113.778-113.778-113.778zM113.778 334.222c-62.838 0-113.778 50.94-113.778 113.778s50.94 113.778 113.778 113.778c62.838 0 113.778-50.94 113.778-113.778s-50.94-113.778-113.778-113.778z" />
<glyph unicode="&#xe939;" glyph-name="chevron-right-blue" d="M627.989 448l-387.137 387.137c-28.564 28.564-28.564 74.876 0 103.44s74.876 28.564 103.44 0l438.857-438.857c28.564-28.564 28.564-74.876 0-103.44l-438.857-438.857c-28.564-28.564-74.876-28.564-103.44 0s-28.564 74.876 0 103.44l387.137 387.137z" />
<glyph unicode="&#xe93a;" glyph-name="diamond" d="M1024 608.787c-0.004 0.906-0.054 1.822-0.14 2.735-0.026 0.285-0.070 0.562-0.104 0.843-0.076 0.616-0.166 1.229-0.28 1.842-0.066 0.358-0.138 0.713-0.218 1.066-0.12 0.537-0.26 1.066-0.41 1.596-0.1 0.353-0.19 0.707-0.302 1.055-0.208 0.643-0.446 1.279-0.696 1.912-0.17 0.428-0.354 0.848-0.544 1.268-0.248 0.546-0.5 1.092-0.78 1.629-0.182 0.345-0.382 0.677-0.576 1.014-0.17 0.297-0.324 0.599-0.506 0.892l-160 257.074c-0.186 0.297-0.388 0.582-0.582 0.871-0.124 0.185-0.24 0.37-0.368 0.551-0.464 0.658-0.952 1.296-1.464 1.91-0.17 0.205-0.348 0.4-0.522 0.601-0.406 0.462-0.824 0.912-1.256 1.348-0.188 0.188-0.368 0.381-0.56 0.566-0.562 0.538-1.146 1.049-1.746 1.539-0.228 0.187-0.462 0.366-0.698 0.546-0.538 0.414-1.086 0.809-1.65 1.185-0.162 0.106-0.316 0.221-0.478 0.325-0.702 0.45-1.43 0.857-2.166 1.248-0.198 0.104-0.394 0.207-0.594 0.307-0.79 0.395-1.594 0.759-2.418 1.083-0.038 0.014-0.072 0.034-0.11 0.048-0.086 0.034-0.174 0.054-0.26 0.087-0.768 0.291-1.548 0.548-2.34 0.775-0.158 0.044-0.314 0.096-0.472 0.139-0.804 0.217-1.622 0.395-2.446 0.544-0.274 0.050-0.548 0.090-0.822 0.132-0.644 0.098-1.292 0.174-1.946 0.231-0.314 0.026-0.626 0.053-0.938 0.070-0.534 0.028-1.068 0.053-1.606 0.053h-643.997c-0.536 0-1.070-0.022-1.602-0.053-0.318-0.016-0.634-0.042-0.952-0.070-0.648-0.056-1.292-0.132-1.93-0.229-0.278-0.042-0.554-0.084-0.832-0.134-0.822-0.149-1.636-0.325-2.438-0.543-0.162-0.044-0.32-0.096-0.482-0.143-0.79-0.227-1.566-0.484-2.332-0.773-0.086-0.032-0.174-0.053-0.26-0.087-0.038-0.014-0.072-0.034-0.11-0.048-0.822-0.324-1.628-0.689-2.418-1.083-0.2-0.101-0.396-0.203-0.594-0.307-0.736-0.389-1.464-0.797-2.166-1.248-0.164-0.104-0.318-0.219-0.478-0.325-0.564-0.375-1.112-0.772-1.65-1.185-0.234-0.181-0.468-0.359-0.698-0.546-0.6-0.49-1.184-1-1.746-1.539-0.192-0.185-0.374-0.378-0.56-0.566-0.432-0.436-0.85-0.884-1.256-1.348-0.174-0.201-0.354-0.398-0.522-0.601-0.51-0.615-1-1.251-1.464-1.91-0.126-0.181-0.244-0.367-0.368-0.551-0.194-0.289-0.396-0.572-0.582-0.871l-160-257.074c-0.182-0.293-0.336-0.594-0.506-0.892-0.194-0.336-0.394-0.669-0.576-1.014-0.282-0.537-0.534-1.080-0.78-1.629-0.19-0.417-0.374-0.837-0.544-1.268-0.252-0.633-0.49-1.268-0.696-1.912-0.112-0.347-0.204-0.703-0.302-1.055-0.15-0.53-0.29-1.063-0.41-1.596-0.078-0.353-0.15-0.709-0.218-1.066-0.114-0.613-0.204-1.227-0.28-1.842-0.034-0.281-0.078-0.56-0.104-0.843-0.086-0.914-0.136-1.83-0.138-2.746 0-0.036-0.006-0.068-0.006-0.104 0-0.143 0.020-0.279 0.020-0.42 0.010-0.747 0.048-1.492 0.112-2.237 0.028-0.325 0.066-0.647 0.104-0.968 0.072-0.593 0.162-1.181 0.27-1.769 0.060-0.338 0.116-0.675 0.188-1.008 0.148-0.686 0.328-1.368 0.524-2.046 0.106-0.367 0.222-0.731 0.342-1.092 0.208-0.627 0.43-1.249 0.68-1.864 0.138-0.339 0.294-0.669 0.444-1.002 0.22-0.49 0.45-0.974 0.698-1.454 0.17-0.327 0.344-0.649 0.524-0.97 0.272-0.482 0.562-0.956 0.862-1.426 0.182-0.283 0.358-0.571 0.548-0.845 0.376-0.548 0.78-1.080 1.196-1.607 0.138-0.174 0.264-0.358 0.406-0.53 0.026-0.032 0.048-0.064 0.074-0.095l481.62-577.959c0.042-0.054 0.088-0.104 0.132-0.159l0.248-0.297c0.012-0.016 0.028-0.028 0.042-0.044 0.136-0.165 0.284-0.319 0.424-0.482 0.43-0.492 0.874-0.968 1.332-1.428 0.156-0.157 0.302-0.319 0.46-0.472 0.006-0.006 0.014-0.012 0.020-0.018 0.038-0.036 0.080-0.067 0.116-0.103 0.526-0.498 1.068-0.974 1.624-1.432 0.134-0.11 0.26-0.231 0.396-0.338 0.084-0.067 0.172-0.124 0.256-0.188 0.1-0.078 0.204-0.146 0.304-0.223 0.5-0.378 1.008-0.745 1.53-1.089 0.222-0.146 0.45-0.285 0.678-0.426 0.166-0.104 0.332-0.207 0.5-0.307 0.404-0.241 0.814-0.466 1.228-0.686 0.256-0.137 0.508-0.275 0.77-0.403 0.18-0.090 0.358-0.185 0.54-0.271 0.13-0.062 0.262-0.112 0.394-0.171 0.51-0.233 1.020-0.464 1.542-0.667 0.008-0.002 0.016-0.008 0.022-0.010 0.056-0.022 0.112-0.036 0.168-0.056 0.198-0.076 0.4-0.139 0.6-0.209 0.23-0.082 0.458-0.165 0.692-0.241 0.316-0.104 0.632-0.209 0.952-0.302 0.274-0.081 0.55-0.149 0.824-0.221 0.346-0.090 0.688-0.193 1.036-0.271 0.024-0.006 0.050-0.008 0.076-0.014 0.182-0.040 0.366-0.067 0.548-0.104 0.31-0.062 0.62-0.124 0.93-0.177 0.468-0.081 0.938-0.145 1.41-0.201 0.154-0.018 0.308-0.042 0.462-0.058 0.214-0.022 0.428-0.050 0.642-0.068 0.798-0.068 1.6-0.109 2.406-0.11 0.024 0 0.050-0.004 0.076-0.004 0.002 0 0.006 0 0.008 0s0.006 0 0.008 0c0.024 0 0.050 0.004 0.076 0.004 0.806 0.002 1.606 0.042 2.404 0.11 0.214 0.018 0.428 0.044 0.644 0.068 0.156 0.016 0.31 0.040 0.464 0.058 0.47 0.058 0.936 0.12 1.4 0.201 0.316 0.054 0.63 0.117 0.946 0.181 0.176 0.036 0.354 0.062 0.528 0.101 0.030 0.006 0.060 0.010 0.090 0.018 0.342 0.078 0.678 0.177 1.018 0.267 0.282 0.075 0.566 0.145 0.848 0.229 0.314 0.092 0.626 0.195 0.938 0.297 0.236 0.078 0.47 0.163 0.704 0.247 0.186 0.067 0.376 0.126 0.562 0.196 0.066 0.026 0.134 0.042 0.2 0.067 0.010 0.004 0.018 0.008 0.028 0.012 0.514 0.201 1.016 0.428 1.518 0.657 0.138 0.062 0.28 0.117 0.418 0.182 0.178 0.084 0.35 0.177 0.524 0.263 0.27 0.134 0.53 0.277 0.794 0.417 0.404 0.217 0.806 0.437 1.202 0.672 0.172 0.103 0.34 0.207 0.51 0.313 0.23 0.143 0.462 0.285 0.686 0.434 0.512 0.338 1.010 0.699 1.502 1.069 0.108 0.082 0.222 0.157 0.33 0.241 0.080 0.062 0.164 0.117 0.244 0.179 0.15 0.118 0.286 0.249 0.434 0.37 0.544 0.446 1.074 0.912 1.588 1.397 0.040 0.039 0.084 0.072 0.124 0.109 0.006 0.006 0.014 0.012 0.020 0.018 0.162 0.157 0.312 0.322 0.47 0.482 0.452 0.454 0.89 0.924 1.312 1.408 0.144 0.165 0.294 0.324 0.434 0.492 0.012 0.016 0.028 0.028 0.042 0.044l0.264 0.317c0.036 0.044 0.074 0.087 0.11 0.131l481.626 577.968c0.026 0.030 0.048 0.064 0.074 0.095 0.142 0.171 0.268 0.355 0.406 0.53 0.416 0.526 0.82 1.058 1.196 1.607 0.19 0.277 0.366 0.562 0.548 0.845 0.3 0.47 0.59 0.944 0.862 1.426 0.182 0.319 0.354 0.643 0.524 0.97 0.248 0.48 0.478 0.964 0.698 1.454 0.15 0.333 0.304 0.663 0.444 1.002 0.25 0.615 0.47 1.237 0.68 1.864 0.12 0.361 0.236 0.725 0.342 1.092 0.196 0.677 0.376 1.358 0.524 2.046 0.072 0.333 0.126 0.671 0.188 1.008 0.106 0.588 0.198 1.177 0.27 1.769 0.038 0.322 0.076 0.643 0.104 0.968 0.066 0.745 0.102 1.49 0.112 2.237 0.002 0.14 0.020 0.277 0.020 0.42 0 0.034-0.004 0.068-0.006 0.104zM790.224 835.62l-65.89-170.962-146.838 170.962h212.728zM667.314 638.798h-310.619l155.31 180.823 155.31-180.823zM446.512 835.62l-146.84-170.962-65.888 170.962h212.728zM183.667 798.722l61.634-159.924h-161.168l99.534 159.924zM94.227 578.547h174.296l149.974-389.133-324.27 389.133zM512.004 113.725l-179.144 464.821h358.288l-179.144-464.821zM605.512 189.413l149.974 389.133h174.296l-324.27-389.133zM778.708 638.798l61.634 159.924 99.534-159.924h-161.168z" />
<glyph unicode="&#xe93b;" glyph-name="edit-blue" d="M987.491 9.473h-950.982c-19.994 0-35.64-16.798-35.64-36.25s16.517-36.25 35.64-36.25h951.85c19.994 0 35.64 16.798 35.64 36.25s-16.517 36.25-36.509 36.25zM0.87 330.411l-0.87-172.406c0-9.725 3.477-19.451 10.431-26.523s15.647-10.61 25.209-10.61l168.639 0.884c9.562 0 18.255 3.537 25.209 10.61l582.411 592.366c13.908 14.146 13.908 37.133 0 52.164l-166.9 171.521c-13.908 14.146-36.509 14.146-51.287 0l-116.483-119.358-465.928-473.009c-6.085-7.073-10.431-15.914-10.431-25.64zM619.79 870.615l117.351-119.358-66.064-67.194-117.351 119.358 66.064 67.194zM73.018 314.497l429.419 436.76 117.351-119.358-429.419-435.875-118.221-0.884 0.87 119.358z" />
<glyph unicode="&#xe93c;" glyph-name="flag" d="M172.549 275.451c-29.322-29.322-79.458-8.555-79.458 32.913v558.545c0 12.345 4.904 24.184 13.633 32.913 10.22 10.22 28.606 22.478 56.353 33.576 42.022 16.809 95.884 26.602 162.741 26.602 65.935 0 110.901-12.847 203.468-49.875 81.978-32.791 118.466-43.216 168.895-43.216 55.324 0 97.463 7.662 128.168 19.944 15.889 6.356 23.685 11.553 25.101 12.969 29.322 29.322 79.458 8.555 79.458-32.913v-558.545c0-12.345-4.904-24.184-13.633-32.913-10.22-10.22-28.606-22.478-56.353-33.576-42.022-16.809-95.884-26.602-162.741-26.602-65.935 0-110.901 12.847-203.468 49.875-81.978 32.791-118.466 43.216-168.895 43.216-55.324 0-97.463-7.662-128.168-19.944-15.889-6.356-23.685-11.553-25.101-12.969zM325.818 401.455c65.935 0 110.901-12.847 203.468-49.875 81.978-32.791 118.466-43.216 168.895-43.216 55.324 0 97.463 7.662 128.168 19.944 4.443 1.777 8.253 3.464 11.468 5.003v458.961c-38.126-11.781-84.454-18.452-139.636-18.452-65.935 0-110.901 12.847-203.468 49.875-81.978 32.791-118.466 43.216-168.895 43.216-55.324 0-97.463-7.662-128.168-19.944-4.443-1.777-8.253-3.464-11.468-5.003v-458.961c38.126 11.781 84.454 18.452 139.636 18.452zM186.182-17.455c0-25.706-20.839-46.545-46.545-46.545s-46.545 20.839-46.545 46.545v325.818c0 25.706 20.839 46.545 46.545 46.545s46.545-20.839 46.545-46.545v-325.818z" />
<glyph unicode="&#xe93d;" glyph-name="star" d="M1023.999 555.741c0 14.889-11.484 24.142-34.469 27.767l-308.912 44.052-138.459 274.621c-7.79 16.497-17.849 24.742-30.155 24.742-12.303 0-22.356-8.244-30.152-24.742l-138.466-274.621-308.927-44.052c-22.968-3.626-34.457-12.878-34.457-27.767 0-8.454 5.13-18.11 15.388-28.974l224.003-213.658-52.923-301.771c-0.821-5.636-1.229-9.671-1.229-12.075 0-8.449 2.151-15.589 6.458-21.428 4.304-5.847 10.762-8.756 19.382-8.756 7.389 0 15.59 2.404 24.615 7.237l276.303 142.454 276.316-142.439c8.622-4.833 16.825-7.251 24.607-7.251 16.838 0 25.249 10.041 25.249 30.169 0 5.224-0.207 9.247-0.619 12.083l-52.919 301.76 223.378 213.66c10.665 10.477 15.991 20.138 15.991 28.989zM699.699 340.267l44.297-254.103-231.999 120.119-232.62-120.119 44.926 254.103-188.311 179.265 259.697 37.418 116.306 230.561 116.302-230.561 259.719-37.418-188.315-179.265z" />
<glyph unicode="&#xe93e;" glyph-name="airplane" d="M990.468 428.863l-59.76 32.671v107.347c0 14.935-6.338 28.937-15.393 38.271-9.961 10.268-22.636 15.869-37.124 15.869-13.582 0-26.258-5.601-36.219-14.935l-0.905-0.933c-9.961-10.268-15.393-23.337-15.393-38.271v-48.54l-42.556 23.337v109.214c0 14.001-5.432 28.004-14.488 37.338l-0.905 0.933c-9.961 10.268-22.636 15.869-37.124 15.869s-28.070-6.534-37.124-15.869c-9.961-10.268-15.393-23.337-15.393-38.271v-51.34l-56.139 30.804 6.338 210.028c0 2.8 0 2.8 0 2.8 0 30.804-12.677 59.741-32.597 80.278s-47.99 33.604-77.87 34.538c-2.716 0-2.716 0-3.622 0 0 0-0.905 0-3.622 0-29.881-0.933-57.949-14.001-77.87-34.538s-32.597-48.54-32.597-80.278c0-0.933 0-0.933 0-2.8l6.338-210.028-56.139-30.804v51.34c0 14.001-5.432 28.004-14.488 37.338l-0.905 0.933c-9.961 10.268-22.636 15.869-37.124 15.869s-28.070-6.534-37.124-15.869c-9.961-10.268-15.393-23.337-15.393-38.271v-109.214l-42.556-23.337v48.54c0 14.935-6.338 28.937-15.393 38.271-9.961 10.268-22.636 15.869-37.124 15.869s-28.070-6.534-37.124-15.869c-9.961-10.268-15.393-23.337-15.393-38.271v-107.347l-62.476-31.737c-6.338-2.8-10.866-9.334-10.866-16.803v-126.95c0-1.867 0-3.734 0.905-4.667 2.716-10.268 12.677-15.869 22.636-13.068l364.9 108.28 7.243-241.765-115.899-64.408c-6.338-2.8-10.866-9.334-10.866-16.803v-98.013c0-1.867 0-3.734 0.905-4.667 2.716-10.268 12.677-15.869 22.636-13.068l167.51 49.474h0.905l28.975 10.268 28.975-10.268c0.905 0 0.905 0 1.811-0.933l166.605-49.474c1.811-0.933 3.622-0.933 5.432-0.933 9.961 0 18.109 8.401 18.109 18.67v98.013c0 6.534-3.622 13.068-9.961 16.803l-117.711 65.342 4.527 240.832 363.995-107.347c1.811-0.933 3.622-0.933 5.432-0.933 9.961 0 18.109 8.401 18.109 18.67v126.016c0.905 6.534-2.716 13.068-9.055 16.803zM600.214 418.596c-9.961 2.8-19.92-2.8-22.636-13.068-0.905-1.867-0.905-3.734-0.905-5.601l-8.149-276.302c0-7.467 3.622-14.001 9.961-16.803l117.711-65.342v-62.542l-143.969 42.939-34.408 12.135c-3.622 0.933-8.149 0.933-11.771 0l-34.408-12.135-143.969-42.939v62.542l117.711 65.342c6.338 3.734 9.961 10.268 9.055 16.803l-8.149 277.235c0 10.268-8.149 18.67-18.109 17.736-1.811 0-2.716 0-4.527-0.933l-363.090-107.347v91.479l59.76 32.671c6.338 3.734 9.055 9.334 9.961 16.803v117.616c0 4.667 1.811 9.334 4.527 12.135s7.243 5.601 11.771 5.601c4.527 0 9.055-1.867 11.771-4.667s5.432-7.467 5.432-12.135v-79.344c0-10.268 8.149-18.67 18.109-18.67 3.622 0 7.243 0.933 9.961 2.8l76.964 42.939c6.338 3.734 9.055 9.334 9.961 16.803v118.549c0 4.667 1.811 9.334 4.527 12.135s7.243 4.667 11.771 4.667c4.527 0 9.055-1.867 11.771-4.667l0.905-0.933c2.716-2.8 4.527-7.467 4.527-12.135v-82.144c0-10.268 8.149-18.67 18.109-18.67 3.622 0 7.243 0.933 9.961 2.8l90.546 50.407c6.338 3.734 9.961 10.268 9.055 16.803l-6.338 221.229c0 0.933 0 0 0 1.867 0 20.536 8.149 40.138 21.731 53.207 13.582 14.001 32.597 23.337 53.422 23.337 0.905 0 0 0 2.716 0s1.811 0 2.716 0c20.825-0.933 39.84-9.334 53.422-23.337s22.636-32.671 22.636-53.207c0-1.867 0-1.867 0-1.867l-6.338-221.229c0-7.467 3.622-14.001 9.961-16.803l92.357-51.34c9.055-4.667 19.92-0.933 24.447 7.467 1.811 2.8 1.811 5.601 1.811 8.401v82.144c0 4.667 1.811 9.334 5.432 12.135 2.716 2.8 7.243 4.667 11.771 4.667s9.055-1.867 11.771-4.667l0.905-0.933c2.716-2.8 4.527-7.467 4.527-12.135v-117.616c0-7.467 4.527-14.001 10.866-16.803l76.964-42.939c9.055-4.667 19.92-0.933 24.447 7.467 1.811 2.8 1.811 5.601 1.811 8.401v79.344c0 4.667 1.811 9.334 5.432 12.135 0 0 0 0.933 0.905 0.933 2.716 2.8 7.243 4.667 10.866 4.667 4.527 0 9.055-1.867 11.771-4.667s4.527-7.467 4.527-12.135v-117.616c0-7.467 4.527-14.001 10.866-16.803l58.855-32.671v-91.479l-363.995 108.28z" />
<glyph unicode="&#xe93f;" glyph-name="bar-chart" d="M999.808 38.401h-975.616c-13.362 0-24.192-9.168-24.192-20.48 0-11.308 10.83-20.48 24.192-20.48h975.616c13.358 0 24.192 9.171 24.192 20.48s-10.83 20.48-24.192 20.48zM958.763 782.168h-170.51c-13.406 0-24.279-11.041-24.279-24.655v-167.626h-121.954v284.017c0 13.614-10.873 24.655-24.279 24.655h-170.515c-13.406 0-24.279-11.041-24.279-24.655v-466.519h-121.954v209.571c0 13.617-10.873 24.655-24.279 24.655h-170.51c-13.41 0-24.279-11.037-24.279-24.655v-471.982c0-13.617 10.873-24.655 24.279-24.655h852.56c13.41 0 24.279 11.041 24.279 24.655v612.539c0.002 13.614-10.867 24.655-24.277 24.655zM252.434 169.631h-121.954v422.673h121.954v-422.673zM422.949 169.631h-121.954v188.448h121.954v-188.448zM593.462 565.234v-395.604h-121.956v679.621h121.956v-284.017zM763.976 169.631h-121.954v370.949h121.954v-370.949zM934.488 169.631h-121.952v563.229h121.954v-563.229h-0.002z" />
<glyph unicode="&#xe940;" glyph-name="batman" d="M464.591 233.279l-208.41 85.39c-6.739 2.763-14.422 2.197-20.661-1.513-6.242-3.711-10.281-10.12-10.868-17.234-4.909-59.779 29.835-115.527 86.456-138.727 17.489-7.166 35.904-10.798 54.734-10.798 41.158 0 80.213 17.413 107.154 47.773 4.785 5.394 6.633 12.701 4.97 19.65-1.666 6.95-6.64 12.699-13.376 15.46zM365.841 194.917c-12.745 0-25.228 2.468-37.106 7.335-27.654 11.331-47.616 34.106-55.386 61.106l138.786-56.863c-14.025-7.515-29.915-11.578-46.294-11.578zM887.689 959.708c-11.031 1.757-21.727-4.552-25.273-14.899l-126.933-370.165c-65.442 43.874-143.647 67.744-223.484 67.744s-158.039-23.873-223.484-67.744l-126.931 370.163c-3.548 10.346-14.244 16.655-25.273 14.899-11.022-1.757-19.12-11.059-19.12-21.972v-800.319c0-8.477 4.929-16.219 12.713-19.965l372.021-179.155c3.177-1.529 6.626-2.295 10.074-2.295s6.9 0.766 10.074 2.295l372.021 179.155c7.784 3.749 12.713 11.489 12.713 19.965v800.321c0.002 10.913-8.094 20.215-19.118 21.972zM861.236 151.264l-349.234-168.182-349.237 168.182v649.939l92.552-269.905c2.377-6.932 8.088-12.284 15.276-14.314 7.19-2.032 14.943-0.483 20.741 4.141 62.058 49.488 140.425 76.744 220.666 76.744s158.607-27.254 220.666-76.744c5.8-4.624 13.551-6.168 20.741-4.141 7.19 2.030 12.9 7.382 15.276 14.314l92.554 269.905-0.002-649.939h0.002zM559.41 233.279c-6.739-2.76-11.712-8.51-13.376-15.46s0.184-14.258 4.97-19.65c26.941-30.362 65.996-47.773 107.154-47.773 18.829 0 37.244 3.633 54.734 10.798 56.622 23.198 91.365 78.948 86.456 138.727-0.585 7.114-4.626 13.523-10.868 17.234s-13.925 4.274-20.661 1.513l-208.41-85.39zM695.267 202.252c-11.879-4.867-24.362-7.335-37.106-7.335-16.379 0-32.267 4.063-46.292 11.576l138.786 56.863c-7.773-26.997-27.734-49.773-55.389-61.103z" />
<glyph unicode="&#xe941;" glyph-name="books" d="M1018.74 213.067c5.659 6.398 8.873 33.929-16.365 36.025h-846.223c-86.1 0-156.152-69.761-156.152-155.519 0-85.735 70.052-155.492 156.152-155.492h846.223c29.844 3.351 21.939 29.898 16.152 36.256-72.842 80.182-72.758 156.023 0.213 238.729zM957.453-18.519h-801.301c-62.073 0-112.571 50.284-112.571 112.093 0 61.813 50.498 112.12 112.571 112.12h801.896c-50.454-75.312-50.667-150.451-0.596-224.212zM21.625 292.498h846.221c86.1 0 156.154 69.761 156.154 155.496 0 85.754-70.052 155.517-156.154 155.517h-473.399v43.397h607.928c29.844 3.351 21.939 29.898 16.152 36.256-72.842 80.184-72.756 156.025 0.213 238.729 5.659 6.398 8.873 33.934-16.365 36.027h-846.223c-86.1-0.002-156.152-69.765-156.152-155.519 0-85.737 70.052-155.496 156.152-155.496h27.836v-43.397h-162.363c-25.238-2.094-22.024-29.625-16.365-36.025 72.971-82.707 73.055-158.547 0.213-238.731-5.787-6.356-13.692-32.903 16.152-36.254zM156.152 690.304c-62.073 0-112.571 50.284-112.571 112.097 0 61.81 50.498 112.116 112.571 112.116h801.896c-50.454-75.31-50.667-150.449-0.596-224.214h-563.006v112.109c0 11.992-9.747 21.7-21.79 21.7h-166.879c-12.046 0-21.79-9.707-21.79-21.7v-112.107h-27.836zM350.866 780.712v-271.152l-48.201 37.613c-3.958 3.074-8.704 4.618-13.448 4.618-4.746 0-9.492-1.544-13.45-4.618l-48.199-37.613v271.152h123.298zM183.988 560.11v-95.113c-1.262-18.886 13.162-37.378 35.238-17.079l69.991 54.607 69.989-54.607c22.929-18.505 36.994-1.089 35.24 17.079v95.113h473.399c62.073 0 112.571-50.307 112.571-112.118s-50.498-112.097-112.571-112.097h-801.299c50.074 73.763 49.858 148.905-0.596 224.216l118.036-0.002z" />
<glyph unicode="&#xe942;" glyph-name="briefcase" d="M139.638 708.85h-46.546v-331.991c0-26.18 20.852-47.428 46.546-47.428h302.546v47.428h-302.546v331.991zM884.365 708.85v-331.991h-302.546v-47.428h302.546c25.693 0 46.546 21.248 46.546 47.428v331.991h-46.546zM488.728 234.577h46.546c25.693 0 46.546 21.248 46.546 47.428v142.282c0 26.18-20.852 47.428-46.546 47.428h-46.546c-25.693 0-46.546-21.248-46.546-47.428v-142.282c0-26.18 20.852-47.428 46.546-47.428zM488.728 424.287h46.546v-142.282h-46.546v142.282zM977.456 756.278h-256v94.854c0 26.18-20.852 47.428-46.546 47.428h-325.818c-25.693 0-46.546-21.248-46.546-47.428v-94.854h-256c-25.693 0-46.546-21.248-46.546-47.428v-663.983c0-26.18 20.852-47.428 46.546-47.428h930.908c25.693 0 46.546 21.248 46.546 47.428v663.983c0 26.18-20.852 47.428-46.546 47.428zM349.092 851.132h325.818v-94.854h-325.818v94.854zM977.456 44.868h-930.908v663.983h930.908v-663.983z" />
<glyph unicode="&#xe943;" glyph-name="car" d="M883.744 471.84l-47.616 203.097c-15.552 66.284-79.047 115.112-152.935 118.978v3.055c0 89.888-73.13 163.029-163.023 163.029h-16.34c-89.893 0-163.042-73.141-163.042-163.031v-3.057c-73.881-3.874-137.362-52.698-152.912-118.976l-47.639-203.097c-78.769-7.922-140.238-68.752-140.238-142.369v-122.895c0-65.519 48.692-120.868 114.916-137.853v-40.456c0-50.87 45.148-92.264 100.659-92.264h16.957c55.509 0 100.659 41.395 100.659 92.264v35.054h357.598v-35.054c0-50.87 45.15-92.264 100.659-92.264h16.98c55.511 0 100.659 41.395 100.659 92.264v40.458c66.23 16.99 114.914 72.336 114.914 137.851v122.895c0 73.626-61.469 134.455-140.255 142.372zM503.829 916.426h16.34c65.875 0 119.449-53.587 119.449-119.457v-2.777h-255.256v2.777c0 65.87 53.597 119.457 119.467 119.457zM230.3 664.979c11.636 49.626 62.086 85.638 119.956 85.638h323.49c57.873 0 108.318-36.009 119.956-85.638l45.081-192.265h-653.583l45.1 192.265zM289.619 28.265c0-26.85-25.617-48.69-57.085-48.69h-16.957c-31.47 0-57.085 21.84-57.085 48.69v35.054h131.126v-35.054zM808.426-20.425h-16.98c-31.468 0-57.085 21.84-57.085 48.69v35.054h131.147v-35.054c0-26.85-25.617-48.69-57.083-48.69zM980.425 206.574c0-54.966-51.21-99.681-114.149-99.681h-708.574c-62.936 0-114.128 44.713-114.128 99.681v122.895c0 54.955 51.192 99.671 114.128 99.671h708.574c62.936 0 114.149-44.713 114.149-99.671v-122.895zM808.595 353.456c-54.107 0-98.128-40.373-98.128-89.999 0-49.618 44.022-89.989 98.128-89.989s98.105 40.371 98.105 89.989c0 49.628-43.999 89.999-98.105 89.999zM808.595 217.042c-30.085 0-54.552 20.821-54.552 46.414 0 25.596 24.469 46.425 54.552 46.425 30.064 0 54.531-20.829 54.531-46.425 0-25.594-24.467-46.414-54.531-46.414zM215.406 353.456c-54.107 0-98.128-40.373-98.128-89.999 0-49.618 44.022-89.989 98.128-89.989s98.105 40.371 98.105 89.989c0 49.628-43.999 89.999-98.105 89.999zM215.406 217.042c-30.087 0-54.552 20.821-54.552 46.414 0 25.596 24.467 46.425 54.552 46.425 30.062 0 54.531-20.829 54.531-46.425 0-25.594-24.469-46.414-54.531-46.414zM393.256 337.287h237.47v-46.545h-237.47v46.545zM393.256 233.213h237.47v-46.545h-237.47v46.545z" />
<glyph unicode="&#xe944;" glyph-name="chair" d="M757.432 445.354l35.364 445.354c1.381 17.792-4.43 35.542-15.935 48.64-11.503 13.142-27.885 20.652-44.915 20.652-22.356 0-41.909-13.398-52.354-32.81-19.147 20.778-45.527 32.81-73.046 32.81h-189.095c-27.557 0-54.019-12.074-73.124-32.896-10.569 19.456-30.16 32.854-52.598 32.854h-0.162c-16.868 0-33.169-7.466-44.591-20.522-11.463-13.014-17.194-30.634-15.813-48.298l35.404-445.782c-45.567-10.538-79.751-53.12-79.751-104.022v-384c0-11.776 9.106-21.334 20.325-21.334h81.296c11.219 0 20.325 9.558 20.325 21.334v234.666h406.478v-234.666c0-11.776 9.106-21.334 20.325-21.334h81.294c11.219 0 20.325 9.558 20.325 21.334v384c0 50.9-34.226 93.482-79.751 104.020zM679.022 482.006l33.047 416.128c1.381 16.854 23.861 24.79 34.916 12.288 3.902-4.438 5.813-10.198 5.326-16.214l-35.446-446.208h-40.525l2.683 34.006zM372.578 896.64c11.707 13.354 27.599 20.694 44.875 20.694h189.095c17.234 0 33.169-7.338 44.875-20.694 11.667-13.312 17.316-30.592 15.893-48.64l-31.745-400h-247.1l-31.787 400.042c-1.421 18.048 4.228 35.286 15.895 48.598zM276.852 910.55c3.82 4.394 9.024 6.784 14.673 6.784h0.162c10.487 0 19.389-8.576 20.243-19.542l30.282-381.142 5.447-68.65h-40.525l-35.486 446.678c-0.448 5.888 1.381 11.52 5.204 15.872zM268.112-21.334h-40.647v213.334h40.647v-213.334zM268.112 234.666h-40.647v42.666h40.647v-42.666zM715.239 234.666h-406.48v42.666h406.48v-42.666zM796.534-21.334h-40.647v213.334h40.647v-213.334zM796.534 234.666h-40.647v42.666h40.647v-42.666zM796.536 320h-569.071v21.334c0 35.286 27.355 64 60.972 64h447.127c33.616 0 60.972-28.714 60.972-64v-21.334z" />
</font>
</defs>
</svg>
